<svg width="62" height="62" viewBox="0 0 62 62" fill="none" xmlns="http://www.w3.org/2000/svg">
<path d="M39.7309 52.8138C39.6897 53.5198 39.9537 54.7211 39.2089 55.0904C39.0362 55.1768 38.704 55.22 38.2123 55.22C30.7586 55.2183 23.3057 55.2179 15.8536 55.2188C15.1307 55.2188 14.5312 55.025 14.5312 54.2197C14.5312 43.9889 14.5312 33.7581 14.5312 23.5273C14.5312 22.7014 14.8243 22.2849 15.6611 22.2837C17.4968 22.2804 19.3439 22.28 21.2023 22.2825C21.2742 22.2825 21.3101 22.2465 21.3101 22.1747C21.3149 21.2608 21.3149 20.3276 21.3101 19.375C21.3052 18.6242 21.9107 18.4099 22.5888 18.4087C23.112 18.4087 23.6355 18.4071 24.1594 18.4038C24.1751 18.4038 24.1902 18.3976 24.2014 18.3864C24.2125 18.3753 24.2188 18.3602 24.2188 18.3445V16.5305C24.2188 16.5141 24.2122 16.4984 24.2007 16.4868C24.1891 16.4753 24.1734 16.4688 24.157 16.4688C23.8244 16.4679 23.2399 16.4696 22.4036 16.4736C21.7739 16.4768 21.4106 16.1733 21.3137 15.563C21.3073 15.5226 21.2834 15.5024 21.2423 15.5024C20.464 15.4976 19.6862 15.4972 18.9088 15.5012C18.1447 15.5048 17.4351 15.3934 17.4351 14.501C17.4367 13.3118 17.4379 12.1227 17.4387 10.9336C17.4399 10.1041 17.7281 9.69113 18.5673 9.68992C19.4586 9.68831 20.3498 9.6875 21.2411 9.6875C21.2822 9.6875 21.3056 9.66732 21.3113 9.62695C21.4312 8.80957 21.964 8.71512 22.7232 8.71875C23.1019 8.72036 23.4797 8.71915 23.8567 8.71512C23.863 8.71485 23.8691 8.71274 23.8743 8.70905C23.8794 8.70537 23.8834 8.70027 23.8857 8.69437C23.888 8.68846 23.8886 8.68202 23.8873 8.67581C23.886 8.66961 23.8829 8.66391 23.8785 8.65941C22.276 7.17965 21.4235 5.35598 21.321 3.1884C21.2895 2.52359 21.562 1.9375 22.2812 1.9375C27.6869 1.9375 33.0925 1.9375 38.4981 1.9375C39.4003 1.9375 39.5153 2.30441 39.9234 2.95953C45.5325 11.9964 51.1415 21.0328 56.7506 30.0688C56.8668 30.2561 57.0134 30.4151 57.1902 30.5459C58.0079 31.1506 58.8201 31.7589 59.6266 32.3708C59.658 32.395 59.6621 32.4229 59.6387 32.4543L58.5513 33.9014C58.5254 33.9369 58.4947 33.9414 58.4592 33.9147L56.6634 32.5657C56.623 32.5359 56.5936 32.5439 56.575 32.59L47.6891 53.9134C47.6832 53.9278 47.6819 53.9437 47.6856 53.9588C47.6894 53.9738 47.6978 53.9872 47.7097 53.9969L52.8877 58.3079C52.9208 58.3353 52.9232 58.3656 52.895 58.3987L51.7373 59.7828C51.7074 59.8191 51.6743 59.8219 51.638 59.7913C49.8515 58.3002 48.0653 56.8132 46.2796 55.3302C46.0867 55.1703 45.8735 55.0468 45.6402 54.9596C43.6906 54.229 41.7434 53.4992 39.7987 52.7702C39.7559 52.7541 39.7333 52.7686 39.7309 52.8138ZM47.4688 43.6555V45.4731C47.4688 45.5208 47.4453 45.5434 47.3985 45.5409C44.2517 45.4319 41.7095 44.1609 39.772 41.7277C39.768 41.7228 39.7626 41.7192 39.7565 41.7175C39.7504 41.7157 39.7439 41.7158 39.7381 41.7178C39.7322 41.7198 39.7271 41.7236 39.7237 41.7287C39.7202 41.7337 39.7185 41.7397 39.7188 41.7459V50.6087C39.7188 50.6491 39.7373 50.6761 39.7745 50.6898L45.8982 52.987C45.9434 53.0039 45.9753 52.9902 45.9938 52.9458L55.0759 31.1502C55.0928 31.1082 55.0896 31.0678 55.0662 31.0291L38.2571 3.94887C38.2265 3.89882 38.1817 3.87379 38.1227 3.87379L23.4026 3.875C23.3622 3.875 23.3453 3.89518 23.3517 3.93555C23.7453 6.22059 25.5205 8.0491 27.7426 8.55769C28.2173 8.66668 29.0201 8.72036 30.1511 8.71875C31.3395 8.71714 32.5282 8.71794 33.7173 8.72117C34.1569 8.72117 34.6352 8.85195 34.783 9.26367C36.404 13.7998 38.0303 18.3534 39.6618 22.9243C39.6998 23.0292 39.7188 23.1378 39.7188 23.25V26.0049C39.7188 26.1058 39.7692 26.1562 39.8701 26.1562H42.6274C42.8017 26.1562 42.9729 26.2035 43.1227 26.2931L47.9107 29.1666C47.9495 29.1892 47.9572 29.2199 47.9338 29.2587L47.0086 30.7966C46.9828 30.8385 46.9489 30.847 46.9069 30.822L42.4179 28.1277C42.38 28.1051 42.3392 28.0938 42.2956 28.0938H28.2185C28.1741 28.0938 28.1559 28.1155 28.164 28.1591C28.7937 31.4589 31.4577 33.9062 34.8447 33.9062C36.0791 33.9054 37.3146 33.9058 38.5514 33.9075C39.4051 33.9075 39.726 34.2938 39.7091 35.1596C39.6929 35.9895 39.7248 36.622 39.8047 37.0571C40.4974 40.828 43.5489 43.5259 47.4046 43.5901C47.4474 43.5909 47.4688 43.6127 47.4688 43.6555ZM31 10.7519C31 10.7265 30.9899 10.7022 30.972 10.6843C30.954 10.6663 30.9297 10.6562 30.9043 10.6562H23.3457C23.3203 10.6562 23.296 10.6663 23.278 10.6843C23.2601 10.7022 23.25 10.7265 23.25 10.7519V14.4356C23.25 14.461 23.2601 14.4853 23.278 14.5032C23.296 14.5212 23.3203 14.5312 23.3457 14.5312H30.9043C30.9297 14.5312 30.954 14.5212 30.972 14.5032C30.9899 14.4853 31 14.461 31 14.4356V10.7519ZM31.9627 18.405C32.4543 18.399 32.9339 18.8458 32.9351 19.2842C32.9383 20.2352 32.9391 21.193 32.9375 22.1577C32.9373 22.1739 32.9404 22.1899 32.9465 22.2049C32.9525 22.2199 32.9615 22.2335 32.9729 22.245C32.9843 22.2565 32.9978 22.2656 33.0127 22.2718C33.0276 22.278 33.0436 22.2812 33.0598 22.2812H37.3054C37.3522 22.2812 37.3675 22.259 37.3514 22.2146L33.2463 10.7192C33.2335 10.6843 33.2089 10.655 33.1767 10.6364C33.1445 10.6179 33.1069 10.6111 33.0703 10.6175C33.0337 10.6238 33.0004 10.6428 32.9764 10.6711C32.9523 10.6995 32.939 10.7353 32.9387 10.7725C32.9363 12.3007 32.9363 13.8664 32.9387 15.4697C32.9411 16.2471 32.3599 16.4651 31.6539 16.4663C31.1348 16.4679 30.6145 16.4688 30.093 16.4688C30.0518 16.4688 30.0312 16.4897 30.0312 16.5317L30.0325 18.3396C30.0325 18.3792 30.0522 18.3994 30.0918 18.4002C30.7255 18.4115 31.3492 18.4131 31.9627 18.405ZM21.3125 11.7037C21.3125 11.6825 21.3041 11.6622 21.2891 11.6472C21.2741 11.6322 21.2538 11.6238 21.2326 11.6238H19.4549C19.4337 11.6238 19.4134 11.6322 19.3984 11.6472C19.3834 11.6622 19.375 11.6825 19.375 11.7037V13.4814C19.375 13.5026 19.3834 13.5229 19.3984 13.5379C19.4134 13.5529 19.4337 13.5613 19.4549 13.5613H21.2326C21.2538 13.5613 21.2741 13.5529 21.2891 13.5379C21.3041 13.5229 21.3125 13.5026 21.3125 13.4814V11.7037ZM28.0938 16.562C28.0938 16.5373 28.0839 16.5135 28.0664 16.4961C28.049 16.4786 28.0252 16.4688 28.0005 16.4688H26.2495C26.2248 16.4688 26.201 16.4786 26.1836 16.4961C26.1661 16.5135 26.1562 16.5373 26.1562 16.562V18.313C26.1562 18.3377 26.1661 18.3615 26.1836 18.3789C26.201 18.3964 26.2248 18.4062 26.2495 18.4062H28.0005C28.0252 18.4062 28.049 18.3964 28.0664 18.3789C28.0839 18.3615 28.0938 18.3377 28.0938 18.313V16.562ZM31 20.4358C31 20.4114 30.9903 20.388 30.973 20.3707C30.9558 20.3534 30.9324 20.3438 30.908 20.3438H23.342C23.3176 20.3438 23.2942 20.3534 23.277 20.3707C23.2597 20.388 23.25 20.4114 23.25 20.4358V22.1892C23.25 22.2136 23.2597 22.237 23.277 22.2543C23.2942 22.2716 23.3176 22.2812 23.342 22.2812H30.908C30.9324 22.2812 30.9558 22.2716 30.973 22.2543C30.9903 22.237 31 22.2136 31 22.1892V20.4358ZM35.9794 42.6432C33.6108 48.004 27.0729 50.0335 22.0705 46.9783C20.6497 46.1097 19.534 44.9557 18.7235 43.5162C15.2675 37.3744 19.266 29.7467 26.3137 29.1049C26.3227 29.1041 26.3314 29.1013 26.3393 29.0969C26.3472 29.0924 26.354 29.0864 26.3593 29.0792C26.3645 29.0719 26.3682 29.0637 26.3699 29.0549C26.3717 29.0462 26.3715 29.0372 26.3694 29.0286C26.2459 28.4813 25.9855 27.1068 26.2919 26.6273C26.5474 26.2289 26.8646 26.1575 27.3636 26.1575C30.8123 26.1567 34.2538 26.1562 37.688 26.1562C37.7127 26.1562 37.7365 26.1466 37.7539 26.1293C37.7714 26.112 37.7812 26.0886 37.7812 26.0642V24.2793C37.7812 24.2389 37.7611 24.2188 37.7207 24.2188H16.5293C16.5132 24.2188 16.4978 24.2251 16.4865 24.2365C16.4751 24.2478 16.4688 24.2632 16.4688 24.2793V53.1602C16.4688 53.1923 16.4815 53.2231 16.5042 53.2458C16.5269 53.2685 16.5577 53.2812 16.5898 53.2812H37.7207C37.7368 53.2812 37.7522 53.2749 37.7635 53.2635C37.7749 53.2522 37.7812 53.2368 37.7812 53.2207V35.9043C37.7812 35.8639 37.7611 35.8438 37.7207 35.8438H36.4529C36.4004 35.8438 36.3814 35.8688 36.3959 35.9188C37.0603 38.2697 36.9215 40.5111 35.9794 42.6432ZM27.0209 31.0097C21.2205 31.0593 17.6095 37.292 20.2578 42.3513C22.5174 46.6671 28.2342 47.8441 32.0172 44.7635C34.5965 42.6637 35.6016 39.0394 34.3107 35.8716C34.2962 35.8369 34.2703 35.8179 34.2332 35.8147C32.7365 35.7001 31.3613 35.2338 30.1075 34.4161C30.0567 34.383 30.0312 34.3963 30.0312 34.456V35.7784C30.0312 35.8187 30.0514 35.8393 30.0918 35.8401C30.6125 35.8466 31.1328 35.8478 31.6527 35.8438C32.6142 35.8353 32.9363 36.1671 32.9363 37.1576C32.9371 38.2216 32.9379 39.2864 32.9387 40.3521C32.9399 41.4141 32.567 41.6623 31.5098 41.6562C31.04 41.6538 30.5685 41.6542 30.0954 41.6575C30.0535 41.6583 30.0321 41.6797 30.0312 41.7216C30.0304 42.2795 30.03 42.8377 30.03 43.3964C30.0288 44.2549 29.6401 44.5589 28.7791 44.5601C27.6021 44.5625 26.4251 44.5637 25.248 44.5637C24.3907 44.5637 24.2163 43.9582 24.22 43.1954C24.2216 42.7069 24.2208 42.2161 24.2175 41.7229C24.2167 41.6801 24.1949 41.6583 24.1521 41.6575C23.5951 41.655 23.0381 41.6542 22.4811 41.655C21.6177 41.6562 21.3173 41.2675 21.3149 40.4029C21.3109 39.2606 21.3109 38.1175 21.3149 36.9736C21.3186 36.1332 21.7279 35.8474 22.5586 35.8462C23.0857 35.8462 23.6157 35.845 24.1485 35.8425C24.1921 35.8425 24.2143 35.8207 24.2151 35.7771C24.2224 35.3073 24.2236 34.8367 24.2188 34.3652C24.2091 33.4304 24.4246 32.8866 25.4624 32.9363C25.9556 32.9597 26.8994 32.9553 28.2936 32.923C28.3501 32.9214 28.3598 32.8996 28.3226 32.8576C27.8374 32.3127 27.4322 31.7141 27.1068 31.0618C27.0891 31.0262 27.0604 31.0089 27.0209 31.0097ZM25.1851 39.7284C25.9189 39.7284 26.1575 40.2867 26.1526 40.937C26.1502 41.4673 26.153 42.0018 26.1611 42.5402C26.1614 42.5628 26.1706 42.5844 26.1867 42.6002C26.2028 42.6161 26.2245 42.625 26.2471 42.625H28.032C28.0724 42.625 28.0925 42.6048 28.0925 42.5645C28.095 41.9929 28.0962 41.4209 28.0962 40.8486C28.0974 40.0094 28.5091 39.7236 29.3386 39.7212C29.8698 39.7204 30.403 39.7192 30.9382 39.7175C30.9794 39.7175 31 39.697 31 39.6558V37.8442C31 37.803 30.9798 37.7825 30.9395 37.7825C30.3824 37.78 29.8254 37.7792 29.2684 37.78C28.3747 37.78 28.095 37.3744 28.095 36.4904C28.0958 35.9745 28.095 35.4562 28.0925 34.9355C28.0925 34.8952 28.072 34.875 28.0308 34.875H26.218C26.1768 34.875 26.1562 34.8956 26.1562 34.9368C26.1571 35.5067 26.1558 36.0762 26.1526 36.6454C26.1466 37.5936 25.6501 37.7861 24.7625 37.7812C24.2797 37.7788 23.7957 37.7792 23.3105 37.7825C23.2702 37.7833 23.25 37.8039 23.25 37.8442V39.6534C23.25 39.6913 23.2694 39.7107 23.3081 39.7115C23.9418 39.7236 24.5675 39.7292 25.1851 39.7284Z" fill="#597B00"/>
<path d="M6.11767 6.01091L3.29555 4.92194C3.27309 4.91328 3.24786 4.92446 3.23919 4.94692L2.57308 6.67318C2.56442 6.69564 2.5756 6.72087 2.59806 6.72954L5.42017 7.8185C5.44263 7.82717 5.46787 7.81599 5.47654 7.79353L6.14264 6.06727C6.15131 6.04481 6.14013 6.01957 6.11767 6.01091Z" fill="#597B00"/>
<path d="M10.9621 7.87603L9.10708 7.16022C9.08462 7.15156 9.05938 7.16274 9.05071 7.1852L8.38461 8.91146C8.37594 8.93392 8.38712 8.95915 8.40958 8.96782L10.2646 9.68363C10.2871 9.69229 10.3123 9.68111 10.321 9.65865L10.9871 7.93239C10.9958 7.90993 10.9846 7.8847 10.9621 7.87603Z" fill="#597B00"/>
<path d="M15.8034 9.74029L13.3699 8.80129C13.3468 8.79238 13.3209 8.80387 13.312 8.82696L12.6468 10.551C12.6379 10.574 12.6493 10.6 12.6724 10.6089L15.1059 11.5479C15.129 11.5568 15.1549 11.5453 15.1638 11.5222L15.8291 9.79822C15.838 9.77513 15.8265 9.74919 15.8034 9.74029Z" fill="#597B00"/>
<path d="M6.72895 11.625H2.96051C2.93108 11.625 2.90723 11.6489 2.90723 11.6783V13.5092C2.90723 13.5386 2.93108 13.5625 2.96051 13.5625H6.72895C6.75837 13.5625 6.78223 13.5386 6.78223 13.5092V11.6783C6.78223 11.6489 6.75837 11.625 6.72895 11.625Z" fill="#597B00"/>
<path d="M12.5562 11.625H9.72504C9.70431 11.625 9.6875 11.6418 9.6875 11.6625V13.525C9.6875 13.5457 9.70431 13.5625 9.72504 13.5625H12.5562C12.5769 13.5625 12.5938 13.5457 12.5938 13.525V11.6625C12.5938 11.6418 12.5769 11.625 12.5562 11.625Z" fill="#597B00"/>
<path d="M14.0219 13.7094L12.1869 14.7099C12.1581 14.7256 12.1475 14.7616 12.1632 14.7904L13.0338 16.3873C13.0495 16.416 13.0856 16.4267 13.1143 16.411L14.9494 15.4105C14.9782 15.3948 14.9888 15.3587 14.9731 15.33L14.1024 13.7331C14.0867 13.7043 14.0507 13.6937 14.0219 13.7094Z" fill="#597B00"/>
<path d="M10.1608 15.8165L8.296 16.8332C8.27545 16.8444 8.26787 16.8702 8.27908 16.8907L9.16597 18.5174C9.17717 18.5379 9.20291 18.5455 9.22347 18.5343L11.0883 17.5176C11.1088 17.5064 11.1164 17.4806 11.1052 17.4601L10.2183 15.8334C10.2071 15.8129 10.1814 15.8053 10.1608 15.8165Z" fill="#597B00"/>
<path d="M6.28023 17.9364L3.45854 19.4749C3.43506 19.4877 3.4264 19.5171 3.4392 19.5406L4.32029 21.1566C4.3331 21.1801 4.36252 21.1888 4.38601 21.176L7.20769 19.6375C7.23118 19.6247 7.23984 19.5953 7.22704 19.5718L6.34594 17.9558C6.33314 17.9323 6.30372 17.9236 6.28023 17.9364Z" fill="#597B00"/>
</svg>
