<svg width="64" height="64" viewBox="0 0 64 64" fill="none" xmlns="http://www.w3.org/2000/svg">
<path d="M63 34.2759V39.4235C62.8345 40.1219 62.3905 40.4706 61.668 40.4698C60.9866 40.469 60.302 40.473 59.6142 40.4819C59.5739 40.4827 59.548 40.5025 59.5367 40.5412C58.2717 44.962 57.0091 49.3827 55.7489 53.8034C55.4672 54.7899 55.2104 55.4604 54.9788 55.8148C54.5154 56.5236 53.872 57.0023 53.0485 57.251C52.6497 57.3713 51.9922 57.4314 51.0759 57.4314C38.2706 57.4298 25.4658 57.4298 12.6613 57.4314C11.9089 57.4314 11.3458 57.3745 10.9721 57.2607C10.1349 57.0072 9.48262 56.5228 9.0152 55.8075C8.78835 55.4596 8.54333 54.8242 8.28016 53.9015C7.00867 49.4445 5.73598 44.9894 4.46207 40.5364C4.45077 40.496 4.42413 40.4759 4.38215 40.4759C3.78879 40.4775 3.19301 40.4775 2.5948 40.4759C1.73746 40.4734 1.18043 40.2869 1 39.4139V34.2577C1.1998 33.3761 1.76168 33.2102 2.63113 33.2127C3.20915 33.2151 3.79283 33.2139 4.38215 33.209C4.42493 33.2082 4.45198 33.1876 4.46328 33.1473C5.76383 28.6014 7.06276 24.0563 8.36008 19.5121C8.57078 18.7718 8.78229 18.2378 8.99461 17.91C9.4806 17.1601 10.1527 16.6616 11.0108 16.4145C11.3943 16.3047 12.03 16.2523 12.918 16.2571C14.0087 16.2636 15.0989 16.2628 16.1888 16.2547C16.2316 16.2539 16.2534 16.2321 16.2542 16.1893C16.2623 15.1342 16.2631 14.0831 16.2566 13.036C16.2526 12.4733 16.2986 12.0233 16.3946 11.6858C16.7894 10.3062 17.692 9.44073 19.1023 9.08956C19.7344 8.93214 20.5373 9.00116 21.242 8.99027C21.2816 8.98946 21.309 8.97049 21.3244 8.93335C21.8007 7.80395 22.5733 7.07618 23.6421 6.75003C24.0409 6.62732 24.7146 6.56678 25.6632 6.56839C29.9975 6.57243 34.3319 6.57283 38.6662 6.5696C39.4065 6.56879 39.9611 6.6249 40.33 6.73792C41.4215 7.07133 42.2034 7.80355 42.6756 8.93456C42.691 8.97251 42.7196 8.99148 42.7616 8.99148C43.539 8.99269 44.4061 8.92366 45.1108 9.14527C46.4324 9.5586 47.2639 10.4127 47.6054 11.7076C47.7063 12.0903 47.7527 12.6844 47.7446 13.4901C47.7357 14.3878 47.7365 15.2775 47.747 16.159C47.7474 16.1845 47.7577 16.2088 47.7758 16.2267C47.794 16.2446 47.8184 16.2547 47.8439 16.2547C48.9539 16.2611 50.0688 16.2619 51.1885 16.2571C52.0136 16.2531 52.6166 16.3068 52.9977 16.4182C53.8502 16.6668 54.5146 17.1572 54.9909 17.8894C55.2145 18.2334 55.451 18.8425 55.7005 19.7168C56.9768 24.1948 58.2555 28.672 59.5367 33.1485C59.548 33.188 59.5747 33.2082 59.6166 33.209C60.1648 33.2147 60.7089 33.2155 61.249 33.2114C62.1754 33.2066 62.7917 33.3119 63 34.2759ZM40.4681 10.1842C40.4681 9.86855 40.3427 9.56578 40.1194 9.34254C39.8962 9.11931 39.5934 8.9939 39.2777 8.9939H24.7247C24.409 8.9939 24.1062 9.11931 23.883 9.34254C23.6597 9.56578 23.5343 9.86855 23.5343 10.1842V10.223C23.5343 10.3793 23.5651 10.5341 23.6249 10.6785C23.6848 10.8229 23.7724 10.9542 23.883 11.0647C23.9935 11.1752 24.1247 11.2629 24.2692 11.3227C24.4136 11.3826 24.5684 11.4134 24.7247 11.4134H39.2777C39.4341 11.4134 39.5888 11.3826 39.7333 11.3227C39.8777 11.2629 40.0089 11.1752 40.1194 11.0647C40.23 10.9542 40.3177 10.8229 40.3775 10.6785C40.4373 10.5341 40.4681 10.3793 40.4681 10.223V10.1842ZM42.6684 11.4691C42.2106 12.5662 41.4429 13.323 40.347 13.6669C39.9918 13.7791 39.467 13.8352 38.7728 13.8352C34.4045 13.8352 30.0363 13.8364 25.668 13.8389C24.7138 13.8389 24.0369 13.7779 23.6373 13.656C22.57 13.3282 21.7983 12.5989 21.322 11.4678C21.3058 11.4299 21.2771 11.4109 21.236 11.4109C20.4513 11.4146 19.3263 11.2063 18.8601 12.0007C18.7406 12.2041 18.6809 12.5512 18.6809 13.0421C18.6793 14.0625 18.6789 15.0849 18.6797 16.1094C18.6797 16.1489 18.6954 16.1868 18.7233 16.2147C18.7512 16.2426 18.7891 16.2583 18.8286 16.2583H45.2586C45.2973 16.2583 45.3167 16.2389 45.3167 16.2002C45.3256 15.0482 45.3243 13.897 45.313 12.7466C45.2973 11.1482 43.8575 11.423 42.7531 11.4134C42.7128 11.4134 42.6845 11.4319 42.6684 11.4691ZM41.8461 29.0022C42.4371 27.8882 44.1142 28.3459 44.1106 29.6089C44.1074 30.7932 44.1074 31.965 44.1106 33.1243C44.1109 33.1475 44.1204 33.1697 44.1369 33.186C44.1534 33.2023 44.1757 33.2114 44.199 33.2114H56.978C56.9847 33.2115 56.9912 33.21 56.9972 33.2071C57.0032 33.2042 57.0084 33.1999 57.0124 33.1946C57.0164 33.1893 57.0191 33.1831 57.0203 33.1766C57.0215 33.17 57.0211 33.1633 57.0192 33.1569C55.7517 28.716 54.4851 24.2836 53.2193 19.8596C53.0182 19.1573 52.7034 18.6802 51.9502 18.6802C38.7631 18.6802 25.5756 18.6802 12.3877 18.6802C11.6575 18.6802 11.0726 18.8328 10.8655 19.5569C9.57061 24.0923 8.2737 28.6321 6.97477 33.1763C6.97342 33.1803 6.97305 33.1846 6.97369 33.1888C6.97433 33.193 6.97596 33.197 6.97844 33.2004C6.98093 33.2039 6.9842 33.2066 6.98799 33.2086C6.99177 33.2105 6.99595 33.2115 7.0002 33.2114H19.8277C19.8656 33.2114 19.885 33.1925 19.8858 33.1545C19.8971 31.9726 19.8975 30.7904 19.887 29.6077C19.8749 28.3604 21.5545 27.8869 22.1478 28.9901C22.256 29.1911 22.3105 29.4846 22.3113 29.8705C22.3129 30.9377 22.3133 32.0102 22.3125 33.0879C22.3123 33.1041 22.3154 33.1201 22.3215 33.1351C22.3275 33.1501 22.3365 33.1637 22.3479 33.1752C22.3593 33.1867 22.3728 33.1958 22.3877 33.202C22.4026 33.2082 22.4186 33.2114 22.4348 33.2114H27.0933C27.1103 33.2114 27.1266 33.2047 27.1387 33.1926C27.1507 33.1806 27.1575 33.1643 27.1575 33.1473C27.155 32.0235 27.1554 30.8941 27.1587 29.7591C27.1587 29.4967 27.1837 29.2981 27.2337 29.1633C27.5922 28.1982 28.9242 28.0868 29.4146 28.9925C29.5212 29.1887 29.5749 29.4676 29.5757 29.8293C29.5789 30.9191 29.5793 32.0154 29.5769 33.1182C29.5769 33.1429 29.5867 33.1666 29.6042 33.1841C29.6217 33.2016 29.6454 33.2114 29.6702 33.2114H34.3601C34.3981 33.2114 34.4174 33.1925 34.4182 33.1545C34.4271 31.9726 34.4271 30.7904 34.4182 29.6077C34.4086 28.3592 36.0857 27.8869 36.6791 28.9901C36.7872 29.1911 36.8417 29.4846 36.8425 29.8705C36.8442 30.9377 36.8446 32.0102 36.8438 33.0879C36.8436 33.1041 36.8466 33.1201 36.8527 33.1351C36.8588 33.1501 36.8678 33.1637 36.8791 33.1752C36.8905 33.1867 36.904 33.1958 36.919 33.202C36.9339 33.2082 36.9499 33.2114 36.9661 33.2114H41.6257C41.634 33.2114 41.6421 33.2098 41.6497 33.2066C41.6572 33.2034 41.6641 33.1988 41.6698 33.1929C41.6756 33.1871 41.6801 33.1801 41.6832 33.1725C41.6862 33.1648 41.6877 33.1567 41.6875 33.1485C41.6867 32.0417 41.6871 30.9329 41.6887 29.822C41.6895 29.4717 41.742 29.1984 41.8461 29.0022ZM60.5781 35.6648C60.5781 35.6564 60.5748 35.6484 60.5689 35.6425C60.563 35.6366 60.555 35.6333 60.5466 35.6333H3.45336C3.44501 35.6333 3.437 35.6366 3.4311 35.6425C3.42519 35.6484 3.42188 35.6564 3.42188 35.6648V38.0237C3.42188 38.0321 3.42519 38.0401 3.4311 38.046C3.437 38.0519 3.44501 38.0552 3.45336 38.0552H60.5466C60.555 38.0552 60.563 38.0519 60.5689 38.046C60.5748 38.0401 60.5781 38.0321 60.5781 38.0237V35.6648ZM53.2084 53.8276C54.492 49.4069 55.7602 44.9749 57.0131 40.5316C57.0228 40.4952 57.0091 40.4771 56.972 40.4771H7.05105C6.99697 40.4771 6.97759 40.5029 6.99293 40.5546C8.26038 45.0342 9.53872 49.5103 10.828 53.9827C11.0617 54.794 11.4976 55.0083 12.3489 55.0083C25.5497 55.0083 38.7502 55.0083 51.9502 55.0083C52.7179 55.0083 53.0025 54.536 53.2084 53.8276Z" fill="#597B00"/>
<path d="M21.1673 42.7949H21.0365C20.0741 42.7949 19.2939 43.5751 19.2939 44.5375V50.9482C19.2939 51.9105 20.0741 52.6907 21.0365 52.6907H21.1673C22.1296 52.6907 22.9098 51.9105 22.9098 50.9482V44.5375C22.9098 43.5751 22.1296 42.7949 21.1673 42.7949Z" fill="#597B00"/>
<path d="M28.4329 42.7949H28.3021C27.3397 42.7949 26.5596 43.5751 26.5596 44.5375V50.9482C26.5596 51.9105 27.3397 52.6907 28.3021 52.6907H28.4329C29.3953 52.6907 30.1754 51.9105 30.1754 50.9482V44.5375C30.1754 43.5751 29.3953 42.7949 28.4329 42.7949Z" fill="#597B00"/>
<path d="M35.6985 42.7949H35.5677C34.6054 42.7949 33.8252 43.5751 33.8252 44.5375V50.9482C33.8252 51.9105 34.6054 52.6907 35.5677 52.6907H35.6985C36.6609 52.6907 37.4411 51.9105 37.4411 50.9482V44.5375C37.4411 43.5751 36.6609 42.7949 35.6985 42.7949Z" fill="#597B00"/>
<path d="M42.9641 42.7949H42.8334C41.871 42.7949 41.0908 43.5751 41.0908 44.5375V50.9482C41.0908 51.9105 41.871 52.6907 42.8334 52.6907H42.9641C43.9265 52.6907 44.7067 51.9105 44.7067 50.9482V44.5375C44.7067 43.5751 43.9265 42.7949 42.9641 42.7949Z" fill="#597B00"/>
</svg>
