<svg width="64" height="64" viewBox="0 0 64 64" fill="none" xmlns="http://www.w3.org/2000/svg">
<g clip-path="url(#clip0_974_10594)">
<path d="M53.0698 22.0294C55.1415 22.0369 57.214 22.0378 59.2873 22.0319C59.824 22.0303 60.2561 22.0811 60.5836 22.1844C62.4923 22.7882 63.3923 24.8144 62.5598 26.6057C62.1573 27.4724 61.4269 28.0703 60.3686 28.3994C60.357 28.4031 60.3469 28.4103 60.3397 28.42C60.3325 28.4297 60.3286 28.4413 60.3286 28.4532C60.3303 31.7682 60.3307 35.0861 60.3298 38.4069C60.3298 40.2932 59.2073 41.9382 57.3973 42.4619C56.9457 42.5919 56.1328 42.6565 54.9586 42.6557C49.6986 42.6515 44.4369 42.6511 39.1736 42.6544C39.1691 42.6546 39.1647 42.6561 39.161 42.6588C39.1572 42.6614 39.1544 42.665 39.1526 42.6692C39.1509 42.6734 39.1505 42.6781 39.1513 42.6825C39.1521 42.687 39.1542 42.6911 39.1573 42.6944L44.1561 47.6932C44.1713 47.7083 44.1906 47.7187 44.2115 47.7229C44.2324 47.7271 44.254 47.725 44.2736 47.7169C48.0711 46.1532 52.3511 47.8794 53.8686 51.6519C55.7924 56.4332 52.3448 61.5994 47.2148 61.6682C44.1473 61.7094 41.5886 59.9107 40.3648 57.0957C40.3482 57.0582 40.319 57.0394 40.2773 57.0394H23.7186C23.6719 57.0394 23.6394 57.0607 23.6211 57.1032C21.5361 62.0182 15.1936 63.3007 11.5173 59.3157C8.07735 55.5857 9.44485 49.5782 14.1236 47.6694C15.9311 46.9319 17.8136 46.9465 19.7711 47.7132C19.7812 47.7169 19.7921 47.7177 19.8025 47.7155C19.8129 47.7133 19.8224 47.7082 19.8298 47.7007L24.8273 42.7019C24.8309 42.6981 24.8333 42.6933 24.8343 42.6882C24.8353 42.683 24.8347 42.6777 24.8327 42.6728C24.8308 42.668 24.8275 42.6638 24.8232 42.6607C24.8189 42.6577 24.8138 42.6559 24.8086 42.6557C19.1336 42.654 13.4682 42.6461 7.81235 42.6319C5.92985 42.6269 4.2936 41.4369 3.8061 39.6232C3.70776 39.2565 3.6586 38.6082 3.6586 37.6782C3.66026 34.6007 3.65985 31.5232 3.65735 28.4457C3.65735 28.404 3.63735 28.3774 3.59735 28.3657C0.348598 27.4557 0.256098 22.9907 3.59735 22.1232C3.64068 22.1124 3.66401 22.0844 3.66735 22.0394C4.03318 16.2994 6.26235 11.534 10.3548 7.74319C13.5686 4.76569 17.6611 2.94944 22.0048 2.45444C22.6298 2.38278 23.4611 2.34528 24.4986 2.34194C26.9994 2.33278 29.4998 2.33153 31.9998 2.33819C32.7923 2.34069 32.8723 2.99694 32.8723 3.67194C32.8715 9.78195 32.8715 15.8907 32.8723 21.9982C32.8723 22.0075 32.876 22.0164 32.8826 22.0229C32.8892 22.0295 32.8981 22.0332 32.9073 22.0332H45.4361C45.4736 22.0332 45.5061 22.0194 45.5336 21.9919C49.8136 17.7086 54.0823 13.439 58.3398 9.18319C60.1673 7.35569 63.2898 8.92945 62.8298 11.5194C62.734 12.0619 62.4857 12.5319 62.0848 12.9294C59.0615 15.9328 56.0486 18.9469 53.0461 21.9719C53.0078 22.0103 53.0157 22.0294 53.0698 22.0294ZM22.5023 4.16319C18.9848 4.48569 15.5648 5.82194 12.7723 7.99194C12.7685 7.99482 12.7655 7.99856 12.7634 8.00285C12.7613 8.00715 12.7603 8.01188 12.7605 8.01664C12.7606 8.02141 12.7618 8.02607 12.7641 8.03026C12.7664 8.03444 12.7697 8.03802 12.7736 8.04069L31.0786 21.1732C31.0827 21.1762 31.0876 21.178 31.0927 21.1784C31.0978 21.1788 31.1029 21.1778 31.1074 21.1755C31.112 21.1731 31.1158 21.1696 31.1184 21.1652C31.121 21.1608 31.1224 21.1558 31.1223 21.1507V4.1557C31.1223 4.1107 31.0998 4.08819 31.0548 4.08819C29.034 4.08486 27.0161 4.08444 25.0011 4.08694C23.8703 4.08861 23.0373 4.11403 22.5023 4.16319ZM11.3186 9.23569C7.79985 12.5544 5.6661 17.1307 5.4411 21.9694C5.43943 22.0119 5.45985 22.0332 5.50235 22.0332H29.1623C29.2365 22.0332 29.2436 22.0115 29.1836 21.9682L11.4286 9.22819C11.3894 9.19986 11.3528 9.20236 11.3186 9.23569ZM60.7461 11.7832C61.7573 10.7719 60.4348 9.5607 59.5448 10.4519C46.8282 23.1761 34.1132 35.8953 21.3998 48.6094C21.3913 48.6181 21.3865 48.6298 21.3865 48.6419C21.3865 48.6541 21.3913 48.6658 21.3998 48.6744L22.6036 49.8807C22.6228 49.8999 22.6415 49.8999 22.6598 49.8807C35.3507 37.184 48.0461 24.4849 60.7461 11.7832ZM4.43735 23.7782C2.38485 23.7769 2.3511 26.7182 4.4686 26.7182C16.5644 26.7149 28.6607 26.7119 40.7573 26.7094C40.7942 26.7094 40.8297 26.6946 40.8561 26.6682L43.6686 23.8557C43.7161 23.8074 43.7061 23.7832 43.6386 23.7832C30.5761 23.7832 17.509 23.7815 4.43735 23.7782ZM59.5623 26.7094C61.5998 26.7094 61.6123 23.7794 59.5923 23.7794C56.8265 23.7811 54.0578 23.7828 51.2861 23.7844C51.2428 23.7844 51.2057 23.7999 51.1748 23.8307L48.3498 26.6582C48.3453 26.6626 48.3422 26.6682 48.3409 26.6744C48.3396 26.6805 48.3403 26.687 48.3427 26.6928C48.3451 26.6986 48.3493 26.7035 48.3546 26.7069C48.3598 26.7104 48.3661 26.7121 48.3723 26.7119C52.0965 26.7119 55.8265 26.7111 59.5623 26.7094ZM5.59985 39.4519C5.95735 40.3269 6.83235 40.9019 7.8136 40.9019C14.0586 40.9044 20.3073 40.9044 26.5598 40.9019C26.6032 40.9019 26.6403 40.8865 26.6711 40.8557L38.9973 28.5319C39.044 28.4853 39.0344 28.4619 38.9686 28.4619H5.4836C5.43527 28.4619 5.4111 28.4861 5.4111 28.5344C5.40527 31.6628 5.40485 34.7819 5.40985 37.8919C5.41068 38.6244 5.47401 39.1444 5.59985 39.4519ZM56.1611 40.9019C57.1673 40.9007 58.0886 40.3032 58.4236 39.3769C58.5278 39.0894 58.5807 38.5394 58.5823 37.7269C58.5873 34.6678 58.5857 31.6044 58.5773 28.5369C58.5773 28.4869 58.5523 28.4619 58.5023 28.4619H46.6273C46.574 28.4619 46.5286 28.4807 46.4911 28.5182L35.7823 39.2282C35.7532 39.2574 35.7532 39.2865 35.7823 39.3157L37.3148 40.8519C37.349 40.8861 37.3898 40.9032 37.4373 40.9032C43.6798 40.904 49.9211 40.9036 56.1611 40.9019ZM34.5236 40.5337C34.5172 40.5274 34.5087 40.5238 34.4997 40.5238C34.4908 40.5238 34.4822 40.5274 34.4758 40.5337L33.2579 41.7517C33.2515 41.758 33.248 41.7666 33.248 41.7756C33.248 41.7845 33.2515 41.7931 33.2579 41.7994L41.3436 49.8852C41.35 49.8915 41.3585 49.8951 41.3675 49.8951C41.3764 49.8951 41.385 49.8915 41.3913 49.8852L42.6093 48.6672C42.6157 48.6609 42.6192 48.6523 42.6192 48.6433C42.6192 48.6344 42.6157 48.6258 42.6093 48.6195L34.5236 40.5337ZM40.3961 51.6519L40.4336 51.5432C40.4494 51.4974 40.4403 51.4574 40.4061 51.4232L32.0486 43.0607C32.0153 43.0282 31.9819 43.0282 31.9486 43.0607L23.6023 51.4082C23.5736 51.4366 23.5539 51.473 23.5458 51.5126C23.5378 51.5523 23.5417 51.5934 23.5571 51.6308C23.5725 51.6683 23.5987 51.7002 23.6324 51.7227C23.6661 51.7451 23.7056 51.7571 23.7461 51.7569L40.2498 51.7557C40.3232 51.7557 40.3719 51.7211 40.3961 51.6519ZM22.3873 54.3932C22.3873 52.9289 21.8056 51.5245 20.7702 50.4891C19.7348 49.4536 18.3304 48.8719 16.8661 48.8719C15.4018 48.8719 13.9974 49.4536 12.962 50.4891C11.9265 51.5245 11.3448 52.9289 11.3448 54.3932C11.3448 55.8575 11.9265 57.2619 12.962 58.2973C13.9974 59.3327 15.4018 59.9144 16.8661 59.9144C18.3304 59.9144 19.7348 59.3327 20.7702 58.2973C21.8056 57.2619 22.3873 55.8575 22.3873 54.3932ZM52.6398 54.3957C52.6398 52.931 52.058 51.5264 51.0223 50.4907C49.9867 49.455 48.582 48.8732 47.1173 48.8732C45.6527 48.8732 44.248 49.455 43.2123 50.4907C42.1767 51.5264 41.5948 52.931 41.5948 54.3957C41.5948 55.8604 42.1767 57.265 43.2123 58.3007C44.248 59.3364 45.6527 59.9182 47.1173 59.9182C48.582 59.9182 49.9867 59.3364 51.0223 58.3007C52.058 57.265 52.6398 55.8604 52.6398 54.3957ZM39.8698 53.5407C39.8698 53.5317 39.8663 53.5232 39.86 53.5168C39.8536 53.5105 39.845 53.5069 39.8361 53.5069H24.1536C24.1446 53.5069 24.1361 53.5105 24.1297 53.5168C24.1234 53.5232 24.1198 53.5317 24.1198 53.5407V55.2557C24.1198 55.2646 24.1234 55.2732 24.1297 55.2796C24.1361 55.2859 24.1446 55.2894 24.1536 55.2894H39.8361C39.845 55.2894 39.8536 55.2859 39.86 55.2796C39.8663 55.2732 39.8698 55.2646 39.8698 55.2557V53.5407Z" fill="#597B00"/>
<path d="M20.4311 54.3952C20.4311 55.3397 20.0559 56.2456 19.388 56.9134C18.7202 57.5813 17.8143 57.9565 16.8698 57.9565C15.9253 57.9565 15.0195 57.5813 14.3517 56.9134C13.6838 56.2456 13.3086 55.3397 13.3086 54.3952C13.3086 53.4507 13.6838 52.5449 14.3517 51.877C15.0195 51.2092 15.9253 50.834 16.8698 50.834C17.8143 50.834 18.7202 51.2092 19.388 51.877C20.0559 52.5449 20.4311 53.4507 20.4311 54.3952ZM18.6798 54.394C18.6798 53.9139 18.4891 53.4536 18.1497 53.1141C17.8103 52.7747 17.3499 52.584 16.8698 52.584C16.3898 52.584 15.9294 52.7747 15.59 53.1141C15.2505 53.4536 15.0598 53.9139 15.0598 54.394C15.0598 54.6317 15.1067 54.867 15.1976 55.0866C15.2886 55.3062 15.4219 55.5058 15.59 55.6738C15.7581 55.8419 15.9576 55.9752 16.1772 56.0662C16.3968 56.1572 16.6322 56.204 16.8698 56.204C17.1075 56.204 17.3429 56.1572 17.5625 56.0662C17.7821 55.9752 17.9816 55.8419 18.1497 55.6738C18.3178 55.5058 18.4511 55.3062 18.5421 55.0866C18.633 54.867 18.6798 54.6317 18.6798 54.394Z" fill="#597B00"/>
<path d="M50.6836 54.3945C50.6836 55.3394 50.3083 56.2455 49.6402 56.9136C48.9721 57.5817 48.0659 57.957 47.1211 57.957C46.1763 57.957 45.2701 57.5817 44.602 56.9136C43.9339 56.2455 43.5586 55.3394 43.5586 54.3945C43.5586 53.4497 43.9339 52.5436 44.602 51.8755C45.2701 51.2074 46.1763 50.832 47.1211 50.832C48.0659 50.832 48.9721 51.2074 49.6402 51.8755C50.3083 52.5436 50.6836 53.4497 50.6836 54.3945ZM48.9311 54.3945C48.9311 53.9145 48.7404 53.4541 48.401 53.1147C48.0615 52.7752 47.6011 52.5845 47.1211 52.5845C46.8834 52.5845 46.648 52.6313 46.4284 52.7223C46.2088 52.8133 46.0093 52.9466 45.8412 53.1147C45.6732 53.2827 45.5398 53.4823 45.4489 53.7019C45.3579 53.9215 45.3111 54.1568 45.3111 54.3945C45.3111 54.8746 45.5018 55.335 45.8412 55.6744C46.1807 56.0138 46.6411 56.2045 47.1211 56.2045C47.6011 56.2045 48.0615 56.0138 48.401 55.6744C48.7404 55.335 48.9311 54.8746 48.9311 54.3945Z" fill="#597B00"/>
</g>
<defs>
<clipPath id="clip0_974_10594">
<rect width="64" height="64" fill="white"/>
</clipPath>
</defs>
</svg>
