<svg width="64" height="64" viewBox="0 0 64 64" fill="none" xmlns="http://www.w3.org/2000/svg">
<path d="M14.4123 1H49.601C50.3929 1.13482 50.9233 1.51546 51.1921 2.14191C51.3149 2.4285 51.3762 2.92701 51.3762 3.63742C51.3754 12.9528 51.375 22.2677 51.375 31.5822C51.375 32.2046 51.3181 32.6914 50.7259 32.8973C50.5136 32.9708 50.3005 32.9708 50.0866 32.8973C49.5102 32.6975 49.4375 32.2228 49.4375 31.6319C49.4375 22.076 49.4375 12.5318 49.4375 2.99926C49.4375 2.98288 49.4309 2.96717 49.4191 2.95559C49.4072 2.94401 49.3912 2.9375 49.3745 2.9375H14.623C14.5843 2.9375 14.5649 2.95728 14.5649 2.99684C14.5609 12.5277 14.5605 22.0554 14.5637 31.5798C14.5637 32.2022 14.5056 32.6914 13.9134 32.8973C13.7019 32.9708 13.4892 32.9708 13.2753 32.8973C12.6977 32.6987 12.625 32.2228 12.625 31.6307C12.625 22.2532 12.625 12.8757 12.625 3.49816C12.625 2.8822 12.6835 2.43577 12.8006 2.15887C13.0743 1.51465 13.6115 1.12836 14.4123 1Z" fill="#597B00"/>
<path d="M18.4375 6.87305V15.4356C18.4375 15.448 18.4399 15.4603 18.4447 15.4717C18.4494 15.4832 18.4564 15.4936 18.4652 15.5024C18.4739 15.5111 18.4843 15.5181 18.4958 15.5228C18.5073 15.5276 18.5195 15.53 18.532 15.53C21.699 15.5317 24.8765 15.5321 28.0645 15.5312C28.8104 15.5312 29.2863 16.2324 28.9896 16.9045C28.7837 17.3707 28.3684 17.4663 27.8586 17.4675C24.7295 17.4692 21.6106 17.4696 18.5017 17.4687C18.4847 17.4687 18.4683 17.4755 18.4563 17.4875C18.4443 17.4996 18.4375 17.5159 18.4375 17.5329C18.4383 22.2241 18.4379 26.9072 18.4363 31.5822C18.4363 32.2059 18.3818 32.6914 17.7884 32.8973C17.5761 32.9708 17.3634 32.9708 17.1503 32.8973C16.5727 32.6975 16.5 32.2228 16.5 31.6307C16.5 23.0548 16.5 14.4793 16.5 5.9043C16.5 5.02152 17.1696 4.875 17.9398 4.875C27.4497 4.875 36.96 4.875 46.4707 4.875C47.3995 4.875 47.5 5.59672 47.5 6.38988C47.5 14.7865 47.5 23.1836 47.5 31.581C47.5 32.2046 47.4443 32.6914 46.8509 32.8973C46.6386 32.9708 46.4259 32.9708 46.2128 32.8973C45.6352 32.6975 45.5625 32.2228 45.5625 31.6307C45.5625 26.9298 45.5625 22.2402 45.5625 17.562C45.5625 17.5373 45.5527 17.5135 45.5352 17.4961C45.5177 17.4786 45.494 17.4687 45.4693 17.4687H33.0269C33.0192 17.4687 33.0117 17.4703 33.0046 17.4732C32.9976 17.4761 32.9912 17.4804 32.9858 17.4858C32.9804 17.4912 32.9761 17.4976 32.9732 17.5046C32.9703 17.5117 32.9688 17.5192 32.9688 17.5269C32.9696 22.2245 32.9692 26.9096 32.9675 31.5822C32.9675 32.2059 32.913 32.6914 32.3197 32.8973C32.1074 32.9708 31.8946 32.9708 31.6815 32.8973C31.1039 32.6975 31.0312 32.2228 31.0312 31.6307C31.0312 23.3769 31.0312 15.1353 31.0312 6.90574C31.0312 6.8935 31.0288 6.88137 31.0242 6.87006C31.0195 6.85875 31.0126 6.84847 31.0039 6.83981C30.9953 6.83115 30.985 6.82428 30.9737 6.8196C30.9624 6.81491 30.9503 6.8125 30.938 6.8125H18.498C18.4577 6.8125 18.4375 6.83268 18.4375 6.87305ZM45.5625 6.91906C45.5625 6.90507 45.5597 6.89121 45.5544 6.87828C45.549 6.86535 45.5412 6.85361 45.5313 6.84371C45.5214 6.83382 45.5096 6.82597 45.4967 6.82061C45.4838 6.81526 45.4699 6.8125 45.4559 6.8125H33.0753C33.0613 6.8125 33.0475 6.81526 33.0345 6.82061C33.0216 6.82597 33.0099 6.83382 33 6.84371C32.9901 6.85361 32.9822 6.86535 32.9769 6.87828C32.9715 6.89121 32.9688 6.90507 32.9688 6.91906V15.4247C32.9688 15.4529 32.98 15.4801 33 15.5C33.0199 15.52 33.0471 15.5312 33.0753 15.5312H45.4559C45.4842 15.5312 45.5113 15.52 45.5313 15.5C45.5513 15.4801 45.5625 15.4529 45.5625 15.4247V6.91906Z" fill="#597B00"/>
<path d="M56.174 62.9993H7.8092C7.14561 62.8612 6.81341 62.4471 6.8126 61.7568C6.81098 60.6678 6.81139 59.5735 6.81381 58.474C6.81381 58.4336 6.80291 58.3961 6.78112 58.3614C5.94315 56.997 5.42164 56.1179 5.21658 55.7239C4.54411 54.4331 4.23048 53.0413 4.27569 51.5486C4.2886 51.1095 4.39194 50.3098 4.58569 49.1498C5.26462 45.0778 5.94395 41.0062 6.62369 36.935C6.62934 36.8987 6.61401 36.8773 6.57768 36.8709C6.1151 36.7934 5.72639 36.8188 5.41154 36.9471C4.79154 37.2002 4.9974 37.9098 4.70072 38.3494C4.29748 38.9488 3.33963 38.8798 3.04658 38.2525C2.93921 38.0225 2.92065 37.7246 2.99088 37.3589C3.21773 36.1818 3.86235 35.423 4.92475 35.0823C5.2961 34.9636 5.8943 34.9043 6.71936 34.9043C23.6014 34.9059 40.4835 34.9059 57.3656 34.9043C58.1745 34.9043 58.7558 34.9644 59.1094 35.0847C60.0692 35.4109 60.6989 36.1286 60.9984 37.2378C61.1922 37.9559 60.9149 38.7708 60.0817 38.7648C59.7855 38.7632 59.5437 38.6477 59.3564 38.4184C59.0185 38.0055 59.2208 37.423 58.78 37.0767C58.4312 36.803 57.8427 36.7994 57.4274 36.86C57.3862 36.8664 57.3688 36.8898 57.3753 36.9302C58.0349 40.873 58.6928 44.8154 59.3491 48.7574C59.5679 50.0757 59.6878 50.8733 59.7088 51.1502C59.8258 52.7454 59.5352 54.2361 58.8369 55.6222C58.602 56.0896 58.0623 56.9999 57.2179 58.3529C57.1965 58.3869 57.1856 58.4265 57.1864 58.4667C57.1896 59.5461 57.1892 60.6226 57.1852 61.6963C57.1828 62.4342 56.8457 62.8685 56.174 62.9993ZM10.0325 55.6634C9.19855 53.9988 8.93981 52.2066 9.25627 50.2868C9.99091 45.8282 10.728 41.3687 11.4674 36.9084C11.4747 36.8648 11.4561 36.843 11.4117 36.843H8.66291C8.62335 36.843 8.60035 36.8624 8.59389 36.9011C7.88912 41.1047 7.18799 45.3083 6.49049 49.5118C6.30158 50.6501 6.21036 51.451 6.21682 51.9143C6.24588 53.8494 7.17951 55.4018 8.32748 57.1395C8.34847 57.171 8.37794 57.1868 8.41588 57.1868H10.8365C10.8874 57.1868 10.8999 57.1646 10.8741 57.1202C10.426 56.3758 10.1455 55.8903 10.0325 55.6634ZM11.798 54.8024C12.171 55.5379 12.6239 56.3149 13.1567 57.1335C13.1801 57.169 13.2128 57.1868 13.2548 57.1868H15.9564C16.0064 57.1868 16.0226 57.1634 16.0048 57.1165C15.8087 56.5982 15.6072 56.0824 15.4006 55.5689C14.8435 54.1836 14.6458 52.7458 14.8072 51.2556C15.3247 46.4732 15.8474 41.6908 16.3754 36.9084C16.3802 36.8648 16.3608 36.843 16.3172 36.843H13.5067C13.4679 36.843 13.4453 36.8624 13.4388 36.9011C12.7309 41.1152 12.0281 45.3289 11.3306 49.5421C11.1409 50.6917 11.0525 51.4929 11.0654 51.9458C11.0929 52.9444 11.3371 53.8966 11.798 54.8024ZM18.0731 57.0608C18.1062 57.1448 18.168 57.1868 18.2584 57.1868H20.9503C20.9963 57.1868 21.0133 57.1646 21.0012 57.1202C20.6367 55.7724 20.1583 54.4706 20.0627 53.0672C20.0336 52.6377 20.0554 51.9656 20.1281 51.0509C20.5051 46.3396 20.8817 41.6274 21.2579 36.9145C21.2619 36.8668 21.2401 36.843 21.1925 36.843H18.4073C18.3581 36.843 18.3306 36.8676 18.325 36.9169C17.7889 41.7566 17.2557 46.5963 16.7253 51.436C16.6026 52.5509 16.7395 53.6302 17.1358 54.6741C17.4265 55.4394 17.7389 56.235 18.0731 57.0608ZM26.1731 36.8672C26.1731 36.8608 26.1706 36.8546 26.1663 36.8501C26.162 36.8456 26.1562 36.843 26.1501 36.843H23.2583C23.2236 36.843 23.2051 36.8604 23.2026 36.8951C22.8151 41.7203 22.4313 46.5454 22.051 51.3706C21.9614 52.5041 21.982 53.405 22.246 54.4016C22.38 54.9054 22.642 55.816 23.0319 57.1335C23.0424 57.169 23.0662 57.1868 23.1033 57.1868H26.0641C26.1061 57.1868 26.1258 57.1658 26.1234 57.1238C26.0169 55.4248 25.8764 53.7404 25.9055 52.0415C25.9926 47.0056 26.0818 41.9475 26.1731 36.8672ZM28.1069 36.8648C28.0246 41.8272 27.9378 46.765 27.8466 51.6782C27.8127 53.5382 27.9301 55.311 28.067 57.1298C28.0702 57.1678 28.0908 57.1868 28.1287 57.1868H30.9405C30.9646 57.1868 30.9877 57.1772 31.0047 57.1602C31.0218 57.1431 31.0313 57.12 31.0313 57.0959V36.9338C31.0313 36.9097 31.0218 36.8866 31.0047 36.8696C30.9877 36.8526 30.9646 36.843 30.9405 36.843H28.1299C28.124 36.843 28.1184 36.8453 28.1141 36.8493C28.1098 36.8534 28.1072 36.8589 28.1069 36.8648ZM35.9284 57.1347C36.0204 55.6888 36.1597 54.1982 36.1379 52.7547C36.058 47.4791 35.9756 42.2006 35.8908 36.9193C35.89 36.8684 35.8642 36.843 35.8133 36.843H33.0439C33.0341 36.843 33.0243 36.845 33.0152 36.8488C33.0061 36.8526 32.9978 36.8583 32.9908 36.8654C32.9839 36.8724 32.9783 36.8808 32.9746 36.8901C32.9708 36.8994 32.9688 36.9093 32.9688 36.9193V57.0657C32.9688 57.0978 32.9816 57.1286 33.0043 57.1513C33.027 57.174 33.0578 57.1868 33.0899 57.1868H35.8727C35.9074 57.1868 35.926 57.1694 35.9284 57.1347ZM37.8271 36.86C37.9071 41.9039 37.9862 46.9237 38.0645 51.9192C38.0923 53.6678 37.9749 55.3825 37.8707 57.1202C37.8683 57.1646 37.8893 57.1868 37.9337 57.1868H40.8956C40.9328 57.1868 40.9562 57.1694 40.9659 57.1347C41.5399 55.1936 42.1223 53.6472 41.994 52.0088C41.5968 46.9802 41.1976 41.9491 40.7964 36.9157C40.7923 36.8672 40.7657 36.843 40.7164 36.843H37.8441C37.8396 36.843 37.8353 36.8448 37.8321 36.848C37.8289 36.8512 37.8271 36.8555 37.8271 36.86ZM42.9736 57.1638C42.9729 57.1664 42.9727 57.1693 42.9731 57.172C42.9735 57.1747 42.9746 57.1773 42.9761 57.1795C42.9776 57.1818 42.9796 57.1836 42.9819 57.1848C42.9842 57.1861 42.9868 57.1867 42.9894 57.1868H45.7987C45.8383 57.1868 45.8657 57.1686 45.8811 57.1323C46.8414 54.8969 47.5074 53.4341 47.2858 51.4336C46.7497 46.5971 46.2121 41.7582 45.6728 36.9169C45.6671 36.8676 45.6397 36.843 45.5905 36.843H42.8077C42.7609 36.843 42.7395 36.866 42.7435 36.912C43.1335 41.8648 43.523 46.8171 43.9121 51.769C44.0683 53.7647 43.5113 55.3534 42.9736 57.1638ZM48.6093 55.5738C48.3235 56.2842 48.1173 56.7964 47.9905 57.1105C47.9703 57.1613 47.9877 57.1868 48.0426 57.1868H50.766C50.8039 57.1868 50.8326 57.1706 50.852 57.1383C51.2411 56.5078 51.6197 55.8709 51.9878 55.2275C52.5917 54.1723 52.9061 53.0579 52.9312 51.8841C52.9408 51.4312 52.8508 50.6307 52.6611 49.4828C51.9652 45.2889 51.2653 41.095 50.5614 36.9011C50.5549 36.8624 50.5323 36.843 50.4935 36.843H47.683C47.6402 36.843 47.6212 36.8644 47.626 36.9072C48.1532 41.6904 48.6747 46.4732 49.1906 51.2556C49.3536 52.7652 49.1599 54.2046 48.6093 55.5738ZM54.75 50.2856C55.1714 52.8298 54.5151 55.0047 53.1213 57.1153C53.1167 57.1222 53.1141 57.1302 53.1137 57.1384C53.1132 57.1466 53.115 57.1549 53.1189 57.1622C53.1227 57.1695 53.1285 57.1756 53.1355 57.1799C53.1425 57.1843 53.1506 57.1866 53.1588 57.1868H55.5855C55.6235 57.1868 55.6529 57.171 55.6739 57.1395C56.8207 55.4006 57.7555 53.8506 57.7822 51.9155C57.7894 51.4522 57.6986 50.6513 57.5097 49.513C56.8122 45.3095 56.1107 41.1055 55.4051 36.9011C55.3986 36.8624 55.376 36.843 55.3373 36.843H52.5872C52.5429 36.843 52.5243 36.8652 52.5315 36.9096C53.2726 41.3699 54.0121 45.8286 54.75 50.2856ZM55.2501 59.1945C55.2501 59.1759 55.2427 59.158 55.2295 59.1448C55.2164 59.1317 55.1985 59.1243 55.1799 59.1243H8.82033C8.80171 59.1243 8.78384 59.1317 8.77067 59.1448C8.7575 59.158 8.7501 59.1759 8.7501 59.1945V60.9915C8.7501 61.0102 8.7575 61.028 8.77067 61.0412C8.78384 61.0544 8.80171 61.0618 8.82033 61.0618H55.1799C55.1985 61.0618 55.2164 61.0544 55.2295 61.0412C55.2427 61.028 55.2501 61.0102 55.2501 60.9915V59.1945Z" fill="#597B00"/>
</svg>
