<svg width="64" height="64" viewBox="0 0 64 64" fill="none" xmlns="http://www.w3.org/2000/svg">
<path d="M63 37.0085V37.3367C62.7885 39.0118 61.8867 39.9765 60.2948 40.2308C59.8467 40.3035 59.2606 40.255 58.7496 40.2696C58.7076 40.2712 58.6814 40.2922 58.6709 40.3325C57.8337 43.6368 57.0002 46.9418 56.1703 50.2477C55.9055 51.3036 55.6613 52.0705 55.4377 52.5485C54.4706 54.6135 52.833 55.9609 50.5249 56.5906C50.1156 56.702 49.624 56.7201 49.1735 56.7855C49.1283 56.7928 49.1158 56.8166 49.136 56.857C49.4799 57.5561 49.8282 58.254 50.181 58.9507C50.4959 59.5731 50.6254 60.095 50.1362 60.6169C49.9126 60.8543 49.6551 60.9491 49.3636 60.9015C49.0448 60.849 48.7997 60.6472 48.6286 60.296C48.3557 59.7382 47.7809 58.5927 46.9042 56.8594C46.8832 56.819 46.8505 56.7989 46.8061 56.7989H18.2825C18.2357 56.7989 18.2018 56.8198 18.1808 56.8618C17.6609 57.883 17.1479 58.9067 16.6417 59.9328C16.4463 60.3291 16.2614 60.5939 16.0871 60.7271C15.2661 61.3556 14.1387 60.4753 14.6388 59.4835C15.0771 58.6124 15.5147 57.7393 15.9514 56.8642C15.9732 56.8206 15.9599 56.7989 15.9115 56.7989C14.858 56.794 14.1964 56.7613 13.9268 56.7008C11.3798 56.1276 9.59523 54.729 8.5732 52.5049C8.35604 52.0326 8.11345 51.2641 7.84543 50.1992C7.01715 46.9111 6.18725 43.6222 5.35574 40.3325C5.34525 40.2922 5.31901 40.2712 5.27703 40.2696C4.75875 40.2538 4.15934 40.301 3.71492 40.232C2.11326 39.9809 1.20828 39.0114 1 37.3233V36.9903C1.23977 35.1602 2.29207 34.1806 4.15691 34.0514C4.17405 34.0503 4.19038 34.0437 4.20346 34.0325C4.21655 34.0214 4.2257 34.0064 4.22957 33.9896C4.93555 31.0555 7.69285 29.3614 10.627 30.1304C10.849 30.1885 11.2748 30.3544 11.9045 30.6281C11.9213 30.6354 11.9403 30.6361 11.9577 30.63C11.9752 30.624 11.9899 30.6116 11.9989 30.5954C13.5211 27.8175 16.9977 27.011 19.5322 28.8976C19.8785 29.1544 20.2236 29.5322 20.5639 29.8664C20.597 29.8995 20.6374 29.9177 20.685 29.9209C23.3289 30.1187 25.0008 31.4818 25.7007 34.0102C25.7104 34.0457 25.7338 34.0635 25.7709 34.0635H56.7334C56.7762 34.0635 56.7976 34.0421 56.7976 33.9993C56.8032 26.8096 56.8016 19.6247 56.7927 12.4446C56.7903 10.0288 55.7307 7.87335 53.7884 6.47956C51.6232 4.92835 48.3973 4.57717 46.1425 6.17077C44.5078 7.326 43.608 9.39671 43.4373 11.3766C43.4341 11.4145 43.4506 11.4387 43.4869 11.4492C45.7998 12.1104 47.1226 13.5999 47.4552 15.9176C47.5787 16.7858 47.3995 17.5257 46.3811 17.5306C45.2315 17.5354 42.6385 17.535 38.602 17.5294C37.8585 17.5281 37.2107 17.4058 37.178 16.563C37.0811 14.1133 38.8382 11.9917 41.2685 11.4626C41.2868 11.4587 41.3034 11.4492 41.3158 11.4352C41.3282 11.4212 41.3359 11.4037 41.3375 11.3851C41.6015 8.72463 42.5739 6.2519 44.7681 4.6135C47.8463 2.31514 52.2663 2.70628 55.227 4.97799C57.5968 6.79682 58.8695 9.5178 58.8695 12.5342C58.8679 19.6893 58.8675 26.8447 58.8683 34.0005C58.8683 34.0457 58.8909 34.0675 58.9361 34.0659C59.6348 34.0478 60.3916 34.0344 61.0201 34.279C62.198 34.7376 62.8579 35.6474 63 37.0085ZM45.3009 15.403C44.3019 12.6965 40.4875 12.7922 39.4679 15.4054C39.4517 15.4474 39.4658 15.4683 39.5102 15.4683H45.2561C45.3021 15.4683 45.3171 15.4465 45.3009 15.403ZM20.174 32.0122C19.4862 32.0727 19.2646 31.3147 18.9255 30.9405C18.3297 30.2866 17.5919 29.954 16.7119 29.9427C15.1135 29.9221 13.9619 30.9369 13.5344 32.4711C13.3407 33.1638 13.0077 33.6312 12.2242 33.4423C12.0789 33.4076 11.9287 33.3139 11.7737 33.1614C10.8134 32.218 9.61582 31.7482 8.27168 32.1623C7.3772 32.4384 6.7576 33.0548 6.41289 34.0114C6.40078 34.0461 6.41289 34.0635 6.44922 34.0635H23.5537C23.5941 34.0635 23.6074 34.0441 23.5937 34.0054C23.0475 32.505 21.6949 31.8802 20.174 32.0122ZM60.9257 37.1357C60.9257 36.8694 60.8199 36.6141 60.6316 36.4258C60.4434 36.2375 60.188 36.1318 59.9218 36.1318H4.0782C3.81196 36.1318 3.55662 36.2375 3.36836 36.4258C3.1801 36.6141 3.07434 36.8694 3.07434 37.1357V37.1962C3.07434 37.4624 3.1801 37.7178 3.36836 37.906C3.55662 38.0943 3.81196 38.2001 4.0782 38.2001H59.9218C60.188 38.2001 60.4434 38.0943 60.6316 37.906C60.8199 37.7178 60.9257 37.4624 60.9257 37.1962V37.1357ZM56.4779 40.3265C56.4795 40.3194 56.4795 40.312 56.4779 40.3049C56.4763 40.2978 56.4731 40.2911 56.4686 40.2854C56.4641 40.2797 56.4583 40.2751 56.4517 40.2719C56.4451 40.2688 56.438 40.2671 56.4307 40.2671H7.5427C7.53878 40.267 7.53489 40.2678 7.53133 40.2695C7.52777 40.2711 7.52464 40.2735 7.52218 40.2766C7.51972 40.2796 7.51799 40.2832 7.51714 40.287C7.51629 40.2908 7.51633 40.2948 7.51727 40.2986C8.31648 43.4438 9.11893 46.5911 9.92461 49.7403C10.1902 50.7761 10.4235 51.4869 10.6245 51.8728C11.5388 53.6322 13.314 54.7136 15.3193 54.716C26.5205 54.729 37.7217 54.7245 48.9229 54.7027C50.1709 54.7003 51.2466 54.3334 52.15 53.602C53.1373 52.802 53.7593 51.8578 54.0161 50.7696C54.8346 47.2999 55.6553 43.8188 56.4779 40.3265Z" fill="#597B00"/>
<path d="M38.2785 19.6211H38.1211C37.6001 19.6211 37.1777 20.0434 37.1777 20.5644V21.2207C37.1777 21.7417 37.6001 22.1641 38.1211 22.1641H38.2785C38.7995 22.1641 39.2218 21.7417 39.2218 21.2207V20.5644C39.2218 20.0434 38.7995 19.6211 38.2785 19.6211Z" fill="#597B00"/>
<path d="M42.4093 19.6192L42.2543 19.6194C41.732 19.6204 41.3093 20.0445 41.3102 20.5668L41.3114 21.2207C41.3123 21.7431 41.7365 22.1657 42.2588 22.1648L42.4138 22.1646C42.9361 22.1636 43.3588 21.7395 43.3579 21.2172L43.3567 20.5633C43.3558 20.0409 42.9317 19.6183 42.4093 19.6192Z" fill="#597B00"/>
<path d="M46.5526 19.619L46.3952 19.6182C45.8749 19.6155 45.4509 20.0351 45.4482 20.5554L45.4447 21.2165C45.442 21.7368 45.8616 22.1608 46.3819 22.1636L46.5393 22.1644C47.0596 22.1671 47.4836 21.7475 47.4863 21.2272L47.4898 20.5661C47.4925 20.0458 47.0729 19.6218 46.5526 19.619Z" fill="#597B00"/>
<path d="M38.2671 23.7479L38.1387 23.7475C37.6091 23.7456 37.1782 24.1735 37.1763 24.7032L37.172 25.9529C37.1701 26.4825 37.598 26.9134 38.1277 26.9153L38.256 26.9157C38.7857 26.9176 39.2166 26.4897 39.2184 25.96L39.2228 24.7103C39.2247 24.1807 38.7968 23.7498 38.2671 23.7479Z" fill="#597B00"/>
<path d="M42.4111 23.7497L42.2803 23.7486C41.7507 23.744 41.3175 24.1696 41.3129 24.6993L41.302 25.9465C41.2974 26.4761 41.723 26.9093 42.2527 26.9139L42.3835 26.915C42.9131 26.9196 43.3462 26.494 43.3509 25.9644L43.3617 24.7171C43.3664 24.1875 42.9407 23.7544 42.4111 23.7497Z" fill="#597B00"/>
<path d="M46.5366 23.7479L46.4059 23.7475C45.8775 23.7456 45.4477 24.1724 45.4459 24.7008L45.4415 25.9553C45.4397 26.4836 45.8665 26.9134 46.3948 26.9153L46.5256 26.9157C47.0539 26.9176 47.4837 26.4908 47.4856 25.9624L47.4899 24.7079C47.4918 24.1796 47.065 23.7498 46.5366 23.7479Z" fill="#597B00"/>
<path d="M38.2812 28.4043L38.1237 28.404C37.6034 28.4031 37.1809 28.8241 37.18 29.3445L37.1788 30.0056C37.1779 30.5259 37.599 30.9485 38.1193 30.9494L38.2767 30.9496C38.797 30.9506 39.2196 30.5295 39.2205 30.0092L39.2216 29.348C39.2225 28.8277 38.8015 28.4052 38.2812 28.4043Z" fill="#597B00"/>
<path d="M42.4103 28.4043L42.2529 28.4046C41.7319 28.4055 41.3103 28.8286 41.3112 29.3496L41.3124 30.0083C41.3133 30.5293 41.7364 30.9509 42.2573 30.95L42.4148 30.9497C42.9357 30.9488 43.3573 30.5257 43.3564 30.0048L43.3553 29.346C43.3544 28.825 42.9313 28.4034 42.4103 28.4043Z" fill="#597B00"/>
<path d="M46.5432 28.4023H46.3906C45.8696 28.4023 45.4473 28.8247 45.4473 29.3457V30.0068C45.4473 30.5278 45.8696 30.9502 46.3906 30.9502H46.5432C47.0641 30.9502 47.4865 30.5278 47.4865 30.0068V29.3457C47.4865 28.8247 47.0641 28.4023 46.5432 28.4023Z" fill="#597B00"/>
</svg>
