<svg width="64" height="64" viewBox="0 0 64 64" fill="none" xmlns="http://www.w3.org/2000/svg">
<g clip-path="url(#clip0_974_10359)">
<g clip-path="url(#clip1_974_10359)">
<g clip-path="url(#clip2_974_10359)">
<path d="M27.8762 0H28.5025C30.135 0.1975 31.3317 0.977917 32.0925 2.34125C32.6488 3.33875 33.0188 3.96875 33.9275 4.42125C40.3692 7.63208 46.3892 11.0963 51.9875 14.8138C52.915 15.43 53.6425 15.6862 54.6888 15.6412C55.1946 15.6196 55.5246 15.6187 55.6787 15.6388C60.0075 16.2013 61.1925 21.9113 57.3075 24C56.6617 24.3475 56.3375 24.5221 56.335 24.5238C55.7517 24.9288 55.3392 25.4329 55.0975 26.0362C53.4508 30.1521 51.2579 33.9562 48.5187 37.4487C48.5152 37.4532 48.513 37.4585 48.5124 37.4642C48.5117 37.4698 48.5127 37.4755 48.5152 37.4806C48.5177 37.4857 48.5216 37.49 48.5264 37.493C48.5312 37.496 48.5368 37.4976 48.5425 37.4975C49.6162 37.5037 50.8325 37.4637 51.7775 37.5387C58.5363 38.0775 63.5525 43.4275 64 50.16V51.35C63.5438 58.3425 58.1975 63.6712 51.1813 64H4.985C2.23875 63.7325 0.23125 61.8263 0 59.0513V58.3525C0.255 56.2583 1.34 54.7667 3.255 53.8775C3.2975 53.8575 3.30083 53.8321 3.265 53.8013C1.29917 52.0763 0.210833 49.8988 0 47.2687V46.325C0.3225 42.5842 2.16458 39.8988 5.52625 38.2687C5.56458 38.2504 5.58375 38.22 5.58375 38.1775C5.5775 36.97 5.93375 36.2675 6.55625 35.2887C7.195 34.2837 7.22375 33.4512 7.06 32.175C6.5175 27.9508 6.55292 23.7262 7.16625 19.5012C7.23292 19.0421 7.16458 18.5375 6.96125 17.9875C6.715 17.3212 6.1825 16.7725 5.925 16.095C5.4375 14.8075 5.47083 13.6008 6.025 12.475C7.18375 10.1213 10.0938 9.1575 12.42 10.6075C13.3625 11.1938 14.0262 11.5425 15.0312 11.4775C16.8088 11.3633 18.5875 11.2754 20.3675 11.2137C20.3872 11.213 20.4064 11.2076 20.4236 11.198C20.4408 11.1885 20.4554 11.175 20.4662 11.1587C21.155 10.1062 21.8488 9.10625 22.635 8.09625C23.3638 7.16125 23.7688 6.41125 23.745 5.22625C23.735 4.73 23.6675 4.18875 23.77 3.71875C24.2383 1.55292 25.6071 0.313333 27.8762 0ZM33.3525 6.92625C32.1175 6.35208 31.1479 5.55125 30.4438 4.52375C29.8763 3.69625 29.7013 2.73375 28.5425 2.5325C27.605 2.36875 26.6975 2.85625 26.3475 3.7525C26.11 4.3625 26.2812 5.21875 26.2488 5.7825C26.12 7.98625 24.745 9.375 23.5438 11.0638C23.5104 11.1104 23.5225 11.1333 23.58 11.1325C27.745 11.09 31.9054 11.2067 36.0612 11.4825C37.57 11.5825 38.4087 10.8712 39.5625 10.2525C39.595 10.235 39.595 10.2171 39.5625 10.1987C36.8508 8.68208 34.7808 7.59125 33.3525 6.92625ZM39.2113 13.3337C38.1904 13.8212 37.2137 14.0375 36.2812 13.9825C28.7829 13.5375 21.6996 13.5375 15.0312 13.9825C14.1379 14.0417 13.1812 13.8363 12.1613 13.3663C11.6263 13.1187 10.9488 12.5337 10.2775 12.4412C8.8975 12.2513 7.76375 13.6325 8.17125 14.9362C8.22542 15.1087 8.39625 15.4208 8.68375 15.8725C9.66375 17.415 9.76125 18.7937 9.5275 20.6612C9.0575 24.4104 9.0625 28.1592 9.5425 31.9075C9.82375 34.1063 9.48875 35.4513 8.2325 37.2825C8.09417 37.4833 8.14625 37.5696 8.38875 37.5412C8.59875 37.5171 8.87542 37.505 9.21875 37.505C20.5179 37.5017 31.8029 37.4996 43.0737 37.4987C43.0849 37.4989 43.0958 37.4961 43.1055 37.4905C43.1151 37.4849 43.1231 37.4768 43.1286 37.467C43.1341 37.4572 43.1368 37.446 43.1367 37.4347C43.1365 37.4233 43.1333 37.4122 43.1275 37.4025C42.9475 37.1042 42.7671 36.8058 42.5863 36.5075C41.97 35.4912 41.6087 34.3575 41.64 33.1875C41.6637 32.2938 41.8725 31.08 41.9463 30.27C42.2388 27.0367 42.1808 23.8113 41.7725 20.5938C41.5412 18.78 41.6612 17.4075 42.6075 15.8962C42.93 15.3804 43.1133 15.0504 43.1575 14.9062C43.5688 13.5538 42.33 12.25 40.9663 12.4587C40.3363 12.5562 39.7075 13.0962 39.2113 13.3337ZM45.7163 37.3838C45.9788 36.7938 46.2375 36.3225 46.6538 35.7837C49.0921 32.6362 51.0754 29.2262 52.6037 25.5537C53.1875 24.1512 53.8213 23.2413 54.9963 22.4088C55.4675 22.075 56.2788 21.82 56.6838 21.35C57.5713 20.3213 57.1725 18.77 55.9362 18.2588C55.7104 18.1663 55.4129 18.1238 55.0438 18.1313C53.2725 18.1675 52.1275 17.8937 50.5975 16.8862C49.0008 15.8362 47.3883 14.8088 45.76 13.8038C45.7158 13.7762 45.6958 13.7883 45.7 13.84C45.7958 14.9275 45.5675 15.915 45.015 16.8025C44.655 17.38 44.4625 17.6971 44.4375 17.7537C44.1667 18.3621 44.0708 18.965 44.15 19.5625C44.7508 24.0975 44.7629 28.4617 44.1862 32.655C44.1037 33.2475 44.14 33.8925 44.3162 34.4C44.555 35.0875 45.1263 35.7425 45.375 36.3563C45.5083 36.6863 45.6038 37.0263 45.6613 37.3763C45.6621 37.3825 45.6649 37.3883 45.6694 37.3928C45.6738 37.3973 45.6796 37.4002 45.6859 37.4011C45.6921 37.4019 45.6985 37.4007 45.704 37.3975C45.7095 37.3944 45.7138 37.3896 45.7163 37.3838ZM12.5013 48C11.1075 47.9987 10.8125 46.0487 11.9738 45.6075C12.1629 45.535 12.5387 45.4987 13.1012 45.4987C25.3162 45.5004 37.5312 45.5004 49.7463 45.4987C50.8504 45.4987 51.6396 45.5617 52.1138 45.6875C57.305 47.0638 57.235 54.5525 52.0175 55.8325C51.5592 55.945 50.7304 56.0013 49.5312 56.0013C34.8896 55.9996 20.2483 55.9996 5.6075 56.0013C4.63 56.0013 3.78125 56.2025 3.1925 56.9113C1.6375 58.78 2.88875 61.5 5.3125 61.5C20.0417 61.5 34.7704 61.5 49.4987 61.5C50.7054 61.5 51.5383 61.4742 51.9975 61.4225C60.04 60.5088 64.1975 51.2225 59.5687 44.6237C57.8496 42.1737 55.5008 40.685 52.5225 40.1575C51.9158 40.05 51.085 39.9967 50.03 39.9975C36.8325 40.0017 23.6346 40.0021 10.4362 39.9987C9.24458 39.9987 8.41458 40.0429 7.94625 40.1312C4.77 40.73 2.4275 43.6388 2.50625 46.8688C2.5975 50.5838 5.58125 53.495 9.3125 53.495C22.96 53.4983 36.6079 53.5 50.2562 53.5C50.8687 53.5 51.3367 53.4433 51.66 53.33C52.9487 52.8788 53.695 51.5737 53.4562 50.2375C53.2337 48.9888 52.0612 48 50.8125 48C38.0425 48.0008 25.2721 48.0008 12.5013 48Z" fill="#597B00"/>
</g>
</g>
</g>
<defs>
<clipPath id="clip0_974_10359">
<rect width="64" height="64" fill="white"/>
</clipPath>
<clipPath id="clip1_974_10359">
<rect width="64" height="64" fill="white"/>
</clipPath>
<clipPath id="clip2_974_10359">
<rect width="64" height="64" fill="white"/>
</clipPath>
</defs>
</svg>
