<svg width="64" height="64" viewBox="0 0 64 64" fill="none" xmlns="http://www.w3.org/2000/svg">
<path d="M2.90457 32.3166C0.714567 31.2879 0.513317 28.7504 1.79457 26.9066C1.81873 26.8725 1.8229 26.8358 1.80707 26.7966C0.440817 23.4704 0.602067 19.3841 4.11582 17.4529C4.52998 17.2245 5.30998 16.9345 6.45582 16.5829C12.2883 14.7929 18.1187 12.9991 23.9471 11.2016C28.8396 9.69162 33.75 9.60245 38.6783 10.9341C39.2308 11.0833 40.0241 11.3366 41.0583 11.6941C46.8216 13.685 52.5837 15.68 58.3446 17.6791C64.0383 19.6541 64.6083 27.2529 59.3958 30.1566C59.3916 30.1588 59.3882 30.1621 59.3858 30.1661C59.3834 30.1702 59.3822 30.1748 59.3823 30.1795C59.3825 30.1842 59.3839 30.1888 59.3865 30.1927C59.3891 30.1966 59.3928 30.1997 59.3971 30.2016C63.2821 32.1154 63.6883 36.1304 62.1946 39.7866C62.1779 39.8258 62.1821 39.8633 62.2071 39.8991C63.3321 41.5304 63.3358 43.7854 61.6946 44.9716C61.3746 45.2033 60.8462 45.4416 60.1096 45.6866C52.7496 48.1425 45.3891 50.595 38.0283 53.0441C37.0042 53.385 36.2037 53.6108 35.6271 53.7216C32.4471 54.3329 29.5833 53.8979 26.6321 52.6366C19.9571 49.7833 13.2846 46.9258 6.61457 44.0641C5.36957 43.5308 4.61207 43.1837 4.34207 43.0229C2.60707 41.9929 1.43832 40.2916 1.10832 38.2891C0.747484 36.0916 1.35165 34.1287 2.92082 32.4004C2.95332 32.3654 2.9479 32.3375 2.90457 32.3166ZM5.72457 23.9004L6.26582 22.1229C6.28082 22.0737 6.3129 22.0566 6.36207 22.0716C13.1829 24.1433 20.0029 26.217 26.8221 28.2929C27.4583 28.4866 28.1408 28.6579 28.6296 29.0266C31.2058 30.9679 29.8821 34.9716 26.6108 34.9816C25.41 34.985 24.2133 34.797 23.0208 34.4179C16.4892 32.3429 9.9579 30.2654 3.42707 28.1854C3.38457 28.1712 3.35165 28.1837 3.32832 28.2229C2.97207 28.8154 2.81957 29.7204 3.33832 30.2429C3.49165 30.3962 3.82915 30.56 4.35082 30.7341C11.7333 33.195 19.1162 35.655 26.4996 38.1141C27.5404 38.4608 28.3417 38.6854 28.9033 38.7879C31.4183 39.2454 33.8766 38.96 36.2783 37.9316C43.5508 34.82 50.8191 31.6983 58.0833 28.5666C61.2083 27.2204 61.9696 23.2266 59.6421 20.7841C59.1396 20.2566 58.5504 19.8729 57.8746 19.6329C55.4096 18.7587 50.0183 16.8937 41.7008 14.0379C41.6908 14.0345 41.1896 13.8541 40.1971 13.4966C34.9883 11.6204 29.6608 11.5416 24.3658 13.1704C18.2442 15.0537 12.1221 16.935 5.99957 18.8141C2.59207 19.8604 2.51707 23.3616 3.71207 26.1291C3.7279 26.1658 3.75498 26.1904 3.79332 26.2029C10.4475 28.3204 17.0946 30.4354 23.7346 32.5479C24.5496 32.8079 26.4208 33.2254 27.2421 32.8779C28.0171 32.5504 28.2146 31.3879 27.6446 30.8179C27.4679 30.6412 27.1508 30.4833 26.6933 30.3441C19.7158 28.2258 12.74 26.1033 5.76582 23.9766C5.72665 23.965 5.7129 23.9395 5.72457 23.9004ZM58.2208 36.9804C51.1383 39.1412 44.0541 41.2958 36.9683 43.4441C35.8533 43.7829 35.6583 45.3279 36.7171 45.8441C37.5721 46.2629 39.5671 45.7766 40.4596 45.4929C47.0346 43.3962 53.6158 41.3 60.2033 39.2041C60.2214 39.1982 60.2381 39.1886 60.2523 39.1759C60.2665 39.1632 60.2779 39.1477 60.2858 39.1304C61.4621 36.4129 61.4358 33.1304 58.2296 31.8866C57.8954 31.7566 57.3708 31.6025 56.6558 31.4241C56.6141 31.4141 56.5737 31.4175 56.5346 31.4341C50.5729 33.9925 44.6104 36.5479 38.6471 39.1004C37.2879 39.6812 36.5204 40.0045 36.3446 40.0704C33.5771 41.097 30.7496 41.2754 27.8621 40.6054C27.3737 40.4929 26.5758 40.2516 25.4683 39.8816C18.7333 37.6341 11.9962 35.3887 5.25707 33.1454C5.22123 33.1329 5.18748 33.1374 5.15582 33.1591C2.04082 35.2679 2.33832 40.0579 5.90582 41.5904C9.62082 43.1862 16.7021 46.2175 27.1496 50.6841C28.1596 51.1158 28.9396 51.4054 29.4896 51.5529C31.9679 52.2154 34.4712 52.125 36.9996 51.2816C44.6137 48.7441 52.2275 46.2054 59.8408 43.6654C60.2208 43.5387 60.4796 43.4175 60.6171 43.3016C61.2108 42.8016 61.0046 41.7929 60.6683 41.2154C60.6492 41.182 60.6212 41.1712 60.5846 41.1829C54.0279 43.2687 47.4787 45.3529 40.9371 47.4354C39.6121 47.8579 37.5208 48.2654 36.1908 47.7904C33.7296 46.9116 33.2171 43.5504 35.3821 42.0379C35.7229 41.7995 36.3675 41.5362 37.3158 41.2479C44.0883 39.1912 50.8621 37.1316 57.6371 35.0691C57.6862 35.0541 57.7183 35.0712 57.7333 35.1204L58.2696 36.8879C58.2837 36.9354 58.2675 36.9662 58.2208 36.9804Z" fill="#597B00"/>
</svg>
