<svg width="41" height="40" viewBox="0 0 41 40" fill="none" xmlns="http://www.w3.org/2000/svg">
<g clip-path="url(#clip0_974_11339)">
<path d="M37.6312 0H37.9077C39.1492 0.133594 40.1124 1.01094 40.1742 2.2625C40.2109 3.01016 39.9101 3.58281 39.5648 4.21953C37.0122 8.93203 34.463 13.6393 31.9171 18.3414C31.8994 18.3742 31.8984 18.4078 31.914 18.4422C32.6945 20.1461 32.5312 21.8742 32.2577 23.7695C32.0374 25.2987 31.7486 26.8151 31.3913 28.3188C30.5012 32.0719 29.4229 35.7703 28.1562 39.4141C28.0426 39.7406 27.8192 39.9359 27.4859 40H27.2343C26.7588 39.9568 26.2854 39.9096 25.814 39.8586C19.2195 39.1391 12.7874 35.7711 9.52259 29.7688C9.09134 28.9758 8.26165 27.3977 9.56712 27.0164C12.9796 26.018 16.3257 24.032 19.1288 21.8711C20.514 20.8031 21.7398 19.6227 22.7531 18.1906C23.8577 16.6289 25.8577 15.8516 27.7343 15.8945C27.7614 15.8951 27.7814 15.8833 27.7945 15.8594C31.7091 8.61823 34.3161 3.80078 35.6156 1.40703C36.0578 0.59349 36.7296 0.124479 37.6312 0ZM38.4757 2.91641C39.0562 1.84375 37.6492 0.952344 36.9812 2.18594C34.4546 6.85313 31.9304 11.518 29.4085 16.1805C29.4056 16.1858 29.4038 16.1916 29.4034 16.1977C29.4029 16.2037 29.4038 16.2098 29.406 16.2155C29.4081 16.2211 29.4115 16.2262 29.4159 16.2304C29.4202 16.2347 29.4255 16.2379 29.4312 16.2398C29.927 16.4221 30.377 16.6823 30.7812 17.0203C30.7865 17.0246 30.7926 17.0278 30.7992 17.0295C30.8058 17.0312 30.8127 17.0314 30.8194 17.0301C30.826 17.0288 30.8323 17.0261 30.8377 17.0221C30.8431 17.0181 30.8476 17.013 30.8507 17.007C33.3971 12.3039 35.9387 7.60703 38.4757 2.91641ZM23.6109 19.7898L30.5406 24.1969C30.576 24.2193 30.5973 24.2104 30.6046 24.1703C30.7734 23.2219 30.8726 22.2591 30.9023 21.282C30.9702 19.0703 29.832 17.5039 27.5148 17.4719C26.3429 17.4562 25.3166 17.8487 24.4359 18.6492C24.1218 18.9336 23.8671 19.3547 23.596 19.7109C23.5915 19.7169 23.5882 19.7237 23.5865 19.7311C23.5848 19.7384 23.5846 19.746 23.586 19.7534C23.5874 19.7608 23.5903 19.7679 23.5946 19.7742C23.5989 19.7805 23.6044 19.7858 23.6109 19.7898ZM22.4742 21.0195L21.2437 22.1695C21.2166 22.1951 21.2195 22.2188 21.2523 22.2406C21.7898 22.5953 22.3304 22.9552 22.8742 23.3203C23.0877 23.4635 23.2278 23.5919 23.2945 23.7055C23.6077 24.2383 23.1656 24.9305 22.5445 24.8641C22.3945 24.8479 22.1817 24.7477 21.9062 24.5633C21.2557 24.1299 20.6077 23.6982 19.9624 23.268C19.9503 23.26 19.9361 23.256 19.9217 23.2564C19.9073 23.2568 19.8934 23.2617 19.882 23.2703C17.1124 25.3734 13.9492 27.2125 10.6484 28.3383C10.6409 28.3408 10.634 28.3449 10.6281 28.3503C10.6223 28.3557 10.6177 28.3623 10.6146 28.3696C10.6115 28.3769 10.61 28.3848 10.6102 28.3927C10.6103 28.4006 10.6122 28.4085 10.6156 28.4156C11.1906 29.6458 11.9283 30.769 12.8288 31.7852C12.8455 31.8044 12.8656 31.8086 12.889 31.7977C15.2702 30.6648 17.4893 29.2763 19.546 27.632C19.7179 27.4945 19.8551 27.4089 19.9577 27.375C20.8163 27.093 21.339 28.2 20.6242 28.7781C18.5903 30.4266 16.4041 31.8227 14.0656 32.9664C14.0563 32.9709 14.0483 32.9776 14.0423 32.9859C14.0362 32.9942 14.0323 33.0039 14.0308 33.0141C14.0294 33.0243 14.0304 33.0348 14.0339 33.0446C14.0374 33.0544 14.0431 33.0632 14.0507 33.0703C15.5294 34.4385 17.1841 35.5443 19.0148 36.3875C19.0408 36.3995 19.063 36.3945 19.0812 36.3727C20.6682 34.4747 22.0268 32.4359 23.157 30.2563C23.6327 29.3383 25.089 29.95 24.4937 31.0906C23.3968 33.1901 22.1007 35.1602 20.6054 37.0008C20.6014 37.0054 20.5987 37.011 20.5974 37.0169C20.5961 37.0229 20.5963 37.0291 20.598 37.0351C20.5997 37.041 20.6028 37.0464 20.6071 37.051C20.6114 37.0555 20.6167 37.0589 20.6226 37.0609C22.632 37.7708 24.6999 38.2096 26.8265 38.3773C26.8335 38.3778 26.8404 38.3759 26.8462 38.3721C26.852 38.3683 26.8563 38.3627 26.8585 38.3563C27.8273 35.4844 28.6939 32.5823 29.4585 29.65C29.4629 29.6334 29.4618 29.6158 29.4555 29.5997C29.4492 29.5836 29.438 29.5698 29.4234 29.5602C28.7244 29.0971 28.027 28.6326 27.3312 28.1664C27.1692 28.0576 27.0588 27.9599 26.9999 27.8734C26.621 27.3164 27.089 26.5648 27.7507 26.668C27.8955 26.6909 28.0846 26.7805 28.3179 26.9367C28.8247 27.2758 29.3296 27.612 29.8327 27.9453C29.8572 27.9615 29.8723 27.9555 29.8781 27.9273L30.3031 25.9602C30.3058 25.9475 30.3047 25.9343 30.2998 25.9223C30.2949 25.9103 30.2865 25.9001 30.2757 25.893L22.5929 21.0078C22.5748 20.9963 22.5533 20.9913 22.5319 20.9934C22.5104 20.9955 22.4901 21.0047 22.4742 21.0195Z" fill="#597B00"/>
<path d="M11.3777 20.5277C11.3777 21.0888 11.1548 21.627 10.7581 22.0237C10.3613 22.4205 9.82321 22.6434 9.26211 22.6434C8.70101 22.6434 8.16289 22.4205 7.76614 22.0237C7.36938 21.627 7.14648 21.0888 7.14648 20.5277C7.14648 19.9666 7.36938 19.4285 7.76614 19.0318C8.16289 18.635 8.70101 18.4121 9.26211 18.4121C9.82321 18.4121 10.3613 18.635 10.7581 19.0318C11.1548 19.4285 11.3777 19.9666 11.3777 20.5277ZM9.80508 20.5285C9.80508 20.3845 9.74787 20.2464 9.64605 20.1446C9.54422 20.0428 9.40611 19.9855 9.26211 19.9855C9.11811 19.9855 8.98 20.0428 8.87817 20.1446C8.77635 20.2464 8.71914 20.3845 8.71914 20.5285C8.71914 20.6725 8.77635 20.8106 8.87817 20.9125C8.98 21.0143 9.11811 21.0715 9.26211 21.0715C9.40611 21.0715 9.54422 21.0143 9.64605 20.9125C9.74787 20.8106 9.80508 20.6725 9.80508 20.5285Z" fill="#597B00"/>
<path d="M7.1752 26.9035C7.1752 27.7466 6.84028 28.5552 6.24412 29.1513C5.64795 29.7475 4.83939 30.0824 3.99629 30.0824C3.15319 30.0824 2.34462 29.7475 1.74846 29.1513C1.1523 28.5552 0.817383 27.7466 0.817383 26.9035C0.817383 26.0604 1.1523 25.2518 1.74846 24.6557C2.34462 24.0595 3.15319 23.7246 3.99629 23.7246C4.83939 23.7246 5.64795 24.0595 6.24412 24.6557C6.84028 25.2518 7.1752 26.0604 7.1752 26.9035ZM5.60332 26.9043C5.60332 26.4783 5.43409 26.0697 5.13286 25.7685C4.83163 25.4673 4.42307 25.298 3.99707 25.298C3.57107 25.298 3.16251 25.4673 2.86128 25.7685C2.56005 26.0697 2.39082 26.4783 2.39082 26.9043C2.39082 27.3303 2.56005 27.7389 2.86128 28.0401C3.16251 28.3413 3.57107 28.5105 3.99707 28.5105C4.42307 28.5105 4.83163 28.3413 5.13286 28.0401C5.43409 27.7389 5.60332 27.3303 5.60332 26.9043Z" fill="#597B00"/>
<path d="M25.1229 26.5426C25.5569 26.5426 25.9088 26.1907 25.9088 25.7566C25.9088 25.3226 25.5569 24.9707 25.1229 24.9707C24.6888 24.9707 24.3369 25.3226 24.3369 25.7566C24.3369 26.1907 24.6888 26.5426 25.1229 26.5426Z" fill="#597B00"/>
<path d="M8.27852 34.3346C8.27852 34.9203 8.04583 35.4821 7.63163 35.8963C7.21744 36.3105 6.65568 36.5432 6.06992 36.5432C5.48417 36.5432 4.9224 36.3105 4.50821 35.8963C4.09402 35.4821 3.86133 34.9203 3.86133 34.3346C3.86133 33.7488 4.09402 33.1871 4.50821 32.7729C4.9224 32.3587 5.48417 32.126 6.06992 32.126C6.65568 32.126 7.21744 32.3587 7.63163 32.7729C8.04583 33.1871 8.27852 33.7488 8.27852 34.3346ZM6.70586 34.3338C6.70586 34.1653 6.63894 34.0038 6.51983 33.8847C6.40071 33.7656 6.23916 33.6986 6.0707 33.6986C5.90225 33.6986 5.74069 33.7656 5.62158 33.8847C5.50246 34.0038 5.43555 34.1653 5.43555 34.3338C5.43555 34.5022 5.50246 34.6638 5.62158 34.7829C5.74069 34.902 5.90225 34.9689 6.0707 34.9689C6.23916 34.9689 6.40071 34.902 6.51983 34.7829C6.63894 34.6638 6.70586 34.5022 6.70586 34.3338Z" fill="#597B00"/>
</g>
<defs>
<clipPath id="clip0_974_11339">
<rect width="40" height="40" fill="white" transform="translate(0.5)"/>
</clipPath>
</defs>
</svg>
