<svg width="40" height="40" viewBox="0 0 40 40" fill="none" xmlns="http://www.w3.org/2000/svg">
<g clip-path="url(#clip0_974_11317)">
<path d="M24.7296 0H25.1202C26.0384 0.126042 26.6757 0.594792 27.0319 1.40625C27.3046 2.02734 27.2053 2.53516 27.0577 3.3C25.9337 9.12292 24.8085 14.9453 23.6819 20.7672C23.6767 20.7948 23.6835 20.8185 23.7022 20.8383C24.7475 21.9438 25.246 22.7914 25.5077 24.3477C25.6613 25.2591 25.7603 26.1854 25.8046 27.1266C25.8048 27.1331 25.8064 27.1395 25.8094 27.1453C25.8123 27.1512 25.8164 27.1564 25.8215 27.1606C25.8265 27.1648 25.8325 27.1679 25.8388 27.1697C25.8452 27.1715 25.8519 27.172 25.8585 27.1711C26.6824 27.0497 27.4598 27.1836 28.1905 27.5727C28.2139 27.5857 28.2358 27.5831 28.2561 27.5648C31.0311 25.0172 35.3116 26.293 36.4413 29.7984C36.444 29.8064 36.4485 29.8137 36.4544 29.8197C36.4604 29.8256 36.4677 29.8301 36.4757 29.8328C38.0934 30.3698 39.109 31.3938 39.5225 32.9047C40.1132 35.0586 38.885 37.2844 36.8014 38.0063C35.7655 38.3656 34.7106 38.3161 33.6366 37.8578C33.6231 37.852 33.6082 37.8503 33.5938 37.8528C33.5793 37.8553 33.566 37.8619 33.5553 37.8719C31.2475 40.0102 27.7788 39.8969 25.6303 37.5922C25.6223 37.5834 25.6117 37.5772 25.6 37.5744C25.5884 37.5716 25.5761 37.5724 25.5647 37.5766C24.3022 38.0552 23.1038 37.9388 21.9694 37.2273C21.9449 37.2117 21.9207 37.2122 21.8968 37.2289C18.3757 39.6805 14.0022 39.7188 9.91394 38.9438C6.25066 38.2492 1.71159 36.3977 0.517062 32.5172C0.319406 31.875 0.48425 31.2414 1.07644 30.9055C1.23998 30.8122 1.53347 30.7326 1.95691 30.6664C7.02956 29.875 13.735 27.7578 16.3967 22.9039C16.3978 22.9013 16.5215 22.6378 16.7678 22.1133C17.2652 21.0539 18.0626 20.2901 19.16 19.8219C19.1856 19.8109 19.2009 19.7917 19.2061 19.7641C20.2952 14.1292 21.3835 8.50052 22.471 2.87813C22.6298 2.05573 22.7504 1.55026 22.8327 1.36172C23.1629 0.59974 23.7952 0.145833 24.7296 0ZM22.4413 20.0344C22.4462 20.0366 22.4516 20.0377 22.457 20.0375C22.4624 20.0374 22.4677 20.036 22.4725 20.0335C22.4773 20.0311 22.4815 20.0275 22.4847 20.0232C22.488 20.0189 22.4902 20.0139 22.4913 20.0086C23.6111 14.2133 24.7332 8.41615 25.8577 2.61719C25.9634 2.07083 25.8121 1.68229 25.4038 1.45156C24.9811 1.2125 24.4546 1.29844 24.1593 1.68281C24.052 1.8224 23.9611 2.08385 23.8866 2.46719C22.796 8.10417 21.696 13.7935 20.5866 19.5352C20.5772 19.5826 20.5968 19.607 20.6452 19.6086C21.2738 19.6263 21.8725 19.7682 22.4413 20.0344ZM17.9124 22.8867C19.4678 24.643 21.9975 24.5117 24.0272 23.8617C24.0402 23.8576 24.0509 23.8485 24.0572 23.8364C24.0635 23.8243 24.0648 23.8101 24.0608 23.7969C23.7322 22.6969 23.0975 21.8836 22.1569 21.357C20.4421 20.3984 18.6507 21.0227 17.9022 22.825C17.8928 22.8474 17.8962 22.868 17.9124 22.8867ZM22.5561 30.4375C22.7897 29.1922 23.4178 28.2898 24.4764 27.6445C24.4873 27.6379 24.4963 27.6284 24.5023 27.6172C24.5084 27.6059 24.5113 27.5932 24.5108 27.5805C24.4837 26.7841 24.4165 25.9911 24.3092 25.2016C24.3056 25.174 24.2902 25.1641 24.2632 25.1719C21.8358 25.8852 19.2553 25.8727 17.2553 24.1195C17.2335 24.1008 17.2145 24.1034 17.1983 24.1273C13.9014 29.0234 7.41941 31.2188 1.82956 32.0055C1.81825 32.0071 1.80743 32.0112 1.79783 32.0174C1.78824 32.0236 1.78009 32.0318 1.77393 32.0414C1.76778 32.0511 1.76378 32.0619 1.76219 32.0732C1.7606 32.0846 1.76146 32.0961 1.76472 32.107C1.94805 32.7211 2.23373 33.2826 2.62175 33.7914C2.63894 33.8133 2.66133 33.8221 2.68894 33.818C5.36941 33.4258 8.05847 32.7875 10.4952 31.575C11.1241 31.2617 11.7538 31.925 11.3835 32.4703C11.309 32.5802 11.159 32.6888 10.9335 32.7961C8.67201 33.8784 6.29389 34.6016 3.79909 34.9656C3.79575 34.9661 3.79264 34.9675 3.79015 34.9697C3.78766 34.972 3.78589 34.9749 3.78506 34.9782C3.78423 34.9816 3.78438 34.9851 3.78548 34.9884C3.78659 34.9917 3.7886 34.9947 3.79128 34.9969C4.62149 35.6453 5.52409 36.1693 6.49909 36.5688C6.52566 36.5797 6.55274 36.5813 6.58034 36.5734C10.6647 35.4586 14.9069 33.4109 17.4264 29.8914C17.5217 29.7586 17.6048 29.6693 17.6757 29.6234C18.1413 29.325 18.7538 29.7063 18.6663 30.257C18.646 30.3831 18.571 30.537 18.4413 30.7188C16.1374 33.9406 12.435 36.0305 8.74519 37.268C8.73869 37.2701 8.73306 37.2742 8.72914 37.2798C8.72523 37.2854 8.72326 37.2921 8.72352 37.2989C8.72379 37.3058 8.72628 37.3123 8.73061 37.3176C8.73495 37.3228 8.74089 37.3265 8.74753 37.3281C10.1293 37.6786 11.5309 37.9115 12.9522 38.0266C12.9788 38.0286 13.0058 38.0235 13.0303 38.0117C14.6639 37.2242 16.2069 36.1086 17.4046 34.743C17.6694 34.4414 18.0132 34.1742 18.3944 34.3992C18.9186 34.7078 18.7663 35.1984 18.421 35.5883C17.6085 36.5076 16.6931 37.3081 15.6749 37.9898C15.6703 37.9929 15.6669 37.9975 15.665 38.0027C15.6632 38.008 15.6632 38.0136 15.6649 38.0188C15.6666 38.024 15.6699 38.0284 15.6744 38.0314C15.6789 38.0344 15.6843 38.0357 15.6897 38.0352C17.5918 37.9133 19.3405 37.338 20.9358 36.3094C20.942 36.3054 20.9474 36.3003 20.9516 36.2942C20.9557 36.2881 20.9586 36.2813 20.9601 36.274C20.9616 36.2668 20.9616 36.2594 20.9601 36.2521C20.9586 36.2449 20.9556 36.2381 20.9514 36.232C19.5803 34.218 20.2936 31.5453 22.4991 30.5109C22.5139 30.5039 22.5267 30.4936 22.5366 30.4808C22.5466 30.468 22.5532 30.4532 22.5561 30.4375ZM23.3444 31.5719C20.1632 32.6648 21.6053 37.3688 24.8694 36.4344C25.4905 36.2563 25.8046 35.7203 26.4053 36.475C28.0085 38.4875 31.0405 38.6602 32.8132 36.7594C33.2186 36.3242 33.4264 36.2547 33.9663 36.5539C35.6413 37.4805 37.6803 36.6258 38.2436 34.8188C38.7241 33.2789 37.8327 31.757 36.385 31.1969C36.0741 31.0766 35.4014 31.0695 35.3116 30.6648C34.603 27.482 31.0171 26.4492 28.7882 28.8867C28.471 29.2336 28.1319 29.0672 27.7593 28.8398C25.9639 27.7438 23.8733 29.0016 23.8288 31.0547C23.8241 31.2859 23.5803 31.4906 23.3444 31.5719Z" fill="#597B00"/>
<path d="M19.4534 7.27795L8.32511 5.31573C7.97243 5.25354 7.63611 5.48903 7.57392 5.84171L7.57148 5.85556C7.50929 6.20824 7.74479 6.54456 8.09747 6.60675L19.2258 8.56897C19.5785 8.63116 19.9148 8.39567 19.977 8.04298L19.9794 8.02914C20.0416 7.67645 19.8061 7.34014 19.4534 7.27795Z" fill="#597B00"/>
<path d="M18.8007 10.5577L11.6931 9.30444C11.3421 9.24255 11.0074 9.47691 10.9456 9.82789L10.942 9.8479C10.8801 10.1989 11.1145 10.5336 11.4655 10.5955L18.573 11.8487C18.924 11.9106 19.2587 11.6762 19.3206 11.3253L19.3241 11.3053C19.386 10.9543 19.1516 10.6196 18.8007 10.5577Z" fill="#597B00"/>
<path d="M18.1461 13.779L9.55209 12.2637C9.20025 12.2017 8.86475 12.4366 8.80271 12.7884L8.79973 12.8053C8.73769 13.1572 8.97261 13.4927 9.32444 13.5547L17.9184 15.0701C18.2703 15.1321 18.6058 14.8972 18.6678 14.5453L18.6708 14.5284C18.7328 14.1766 18.4979 13.8411 18.1461 13.779Z" fill="#597B00"/>
<path d="M4.94414 12.4715L4.88008 12.4716C4.53965 12.4722 4.26415 12.7486 4.26475 13.0891L4.26713 14.4531C4.26772 14.7936 4.54418 15.069 4.88461 15.0685L4.94867 15.0683C5.2891 15.0677 5.5646 14.7913 5.564 14.4509L5.56162 13.0868C5.56103 12.7464 5.28457 12.4709 4.94414 12.4715Z" fill="#597B00"/>
<path d="M3.62988 15.0844L2.26582 15.0868C1.92539 15.0874 1.6499 15.3639 1.65049 15.7043L1.6506 15.7684C1.6512 16.1088 1.92765 16.3843 2.26808 16.3837L3.63214 16.3813C3.97257 16.3807 4.24807 16.1043 4.24747 15.7638L4.24736 15.6998C4.24677 15.3593 3.97031 15.0838 3.62988 15.0844Z" fill="#597B00"/>
<path d="M7.56094 15.083H6.20781C5.86652 15.083 5.58984 15.3597 5.58984 15.701V15.7666C5.58984 16.1079 5.86652 16.3846 6.20781 16.3846H7.56094C7.90223 16.3846 8.17891 16.1079 8.17891 15.7666V15.701C8.17891 15.3597 7.90223 15.083 7.56094 15.083Z" fill="#597B00"/>
<path d="M4.94648 16.4111H4.88086C4.54 16.4111 4.26367 16.6875 4.26367 17.0283V18.3814C4.26367 18.7223 4.54 18.9986 4.88086 18.9986H4.94648C5.28735 18.9986 5.56367 18.7223 5.56367 18.3814V17.0283C5.56367 16.6875 5.28735 16.4111 4.94648 16.4111Z" fill="#597B00"/>
<path d="M34.4205 18.3602C34.4205 18.8804 34.2138 19.3794 33.8459 19.7473C33.478 20.1152 32.9791 20.3219 32.4588 20.3219C31.9385 20.3219 31.4395 20.1152 31.0716 19.7473C30.7038 19.3794 30.4971 18.8804 30.4971 18.3602C30.4971 17.8399 30.7038 17.3409 31.0716 16.973C31.4395 16.6051 31.9385 16.3984 32.4588 16.3984C32.9791 16.3984 33.478 16.6051 33.8459 16.973C34.2138 17.3409 34.4205 17.8399 34.4205 18.3602ZM33.108 18.3602C33.108 18.188 33.0396 18.0228 32.9179 17.9011C32.7961 17.7793 32.631 17.7109 32.4588 17.7109C32.2866 17.7109 32.1215 17.7793 31.9997 17.9011C31.878 18.0228 31.8096 18.188 31.8096 18.3602C31.8096 18.4454 31.8264 18.5298 31.859 18.6086C31.8916 18.6874 31.9394 18.7589 31.9997 18.8192C32.06 18.8795 32.1316 18.9273 32.2103 18.96C32.2891 18.9926 32.3735 19.0094 32.4588 19.0094C32.544 19.0094 32.6285 18.9926 32.7072 18.96C32.786 18.9273 32.8576 18.8795 32.9179 18.8192C32.9781 18.7589 33.026 18.6874 33.0586 18.6086C33.0912 18.5298 33.108 18.4454 33.108 18.3602Z" fill="#597B00"/>
<path d="M8.33046 21.5082L7.34161 20.5193C7.09631 20.274 6.69861 20.274 6.45331 20.5193L6.41906 20.5536C6.17376 20.7989 6.17376 21.1966 6.41906 21.4419L7.4079 22.4307C7.6532 22.676 8.05091 22.676 8.29621 22.4307L8.33046 22.3965C8.57576 22.1512 8.57575 21.7535 8.33046 21.5082Z" fill="#597B00"/>
<path d="M11.2903 20.5423L11.2572 20.5092C11.0116 20.2636 10.6134 20.2636 10.3678 20.5092L9.35685 21.5201C9.11125 21.7657 9.11125 22.1639 9.35685 22.4095L9.39 22.4427C9.6356 22.6883 10.0338 22.6883 10.2794 22.4427L11.2903 21.4317C11.536 21.1861 11.536 20.7879 11.2903 20.5423Z" fill="#597B00"/>
<path d="M39.0098 22.6221C39.0098 23.2292 38.7686 23.8114 38.3393 24.2407C37.91 24.67 37.3278 24.9111 36.7207 24.9111C36.1136 24.9111 35.5314 24.67 35.1021 24.2407C34.6728 23.8114 34.4316 23.2292 34.4316 22.6221C34.4316 22.015 34.6728 21.4327 35.1021 21.0035C35.5314 20.5742 36.1136 20.333 36.7207 20.333C37.3278 20.333 37.91 20.5742 38.3393 21.0035C38.7686 21.4327 39.0098 22.015 39.0098 22.6221ZM37.698 22.6221C37.698 22.3629 37.5951 22.1143 37.4118 21.931C37.2285 21.7477 36.9799 21.6447 36.7207 21.6447C36.4615 21.6447 36.2129 21.7477 36.0296 21.931C35.8463 22.1143 35.7434 22.3629 35.7434 22.6221C35.7434 22.8813 35.8463 23.1299 36.0296 23.3132C36.2129 23.4964 36.4615 23.5994 36.7207 23.5994C36.9799 23.5994 37.2285 23.4964 37.4118 23.3132C37.5951 23.1299 37.698 22.8813 37.698 22.6221Z" fill="#597B00"/>
<path d="M8.33094 23.5038L8.29669 23.4695C8.05139 23.2242 7.65369 23.2242 7.40839 23.4695L6.40739 24.4705C6.16209 24.7158 6.16209 25.1135 6.40739 25.3588L6.44164 25.3931C6.68694 25.6384 7.08464 25.6384 7.32994 25.3931L8.33094 24.3921C8.57624 24.1468 8.57624 23.7491 8.33094 23.5038Z" fill="#597B00"/>
<path d="M11.2852 24.4618L10.2902 23.4703C10.0442 23.2251 9.64597 23.2258 9.4008 23.4718L9.36881 23.5039C9.12364 23.75 9.12434 24.1482 9.37037 24.3933L10.3654 25.3849C10.6114 25.6301 11.0096 25.6294 11.2548 25.3833L11.2868 25.3512C11.5319 25.1052 11.5312 24.707 11.2852 24.4618Z" fill="#597B00"/>
<path d="M33.3719 29.5976C33.7516 29.9968 34.3383 31.0452 33.7047 31.4468C33.4141 31.6304 33.0563 31.5843 32.8367 31.3171C32.6766 31.1202 32.682 30.8257 32.5133 30.6148C32.1586 30.1726 31.7172 30.059 31.1891 30.2741C30.9531 30.3702 30.8344 30.6085 30.607 30.7062C29.8953 31.0116 29.357 30.1843 29.9203 29.6015C30.8656 28.6218 32.4289 28.6062 33.3719 29.5976Z" fill="#597B00"/>
</g>
<defs>
<clipPath id="clip0_974_11317">
<rect width="40" height="40" fill="white"/>
</clipPath>
</defs>
</svg>
