<svg width="64" height="64" viewBox="0 0 64 64" fill="none" xmlns="http://www.w3.org/2000/svg">
<g clip-path="url(#clip0_974_10614)">
<path d="M59.6751 17.8841L45.9051 31.6491C45.8018 31.7524 45.6985 31.7524 45.5951 31.6491L44.3451 30.4041C44.2418 30.3008 44.2418 30.1974 44.3451 30.0941L59.7851 14.6591C59.8533 14.591 59.9074 14.5095 59.9443 14.4194C59.9812 14.3293 60.0002 14.2324 60.0001 14.1341L60.0101 12.6041C60.0111 12.4363 59.9621 12.2719 59.8693 12.132C59.7765 11.9921 59.6442 11.8831 59.4892 11.8187C59.3342 11.7543 59.1635 11.7376 58.9989 11.7706C58.8343 11.8036 58.6833 11.8849 58.5651 12.0041L52.9601 17.5891C52.8201 17.7324 52.6785 17.7324 52.5351 17.5891L51.4101 16.4641C51.2635 16.3208 51.2635 16.1774 51.4101 16.0341L55.1201 12.3291C55.3401 12.1091 55.2951 11.9991 54.9851 11.9991H51.8751C51.6651 11.9991 51.4868 12.0724 51.3401 12.2191L43.9351 19.6191C43.8118 19.7424 43.6884 19.7424 43.5651 19.6191L42.4101 18.4641C42.2635 18.3208 42.2635 18.1774 42.4101 18.0341L48.1201 12.3291C48.3368 12.1091 48.2918 11.9991 47.9851 11.9991H44.8751C44.7754 11.999 44.6768 12.0184 44.585 12.0561C44.4932 12.0939 44.41 12.1493 44.3401 12.2191L36.9051 19.6491C36.8018 19.7524 36.6985 19.7524 36.5951 19.6491L35.4101 18.4641C35.2635 18.3208 35.2618 18.1774 35.4051 18.0341L41.1201 12.3291C41.3368 12.1091 41.2918 11.9991 40.9851 11.9991H37.8751C37.6651 11.9991 37.4868 12.0724 37.3401 12.2191L32.9651 16.5891C32.8218 16.7324 32.6801 16.7324 32.5401 16.5891L31.4051 15.4641C31.2618 15.3208 31.2618 15.1758 31.4051 15.0291L34.1501 12.3041C34.3535 12.1008 34.3118 11.9991 34.0251 11.9991H30.3101C30.1034 11.9991 30.0001 11.8941 30.0001 11.6841V10.3091C30.0001 10.1024 30.1051 9.9991 30.3151 9.9991H61.2501C61.449 9.9991 61.6398 10.0781 61.7804 10.2188C61.9211 10.3594 62.0001 10.5502 62.0001 10.7491V61.2541C62.0001 61.4517 61.9216 61.6412 61.7819 61.7809C61.6422 61.9206 61.4527 61.9991 61.2551 61.9991C45.6218 61.9958 29.9218 61.9974 14.1551 62.0041C12.0351 62.0041 10.3768 61.7858 9.18012 61.3491C4.31512 59.5791 2.01012 55.5091 2.00512 50.4491C2.00178 38.3391 1.99845 26.2324 1.99512 14.1291C1.99512 12.0391 2.21012 10.3991 2.64012 9.2091C4.46012 4.1741 8.64012 1.9741 13.8301 1.9941C15.7651 1.9991 17.9401 1.7591 19.6501 2.4691C22.8051 3.7791 23.9951 6.2541 23.9951 9.6941C23.9951 21.5808 24.0001 33.4691 24.0101 45.3591C24.0101 47.4891 23.7868 49.0508 23.3401 50.0441C21.1401 54.9141 16.1151 53.9741 11.7451 53.9991C11.6475 53.9998 11.5508 53.9811 11.4604 53.9442C11.37 53.9073 11.2879 53.8529 11.2186 53.7841C11.1494 53.7154 11.0944 53.6336 11.0569 53.5434C11.0194 53.4533 11.0001 53.3567 11.0001 53.2591V48.7641C11.0001 48.5639 11.0797 48.3718 11.2213 48.2302C11.3628 48.0886 11.5549 48.0091 11.7551 48.0091C13.4485 48.0158 15.1918 47.9691 16.9851 47.8691C17.5751 47.8358 17.8818 47.5524 17.9051 47.0191C17.9105 46.8887 17.8899 46.7586 17.8445 46.6364C17.7992 46.5141 17.73 46.4022 17.6411 46.3072C17.5521 46.2122 17.4452 46.136 17.3265 46.0831C17.2079 46.0302 17.0799 46.0016 16.9501 45.9991C13.5351 45.9391 9.26012 45.5991 8.28012 49.7691C7.92345 51.2791 8.15345 52.6274 8.97012 53.8141C10.2851 55.7341 12.1151 55.9741 14.5301 55.9841C18.0801 56.0041 21.6284 56.0074 25.1751 55.9941C25.3584 55.9941 25.5168 55.9291 25.6501 55.7991L28.0351 53.4091C28.1784 53.2658 28.3201 53.2658 28.4601 53.4091L29.6001 54.5441C29.7501 54.6941 29.7468 54.8408 29.5901 54.9841L28.8751 55.6341C28.844 55.6626 28.8221 55.6998 28.8124 55.7408C28.8027 55.7819 28.8056 55.8249 28.8207 55.8643C28.8358 55.9037 28.8625 55.9376 28.8971 55.9617C28.9318 55.9857 28.9729 55.9988 29.0151 55.9991H32.1301C32.3289 55.9989 32.5209 55.9199 32.6651 55.7791L41.0951 47.3491C41.1951 47.2458 41.2968 47.2458 41.4001 47.3491L42.5901 48.5341C42.7368 48.6774 42.7385 48.8224 42.5951 48.9691L35.8901 55.6641C35.6668 55.8874 35.7118 55.9991 36.0251 55.9991H39.2351C39.3751 55.9991 39.4935 55.9508 39.5901 55.8541L59.8601 35.5841C59.9568 35.4841 60.0051 35.3658 60.0051 35.2291L59.9901 32.0141C59.9901 31.7174 59.8851 31.6741 59.6751 31.8841L44.9101 46.6491C44.8068 46.7524 44.7018 46.7524 44.5951 46.6491L43.3451 45.4041C43.2418 45.3008 43.2418 45.1974 43.3451 45.0941L59.8651 28.5791C59.9546 28.4895 60.0049 28.3654 60.0051 28.2341L59.9951 25.0141C59.9918 24.7174 59.8851 24.6741 59.6751 24.8841L45.9351 38.6191C45.8118 38.7424 45.6884 38.7424 45.5651 38.6191L44.3451 37.4041C44.2418 37.3008 44.2418 37.1974 44.3451 37.0941L59.7901 21.6541C59.9308 21.5136 60.0099 21.3229 60.0101 21.1241L59.9901 18.0141C59.9868 17.7208 59.8818 17.6774 59.6751 17.8841ZM14.2301 9.0491C17.4351 8.8691 19.4801 8.83411 21.7101 10.7241C21.8401 10.8341 21.9151 10.8041 21.9351 10.6341C22.3951 6.0641 19.8201 3.8891 15.5601 3.9791C13.7101 4.0141 11.8251 3.9691 10.1851 4.5541C7.50845 5.51077 5.69345 7.22244 4.74012 9.6891C4.24678 10.9658 4.00012 13.2858 4.00012 16.6491C4.00012 25.8324 4.00012 34.9974 4.00012 44.1441C4.00009 44.172 4.00872 44.1993 4.02483 44.2221C4.04093 44.2449 4.06372 44.2622 4.09005 44.2715C4.11638 44.2808 4.14495 44.2818 4.17182 44.2742C4.1987 44.2666 4.22256 44.2508 4.24012 44.2291C6.79012 41.0091 9.76512 40.0041 13.8801 39.9991C16.7401 39.9941 19.1801 39.5391 21.6601 41.7441C21.8001 41.8708 21.8834 41.8408 21.9101 41.6541C22.3001 38.8174 21.3868 36.8058 19.1701 35.6191C17.7751 34.8691 15.8751 34.9741 14.2601 34.9941C14.0835 34.9974 13.9968 34.9124 14.0001 34.7391L14.0051 33.3991C14.0085 33.2624 14.0768 33.1791 14.2101 33.1491C16.9801 32.5458 19.4784 33.0408 21.7051 34.6341C21.8785 34.7608 21.9651 34.7158 21.9651 34.4991C21.9751 29.5441 18.2601 28.9341 14.2701 28.9941C14.2349 28.9948 14.1999 28.9885 14.1671 28.9758C14.1344 28.963 14.1046 28.9439 14.0795 28.9197C14.0543 28.8955 14.0344 28.8666 14.0207 28.8348C14.0071 28.8029 14.0001 28.7687 14.0001 28.7341L14.0051 27.5191C14.0051 27.3158 14.1035 27.1924 14.3001 27.1491C17.0635 26.5424 19.5385 27.0508 21.7251 28.6741C21.8951 28.8008 21.9785 28.7574 21.9751 28.5441C21.9201 24.8041 19.6451 23.0391 16.1101 23.0091C15.5001 23.0058 14.8851 22.9974 14.2651 22.9841C14.0918 22.9774 14.0051 22.8874 14.0051 22.7141V21.5091C14.0051 21.3158 14.1001 21.1974 14.2901 21.1541C17.0601 20.5441 19.5385 21.0508 21.7251 22.6741C21.8851 22.7908 21.9651 22.7491 21.9651 22.5491C21.9818 20.0491 20.9384 18.3508 18.8351 17.4541C17.5251 16.8991 15.7751 16.9841 14.2801 16.9891C14.0968 16.9891 14.0051 16.8991 14.0051 16.7191V15.5141C14.0051 15.3174 14.1018 15.1974 14.2951 15.1541C17.0618 14.5441 19.5385 15.0508 21.7251 16.6741C21.8851 16.7908 21.9651 16.7491 21.9651 16.5491C22.0001 11.5441 18.2951 10.9591 14.2701 10.9941C14.0901 10.9941 14.0001 10.9041 14.0001 10.7241L14.0101 9.2791C14.0101 9.13577 14.0835 9.0591 14.2301 9.0491ZM51.1351 51.3041C51.1495 51.2896 51.1667 51.2781 51.1855 51.2702C51.2044 51.2623 51.2247 51.2583 51.2451 51.2583C51.2656 51.2583 51.2858 51.2623 51.3047 51.2702C51.3236 51.2781 51.3407 51.2896 51.3551 51.3041L52.7051 52.6441C52.7196 52.6585 52.7311 52.6756 52.739 52.6945C52.7469 52.7134 52.7509 52.7337 52.7509 52.7541C52.7509 52.7746 52.7469 52.7948 52.739 52.8137C52.7311 52.8326 52.7196 52.8497 52.7051 52.8641L49.8051 55.7341C49.7836 55.7555 49.7688 55.7827 49.7625 55.8124C49.7563 55.8421 49.759 55.873 49.7702 55.9013C49.7813 55.9295 49.8006 55.9538 49.8255 55.9712C49.8503 55.9886 49.8798 55.9983 49.9101 55.9991H53.3801C53.4005 55.9992 53.4207 55.9953 53.4396 55.9876C53.4585 55.9798 53.4756 55.9685 53.4901 55.9541L59.9651 49.4791C59.9795 49.4646 59.9909 49.4475 59.9986 49.4286C60.0063 49.4097 60.0102 49.3895 60.0101 49.3691L59.9901 45.9441C59.9903 45.9133 59.9813 45.8832 59.9643 45.8576C59.9472 45.8319 59.923 45.8119 59.8945 45.8001C59.8661 45.7883 59.8348 45.7853 59.8047 45.7913C59.7745 45.7974 59.7468 45.8123 59.7251 45.8341L54.8601 50.6941C54.8457 50.7086 54.8286 50.7201 54.8097 50.728C54.7908 50.7359 54.7706 50.7399 54.7501 50.7399C54.7297 50.7399 54.7094 50.7359 54.6905 50.728C54.6717 50.7201 54.6545 50.7086 54.6401 50.6941L53.3001 49.3591C53.2856 49.3447 53.2741 49.3276 53.2662 49.3087C53.2584 49.2898 53.2543 49.2696 53.2543 49.2491C53.2543 49.2287 53.2584 49.2084 53.2662 49.1895C53.2741 49.1706 53.2856 49.1535 53.3001 49.1391L59.9601 42.4841C59.9745 42.4696 59.9859 42.4525 59.9936 42.4336C60.0013 42.4147 60.0052 42.3945 60.0051 42.3741L59.9901 38.9391C59.9893 38.9088 59.9796 38.8793 59.9622 38.8544C59.9448 38.8296 59.9205 38.8103 59.8923 38.7991C59.864 38.788 59.8332 38.7853 59.8034 38.7915C59.7737 38.7977 59.7465 38.8125 59.7251 38.8341L42.8201 55.7341C42.7983 55.7558 42.7834 55.7835 42.7773 55.8136C42.7713 55.8438 42.7744 55.8751 42.7862 55.9035C42.798 55.9319 42.8179 55.9562 42.8436 55.9732C42.8692 55.9903 42.8993 55.9993 42.9301 55.9991H46.3801C46.4005 55.9992 46.4207 55.9953 46.4396 55.9876C46.4585 55.9798 46.4756 55.9685 46.4901 55.9541L51.1351 51.3041ZM19.3851 45.0991C20.3851 46.3041 20.2101 48.1391 19.1001 49.2741C17.9901 50.4091 14.7901 49.9941 13.2551 49.9991C13.0818 49.9991 12.9951 50.0858 12.9951 50.2591L13.0001 51.7291C13.0001 51.8791 13.0768 51.9591 13.2301 51.9691C16.1101 52.1141 19.4451 52.3191 21.1101 49.7191C21.8901 48.4991 22.0784 47.1358 21.6751 45.6291C21.0651 43.3591 19.3351 42.1658 16.4851 42.0491C14.2018 41.9591 12.6235 41.9874 11.7501 42.1341C0.615117 44.0091 2.08512 59.9891 13.5001 59.9941C28.9035 60.0008 44.3101 60.0008 59.7201 59.9941C59.7623 59.9941 59.8041 59.9857 59.843 59.9695C59.8819 59.9533 59.9171 59.9296 59.9465 59.8997C59.9759 59.8699 59.9988 59.8345 60.0141 59.7958C60.0293 59.757 60.0365 59.7156 60.0351 59.6741L60.0001 58.3341C59.9935 58.1108 59.8784 57.9991 59.6551 57.9991C44.4518 57.9991 29.2485 57.9991 14.0451 57.9991C12.1618 57.9958 10.7518 57.7708 9.81512 57.3241C3.89512 54.4991 5.10012 44.9541 11.7501 44.0691C13.4201 43.8491 15.2584 43.8641 17.2651 44.1141C18.2318 44.2308 18.9384 44.5591 19.3851 45.0991ZM59.9951 52.9741C59.995 52.9405 59.985 52.9078 59.9663 52.8799C59.9477 52.852 59.9211 52.8303 59.8901 52.8174C59.8591 52.8046 59.825 52.8012 59.7921 52.8078C59.7591 52.8143 59.7289 52.8304 59.7051 52.8541L56.8501 55.7091C56.8264 55.7329 56.8103 55.7631 56.8038 55.7961C56.7972 55.829 56.8006 55.8631 56.8134 55.8941C56.8263 55.9251 56.848 55.9516 56.8759 55.9703C56.9038 55.989 56.9366 55.999 56.9701 55.9991L59.8301 56.0041C59.8752 56.0041 59.9184 55.9862 59.9503 55.9543C59.9822 55.9224 60.0001 55.8792 60.0001 55.8341L59.9951 52.9741Z" fill="#597B00"/>
<path d="M11.6121 9.01459L10.4224 8.98759C10.2015 8.98258 10.0184 9.15756 10.0134 9.37841L9.98639 10.5681C9.98138 10.789 10.1564 10.9721 10.3772 10.9771L11.5669 11.0041C11.7878 11.0091 11.9709 10.8341 11.9759 10.6133L12.0029 9.42356C12.0079 9.2027 11.8329 9.0196 11.6121 9.01459Z" fill="#597B00"/>
<path d="M27.7152 10.0207L26.3254 9.99885C26.1597 9.99625 26.0233 10.1284 26.0207 10.2941L25.9988 11.6839C25.9962 11.8496 26.1284 11.986 26.2941 11.9886L27.6839 12.0104C27.8496 12.013 27.986 11.8809 27.9886 11.7152L28.0104 10.3254C28.013 10.1597 27.8808 10.0233 27.7152 10.0207Z" fill="#597B00"/>
<path d="M11.5946 15.023L10.4651 14.9895C10.2249 14.9823 10.0245 15.1712 10.0174 15.4114L9.98414 16.5309C9.97702 16.771 10.1659 16.9715 10.406 16.9786L11.5355 17.0121C11.7757 17.0192 11.9761 16.8303 11.9833 16.5902L12.0165 15.4707C12.0236 15.2306 11.8347 15.0301 11.5946 15.023Z" fill="#597B00"/>
<path d="M29.1436 17.3061L26.3032 20.1367C26.2425 20.1971 26.2423 20.2952 26.3028 20.3559L27.6369 21.6946C27.6973 21.7553 27.7954 21.7555 27.8561 21.695L30.6965 18.8645C30.7571 18.8041 30.7573 18.7059 30.6969 18.6453L29.3628 17.3065C29.3024 17.2459 29.2042 17.2457 29.1436 17.3061Z" fill="#597B00"/>
<path d="M49.1404 18.3049L27.3049 40.1404C27.2444 40.2009 27.2444 40.2991 27.3049 40.3596L28.6413 41.696C28.7019 41.7566 28.8 41.7566 28.8605 41.696L50.696 19.8606C50.7565 19.8 50.7565 19.7019 50.696 19.6414L49.3596 18.3049C49.299 18.2444 49.2009 18.2444 49.1404 18.3049Z" fill="#597B00"/>
<path d="M33.1407 20.3027L26.303 27.1404C26.2424 27.2009 26.2424 27.2991 26.303 27.3596L27.6394 28.696C27.6999 28.7566 27.7981 28.7566 27.8586 28.696L34.6963 21.8583C34.7568 21.7978 34.7568 21.6996 34.6963 21.6391L33.3599 20.3027C33.2994 20.2421 33.2012 20.2421 33.1407 20.3027Z" fill="#597B00"/>
<path d="M40.1418 20.3035L31.303 29.1424C31.2424 29.2029 31.2424 29.301 31.303 29.3616L32.6394 30.698C32.6999 30.7585 32.7981 30.7585 32.8586 30.698L41.6974 21.8592C41.758 21.7986 41.758 21.7005 41.6974 21.6399L40.361 20.3035C40.3005 20.243 40.2023 20.243 40.1418 20.3035Z" fill="#597B00"/>
<path d="M11.6145 21.0234L10.445 20.9887C10.2186 20.982 10.0297 21.16 10.023 21.3864L9.98828 22.5559C9.98157 22.7822 10.1596 22.9711 10.3859 22.9778L11.5554 23.0126C11.7818 23.0193 11.9707 22.8412 11.9774 22.6149L12.0121 21.4454C12.0188 21.2191 11.8408 21.0302 11.6145 21.0234Z" fill="#597B00"/>
<path d="M11.6195 27.0236L10.44 26.9886C10.2164 26.9819 10.0298 27.1578 10.0231 27.3814L9.98814 28.5609C9.9815 28.7844 10.1574 28.9711 10.3809 28.9777L11.5604 29.0127C11.784 29.0193 11.9706 28.8435 11.9773 28.6199L12.0123 27.4404C12.0189 27.2168 11.843 27.0302 11.6195 27.0236Z" fill="#597B00"/>
<path d="M29.1436 31.3061L26.3032 34.1367C26.2425 34.1971 26.2423 34.2952 26.3028 34.3559L27.6369 35.6946C27.6973 35.7553 27.7954 35.7555 27.8561 35.695L30.6965 32.8645C30.7571 32.8041 30.7573 32.7059 30.6969 32.6453L29.3628 31.3065C29.3024 31.2459 29.2042 31.2457 29.1436 31.3061Z" fill="#597B00"/>
<path d="M42.1409 32.3034L30.3039 44.1404C30.2434 44.2009 30.2434 44.2991 30.3039 44.3596L31.6404 45.696C31.7009 45.7566 31.799 45.7566 31.8596 45.696L43.6965 33.8591C43.7571 33.7985 43.7571 33.7004 43.6965 33.6399L42.3601 32.3034C42.2996 32.2429 42.2014 32.2429 42.1409 32.3034Z" fill="#597B00"/>
<path d="M11.6121 33.0185L10.4224 32.9915C10.2015 32.9865 10.0184 33.1615 10.0134 33.3823L9.98639 34.572C9.98138 34.7929 10.1564 34.976 10.3772 34.981L11.5669 35.008C11.7878 35.013 11.9709 34.838 11.9759 34.6172L12.0029 33.4275C12.0079 33.2066 11.8329 33.0235 11.6121 33.0185Z" fill="#597B00"/>
<path d="M42.1409 39.3034L30.3039 51.1404C30.2434 51.2009 30.2434 51.2991 30.3039 51.3596L31.6404 52.696C31.7009 52.7566 31.799 52.7566 31.8596 52.696L43.6965 40.8591C43.7571 40.7985 43.7571 40.7004 43.6965 40.6399L42.3601 39.3034C42.2996 39.2429 42.2014 39.2429 42.1409 39.3034Z" fill="#597B00"/>
<path d="M28.1508 46.2994L26.2988 48.1384C26.24 48.1968 26.2397 48.2918 26.2981 48.3506L27.6369 49.6988C27.6953 49.7575 27.7902 49.7579 27.849 49.6995L29.701 47.8604C29.7598 47.802 29.7601 47.7071 29.7017 47.6483L28.3629 46.3001C28.3046 46.2413 28.2096 46.241 28.1508 46.2994Z" fill="#597B00"/>
</g>
<defs>
<clipPath id="clip0_974_10614">
<rect width="64" height="64" fill="white"/>
</clipPath>
</defs>
</svg>
