<svg width="64" height="64" viewBox="0 0 64 64" fill="none" xmlns="http://www.w3.org/2000/svg">
<g clip-path="url(#clip0_974_10609)">
<g clip-path="url(#clip1_974_10609)">
<path d="M64 7.37999V62.9167C63.4333 63.5189 62.8611 63.5733 62.2833 63.08C62.1789 62.9911 62.1267 62.8789 62.1267 62.7433V56.8967C62.1267 56.8578 62.1112 56.8205 62.0837 56.7929C62.0562 56.7654 62.0189 56.75 61.98 56.75H59.8233C59.77 56.75 59.7188 56.7709 59.6807 56.8084C59.6427 56.8458 59.6209 56.8966 59.62 56.95C59.6089 58.7344 59.6067 60.52 59.6133 62.3067C59.62 63.72 57.6033 63.84 57.6267 62.2067C57.6511 60.4511 57.65 58.6933 57.6233 56.9333C57.6211 56.8067 57.5567 56.7433 57.43 56.7433L55.3267 56.7533C55.2044 56.7533 55.1411 56.8144 55.1367 56.9367C55.0878 59.0833 55.0844 60.8122 55.1267 62.1233C55.18 63.8533 53.1167 63.8867 53.12 62.07C53.1267 60.3456 53.13 58.6178 53.13 56.8867C53.13 56.7955 53.0833 56.75 52.99 56.75H50.8233C50.7694 56.75 50.7177 56.7714 50.6796 56.8095C50.6414 56.8477 50.62 56.8994 50.62 56.9533C50.6133 58.7711 50.61 60.5911 50.61 62.4133C50.6133 64 48.5233 63.5433 48.57 62.12C48.63 60.3978 48.6511 58.6722 48.6333 56.9433C48.6311 56.81 48.5633 56.7433 48.43 56.7433L46.42 56.7533C46.3089 56.7533 46.2533 56.8089 46.2533 56.92C46.2556 58.7267 46.2411 60.53 46.21 62.33C46.1833 63.6867 44.2633 63.8467 44.26 62.4033C44.2533 60.5789 44.25 58.75 44.25 56.9167C44.25 56.8055 44.1933 56.75 44.08 56.75L41.9167 56.7467C41.8056 56.7467 41.75 56.8033 41.75 56.9167V62.4233C41.7502 62.6322 41.6818 62.8353 41.5554 63.0015C41.4289 63.1677 41.2513 63.2878 41.05 63.3433C40.5256 63.49 40.1222 63.3244 39.84 62.8467C39.78 62.7444 39.75 62.6355 39.75 62.52V56.9167C39.75 56.8055 39.6944 56.75 39.5833 56.75H37.4167C37.3056 56.75 37.25 56.8055 37.25 56.9167V62.4233C37.2501 62.606 37.1959 62.7846 37.0945 62.9365C36.993 63.0884 36.8488 63.2068 36.68 63.2767C36.16 63.49 35.7589 63.4078 35.4767 63.03C35.3211 62.8211 35.2444 62.5055 35.2467 62.0833C35.2578 60.3633 35.2567 58.64 35.2433 56.9133C35.2433 56.8044 35.1889 56.75 35.08 56.75L32.9167 56.7467C32.8056 56.7467 32.75 56.8033 32.75 56.9167V62.67C32.7499 62.849 32.6827 63.0215 32.5618 63.1535C32.4409 63.2855 32.275 63.3675 32.0967 63.3833C31.2189 63.4633 30.7767 63.0555 30.77 62.16C30.7567 60.4178 30.7489 58.6711 30.7467 56.92C30.7467 56.8067 30.6911 56.75 30.58 56.75L28.5833 56.7467C28.4611 56.7467 28.3989 56.8078 28.3967 56.93C28.35 58.7322 28.3256 60.5333 28.3233 62.3333C28.32 63.73 26.3667 63.82 26.3767 62.3333C26.39 60.5244 26.3933 58.7133 26.3867 56.9C26.3867 56.7978 26.3367 56.7467 26.2367 56.7467L24.0133 56.75C23.9156 56.75 23.8667 56.8 23.8667 56.9L23.8633 62.4333C23.8635 62.6364 23.7977 62.8342 23.6757 62.9971C23.5537 63.1599 23.3822 63.2791 23.1867 63.3367C22.1267 63.65 21.8733 62.8567 21.88 61.9833C21.8911 60.2944 21.8911 58.5978 21.88 56.8933C21.8778 56.7978 21.8289 56.75 21.7333 56.75H19.58C19.4533 56.75 19.3889 56.8122 19.3867 56.9367C19.3489 58.6011 19.3456 60.2655 19.3767 61.93C19.3856 62.3989 19.3467 62.7178 19.26 62.8867C18.8433 63.7133 17.4033 63.43 17.3967 62.5833C17.3811 60.6944 17.38 58.8011 17.3933 56.9033C17.3956 56.8011 17.3456 56.75 17.2433 56.75L15.17 56.7467C15.0567 56.7467 15 56.8044 15 56.92C15.0044 58.5311 15 60.14 14.9867 61.7467C14.98 62.78 14.7933 63.6433 13.51 63.2933C13.17 63.2 13 62.9344 13 62.4967C13.0044 60.6411 13.0033 58.7789 12.9967 56.91C12.9967 56.7989 12.9411 56.7444 12.83 56.7467L10.67 56.7533C10.5567 56.7533 10.5 56.8089 10.5 56.92C10.4978 58.7311 10.4967 60.5422 10.4967 62.3533C10.4933 63.45 9.2 63.75 8.6 62.9067C8.53333 62.8155 8.5 62.7122 8.5 62.5967V17.08C8.5 16.96 8.44 16.8955 8.32 16.8867C3.79333 16.6089 1.02 14.31 0 9.98999V7.32332C0.755556 4.14999 2.55667 2.05666 5.40333 1.04332C6.19667 0.761101 7.24444 0.61999 8.54667 0.61999C11.6578 0.622212 14.7711 0.624434 17.8867 0.626657C17.9836 0.626581 18.0776 0.659498 18.1533 0.71999C18.9767 1.37999 18.72 2.59999 17.5833 2.59999C14.6656 2.60443 11.7467 2.60999 8.82667 2.61666C7.49333 2.61888 6.46778 2.76888 5.75 3.06666C1.77333 4.71999 0.673334 9.83999 3.64 12.95C5.24333 14.6333 7.19667 14.8733 9.7 14.8767C23.32 14.8878 36.9311 14.89 50.5333 14.8833C50.5371 14.883 50.5406 14.8817 50.5436 14.8795C50.5467 14.8773 50.549 14.8743 50.5504 14.8708C50.5518 14.8673 50.5522 14.8635 50.5515 14.8599C50.5508 14.8562 50.5492 14.8528 50.5467 14.85C48.1111 12.2522 47.3356 9.35332 48.22 6.15332C48.5311 5.0311 49.2589 3.90666 50.4033 2.77999C50.5145 2.6711 50.4922 2.61666 50.3367 2.61666C41.0011 2.60555 31.6667 2.61332 22.3333 2.63999C20.4733 2.64332 20.6833 0.54999 22.0833 0.556657C33.0056 0.607768 43.9267 0.627768 54.8467 0.616657C56.4756 0.614434 57.7278 0.762212 58.6033 1.05999C61.4411 2.02666 63.24 4.13332 64 7.37999ZM62.0467 8.70666C62.0467 7.08972 61.4043 5.53901 60.261 4.39566C59.1177 3.25232 57.5669 2.60999 55.95 2.60999C54.3331 2.60999 52.7824 3.25232 51.639 4.39566C50.4957 5.53901 49.8533 7.08972 49.8533 8.70666C49.8533 10.3236 50.4957 11.8743 51.639 13.0177C52.7824 14.161 54.3331 14.8033 55.95 14.8033C57.5669 14.8033 59.1177 14.161 60.261 13.0177C61.4043 11.8743 62.0467 10.3236 62.0467 8.70666ZM58.4033 29.6567C57.71 30.4333 56.4967 30.21 56.4967 29.08C56.5056 25.0333 56.5056 20.9789 56.4967 16.9167C56.4967 16.8055 56.44 16.75 56.3267 16.75H49.9967C49.8985 16.7498 49.8025 16.7787 49.7207 16.8331C49.639 16.8874 49.5752 16.9648 49.5374 17.0554C49.4996 17.146 49.4894 17.2457 49.5083 17.3421C49.5272 17.4384 49.5742 17.527 49.6433 17.5967L54.2267 22.1833C54.4964 22.4542 54.6479 22.8208 54.6479 23.2026C54.6479 23.5845 54.4964 23.9503 54.2267 24.22L49.75 28.69C49.6589 28.7811 49.6133 28.8922 49.6133 29.0233L49.6167 35.29C49.6167 35.6418 49.4772 35.9793 49.2291 36.2281C48.9809 36.4769 48.6443 36.6167 48.2933 36.6167L41.99 36.6133C41.8811 36.6133 41.7889 36.6522 41.7133 36.73L37.3267 41.12C37.041 41.4054 36.6538 41.5657 36.25 41.5657C35.8462 41.5657 35.459 41.4054 35.1733 41.12L30.7833 36.7233C30.7056 36.6478 30.6122 36.61 30.5033 36.61L24.25 36.62C24.0702 36.62 23.8923 36.5845 23.7262 36.5156C23.5602 36.4468 23.4094 36.3458 23.2824 36.2185C23.1555 36.0913 23.0549 35.9402 22.9864 35.774C22.9179 35.6078 22.8829 35.4297 22.8833 35.25L22.8867 28.9967C22.8867 28.8878 22.8489 28.7955 22.7733 28.72L18.32 24.2633C18.1867 24.1304 18.0809 23.9724 18.0087 23.7984C17.9365 23.6244 17.8994 23.4378 17.8994 23.2493C17.8994 23.0608 17.9365 22.874 18.0087 22.6997C18.0809 22.5254 18.1867 22.3669 18.32 22.2333L22.82 17.74C22.9013 17.6587 22.9565 17.555 22.9788 17.4423C23.001 17.3295 22.9893 17.2126 22.945 17.1065C22.9007 17.0004 22.8259 16.9099 22.73 16.8464C22.6342 16.7829 22.5216 16.7494 22.4067 16.75L16.4167 16.7533C16.3619 16.7533 16.3078 16.764 16.2572 16.7848C16.2067 16.8056 16.1607 16.836 16.122 16.8744C16.0833 16.9128 16.0527 16.9583 16.0317 17.0085C16.0108 17.0586 16 17.1124 16 17.1667V41.3333C16 41.4489 16.0578 41.5067 16.1733 41.5067C19.3867 41.4533 22.3833 41.5 23.5133 45.0067C23.89 46.18 23.74 47.73 23.75 49.07C23.75 49.1878 23.81 49.2467 23.93 49.2467C29.2922 49.2533 34.6533 49.2544 40.0133 49.25C40.98 49.2467 41.8767 49.41 41.56 50.63C41.5142 50.8074 41.4108 50.9645 41.266 51.0767C41.1212 51.189 40.9432 51.2499 40.76 51.25H23.41C23.1899 51.25 22.9719 51.2063 22.7688 51.1215C22.5657 51.0367 22.3814 50.9123 22.2267 50.7558C22.072 50.5992 21.9499 50.4135 21.8675 50.2093C21.7851 50.0052 21.744 49.7868 21.7467 49.5667C21.7633 48.1233 22.0067 46.0733 21.27 44.91C20.1533 43.14 18.02 43.4967 16.21 43.5C14.83 43.5067 13.9967 43.0267 13.9967 41.58C14.0056 33.3978 14.0056 25.2133 13.9967 17.0267C13.9967 16.9178 13.9411 16.8633 13.83 16.8633L10.69 16.87C10.5633 16.87 10.5 16.9333 10.5 17.06V54.7367C10.5 54.8367 10.55 54.8867 10.65 54.8867H62.0467C62.0679 54.8867 62.0882 54.8782 62.1032 54.8632C62.1182 54.8482 62.1267 54.8279 62.1267 54.8067L62.1233 14.2433C62.1233 14.1211 62.0811 14.1033 61.9967 14.19C61.0367 15.1544 59.9211 15.8811 58.65 16.37C58.55 16.4078 58.5 16.4811 58.5 16.59V29.4033C58.5 29.5011 58.4678 29.5855 58.4033 29.6567ZM47.6367 28.6533C47.6367 28.1622 47.8111 27.7422 48.16 27.3933L52.2367 23.3233C52.3256 23.2367 52.3267 23.1489 52.24 23.06C50.96 21.7555 49.6678 20.4622 48.3633 19.18C47.6433 18.4733 47.5167 17.8633 47.6533 16.9133C47.6567 16.8918 47.6554 16.8697 47.6494 16.8487C47.6434 16.8277 47.6329 16.8083 47.6186 16.7918C47.6043 16.7753 47.5866 16.7621 47.5667 16.7532C47.5468 16.7442 47.5252 16.7397 47.5033 16.74L45.0767 16.7533C44.9389 16.7533 44.87 16.8222 44.87 16.96L44.86 19.3533C44.8578 19.4867 44.9044 19.6 45 19.6933L47.5267 22.2167C47.7998 22.4886 47.9533 22.8584 47.9533 23.2447C47.9533 23.631 47.7998 24.0022 47.5267 24.2767L44.9967 26.81C44.9078 26.8989 44.8633 27.0055 44.8633 27.13L44.8667 30.6667C44.8667 30.9849 44.7402 31.2901 44.5152 31.5152C44.2901 31.7402 43.9849 31.8667 43.6667 31.8667H40.1367C40.0078 31.8667 39.8978 31.9122 39.8067 32.0033L37.3033 34.4933C37.0379 34.7573 36.6786 34.9052 36.3043 34.9046C35.93 34.9039 35.5712 34.7548 35.3067 34.49L32.8233 31.9967C32.7802 31.9525 32.7283 31.9175 32.671 31.894C32.6137 31.8705 32.5521 31.8589 32.49 31.86L28.9233 31.8733C28.7544 31.8742 28.587 31.8416 28.4307 31.7775C28.2744 31.7134 28.1324 31.6189 28.0127 31.4996C27.8931 31.3803 27.7983 31.2385 27.7338 31.0824C27.6692 30.9263 27.6362 30.7589 27.6367 30.59V27.0133C27.6367 26.8822 27.59 26.77 27.4967 26.6767L24.9567 24.1367C24.7043 23.884 24.5629 23.5412 24.5635 23.1836C24.5641 22.826 24.7067 22.483 24.96 22.23L27.5233 19.67C27.6011 19.5944 27.64 19.5022 27.64 19.3933L27.6333 16.9367C27.6311 16.8078 27.5656 16.7433 27.4367 16.7433L25.09 16.7533C25.0547 16.7533 25.0198 16.761 24.9877 16.7759C24.9556 16.7908 24.9272 16.8124 24.9043 16.8394C24.8815 16.8663 24.8648 16.898 24.8554 16.932C24.846 16.9661 24.8442 17.0018 24.85 17.0367C24.9811 17.85 24.7967 18.5189 24.2967 19.0433C22.9833 20.4122 21.6556 21.7833 20.3133 23.1567C20.2444 23.2278 20.2456 23.2989 20.3167 23.37L24.39 27.4467C24.5401 27.5967 24.6592 27.7746 24.7404 27.9703C24.8216 28.1659 24.8634 28.3753 24.8633 28.5867L24.8667 34.4233C24.8667 34.5589 24.9344 34.6267 25.07 34.6267H31.0067C31.3694 34.6267 31.7183 34.7718 31.9767 35.03L36.12 39.1767C36.2067 39.2633 36.2933 39.2633 36.38 39.1767L40.4933 35.0633C40.7844 34.7722 41.1356 34.6267 41.5467 34.6267H47.42C47.5622 34.6289 47.6333 34.5578 47.6333 34.4133L47.6367 28.6533ZM42.86 16.8067C42.86 16.7916 42.854 16.7772 42.8434 16.7666C42.8328 16.756 42.8184 16.75 42.8033 16.75H29.77C29.6722 16.75 29.6233 16.7989 29.6233 16.8967L29.6 20.3C29.6 20.3895 29.5641 20.4758 29.5 20.54L26.9933 23.0533C26.9044 23.1422 26.9056 23.2311 26.9967 23.32L29.2133 25.5267C29.3411 25.6533 29.4425 25.804 29.5118 25.9699C29.581 26.1358 29.6166 26.3137 29.6167 26.4933L29.6133 29.7067C29.6133 29.8244 29.6722 29.8833 29.79 29.8833H33C33.1776 29.8832 33.3534 29.9182 33.5176 29.9863C33.6818 30.0544 33.831 30.1542 33.9567 30.28L36.1267 32.4467C36.1415 32.4616 36.1592 32.4734 36.1786 32.4815C36.1981 32.4896 36.2189 32.4937 36.24 32.4937C36.2611 32.4937 36.2819 32.4896 36.3014 32.4815C36.3208 32.4734 36.3385 32.4616 36.3533 32.4467L38.88 29.9867C38.9464 29.9225 39.0349 29.8866 39.1267 29.8867L42.67 29.88C42.8122 29.88 42.8833 29.8089 42.8833 29.6667L42.88 26.81C42.88 26.5322 42.935 26.257 43.042 26.0002C43.149 25.7433 43.3058 25.5099 43.5033 25.3133L45.5067 23.32C45.5956 23.2311 45.5956 23.1422 45.5067 23.0533L43.0367 20.5867C42.9747 20.5247 42.9389 20.4424 42.9367 20.3567L42.86 16.8067Z" fill="#597B00"/>
<path d="M59.4798 8.71693C59.4798 9.18093 59.3884 9.64039 59.2108 10.0691C59.0332 10.4978 58.773 10.8873 58.4449 11.2154C58.1168 11.5435 57.7272 11.8037 57.2986 11.9813C56.8699 12.1589 56.4104 12.2503 55.9464 12.2503C55.0093 12.2503 54.1106 11.878 53.448 11.2154C52.7853 10.5527 52.4131 9.65403 52.4131 8.71693C52.4131 7.77983 52.7853 6.88111 53.448 6.21848C54.1106 5.55585 55.0093 5.18359 55.9464 5.18359C56.8835 5.18359 57.7822 5.55585 58.4449 6.21848C59.1075 6.88111 59.4798 7.77983 59.4798 8.71693ZM57.4664 8.72026C57.4664 8.3189 57.307 7.93398 57.0232 7.65017C56.7394 7.36637 56.3544 7.20693 55.9531 7.20693C55.5517 7.20693 55.1668 7.36637 54.883 7.65017C54.5992 7.93398 54.4398 8.3189 54.4398 8.72026C54.4398 9.12162 54.5992 9.50654 54.883 9.79035C55.1668 10.0742 55.5517 10.2336 55.9531 10.2336C56.3544 10.2336 56.7394 10.0742 57.0232 9.79035C57.307 9.50654 57.4664 9.12162 57.4664 8.72026Z" fill="#597B00"/>
<path d="M37.2902 28.6637C37.1558 28.7985 36.9961 28.9056 36.8203 28.9788C36.6445 29.052 36.456 29.0898 36.2656 29.0902C36.0752 29.0905 35.8866 29.0533 35.7105 28.9807C35.5345 28.9082 35.3744 28.8016 35.2396 28.6672L30.8337 24.2767C30.5613 24.0052 30.4079 23.6367 30.4072 23.2521C30.4066 22.8676 30.5587 22.4985 30.8301 22.2261L35.2159 17.8249C35.3503 17.69 35.51 17.583 35.6858 17.5098C35.8616 17.4366 36.0501 17.3988 36.2405 17.3984C36.4309 17.3981 36.6196 17.4353 36.7956 17.5079C36.9717 17.5804 37.1317 17.687 37.2666 17.8214L41.6724 22.2119C41.9448 22.4834 42.0982 22.8519 42.0989 23.2365C42.0996 23.621 41.9475 23.9901 41.676 24.2625L37.2902 28.6637ZM36.3359 19.7721C36.3257 19.7619 36.3136 19.7538 36.3003 19.7482C36.287 19.7427 36.2727 19.7398 36.2582 19.7398C36.2438 19.7398 36.2295 19.7426 36.2161 19.7481C36.2027 19.7536 36.1906 19.7617 36.1804 19.7719L32.7709 23.1695C32.7607 23.1797 32.7525 23.1918 32.747 23.2051C32.7414 23.2184 32.7386 23.2327 32.7386 23.2472C32.7385 23.2616 32.7413 23.2759 32.7469 23.2893C32.7524 23.3027 32.7604 23.3148 32.7706 23.325L36.1635 26.7298C36.1737 26.74 36.1858 26.7482 36.1992 26.7537C36.2125 26.7593 36.2268 26.7621 36.2413 26.7622C36.2557 26.7622 36.27 26.7594 36.2834 26.7538C36.2967 26.7483 36.3089 26.7403 36.3191 26.7301L39.7286 23.3325C39.7388 23.3223 39.7469 23.3102 39.7525 23.2968C39.758 23.2835 39.7609 23.2692 39.7609 23.2547C39.761 23.2403 39.7581 23.226 39.7526 23.2126C39.7471 23.1993 39.739 23.1871 39.7288 23.1769L36.3359 19.7721Z" fill="#597B00"/>
<path d="M56.4902 41.3167C56.5124 38.7367 56.5168 36.1589 56.5035 33.5834C56.4968 32.4134 57.8302 32.0967 58.4135 32.9934C58.4701 33.0804 58.5002 33.1835 58.5002 33.2901V41.9301C58.5002 42.1368 58.4594 42.3415 58.38 42.5324C58.3007 42.7233 58.1845 42.8967 58.038 43.0426C57.8915 43.1885 57.7176 43.304 57.5264 43.3825C57.3351 43.461 57.1303 43.5009 56.9235 43.5001C55.0135 43.4934 52.1668 42.9967 51.1035 45.1601C50.5468 46.2967 50.7402 48.3201 50.7535 49.6934C50.7557 49.8967 50.7176 50.0985 50.6414 50.2871C50.5652 50.4756 50.4524 50.6472 50.3096 50.7919C50.1667 50.9367 49.9966 51.0517 49.809 51.1303C49.6215 51.2089 49.4202 51.2496 49.2168 51.2501C47.9946 51.2501 46.698 51.2523 45.3268 51.2567C44.4835 51.2601 43.8102 50.9534 44.0202 49.9934C44.1335 49.4634 44.6635 49.2601 45.1968 49.2567C46.3213 49.2523 47.4469 49.2501 48.5735 49.2501C48.6891 49.2501 48.748 49.1912 48.7502 49.0734C48.7535 47.8301 48.6435 46.4301 48.9268 45.3267C49.4091 43.4601 50.5724 42.2612 52.4169 41.7301C53.5469 41.4067 55.0135 41.4934 56.3035 41.5001C56.4257 41.5001 56.488 41.4389 56.4902 41.3167Z" fill="#597B00"/>
<path d="M26.4128 44.2579L26.1461 44.2565C25.6712 44.254 25.2841 44.637 25.2816 45.1119L25.2723 46.8852C25.2699 47.3602 25.6529 47.7473 26.1278 47.7497L26.3945 47.7511C26.8695 47.7536 27.2565 47.3706 27.259 46.8957L27.2683 45.1223C27.2708 44.6474 26.8877 44.2603 26.4128 44.2579Z" fill="#597B00"/>
<path d="M29.7032 44.2461H29.5499C29.0418 44.2461 28.6299 44.658 28.6299 45.1661V46.8394C28.6299 47.3475 29.0418 47.7594 29.5499 47.7594H29.7032C30.2113 47.7594 30.6232 47.3475 30.6232 46.8394V45.1661C30.6232 44.658 30.2113 44.2461 29.7032 44.2461Z" fill="#597B00"/>
<path d="M33.0877 44.248L32.8411 44.2502C32.3588 44.2544 31.9712 44.6488 31.9754 45.1311L31.9907 46.8844C31.9949 47.3667 32.3893 47.7543 32.8716 47.7501L33.1183 47.7479C33.6006 47.7437 33.9882 47.3493 33.984 46.867L33.9687 45.1137C33.9644 44.6314 33.57 44.2438 33.0877 44.248Z" fill="#597B00"/>
<path d="M36.3533 44.25L36.1467 44.2504C35.6515 44.2513 35.2507 44.6534 35.2516 45.1486L35.2546 46.8619C35.2554 47.3572 35.6576 47.7579 36.1528 47.757L36.3595 47.7567C36.8547 47.7558 37.2554 47.3537 37.2546 46.8585L37.2516 45.1451C37.2507 44.6499 36.8485 44.2492 36.3533 44.25Z" fill="#597B00"/>
<path d="M39.7673 44.2656L39.5273 44.261C39.0414 44.2517 38.6399 44.6381 38.6306 45.124L38.5973 46.857C38.588 47.3429 38.9743 47.7444 39.4602 47.7537L39.7002 47.7583C40.1861 47.7677 40.5876 47.3813 40.5969 46.8954L40.6302 45.1624C40.6395 44.6765 40.2532 44.275 39.7673 44.2656Z" fill="#597B00"/>
<path d="M42.9871 44.2559H42.7738C42.2823 44.2559 41.8838 44.6543 41.8838 45.1459V46.8659C41.8838 47.3574 42.2823 47.7559 42.7738 47.7559H42.9871C43.4787 47.7559 43.8771 47.3574 43.8771 46.8659V45.1459C43.8771 44.6543 43.4787 44.2559 42.9871 44.2559Z" fill="#597B00"/>
<path d="M46.369 44.2539L46.129 44.2531C45.643 44.2514 45.2476 44.644 45.246 45.13L45.2399 46.8767C45.2382 47.3627 45.6308 47.758 46.1168 47.7597L46.3568 47.7606C46.8428 47.7623 47.2381 47.3696 47.2398 46.8836L47.2459 45.137C47.2476 44.651 46.855 44.2556 46.369 44.2539Z" fill="#597B00"/>
<path d="M20.1267 49.4626C20.1267 49.9382 19.9377 50.3943 19.6014 50.7307C19.2651 51.067 18.809 51.2559 18.3333 51.2559H15.7933C15.3177 51.2559 14.8616 51.067 14.5253 50.7307C14.1889 50.3943 14 49.9382 14 49.4626V46.9359C14 46.4603 14.1889 46.0042 14.5253 45.6678C14.8616 45.3315 15.3177 45.1426 15.7933 45.1426H18.3333C18.809 45.1426 19.2651 45.3315 19.6014 45.6678C19.9377 46.0042 20.1267 46.4603 20.1267 46.9359V49.4626ZM18.1283 47.2344C18.1284 47.2196 18.1255 47.2048 18.1198 47.1911C18.1141 47.1773 18.1058 47.1648 18.0953 47.1543C18.0848 47.1437 18.0723 47.1353 18.0586 47.1296C18.0448 47.1239 18.0301 47.1209 18.0152 47.1209L16.1152 47.1176C16.1003 47.1176 16.0856 47.1205 16.0718 47.1261C16.0581 47.1318 16.0455 47.1401 16.035 47.1506C16.0245 47.1611 16.0161 47.1736 16.0104 47.1874C16.0046 47.2011 16.0017 47.2158 16.0017 47.2307L15.9983 49.1374C15.9983 49.1523 16.0012 49.167 16.0069 49.1808C16.0126 49.1945 16.0209 49.207 16.0314 49.2176C16.0419 49.2281 16.0544 49.2365 16.0681 49.2422C16.0819 49.2479 16.0966 49.2509 16.1115 49.2509L18.0115 49.2542C18.0264 49.2543 18.0411 49.2514 18.0549 49.2457C18.0686 49.24 18.0811 49.2317 18.0917 49.2212C18.1022 49.2107 18.1106 49.1982 18.1163 49.1845C18.122 49.1707 18.125 49.156 18.125 49.1411L18.1283 47.2344Z" fill="#597B00"/>
<path d="M58.5009 49.5117C58.4993 49.7445 58.4518 49.9748 58.3612 50.1893C58.2706 50.4039 58.1386 50.5984 57.9728 50.762C57.807 50.9255 57.6106 51.0547 57.3948 51.1424C57.179 51.23 56.9481 51.2742 56.7152 51.2726L54.1486 51.2547C53.6783 51.2514 53.2286 51.0614 52.8984 50.7265C52.5681 50.3917 52.3845 49.9393 52.3877 49.469L52.4057 46.8957C52.4073 46.6629 52.4548 46.4326 52.5454 46.2181C52.636 46.0035 52.768 45.809 52.9338 45.6454C53.0997 45.4819 53.296 45.3527 53.5118 45.2651C53.7276 45.1774 53.9585 45.1332 54.1914 45.1348L56.758 45.1527C57.2283 45.156 57.678 45.346 58.0082 45.6809C58.3385 46.0158 58.5222 46.4681 58.5189 46.9384L58.5009 49.5117ZM56.5049 47.2426C56.505 47.2273 56.5021 47.2121 56.4963 47.1979C56.4905 47.1838 56.482 47.1709 56.4712 47.16C56.4604 47.1491 56.4476 47.1404 56.4335 47.1345C56.4193 47.1285 56.4042 47.1255 56.3889 47.1254L54.4889 47.1154C54.4736 47.1153 54.4584 47.1183 54.4442 47.1241C54.43 47.1298 54.4171 47.1384 54.4062 47.1492C54.3953 47.1599 54.3867 47.1727 54.3807 47.1869C54.3748 47.201 54.3717 47.2162 54.3716 47.2315L54.3617 49.1314C54.3616 49.1468 54.3645 49.162 54.3703 49.1761C54.3761 49.1903 54.3846 49.2032 54.3954 49.2141C54.4062 49.225 54.419 49.2337 54.4331 49.2396C54.4473 49.2455 54.4624 49.2486 54.4777 49.2487L56.3777 49.2587C56.393 49.2588 56.4082 49.2558 56.4224 49.25C56.4366 49.2442 56.4495 49.2357 56.4604 49.2249C56.4713 49.2141 56.4799 49.2013 56.4859 49.1872C56.4918 49.1731 56.4949 49.1579 56.495 49.1426L56.5049 47.2426Z" fill="#597B00"/>
</g>
</g>
<defs>
<clipPath id="clip0_974_10609">
<rect width="64" height="64" fill="white"/>
</clipPath>
<clipPath id="clip1_974_10609">
<rect width="64" height="64" fill="white"/>
</clipPath>
</defs>
</svg>
