<svg width="64" height="64" viewBox="0 0 64 64" fill="none" xmlns="http://www.w3.org/2000/svg">
<path d="M53.3146 54.3574C53.309 56.1544 53.3082 57.9514 53.3122 59.7484C53.3134 60.4363 53.1124 61.0647 52.3447 61.0635C51.4688 61.0627 50.5933 61.0619 49.7182 61.0611C49.1163 61.0611 48.6671 60.9327 48.4987 60.337C47.9352 58.3341 47.3641 56.334 46.7853 54.3368C46.774 54.2996 46.7493 54.2811 46.7114 54.2811H17.259C17.2493 54.281 17.2398 54.2841 17.2319 54.29C17.2241 54.2959 17.2183 54.3042 17.2154 54.3138C16.6608 56.2682 16.1017 58.2255 15.5382 60.1856C15.3663 60.7814 15.0805 61.0587 14.4641 61.0599C13.5374 61.0623 12.6114 61.0639 11.6862 61.0647C11.2309 61.0647 10.9298 60.8839 10.7829 60.5222C10.7167 60.36 10.6844 60.0496 10.686 59.591C10.69 57.8481 10.6896 56.1051 10.6848 54.3622C10.6848 54.3234 10.6658 54.3021 10.6279 54.298C9.21431 54.1366 8.31983 53.4609 7.94444 52.2709C7.829 51.9044 7.77249 51.3223 7.77491 50.5247C7.78621 46.5359 7.78661 42.5479 7.77612 38.5607C7.77612 38.5211 7.75715 38.4945 7.71921 38.4808C5.41116 37.6807 3.91807 36.186 3.23995 33.9967C1.88128 29.6143 5.1605 25.3457 9.65307 25.2234C9.69586 25.2226 9.71725 25.2004 9.71725 25.1568C9.72089 23.7001 9.66034 22.0641 9.80444 20.7635C10.5492 14.061 15.7259 8.7813 22.4079 7.89974C22.9907 7.82305 23.7964 7.7843 24.8249 7.78349C29.3861 7.78268 33.9473 7.78066 38.5085 7.77743C39.6387 7.77582 40.446 7.796 40.9304 7.83798C47.6366 8.4156 53.0785 13.4361 54.1102 20.1096C54.3476 21.6463 54.2967 23.4748 54.2761 25.1423C54.2761 25.1859 54.2975 25.2089 54.3403 25.2113C57.2974 25.3913 59.3596 26.7754 60.527 29.3636C60.9355 30.2702 61.1155 31.2438 61.0671 32.2844C60.9302 35.2149 59.0726 37.5362 56.279 38.4795C56.2621 38.4851 56.2474 38.496 56.237 38.5105C56.2266 38.5251 56.2209 38.5426 56.2209 38.5607C56.2152 42.6916 56.2148 46.8237 56.2197 50.957C56.2205 51.5068 56.1688 51.9403 56.0647 52.2576C55.6643 53.4726 54.767 54.1511 53.3728 54.2932C53.334 54.2972 53.3146 54.3186 53.3146 54.3574ZM47.4731 35.0659C47.4759 35.0666 47.4788 35.0667 47.4817 35.0662C47.4845 35.0656 47.4872 35.0644 47.4896 35.0627C47.4919 35.0609 47.4938 35.0587 47.4951 35.0561C47.4965 35.0535 47.4972 35.0507 47.4973 35.0477C47.5033 33.706 47.4113 32.0785 47.5869 30.9463C47.9829 28.384 49.7896 26.3193 52.2708 25.5358C52.3096 25.5237 52.3293 25.4975 52.3301 25.4571C52.3632 23.4445 52.362 22.1642 52.3265 21.616C51.9233 15.3736 47.226 10.4706 41.0491 9.79607C40.5292 9.73875 39.7231 9.7109 38.6308 9.71251C34.11 9.71978 29.5891 9.7218 25.0683 9.71857C23.9954 9.71776 23.1889 9.75207 22.6489 9.8215C17.0519 10.5444 12.6308 14.9014 11.794 20.4729C11.5712 21.9636 11.6475 23.803 11.6596 25.4426C11.6596 25.4606 11.6653 25.4782 11.6757 25.4927C11.6861 25.5073 11.7008 25.5181 11.7177 25.5237C14.521 26.4489 16.5094 28.9676 16.4997 31.9393C16.4965 32.9637 16.4973 33.9894 16.5021 35.0163C16.5021 35.0607 16.5235 35.076 16.5663 35.0623C16.8933 34.9581 17.1334 34.9061 17.2868 34.9061C27.0349 34.9061 36.7829 34.9081 46.531 34.9121C46.8184 34.9121 47.1324 34.9634 47.4731 35.0659ZM9.41815 37.0228C9.61917 37.2052 9.71927 37.4482 9.71846 37.7518C9.71766 42.2387 9.71806 46.7256 9.71968 51.2126C9.71968 52.0457 10.1423 52.3436 10.9645 52.3436C24.9137 52.3436 38.8625 52.3436 52.8109 52.3436C53.2694 52.3436 53.579 52.3113 53.7397 52.2467C54.1013 52.1006 54.2822 51.7999 54.2822 51.3445C54.2798 46.839 54.2798 42.3336 54.2822 37.8281C54.2834 37.179 54.5764 36.8908 55.2134 36.7455C57.8726 36.14 59.5316 33.7629 59.0315 31.0977C58.3194 27.3123 53.6828 25.8543 50.9085 28.5353C50.2522 29.1707 49.8142 29.9364 49.5946 30.8325C49.4865 31.2716 49.4332 32.0745 49.4348 33.241C49.4396 36.6042 49.4396 39.9678 49.4348 43.3318C49.4336 44.0329 49.2023 44.5936 48.4382 44.5936C37.5745 44.5936 26.7107 44.5936 15.847 44.5936C15.1374 44.5936 14.5622 44.3744 14.5622 43.5945C14.5614 40.0465 14.5618 36.498 14.5634 32.9492C14.5642 31.9425 14.5049 31.2135 14.3854 30.7622C14.1279 29.7838 13.6193 28.9709 12.8596 28.3234C9.56104 25.5116 4.51022 28.1224 4.90741 32.4224C5.10843 34.5997 6.61362 36.2369 8.74366 36.7467C9.07949 36.8274 9.30432 36.9195 9.41815 37.0228ZM47.4985 38.0533C47.4973 37.4563 47.2624 36.8436 46.5649 36.8436C37.0501 36.8436 27.5358 36.8432 18.0219 36.8424C17.1851 36.8424 16.4973 36.9199 16.4985 37.9031C16.4993 39.4612 16.4997 41.006 16.4997 42.5374C16.4997 42.5689 16.5123 42.599 16.5348 42.6213C16.5573 42.6436 16.5878 42.6561 16.6196 42.6561H47.3786C47.4104 42.6561 47.4409 42.6433 47.4634 42.6206C47.4859 42.5979 47.4985 42.5671 47.4985 42.535C47.5009 41.0415 47.5009 39.5476 47.4985 38.0533ZM13.8054 59.1248C13.8141 59.1249 13.8227 59.1221 13.8297 59.1168C13.8367 59.1116 13.8417 59.1042 13.8441 59.0958L15.1967 54.3319C15.1984 54.326 15.1987 54.3197 15.1976 54.3136C15.1964 54.3075 15.1938 54.3017 15.1901 54.2968C15.1863 54.2919 15.1815 54.2879 15.1759 54.2851C15.1703 54.2824 15.1642 54.281 15.158 54.2811H12.6647C12.6541 54.2811 12.6439 54.2853 12.6364 54.2928C12.6289 54.3003 12.6247 54.3104 12.6247 54.321V59.0849C12.6247 59.0955 12.6289 59.1056 12.6364 59.1131C12.6439 59.1206 12.6541 59.1248 12.6647 59.1248H13.8054ZM48.8426 54.2811C48.8363 54.281 48.83 54.2825 48.8243 54.2853C48.8186 54.288 48.8136 54.2921 48.8097 54.2972C48.8059 54.3022 48.8032 54.3081 48.802 54.3143C48.8008 54.3206 48.801 54.327 48.8027 54.3331L50.1553 59.0945C50.1577 59.1033 50.1629 59.111 50.1701 59.1165C50.1774 59.1219 50.1862 59.1249 50.1953 59.1248H51.3335C51.3445 59.1248 51.3549 59.1205 51.3627 59.1128C51.3704 59.105 51.3747 59.0946 51.3747 59.0836V54.3222C51.3747 54.3113 51.3704 54.3008 51.3627 54.2931C51.3549 54.2854 51.3445 54.2811 51.3335 54.2811H48.8426Z" fill="#597B00"/>
</svg>
