<svg width="41" height="40" viewBox="0 0 41 40" fill="none" xmlns="http://www.w3.org/2000/svg">
<path d="M9.46975 0H15.8955C16.6393 0.211719 16.5112 1.17188 15.8323 1.17188C14.8505 1.17135 13.8739 1.17135 12.9026 1.17188C12.8922 1.17188 12.8823 1.17607 12.8749 1.18354C12.8676 1.19102 12.8635 1.20115 12.8635 1.21172V4.06406C12.8635 4.07308 12.8666 4.08179 12.8721 4.08865C12.8777 4.09552 12.8854 4.10009 12.894 4.10156C14.0653 4.3349 15.2096 4.56536 16.3268 4.79297C16.6791 4.86484 16.9823 5.01719 16.983 5.39609C16.9851 6.87109 16.9854 8.34036 16.9838 9.80391C16.9838 9.81447 16.9881 9.82461 16.9957 9.83208C17.0033 9.83955 17.0137 9.84375 17.0244 9.84375H20.0901C20.1054 9.84375 20.1201 9.83766 20.1309 9.82682C20.1418 9.81598 20.1479 9.80127 20.1479 9.78594C20.1494 8.43958 20.1492 7.08672 20.1471 5.72734C20.1466 5.57005 20.1724 5.41719 20.2244 5.26875C20.6828 3.95208 21.1476 2.62682 21.619 1.29297C21.6239 1.27925 21.6254 1.26454 21.6234 1.25011C21.6214 1.23567 21.616 1.22193 21.6075 1.21005C21.5991 1.19817 21.5879 1.18849 21.575 1.18185C21.562 1.1752 21.5476 1.17178 21.533 1.17188C20.6101 1.1724 19.677 1.17188 18.7338 1.17031C18.3651 1.16953 18.0229 1.05391 17.9807 0.663281C17.9427 0.309635 18.114 0.0885417 18.4948 0H21.6565C22.181 0.0828125 22.5317 0.34974 22.7088 0.800781C22.8948 1.27344 22.7401 1.62031 22.5401 2.19688C22.1661 3.275 21.7875 4.35182 21.4041 5.42734C21.351 5.57578 21.3242 5.72839 21.3237 5.88516C21.32 7.19036 21.3192 8.48333 21.3213 9.76406C21.3213 9.81042 21.3442 9.83333 21.3901 9.83281C22.3783 9.82422 22.6338 10.3773 22.6299 11.2445C22.6263 12.0247 22.6268 12.8044 22.6315 13.5836C22.6315 13.6095 22.6397 13.6344 22.6549 13.6547C23.683 15.0148 24.3744 16.6156 24.9033 18.2242C24.9051 18.2298 24.9084 18.2348 24.9128 18.2386C24.9172 18.2424 24.9226 18.2449 24.9284 18.2458C24.9342 18.2467 24.9401 18.246 24.9455 18.2437C24.9508 18.2414 24.9555 18.2376 24.9588 18.2328C25.727 17.1589 26.7734 16.5497 28.0979 16.4055C28.1089 16.4041 28.1191 16.3989 28.1264 16.3906C28.1338 16.3824 28.1378 16.3719 28.1377 16.3609C28.1362 15.263 28.1362 14.163 28.1377 13.0609C28.1393 12.1289 28.5643 11.8352 29.4744 11.8352C30.588 11.8357 31.7018 11.8362 32.8158 11.8367C33.7354 11.8375 34.0166 12.2859 34.0158 13.1742C34.0153 14.2414 34.0153 15.3021 34.0158 16.3563C34.0158 16.3707 34.0213 16.3846 34.0313 16.3953C34.0413 16.406 34.055 16.4127 34.0698 16.4141C35.0393 16.5047 35.8948 16.8852 36.6057 17.5609C37.8698 18.7625 38.3627 20.7805 37.5299 22.4445C37.1195 23.2633 37.0369 24.1138 37.2823 24.9961C37.3979 25.4125 37.6948 25.8859 37.8205 26.3812C37.8888 26.6469 37.9226 27.018 37.9221 27.4945C37.9221 29.5112 37.9221 31.5279 37.9221 33.5445C37.9221 33.7362 37.8932 33.8805 37.8354 33.9773C37.6408 34.3047 37.0955 34.3273 36.8854 34.0258C36.6823 33.7344 36.7385 33.0445 36.7651 32.6867C36.766 32.6733 36.7627 32.6599 36.7555 32.6486C36.7483 32.6372 36.7377 32.6284 36.7252 32.6234C36.6971 32.6125 36.6734 32.6128 36.6541 32.6242C36.6411 32.6326 36.6268 32.6367 36.6112 32.6367H25.4424C25.4164 32.6367 25.4033 32.6497 25.4033 32.6758C25.4007 34.4779 25.401 36.2799 25.4041 38.082C25.4049 38.6555 25.7362 38.8281 26.2807 38.8281C29.5099 38.8286 32.7393 38.8284 35.969 38.8273C36.5135 38.8273 36.7494 38.5625 36.7487 38.0094C36.7487 37.4964 36.7505 36.9833 36.7541 36.4703C36.7588 35.8312 37.533 35.5492 37.8471 36.1102C38.0213 36.4211 37.9213 37.5766 37.9229 37.9797C37.9283 39.0875 37.3416 39.843 36.1987 40H25.9455C25.6565 39.9651 25.3838 39.8792 25.1276 39.7422C25.1036 39.7292 25.0796 39.7294 25.0557 39.743C24.8099 39.8826 24.5461 39.9682 24.2643 40H4.77288C3.73538 39.8141 3.1596 39.0141 3.41741 37.9836C3.75543 36.6352 4.09736 35.2893 4.44319 33.9461C4.44639 33.9334 4.44464 33.9199 4.43827 33.9083C4.43191 33.8968 4.4214 33.8879 4.40882 33.8836C2.50491 33.2531 2.69397 30.6039 4.65647 30.2148C4.68304 30.2096 4.69658 30.1935 4.6971 30.1664C4.70569 29.3414 4.6346 28.4883 4.84007 27.6867C5.25413 26.0719 6.60491 24.9719 8.2385 24.7594C8.77444 24.6891 9.51116 24.7352 10.1377 24.7234C10.1664 24.7229 10.1841 24.7091 10.1908 24.682C10.3971 23.8904 10.7724 23.2333 11.3166 22.7109C11.6799 22.3625 12.3221 21.9148 12.6338 21.4563C13.1166 20.7458 13.1724 19.9883 12.801 19.1836C12.6046 18.7581 12.5041 18.5383 12.4994 18.5242C12.0989 17.3789 12.2265 16.326 12.8823 15.3656C13.2541 14.8211 13.944 14.1867 14.4729 13.6289C14.4904 13.6108 14.5002 13.5867 14.5002 13.5617C14.508 12.7372 14.5091 11.9133 14.5033 11.0898C14.4971 10.2742 14.8549 9.84375 15.7377 9.82422C15.7877 9.82318 15.8127 9.79766 15.8127 9.74766V5.9375C15.8128 5.92066 15.8069 5.90432 15.796 5.89133C15.7852 5.87834 15.7701 5.86951 15.7533 5.86641L15.1705 5.75625C15.1576 5.75392 15.1443 5.75669 15.1334 5.76397C15.1224 5.77126 15.1148 5.78249 15.1119 5.79531C14.708 7.61484 13.826 9.72344 12.0158 10.5328C11.7966 10.6307 11.6109 10.6641 11.4588 10.6328C11.0916 10.5578 10.894 10.0523 11.1252 9.73594C11.1815 9.65938 11.2911 9.58412 11.4541 9.51016C12.9166 8.85234 13.6604 7.0625 13.9526 5.55078C13.9578 5.52318 13.9468 5.50677 13.9198 5.50156C12.5151 5.22135 11.1096 4.93802 9.70335 4.65156C8.7971 4.46719 8.41116 4.20703 8.41116 3.26328C8.41064 2.66589 8.41012 2.06849 8.4096 1.47109C8.40882 0.674219 8.61194 0.123438 9.46975 0ZM9.58225 3.41406C9.58233 3.41982 9.5844 3.42538 9.5881 3.42979C9.5918 3.4342 9.59691 3.4372 9.60257 3.43828L11.6604 3.85156C11.664 3.85225 11.6677 3.85214 11.6712 3.85124C11.6747 3.85035 11.678 3.84869 11.6809 3.84638C11.6837 3.84407 11.686 3.84117 11.6876 3.83788C11.6892 3.83459 11.69 3.831 11.6901 3.82734L11.6948 1.19687C11.6948 1.19024 11.6921 1.18389 11.6874 1.1792C11.6827 1.17451 11.6764 1.17188 11.6698 1.17188H9.60569C9.59906 1.17188 9.5927 1.17451 9.58801 1.1792C9.58333 1.18389 9.58069 1.19024 9.58069 1.19687L9.58225 3.41406ZM21.4565 11.0484C21.4565 11.0395 21.4529 11.031 21.4466 11.0247C21.4403 11.0184 21.4318 11.0148 21.4229 11.0148H15.7088C15.6999 11.0148 15.6914 11.0184 15.6851 11.0247C15.6788 11.031 15.6752 11.0395 15.6752 11.0484V13.2281C15.6752 13.237 15.6788 13.2456 15.6851 13.2519C15.6914 13.2582 15.6999 13.2617 15.7088 13.2617H21.4229C21.4318 13.2617 21.4403 13.2582 21.4466 13.2519C21.4529 13.2456 21.4565 13.237 21.4565 13.2281V11.0484ZM32.844 13.0281C32.844 13.0225 32.8418 13.0172 32.8378 13.0132C32.8338 13.0093 32.8285 13.007 32.8229 13.007H29.3291C29.3235 13.007 29.3182 13.0093 29.3142 13.0132C29.3103 13.0172 29.308 13.0225 29.308 13.0281V16.3672C29.308 16.3728 29.3103 16.3781 29.3142 16.3821C29.3182 16.3861 29.3235 16.3883 29.3291 16.3883H32.8229C32.8285 16.3883 32.8338 16.3861 32.8378 16.3821C32.8418 16.3781 32.844 16.3728 32.844 16.3672V13.0281ZM14.8658 14.9203C13.9658 15.8156 13.1588 16.568 13.5237 17.907C13.557 18.031 13.657 18.2586 13.8237 18.5898C14.483 19.9 14.2854 21.3727 13.3307 22.4781C12.6432 23.2742 11.8073 23.5758 11.4198 24.6648C11.4047 24.707 11.4198 24.7281 11.4651 24.7281C12.3885 24.7271 13.3 24.7266 14.1994 24.7266C14.5989 24.7266 14.8992 24.7625 15.1002 24.8344C16.5807 25.3664 16.5252 27.4297 15.0541 27.932C14.864 27.9971 14.6062 28.0292 14.2807 28.0281C13.2776 28.0245 12.2711 28.025 11.2612 28.0297C11.251 28.0297 11.2413 28.0337 11.2341 28.0409C11.2269 28.0481 11.2229 28.0578 11.2229 28.068V30.1367C11.2229 30.1521 11.229 30.1668 11.2398 30.1776C11.2507 30.1884 11.2654 30.1945 11.2807 30.1945C13.1812 30.1961 15.0757 30.1961 16.9643 30.1945C17.3263 30.194 17.6086 30.2279 17.8112 30.2961C18.7955 30.6289 19.3151 31.6445 19.0073 32.6281C18.8349 33.1792 18.4299 33.6047 17.7924 33.9047C17.7502 33.9245 17.7349 33.9573 17.7463 34.0031C18.0932 35.3438 18.4382 36.7057 18.7815 38.0891C18.8416 38.3312 18.8338 38.5555 18.7854 38.7859C18.7843 38.791 18.7844 38.7963 18.7857 38.8014C18.7869 38.8064 18.7893 38.8111 18.7926 38.8152C18.7959 38.8192 18.8 38.8225 18.8047 38.8247C18.8094 38.8269 18.8145 38.8281 18.8198 38.8281H24.269C24.2772 38.8282 24.2853 38.8263 24.2927 38.8227C24.3001 38.8191 24.3066 38.8138 24.3116 38.8072C24.3167 38.8006 24.3202 38.793 24.3218 38.7848C24.3235 38.7767 24.3233 38.7682 24.3213 38.7602C24.2721 38.5758 24.2307 38.3961 24.2307 38.1977C24.2302 34.5747 24.2304 30.9516 24.2315 27.3281C24.2315 26.6828 24.3323 26.2102 24.5893 25.6648C25.1104 24.5602 25.1643 23.5664 24.6135 22.4555C24.2557 21.7344 24.2057 21.0914 24.2377 20.2938C24.2445 20.1198 24.2252 19.9539 24.1799 19.7961C23.6596 17.9813 22.9283 15.9664 21.8002 14.4672C21.7925 14.4568 21.7823 14.4483 21.7705 14.4425C21.7587 14.4366 21.7456 14.4336 21.7323 14.4336H15.3823C15.3557 14.4336 15.3325 14.4424 15.3127 14.4602C15.1494 14.6016 14.9807 14.807 14.8658 14.9203ZM28.4744 17.5695C26.5533 17.5828 25.1994 19.1937 25.4065 21.0828C25.469 21.6539 25.8127 22.1687 25.9854 22.6828C25.9921 22.7042 26.007 22.7148 26.0299 22.7148H36.1073C36.1223 22.7149 36.137 22.7102 36.1492 22.7015C36.1614 22.6928 36.1705 22.6805 36.1752 22.6664C36.2685 22.3914 36.382 22.1211 36.5158 21.8555C36.8862 21.1203 36.8213 20.032 36.4541 19.3039C35.9666 18.3388 35.2049 17.7742 34.169 17.6102C33.9627 17.5779 33.4427 17.5609 32.6088 17.5594C31.2307 17.5568 29.8526 17.5602 28.4744 17.5695ZM35.9666 23.8992C35.9661 23.8909 35.9617 23.8867 35.9533 23.8867H26.2401C26.2235 23.8867 26.2076 23.8933 26.1959 23.905C26.1842 23.9167 26.1776 23.9326 26.1776 23.9492C26.1786 24.5341 26.0882 25.0857 25.9065 25.6039C25.8112 25.8773 25.5908 26.2477 25.4893 26.6C25.431 26.8021 25.402 27.0669 25.4026 27.3945C25.4031 28.7174 25.4023 30.0664 25.4002 31.4414C25.4002 31.4476 25.4027 31.4536 25.4071 31.458C25.4115 31.4624 25.4174 31.4648 25.4237 31.4648H36.6737C36.7252 31.4648 36.751 31.4391 36.751 31.3875C36.7515 29.9615 36.7507 28.5547 36.7487 27.1672C36.7487 26.9211 36.6893 26.5219 36.5932 26.35C36.1921 25.6365 35.9833 24.8195 35.9666 23.8992ZM14.3948 26.8547C15.244 26.8539 15.1112 25.9008 14.6158 25.9C12.7841 25.8969 10.9523 25.8969 9.12053 25.9C8.56481 25.901 8.16272 25.9359 7.91429 26.0047C6.6721 26.3492 5.87913 27.4859 5.86975 28.7711C5.86663 29.2299 5.86845 29.6919 5.87522 30.157C5.87522 30.1826 5.88824 30.1953 5.91429 30.1953H6.78616C6.81272 30.1953 6.826 30.182 6.826 30.1555C6.83304 29.5242 6.75413 28.7148 6.92054 28.1695C7.226 27.1648 8.026 26.8531 9.00179 26.8547C10.7992 26.8562 12.5968 26.8562 14.3948 26.8547ZM10.0033 28.0367C9.2471 28.0133 7.99788 27.8008 7.99788 28.7313C7.99788 29.2047 7.99918 29.6737 8.00179 30.1383C8.00199 30.1535 8.00809 30.168 8.01876 30.1787C8.02944 30.1893 8.04383 30.1953 8.05882 30.1953H9.99241C10.008 30.1953 10.0229 30.1891 10.0338 30.1782C10.0448 30.1672 10.051 30.1523 10.051 30.1367V28.0852C10.051 28.0539 10.0351 28.0378 10.0033 28.0367ZM17.9229 32.0711C17.9229 31.8844 17.8487 31.7054 17.7167 31.5734C17.5847 31.4413 17.4057 31.3672 17.219 31.3672H4.95491C4.76822 31.3672 4.58918 31.4413 4.45717 31.5734C4.32517 31.7054 4.251 31.8844 4.251 32.0711V32.0883C4.251 32.275 4.32517 32.454 4.45717 32.586C4.58918 32.718 4.76822 32.7922 4.95491 32.7922H17.219C17.4057 32.7922 17.5847 32.718 17.7167 32.586C17.8487 32.454 17.9229 32.275 17.9229 32.0883V32.0711ZM6.56507 36.0586C6.88538 35.6008 7.61038 35.8398 7.61741 36.3922C7.61793 36.4146 7.59892 36.5547 7.56038 36.8125C7.46403 37.4615 7.36272 38.1172 7.25647 38.7797C7.25545 38.7856 7.25576 38.7917 7.25737 38.7975C7.25897 38.8033 7.26185 38.8087 7.26579 38.8133C7.26973 38.8179 7.27464 38.8216 7.28018 38.8242C7.28572 38.8267 7.29176 38.8281 7.29788 38.8281H9.01429C9.02645 38.8281 9.03814 38.8235 9.04689 38.8152C9.05564 38.8069 9.06076 38.7956 9.06116 38.7836C9.09554 37.9971 9.13486 37.2266 9.17913 36.4719C9.23304 35.5336 10.4057 35.6352 10.3455 36.5438C10.3221 36.8943 10.2854 37.6435 10.2354 38.7914C10.2343 38.8159 10.2458 38.8281 10.2698 38.8281H11.9057C11.9111 38.8281 11.9164 38.827 11.9213 38.825C11.9262 38.8228 11.9307 38.8198 11.9344 38.8159C11.9382 38.812 11.9411 38.8075 11.943 38.8024C11.9449 38.7974 11.9457 38.7921 11.9455 38.7867C11.9054 38.0206 11.8645 37.2531 11.8229 36.4844C11.7783 35.6586 12.9471 35.5164 12.9994 36.5211C13.0385 37.2742 13.0783 38.0305 13.119 38.7898C13.1205 38.8154 13.1341 38.8281 13.1596 38.8281H14.8744C14.8811 38.8281 14.8878 38.8266 14.8938 38.8238C14.8999 38.821 14.9053 38.8168 14.9096 38.8117C14.9139 38.8066 14.9171 38.8005 14.9188 38.7941C14.9206 38.7876 14.9209 38.7808 14.9198 38.7742C14.8047 38.0643 14.6935 37.3495 14.5862 36.6297C14.5617 36.4688 14.5596 36.3461 14.5799 36.2617C14.6987 35.7609 15.3744 35.6516 15.6346 36.0953C15.6799 36.1734 15.7177 36.3078 15.7479 36.4984C15.8677 37.2573 15.9859 38.0203 16.1026 38.7875C16.1041 38.7984 16.1094 38.8083 16.1177 38.8156C16.126 38.823 16.1367 38.8271 16.1479 38.8273C16.5033 38.8297 17.8166 39.0227 17.644 38.3445C17.2742 36.8945 16.9062 35.4466 16.5401 34.0008C16.5373 33.9905 16.5313 33.9814 16.523 33.9749C16.5147 33.9684 16.5045 33.9649 16.494 33.9648H5.69475C5.6635 33.9648 5.64397 33.9799 5.63616 34.0102C5.27054 35.4294 4.90934 36.8503 4.55257 38.2727C4.45647 38.6555 4.6385 38.8227 5.01975 38.8266C5.35934 38.8302 5.69528 38.8302 6.02757 38.8266C6.03915 38.8265 6.05032 38.8223 6.05907 38.8147C6.06781 38.8071 6.07354 38.7966 6.07522 38.7852C6.18824 38.0299 6.30465 37.2727 6.42444 36.5133C6.45934 36.2945 6.50621 36.143 6.56507 36.0586Z" fill="#597B00"/>
</svg>
