<svg width="64" height="64" viewBox="0 0 64 64" fill="none" xmlns="http://www.w3.org/2000/svg">
<g clip-path="url(#clip0_974_10528)">
<g clip-path="url(#clip1_974_10528)">
<path d="M59.1274 58.2301C59.1234 59.0794 59.1214 59.9291 59.1214 60.7791C59.1226 61.6389 58.8138 62.0312 57.9564 62.0312C40.6053 62.0312 23.2546 62.0312 5.9043 62.0312C4.98035 62.0312 4.86773 61.3495 4.87379 60.5527C4.88025 59.7785 4.87944 59.0035 4.87137 58.2277C4.87056 58.1825 4.84796 58.1599 4.80355 58.1599C4.27962 58.1542 3.76134 58.1522 3.24871 58.1538C2.43254 58.1575 1.96875 57.8959 1.96875 57.0458C1.96875 39.0198 1.96875 20.9938 1.96875 2.96777C1.96875 2.49954 2.15564 2.1956 2.52941 2.05594C2.68522 1.99781 3.00128 1.96875 3.47758 1.96875C22.5539 1.96875 41.6306 1.96875 60.7077 1.96875C61.5759 1.96875 62.0312 2.21094 62.0312 3.1143C62.0312 21.1185 62.0312 39.1227 62.0312 57.127C62.0312 57.7881 61.6777 58.1236 60.9705 58.1332C60.3779 58.1405 59.7846 58.1514 59.1904 58.1659C59.1484 58.1667 59.1274 58.1881 59.1274 58.2301ZM25.2188 3.99586C25.2188 3.97209 25.2093 3.9493 25.1925 3.9325C25.1757 3.91569 25.1529 3.90625 25.1291 3.90625H3.99586C3.97209 3.90625 3.9493 3.91569 3.9325 3.9325C3.91569 3.9493 3.90625 3.97209 3.90625 3.99586V7.69164C3.90625 7.71541 3.91569 7.7382 3.9325 7.755C3.9493 7.77181 3.97209 7.78125 3.99586 7.78125H25.1291C25.1529 7.78125 25.1757 7.77181 25.1925 7.755C25.2093 7.7382 25.2188 7.71541 25.2188 7.69164V3.99586ZM42.6562 4.00434C42.6562 3.97832 42.6459 3.95337 42.6275 3.93498C42.6091 3.91658 42.5842 3.90625 42.5582 3.90625H27.2543C27.2283 3.90625 27.2034 3.91658 27.185 3.93498C27.1666 3.95337 27.1562 3.97832 27.1562 4.00434V56.1207C27.1562 56.1467 27.1666 56.1716 27.185 56.19C27.2034 56.2084 27.2283 56.2188 27.2543 56.2188H42.5582C42.5842 56.2188 42.6091 56.2084 42.6275 56.19C42.6459 56.1716 42.6562 56.1467 42.6562 56.1207V4.00434ZM60.0938 3.99828C60.0938 3.97387 60.0841 3.95046 60.0668 3.93321C60.0495 3.91595 60.0261 3.90625 60.0017 3.90625H44.6858C44.6614 3.90625 44.638 3.91595 44.6207 3.93321C44.6034 3.95046 44.5938 3.97387 44.5938 3.99828V56.1267C44.5938 56.1511 44.6034 56.1745 44.6207 56.1918C44.638 56.2091 44.6614 56.2188 44.6858 56.2188H60.0017C60.0261 56.2188 60.0495 56.2091 60.0668 56.1918C60.0841 56.1745 60.0938 56.1511 60.0938 56.1267V3.99828ZM22.5729 26.2432C23.498 27.3742 23.5259 28.877 22.5644 30.0116C22.5353 30.0447 22.5349 30.0782 22.5632 30.1121C23.2558 30.9332 23.4423 31.866 23.1226 32.9106C23.1113 32.9494 23.1254 32.9688 23.165 32.9688H25.1582C25.1986 32.9688 25.2188 32.9486 25.2188 32.9082V9.80957C25.2188 9.78548 25.2092 9.76238 25.1922 9.74535C25.1751 9.72832 25.152 9.71875 25.1279 9.71875H3.9668C3.92643 9.71875 3.90625 9.73893 3.90625 9.7793V32.8925C3.90625 32.9425 3.93128 32.9675 3.98133 32.9675L5.93094 32.9688C5.98503 32.9688 6.0044 32.9429 5.98906 32.8912C5.6831 31.8587 5.86757 30.938 6.54246 30.1291C6.57152 30.0944 6.57273 30.0593 6.54609 30.0237C5.60318 28.7644 5.59874 27.5034 6.53277 26.2408C6.5578 26.2069 6.5582 26.173 6.53398 26.1391C5.64919 24.8886 5.60358 23.699 6.39715 22.5704C6.97719 21.7434 7.81637 21.351 8.81055 21.351C12.6751 21.3462 16.5404 21.3438 20.4065 21.3438C21.4491 21.3438 22.3755 21.9165 22.8925 22.8308C23.5085 23.9206 23.4015 25.0262 22.5716 26.1475C22.5474 26.1798 22.5478 26.2117 22.5729 26.2432ZM21.3377 24.2343C21.3377 23.9818 21.2374 23.7397 21.0589 23.5612C20.8804 23.3827 20.6383 23.2825 20.3859 23.2825H8.7391C8.48667 23.2825 8.24458 23.3827 8.06608 23.5612C7.88758 23.7397 7.7873 23.9818 7.7873 24.2343V24.2657C7.7873 24.3907 7.81192 24.5145 7.85976 24.63C7.90759 24.7455 7.9777 24.8504 8.06608 24.9388C8.15446 25.0271 8.25939 25.0973 8.37486 25.1451C8.49034 25.1929 8.61411 25.2175 8.7391 25.2175H20.3859C20.5109 25.2175 20.6347 25.1929 20.7501 25.1451C20.8656 25.0973 20.9705 25.0271 21.0589 24.9388C21.1473 24.8504 21.2174 24.7455 21.2652 24.63C21.3131 24.5145 21.3377 24.3907 21.3377 24.2657V24.2343ZM21.3377 28.1093C21.3377 27.8568 21.2374 27.6147 21.0589 27.4362C20.8804 27.2577 20.6383 27.1575 20.3859 27.1575H8.7391C8.48667 27.1575 8.24458 27.2577 8.06608 27.4362C7.88758 27.6147 7.7873 27.8568 7.7873 28.1093V28.1407C7.7873 28.3932 7.88758 28.6353 8.06608 28.8138C8.24458 28.9923 8.48667 29.0925 8.7391 29.0925H20.3859C20.6383 29.0925 20.8804 28.9923 21.0589 28.8138C21.2374 28.6353 21.3377 28.3932 21.3377 28.1407V28.1093ZM21.3377 31.9843C21.3377 31.7318 21.2374 31.4897 21.0589 31.3112C20.8804 31.1327 20.6383 31.0325 20.3859 31.0325H8.7391C8.48667 31.0325 8.24458 31.1327 8.06608 31.3112C7.88758 31.4897 7.7873 31.7318 7.7873 31.9843V32.0157C7.7873 32.1407 7.81192 32.2645 7.85976 32.38C7.90759 32.4955 7.9777 32.6004 8.06608 32.6888C8.15446 32.7771 8.25939 32.8473 8.37486 32.8951C8.49034 32.9429 8.61411 32.9675 8.7391 32.9675H20.3859C20.5109 32.9675 20.6347 32.9429 20.7501 32.8951C20.8656 32.8473 20.9705 32.7771 21.0589 32.6888C21.1473 32.6004 21.2174 32.4955 21.2652 32.38C21.3131 32.2645 21.3377 32.1407 21.3377 32.0157V31.9843ZM25.2188 34.9886C25.2188 34.9668 25.2101 34.9458 25.1946 34.9304C25.1792 34.9149 25.1582 34.9062 25.1364 34.9062H3.98859C3.96675 34.9062 3.94581 34.9149 3.93037 34.9304C3.91493 34.9458 3.90625 34.9668 3.90625 34.9886V44.5114C3.90625 44.5332 3.91493 44.5542 3.93037 44.5696C3.94581 44.5851 3.96675 44.5938 3.98859 44.5938H25.1364C25.1582 44.5938 25.1792 44.5851 25.1946 44.5696C25.2101 44.5542 25.2188 44.5332 25.2188 44.5114V34.9886ZM25.2188 46.6196C25.2188 46.5962 25.2094 46.5737 25.1929 46.5571C25.1763 46.5406 25.1538 46.5312 25.1304 46.5312H3.99465C3.9712 46.5312 3.94872 46.5406 3.93214 46.5571C3.91556 46.5737 3.90625 46.5962 3.90625 46.6196V56.1304C3.90625 56.1538 3.91556 56.1763 3.93214 56.1929C3.94872 56.2094 3.9712 56.2188 3.99465 56.2188H25.1304C25.1538 56.2188 25.1763 56.2094 25.1929 56.1929C25.2094 56.1763 25.2188 56.1538 25.2188 56.1304V46.6196ZM57.1875 58.2471C57.1875 58.223 57.1779 58.1999 57.1609 58.1828C57.1439 58.1658 57.1208 58.1562 57.0967 58.1562H6.90332C6.87923 58.1562 6.85613 58.1658 6.8391 58.1828C6.82207 58.1999 6.8125 58.223 6.8125 58.2471V60.0029C6.8125 60.027 6.82207 60.0501 6.8391 60.0672C6.85613 60.0842 6.87923 60.0938 6.90332 60.0938H57.0967C57.1208 60.0938 57.1439 60.0842 57.1609 60.0672C57.1779 60.0501 57.1875 60.027 57.1875 60.0029V58.2471Z" fill="#597B00"/>
<path d="M40.6485 28.127H38.8515C38.8127 28.127 38.7812 28.1584 38.7812 28.1972V31.9317C38.7812 31.9705 38.8127 32.002 38.8515 32.002H40.6485C40.6873 32.002 40.7188 31.9705 40.7188 31.9317V28.1972C40.7188 28.1584 40.6873 28.127 40.6485 28.127Z" fill="#597B00"/>
<path d="M58.086 28.127H56.289C56.2502 28.127 56.2188 28.1584 56.2188 28.1972V31.9317C56.2188 31.9705 56.2502 32.002 56.289 32.002H58.086C58.1248 32.002 58.1562 31.9705 58.1562 31.9317V28.1972C58.1562 28.1584 58.1248 28.127 58.086 28.127Z" fill="#597B00"/>
<path d="M16.4322 36.8438H12.6928C12.6554 36.8438 12.625 36.8741 12.625 36.9116V38.7134C12.625 38.7509 12.6554 38.7812 12.6928 38.7812H16.4322C16.4696 38.7812 16.5 38.7509 16.5 38.7134V36.9116C16.5 36.8741 16.4696 36.8438 16.4322 36.8438Z" fill="#597B00"/>
<path d="M16.4322 48.4688H12.6928C12.6554 48.4688 12.625 48.4991 12.625 48.5366V50.3384C12.625 50.3759 12.6554 50.4062 12.6928 50.4062H16.4322C16.4696 50.4062 16.5 50.3759 16.5 50.3384V48.5366C16.5 48.4991 16.4696 48.4688 16.4322 48.4688Z" fill="#597B00"/>
</g>
</g>
<defs>
<clipPath id="clip0_974_10528">
<rect width="64" height="64" fill="white"/>
</clipPath>
<clipPath id="clip1_974_10528">
<rect width="62" height="62" fill="white" transform="translate(1 1)"/>
</clipPath>
</defs>
</svg>
