<svg width="64" height="64" viewBox="0 0 64 64" fill="none" xmlns="http://www.w3.org/2000/svg">
<g clip-path="url(#clip0_974_10370)">
<g clip-path="url(#clip1_974_10370)">
<path d="M31.855 0H32.1675C35.8925 0.25625 38.2637 3.95125 36.625 7.40875C35.9467 8.83958 34.7896 9.76083 33.1538 10.1725C33.1081 10.1841 33.0676 10.2107 33.0387 10.2479C33.0098 10.2851 32.994 10.3308 32.994 10.3778C32.994 10.4248 33.0098 10.4704 33.0387 10.5072C33.0676 10.5441 33.1081 10.5702 33.1538 10.5813L40.0975 12.3138C40.15 12.3271 40.1783 12.3067 40.1825 12.2525C40.2137 11.7812 40.2088 11.1575 40.4463 10.7812C40.6838 10.4054 41.0558 10.2633 41.5625 10.355C45.3317 11.0408 49.0988 11.7371 52.8638 12.4438C53.0779 12.4838 53.2733 12.5921 53.45 12.7688C56.8842 16.1987 60.3171 19.63 63.7487 23.0625C63.8596 23.1733 63.9433 23.3733 64 23.6625V23.8438C63.9375 24.1246 63.8408 24.3304 63.71 24.4613C60.9667 27.2062 58.2221 29.9508 55.4762 32.695C54.83 33.3413 54.215 32.96 53.6525 32.4012C52.9858 31.7379 52.3217 31.0733 51.66 30.4075C51.6563 30.4038 51.6516 30.4012 51.6465 30.4001C51.6413 30.3991 51.636 30.3996 51.6311 30.4016C51.6263 30.4037 51.6222 30.4071 51.6193 30.4115C51.6164 30.4159 51.6149 30.421 51.615 30.4263C51.6167 38.4679 51.6162 46.5133 51.6138 54.5625C51.6138 54.9433 51.5292 55.2183 51.36 55.3875C48.6408 58.1075 45.9208 60.8263 43.2 63.5438C42.9467 63.7962 42.6792 63.9483 42.3975 64H4.87375C2.13875 63.7375 0.29625 61.8713 0 59.1413V58.8325C0.0641667 57.1717 0.741667 55.8162 2.0325 54.7663C2.0725 54.7337 2.0725 54.7013 2.0325 54.6688C0.8275 53.6813 0.15 52.4129 0 50.8638V50.555C0.0658333 48.895 0.7425 47.5475 2.03 46.5125C2.07 46.4808 2.07 46.4483 2.03 46.415C0.805833 45.4083 0.129167 44.125 0 42.565V42.1275C0.21125 39.24 2.39375 37.1662 5.2825 37.1625C7.62417 37.16 9.96958 37.1579 12.3188 37.1562C12.3621 37.1562 12.3837 37.1346 12.3837 37.0913V30.4425C12.3837 30.3925 12.3663 30.385 12.3313 30.42C11.6221 31.1267 10.9129 31.8342 10.2037 32.5425C9.465 33.28 8.95 33.1163 8.24375 32.4113C5.61292 29.7821 2.98292 27.1521 0.35375 24.5212C0.16875 24.3371 0.0508333 24.0996 0 23.8088V23.6488C0.0641667 23.3654 0.159167 23.1604 0.285 23.0338C3.71667 19.6012 7.14833 16.1688 10.58 12.7362C10.7408 12.5746 10.9342 12.4725 11.16 12.43C14.9283 11.7292 18.6979 11.0358 22.4688 10.35C22.8246 10.2858 23.1237 10.3604 23.3662 10.5737C23.7837 10.9425 23.81 11.7238 23.8125 12.2675C23.8125 12.2756 23.8143 12.2837 23.8178 12.291C23.8213 12.2984 23.8265 12.3048 23.8329 12.3098C23.8392 12.3149 23.8467 12.3184 23.8546 12.3202C23.8626 12.322 23.8708 12.3219 23.8787 12.32L30.9088 10.5625C30.9496 10.5517 30.97 10.5254 30.97 10.4838C30.9662 9.865 30.7812 8.73375 31.5487 8.37875C31.6129 8.34958 31.9029 8.29667 32.4188 8.22C34.585 7.8975 35.7562 5.57625 34.6787 3.6575C34.0362 2.5125 32.7525 1.86375 31.4562 2.13625C29.9379 2.45542 29.0829 3.43917 28.8913 5.0875C28.8863 5.135 28.86 5.15875 28.8125 5.15875H26.91C26.8733 5.15875 26.8554 5.14 26.8563 5.1025C26.9175 2.27375 29.0487 0.16875 31.855 0ZM32 18.4613C35.0563 18.495 37.87 16.99 39.45 14.355C39.4733 14.315 39.4625 14.2892 39.4175 14.2775C37.0267 13.6633 34.6304 13.0654 32.2287 12.4838C32.0562 12.4421 31.8842 12.4429 31.7125 12.4862C29.3217 13.0887 26.9458 13.6825 24.585 14.2675C24.5736 14.2703 24.5631 14.2758 24.5544 14.2836C24.5456 14.2913 24.5388 14.3011 24.5345 14.3121C24.5302 14.323 24.5286 14.3349 24.5298 14.3468C24.531 14.3586 24.5349 14.37 24.5413 14.38C26.2871 17.0658 28.7733 18.4263 32 18.4613ZM46.815 25.445L48.1675 24.0912C48.1992 24.0596 48.2312 24.0596 48.2637 24.0912L54.6675 30.4963C54.6793 30.5075 54.6949 30.5138 54.711 30.5138C54.7271 30.5138 54.7424 30.5075 54.7537 30.4963L61.4562 23.7925C61.4629 23.7859 61.4683 23.778 61.4719 23.7693C61.4755 23.7606 61.4774 23.7513 61.4774 23.7419C61.4774 23.7325 61.4755 23.7231 61.4719 23.7144C61.4683 23.7058 61.4629 23.6979 61.4562 23.6912L52.1787 14.415C52.1546 14.3908 52.1263 14.3758 52.0938 14.37L42.3075 12.5887C42.255 12.5787 42.2237 12.6 42.2137 12.6525C41.9562 14.0933 41.4237 15.3421 40.6162 16.3988C37.4963 20.4825 31.81 21.55 27.2 19.4575C24.3963 18.1838 22.31 15.68 21.775 12.6213C21.7741 12.6151 21.772 12.6092 21.7687 12.6039C21.7655 12.5987 21.7611 12.5941 21.756 12.5905C21.7509 12.5868 21.7451 12.5843 21.7389 12.5829C21.7327 12.5815 21.7263 12.5814 21.72 12.5825L11.9312 14.365C11.8804 14.3742 11.8371 14.3971 11.8013 14.4338L2.54375 23.6912C2.50958 23.7254 2.50958 23.7592 2.54375 23.7925L9.23875 30.4888C9.27208 30.5221 9.30583 30.5221 9.34 30.4888L15.7362 24.0912C15.7679 24.0596 15.7996 24.0596 15.8313 24.0912L17.1938 25.4525C17.2288 25.4875 17.2288 25.5225 17.1938 25.5575L14.5125 28.2388C14.4939 28.2569 14.4791 28.2787 14.469 28.3027C14.4589 28.3268 14.4537 28.3526 14.4537 28.3787V37.0913C14.4537 37.1346 14.4758 37.1562 14.52 37.1562C18.545 37.1596 22.5696 37.16 26.5938 37.1575C27.8213 37.1575 28.6508 37.2062 29.0825 37.3037C33.3138 38.265 34.3875 43.7863 30.9862 46.3963C30.9787 46.4021 30.9726 46.4096 30.9684 46.4181C30.9642 46.4267 30.9621 46.4361 30.9621 46.4456C30.9621 46.4552 30.9642 46.4646 30.9684 46.4731C30.9726 46.4817 30.9787 46.4892 30.9862 46.495C32.2738 47.4862 33.0013 48.925 33.0112 50.5625C33.0212 52.1908 32.3533 53.5533 31.0075 54.65C30.9717 54.6792 30.97 54.7104 31.0025 54.7438C31.2887 55.0288 31.6338 55.3125 31.86 55.59C33.3587 57.4275 33.3938 59.9075 32.0175 61.8537C31.9792 61.9079 31.9933 61.935 32.06 61.935H41.2175C41.2608 61.935 41.2825 61.9133 41.2825 61.87C41.2892 59.6942 41.29 57.5187 41.285 55.3438C41.2837 54.4725 41.38 53.675 42.405 53.6763C44.7733 53.6787 47.1371 53.6792 49.4963 53.6775C49.5028 53.6775 49.5093 53.6762 49.5154 53.6736C49.5215 53.671 49.527 53.6673 49.5316 53.6625C49.5362 53.6577 49.5399 53.6521 49.5424 53.6459C49.545 53.6396 49.5462 53.633 49.5462 53.6263V28.3563C49.5462 28.3178 49.5309 28.2809 49.5037 28.2537L46.815 25.565C46.775 25.525 46.775 25.485 46.815 25.445ZM30.9451 42.2777C30.9465 41.4757 30.6293 40.7061 30.0632 40.138C29.4971 39.57 28.7286 39.2501 27.9266 39.2487L5.11916 39.2089C4.72208 39.2082 4.32874 39.2857 3.96162 39.437C3.5945 39.5883 3.26077 39.8105 2.9795 40.0908C2.69823 40.371 2.47492 40.704 2.32232 41.0706C2.16973 41.4372 2.09083 41.8302 2.09014 42.2273L2.0899 42.3623C2.0885 43.1643 2.40574 43.9339 2.97181 44.502C3.53788 45.07 4.30643 45.3899 5.10838 45.3913L27.9158 45.4311C28.3129 45.4318 28.7063 45.3543 29.0734 45.203C29.4405 45.0517 29.7742 44.8295 30.0555 44.5492C30.3368 44.269 30.5601 43.936 30.7127 43.5694C30.8653 43.2028 30.9442 42.8098 30.9449 42.4127L30.9451 42.2777ZM30.945 50.5137C30.945 49.7118 30.6264 48.9427 30.0594 48.3756C29.4923 47.8086 28.7232 47.49 27.9212 47.49H5.11375C4.3118 47.49 3.5427 47.8086 2.97564 48.3756C2.40857 48.9427 2.09 49.7118 2.09 50.5137V50.6488C2.09 51.4507 2.40857 52.2198 2.97564 52.7869C3.5427 53.3539 4.3118 53.6725 5.11375 53.6725H27.9212C28.7232 53.6725 29.4923 53.3539 30.0594 52.7869C30.6264 52.2198 30.945 51.4507 30.945 50.6488V50.5137ZM30.9487 58.7725C30.9487 58.3757 30.8706 57.9829 30.7188 57.6163C30.5669 57.2498 30.3444 56.9167 30.0638 56.6362C29.7833 56.3556 29.4502 56.1331 29.0837 55.9812C28.7171 55.8294 28.3243 55.7513 27.9275 55.7513H5.1075C4.30621 55.7513 3.53775 56.0696 2.97115 56.6362C2.40456 57.2027 2.08625 57.9712 2.08625 58.7725V58.9075C2.08625 59.7088 2.40456 60.4773 2.97115 61.0438C3.53775 61.6104 4.30621 61.9287 5.1075 61.9287H27.9275C28.3243 61.9287 28.7171 61.8506 29.0837 61.6988C29.4502 61.5469 29.7833 61.3244 30.0638 61.0438C30.3444 60.7633 30.5669 60.4302 30.7188 60.0637C30.8706 59.6971 30.9487 59.3043 30.9487 58.9075V58.7725ZM43.3537 60.3812C43.3538 60.3892 43.3562 60.3969 43.3607 60.4035C43.3652 60.41 43.3715 60.4151 43.3789 60.4181C43.3863 60.421 43.3944 60.4217 43.4021 60.4201C43.4099 60.4184 43.417 60.4145 43.4225 60.4087L48.0175 55.8138C48.0232 55.8082 48.0271 55.8011 48.0288 55.7934C48.0305 55.7856 48.0298 55.7775 48.0268 55.7701C48.0239 55.7628 48.0188 55.7564 48.0122 55.752C48.0057 55.7475 47.9979 55.7451 47.99 55.745H43.3937C43.3831 55.745 43.373 55.7492 43.3655 55.7567C43.358 55.7642 43.3537 55.7744 43.3537 55.785V60.3812Z" fill="#597B00"/>
<path d="M28.8579 41.2871H4.17543C4.1492 41.2871 4.12793 41.3084 4.12793 41.3346V43.3071C4.12793 43.3333 4.1492 43.3546 4.17543 43.3546H28.8579C28.8842 43.3546 28.9054 43.3333 28.9054 43.3071V41.3346C28.9054 41.3084 28.8842 41.2871 28.8579 41.2871Z" fill="#597B00"/>
<path d="M27.8254 49.5469H4.17543C4.1492 49.5469 4.12793 49.5681 4.12793 49.5944V51.5694C4.12793 51.5956 4.1492 51.6169 4.17543 51.6169H27.8254C27.8517 51.6169 27.8729 51.5956 27.8729 51.5694V49.5944C27.8729 49.5681 27.8517 49.5469 27.8254 49.5469Z" fill="#597B00"/>
<path d="M27.8379 57.8066H4.16293C4.1436 57.8066 4.12793 57.8223 4.12793 57.8416V59.8366C4.12793 59.856 4.1436 59.8716 4.16293 59.8716H27.8379C27.8573 59.8716 27.8729 59.856 27.8729 59.8366V57.8416C27.8729 57.8223 27.8573 57.8066 27.8379 57.8066Z" fill="#597B00"/>
</g>
</g>
<defs>
<clipPath id="clip0_974_10370">
<rect width="64" height="64" fill="white"/>
</clipPath>
<clipPath id="clip1_974_10370">
<rect width="64" height="64" fill="white"/>
</clipPath>
</defs>
</svg>
