<svg width="64" height="64" viewBox="0 0 64 64" fill="none" xmlns="http://www.w3.org/2000/svg">
<g clip-path="url(#clip0_974_10619)">
<path d="M35.6802 30.4391C32.2535 30.2858 28.8069 30.2791 25.3402 30.4191C24.8402 30.4325 23.7769 30.2858 22.1502 29.9791C21.3835 29.8325 20.6202 29.8491 19.8602 30.0291C16.0002 30.9391 10.6702 30.3791 6.7602 30.3391C6.1448 30.3313 5.55729 30.0812 5.12493 29.6433C4.69256 29.2053 4.45014 28.6146 4.4502 27.9991V7.32914C4.4502 7.20714 4.49971 7.09014 4.58786 7.00387C4.676 6.9176 4.79554 6.86914 4.9202 6.86914H59.0902C59.2122 6.86914 59.3292 6.91866 59.4155 7.0068C59.5017 7.09494 59.5502 7.21449 59.5502 7.33914V61.5291C59.5502 61.9158 59.3569 62.1091 58.9702 62.1091L38.6102 62.1291C37.9763 62.1291 37.3684 61.8773 36.9202 61.4291C36.472 60.9809 36.2202 60.373 36.2202 59.7391L36.2102 47.4791C36.2102 47.0991 36.3102 46.7491 36.5102 46.4291C36.8969 45.8091 36.8969 45.1858 36.5102 44.5591C36.3102 44.2391 36.2102 43.8891 36.2102 43.5091L36.2202 30.9891C36.2202 30.6358 36.0402 30.4525 35.6802 30.4391ZM52.9302 12.9191C53.0867 12.9191 53.2367 12.9813 53.3474 13.0919C53.458 13.2026 53.5202 13.3527 53.5202 13.5091L53.5302 60.0191C53.5302 60.1756 53.5924 60.3257 53.703 60.4363C53.8136 60.547 53.9637 60.6091 54.1202 60.6091L57.5602 60.6391C57.7167 60.6391 57.8667 60.577 57.9774 60.4663C58.088 60.3557 58.1502 60.2056 58.1502 60.0491L58.1902 8.97914C58.1902 8.82266 58.128 8.67259 58.0174 8.56195C57.9067 8.4513 57.7567 8.38914 57.6002 8.38914L6.3802 8.39914C6.30187 8.39913 6.22432 8.41472 6.15208 8.44499C6.07984 8.47526 6.01435 8.51962 5.95943 8.57547C5.90451 8.63132 5.86126 8.69755 5.8322 8.77029C5.80315 8.84303 5.78887 8.92082 5.7902 8.99914L5.8402 12.3491C5.84282 12.5039 5.90614 12.6514 6.0165 12.7599C6.12686 12.8684 6.27543 12.9292 6.4302 12.9291L52.9302 12.9191ZM20.3002 15.3091C20.3002 15.0784 20.2085 14.8571 20.0454 14.694C19.8822 14.5308 19.6609 14.4391 19.4302 14.4391H6.7502C6.51946 14.4391 6.29817 14.5308 6.13501 14.694C5.97186 14.8571 5.8802 15.0784 5.8802 15.3091V27.8891C5.8802 28.1199 5.97186 28.3412 6.13501 28.5043C6.29817 28.6675 6.51946 28.7591 6.7502 28.7591H19.4302C19.6609 28.7591 19.8822 28.6675 20.0454 28.5043C20.2085 28.3412 20.3002 28.1199 20.3002 27.8891V15.3091ZM36.1685 14.8865C36.1684 14.8261 36.1564 14.7663 36.1332 14.7106C36.11 14.6548 36.076 14.6041 36.0332 14.5615C35.9904 14.5189 35.9396 14.4851 35.8838 14.462C35.8279 14.439 35.7681 14.4272 35.7077 14.4273L22.1877 14.4509C22.1273 14.451 22.0675 14.463 22.0117 14.4863C21.956 14.5095 21.9053 14.5434 21.8627 14.5862C21.82 14.629 21.7862 14.6798 21.7632 14.7356C21.7402 14.7915 21.7284 14.8513 21.7285 14.9117L21.7519 28.3317C21.752 28.3921 21.764 28.4519 21.7872 28.5077C21.8104 28.5635 21.8444 28.6141 21.8872 28.6568C21.93 28.6994 21.9808 28.7332 22.0366 28.7562C22.0925 28.7793 22.1523 28.791 22.2127 28.7909L35.7327 28.7673C35.7931 28.7672 35.8529 28.7552 35.9087 28.732C35.9644 28.7088 36.0151 28.6748 36.0577 28.632C36.1004 28.5893 36.1342 28.5385 36.1572 28.4826C36.1802 28.4268 36.192 28.3669 36.1919 28.3065L36.1685 14.8865ZM52.0402 14.7291C52.0402 14.6549 52.0107 14.5837 51.9582 14.5312C51.9057 14.4786 51.8345 14.4491 51.7602 14.4491H37.9002C37.8259 14.4491 37.7547 14.4786 37.7022 14.5312C37.6497 14.5837 37.6202 14.6549 37.6202 14.7291V28.5091C37.6202 28.5834 37.6497 28.6546 37.7022 28.7071C37.7547 28.7596 37.8259 28.7891 37.9002 28.7891H51.7602C51.8345 28.7891 51.9057 28.7596 51.9582 28.7071C52.0107 28.6546 52.0402 28.5834 52.0402 28.5091V14.7291ZM51.6902 30.3691L38.0102 30.3291C37.959 30.3278 37.908 30.3366 37.8602 30.355C37.8123 30.3733 37.7686 30.401 37.7315 30.4363C37.6943 30.4715 37.6645 30.5138 37.6437 30.5606C37.6229 30.6075 37.6115 30.6579 37.6102 30.7091L37.5702 43.4291C37.5689 43.5959 37.6004 43.7613 37.663 43.9159C37.7256 44.0705 37.8181 44.2113 37.9351 44.3301C38.0521 44.449 38.1914 44.5436 38.3449 44.6087C38.4985 44.6737 38.6634 44.7078 38.8302 44.7091L50.7502 44.7491C50.917 44.7505 51.0824 44.7189 51.237 44.6563C51.3916 44.5937 51.5323 44.5013 51.6512 44.3843C51.77 44.2672 51.8647 44.128 51.9297 43.9744C51.9947 43.8208 52.0289 43.6559 52.0302 43.4891L52.0702 30.7691C52.0715 30.7179 52.0627 30.6669 52.0444 30.6191C52.026 30.5713 51.9984 30.5275 51.9631 30.4904C51.9278 30.4533 51.8855 30.4234 51.8387 30.4026C51.7919 30.3818 51.7414 30.3704 51.6902 30.3691ZM52.0402 47.3491C52.0402 47.0547 51.9232 46.7724 51.7151 46.5643C51.5069 46.3561 51.2246 46.2391 50.9302 46.2391H38.7102C38.4158 46.2391 38.1335 46.3561 37.9253 46.5643C37.7171 46.7724 37.6002 47.0547 37.6002 47.3491V59.4691C37.6002 59.7635 37.7171 60.0459 37.9253 60.254C38.1335 60.4622 38.4158 60.5791 38.7102 60.5791H50.9302C51.2246 60.5791 51.5069 60.4622 51.7151 60.254C51.9232 60.0459 52.0402 59.7635 52.0402 59.4691V47.3491Z" fill="#597B00"/>
</g>
<defs>
<clipPath id="clip0_974_10619">
<rect width="64" height="64" fill="white"/>
</clipPath>
</defs>
</svg>
