<svg width="64" height="64" viewBox="0 0 64 64" fill="none" xmlns="http://www.w3.org/2000/svg">
<g clip-path="url(#clip0_974_10376)">
<path d="M62.2285 7.99781C62.2277 25.3736 62.2294 42.7495 62.2335 60.1253C62.2335 60.7878 61.8123 60.9541 61.2073 60.9578C60.2214 60.9636 59.236 60.9636 58.251 60.9578C57.9052 60.9561 57.6485 60.842 57.481 60.6153C57.1602 60.1836 56.6273 59.1945 55.8823 57.6478C55.8623 57.607 55.8298 57.5866 55.7848 57.5866H8.31102C8.26686 57.5866 8.23519 57.6061 8.21602 57.6453C7.63936 58.812 7.10352 59.7986 6.60852 60.6053C6.47186 60.8278 6.25852 60.9411 5.96852 60.9453C4.93186 60.9595 3.89477 60.9636 2.85727 60.9578C2.22602 60.9541 1.84727 60.7691 1.84727 60.0941C1.84727 42.7307 1.84727 25.367 1.84727 8.00281C1.84727 7.95948 1.82561 7.93656 1.78227 7.93406C0.777274 7.88531 0.069774 8.16281 0.072274 6.79156C0.074774 5.79823 0.074774 4.80531 0.072274 3.81281C0.069774 3.13781 0.627274 3.03906 1.20852 3.03906C21.826 3.03906 42.4439 3.04115 63.0623 3.04531C63.8623 3.04531 63.926 3.54906 63.9273 4.23531C63.9281 5.14948 63.926 6.06365 63.921 6.97781C63.9148 8.10531 63.0735 7.93406 62.301 7.92656C62.2527 7.92573 62.2285 7.94948 62.2285 7.99781ZM62.426 4.59031C62.426 4.57672 62.4206 4.56368 62.411 4.55407C62.4014 4.54446 62.3884 4.53906 62.3748 4.53906H1.62477C1.61118 4.53906 1.59815 4.54446 1.58853 4.55407C1.57892 4.56368 1.57352 4.57672 1.57352 4.59031V6.37531C1.57352 6.3889 1.57892 6.40194 1.58853 6.41155C1.59815 6.42116 1.61118 6.42656 1.62477 6.42656H62.3748C62.3884 6.42656 62.4014 6.42116 62.411 6.41155C62.4206 6.40194 62.426 6.3889 62.426 6.37531V4.59031ZM5.22727 7.96531C5.22727 7.95537 5.22332 7.94583 5.21629 7.9388C5.20926 7.93176 5.19972 7.92781 5.18977 7.92781H3.38477C3.37483 7.92781 3.36529 7.93176 3.35826 7.9388C3.35122 7.94583 3.34727 7.95537 3.34727 7.96531V28.5553C3.34727 28.5653 3.35122 28.5748 3.35826 28.5818C3.36529 28.5889 3.37483 28.5928 3.38477 28.5928H5.18977C5.19972 28.5928 5.20926 28.5889 5.21629 28.5818C5.22332 28.5748 5.22727 28.5653 5.22727 28.5553V7.96531ZM16.7135 15.4691C16.2323 20.7853 14.3248 25.5741 10.5748 29.4153C10.5456 29.4453 10.5306 29.4816 10.5298 29.5241C10.5181 30.3074 10.5194 31.0899 10.5335 31.8716C10.5385 32.1907 10.586 32.5182 10.676 32.8541C11.1227 34.5224 11.3994 36.0816 11.506 37.5316C11.9735 43.8782 11.1056 50.0549 8.90227 56.0616C8.90128 56.0644 8.90097 56.0674 8.90137 56.0703C8.90178 56.0733 8.90288 56.0761 8.90459 56.0786C8.9063 56.081 8.90857 56.083 8.91121 56.0844C8.91385 56.0858 8.91679 56.0865 8.91977 56.0866H31.1748C31.2248 56.0866 31.2498 56.0616 31.2498 56.0116V7.99531C31.2498 7.94948 31.2273 7.92656 31.1823 7.92656L16.846 7.92781C16.8402 7.9278 16.8345 7.92898 16.8292 7.93127C16.8238 7.93356 16.819 7.93692 16.8151 7.94113C16.8111 7.94535 16.808 7.95033 16.806 7.95578C16.804 7.96123 16.8032 7.96702 16.8035 7.97281C16.9694 10.472 16.9394 12.9707 16.7135 15.4691ZM49.7998 24.2766C47.2623 19.3416 46.9623 13.4091 47.2648 8.00781C47.2681 7.95448 47.2427 7.92781 47.1885 7.92781L32.8173 7.92656C32.8084 7.92656 32.7996 7.92834 32.7914 7.9318C32.7833 7.93525 32.7758 7.94032 32.7695 7.9467C32.7633 7.95308 32.7583 7.96066 32.7549 7.969C32.7515 7.97734 32.7498 7.98628 32.7498 7.99531V56.0278C32.7498 56.067 32.7694 56.0866 32.8085 56.0866H55.1423C55.1486 56.0866 55.1547 56.085 55.1603 56.0821C55.1659 56.0792 55.1706 56.075 55.1742 56.0698C55.1777 56.0647 55.18 56.0587 55.1808 56.0525C55.1815 56.0463 55.1808 56.0399 55.1785 56.0341C53.456 51.3941 52.5935 46.5978 52.4485 41.6578C52.3602 38.6428 52.6856 35.6711 53.4248 32.7428C53.5114 32.4003 53.556 32.0657 53.5585 31.7391C53.5652 31.0141 53.5656 30.2941 53.5598 29.5791C53.559 29.5108 53.5321 29.4455 53.4848 29.3966C52.0006 27.8741 50.7723 26.1674 49.7998 24.2766ZM48.866 15.3441C49.321 20.3541 51.176 24.9491 54.746 28.5416C54.7802 28.5757 54.8214 28.5928 54.8698 28.5928H57.2848C57.3281 28.5928 57.3498 28.5711 57.3498 28.5278V7.99781C57.3498 7.95031 57.326 7.92656 57.2785 7.92656H48.881C48.8194 7.92656 48.7864 7.9574 48.7823 8.01906C48.6156 10.4474 48.6435 12.8891 48.866 15.3441ZM60.7285 7.96281C60.7285 7.9532 60.7247 7.94398 60.7179 7.93718C60.7111 7.93038 60.7019 7.92656 60.6923 7.92656H58.8848C58.8752 7.92656 58.8659 7.93038 58.8591 7.93718C58.8523 7.94398 58.8485 7.9532 58.8485 7.96281V28.5578C58.8485 28.5674 58.8523 28.5766 58.8591 28.5834C58.8659 28.5902 58.8752 28.5941 58.8848 28.5941H60.6923C60.7019 28.5941 60.7111 28.5902 60.7179 28.5834C60.7247 28.5766 60.7285 28.5674 60.7285 28.5578V7.96281ZM9.33227 28.5478C12.2223 25.6291 14.1135 21.9403 14.8198 18.0316C15.3998 14.8174 15.556 11.4691 15.2885 7.98656C15.2852 7.94656 15.2635 7.92656 15.2235 7.92656H6.78977C6.74727 7.92656 6.72602 7.94823 6.72602 7.99156V28.5353C6.72602 28.5736 6.74561 28.5928 6.78477 28.5928H9.22352C9.26602 28.5928 9.30227 28.5778 9.33227 28.5478ZM9.02477 30.1378C9.02477 30.1259 9.02003 30.1144 9.01159 30.106C9.00315 30.0976 8.99171 30.0928 8.97977 30.0928H3.39227C3.38034 30.0928 3.36889 30.0976 3.36045 30.106C3.35202 30.1144 3.34727 30.1259 3.34727 30.1378V31.4553C3.34727 31.4612 3.34844 31.4671 3.3507 31.4725C3.35296 31.478 3.35628 31.483 3.36045 31.4871C3.36463 31.4913 3.36959 31.4946 3.37505 31.4969C3.38051 31.4991 3.38636 31.5003 3.39227 31.5003H8.97977C8.98568 31.5003 8.99154 31.4991 8.99699 31.4969C9.00245 31.4946 9.00741 31.4913 9.01159 31.4871C9.01577 31.483 9.01909 31.478 9.02135 31.4725C9.02361 31.4671 9.02477 31.4612 9.02477 31.4553V30.1378ZM60.7373 30.1341C60.7373 30.1231 60.7329 30.1126 60.7252 30.1049C60.7175 30.0972 60.707 30.0928 60.696 30.0928H55.1035C55.0926 30.0928 55.0821 30.0972 55.0744 30.1049C55.0666 30.1126 55.0623 30.1231 55.0623 30.1341V31.4591C55.0623 31.47 55.0666 31.4805 55.0744 31.4882C55.0821 31.496 55.0926 31.5003 55.1035 31.5003H60.696C60.707 31.5003 60.7175 31.496 60.7252 31.4882C60.7329 31.4805 60.7373 31.47 60.7373 31.4591V30.1341ZM5.22727 33.0403C5.22727 33.0297 5.22306 33.0195 5.21556 33.012C5.20806 33.0045 5.19788 33.0003 5.18727 33.0003H3.38727C3.37667 33.0003 3.36649 33.0045 3.35899 33.012C3.35149 33.0195 3.34727 33.0297 3.34727 33.0403V59.4203C3.34727 59.4309 3.35149 59.4411 3.35899 59.4486C3.36649 59.4561 3.37667 59.4603 3.38727 59.4603H5.18727C5.19788 59.4603 5.20806 59.4561 5.21556 59.4486C5.22306 59.4411 5.22727 59.4309 5.22727 59.4203V33.0403ZM6.83477 57.1078C9.68102 50.7728 10.6285 43.3741 9.88102 36.5003C9.77686 35.5395 9.54186 34.3936 9.17602 33.0628C9.17111 33.0449 9.16039 33.0291 9.14549 33.0178C9.13059 33.0066 9.11234 33.0004 9.09352 33.0003H6.78477C6.74561 33.0003 6.72602 33.0199 6.72602 33.0591V57.2178C6.72602 57.2453 6.73561 57.2495 6.75477 57.2303C6.78561 57.1995 6.81227 57.1586 6.83477 57.1078ZM54.0048 38.8441C53.7148 44.9741 54.7023 51.5916 57.2973 57.1978C57.2999 57.2035 57.3044 57.2081 57.3099 57.2109C57.3155 57.2137 57.3219 57.2146 57.328 57.2132C57.3342 57.2119 57.3396 57.2086 57.3436 57.2037C57.3475 57.1989 57.3497 57.1928 57.3498 57.1866V33.0503C57.3498 33.017 57.3331 33.0003 57.2998 33.0003H54.9723C54.9314 33.0003 54.9056 33.0203 54.8948 33.0603C54.3939 34.9561 54.0973 36.8841 54.0048 38.8441ZM60.7285 33.0528C60.7285 33.0389 60.723 33.0255 60.7131 33.0157C60.7033 33.0058 60.6899 33.0003 60.676 33.0003H58.901C58.8871 33.0003 58.8737 33.0058 58.8639 33.0157C58.8541 33.0255 58.8485 33.0389 58.8485 33.0528V59.4078C58.8485 59.4217 58.8541 59.4351 58.8639 59.4449C58.8737 59.4548 58.8871 59.4603 58.901 59.4603H60.676C60.6899 59.4603 60.7033 59.4548 60.7131 59.4449C60.723 59.4351 60.7285 59.4217 60.7285 59.4078V33.0528Z" fill="#597B00"/>
</g>
<defs>
<clipPath id="clip0_974_10376">
<rect width="64" height="64" fill="white"/>
</clipPath>
</defs>
</svg>
