<svg width="64" height="64" viewBox="0 0 64 64" fill="none" xmlns="http://www.w3.org/2000/svg">
<g clip-path="url(#clip0_974_10510)">
<rect width="62" height="62" transform="translate(1 1)" fill="white"/>
<path d="M2.15637 1H10.4888C11.1306 1.12674 11.4487 1.5312 11.443 2.21336C11.439 2.80188 11.4382 3.39402 11.4406 3.9898C11.4406 4.00532 11.4463 4.02033 11.4568 4.03195C11.4673 4.04357 11.4818 4.05099 11.4975 4.05277C11.9214 4.10283 12.1995 4.09919 12.3319 4.04188C14.736 2.98997 17.1316 1.97602 19.5188 1H30.7079C32.5945 1.1219 34.2301 1.8747 35.6146 3.2584C38.3295 5.97251 41.044 8.68703 43.7581 11.402C45.0877 12.7328 45.3808 14.6424 44.4786 16.2893C43.7311 17.6544 42.4564 18.2926 40.6545 18.2038C40.6117 18.2014 40.5826 18.2203 40.5673 18.2607C40.225 19.1471 39.7394 19.9463 39.1105 20.6584C39.0839 20.689 39.0706 20.7246 39.0706 20.7649C39.0714 22.2407 39.0746 23.7148 39.0803 25.1873C39.0851 26.336 39.0238 27.1175 38.8962 27.5316C38.5144 28.7749 37.5698 29.4909 36.0626 29.6798C36.0223 29.6847 36.0021 29.7077 36.0021 29.7489C35.9996 33.0919 35.9992 36.4357 36.0009 39.7803C36.0009 40.2582 35.8071 40.5989 35.4196 40.8023C34.76 41.1494 34.0969 41.4881 33.43 41.8183C33.1112 41.9765 32.7773 41.9725 32.4286 41.8062C31.8078 41.5099 31.1922 41.2043 30.5819 40.8895C30.0455 40.6134 29.8578 40.3385 29.859 39.75C29.8614 36.4135 29.861 33.0769 29.8578 29.7404C29.8578 29.7 29.8376 29.6778 29.7972 29.6738C28.3029 29.5051 27.3576 28.7866 26.9612 27.5183C26.845 27.1462 26.7868 26.5766 26.7868 25.8097C26.7868 24.1362 26.7901 22.4635 26.7965 20.7916C26.7965 20.7504 26.7832 20.7145 26.7566 20.6838C25.9686 19.7788 25.4072 18.7483 25.0721 17.5923C25.0552 17.5325 25.0257 17.5261 24.9837 17.5729C23.5766 19.1673 21.8583 20.0989 19.8288 20.3677C16.977 20.7443 12.7848 19.5661 11.6707 16.5279C11.6433 16.4536 11.6069 16.3975 11.5617 16.3595C11.5509 16.35 11.5375 16.3439 11.5233 16.3419C11.509 16.34 11.4945 16.3421 11.4813 16.3483C11.4682 16.3544 11.457 16.3642 11.4492 16.3765C11.4413 16.3888 11.4371 16.4031 11.437 16.4177C11.4418 16.9319 11.4418 17.4478 11.437 17.9652C11.4285 19.0454 11.1294 19.4256 10.0589 19.4256C7.47238 19.428 4.88663 19.4285 2.30168 19.4268C1.42859 19.4256 1.20457 18.8117 1.20336 18.0197C1.20174 12.7094 1.20174 7.3994 1.20336 2.08984C1.20336 1.47711 1.52103 1.11383 2.15637 1ZM9.38809 3.08766C9.38809 3.0777 9.38413 3.06815 9.37709 3.06111C9.37005 3.05407 9.3605 3.05012 9.35055 3.05012H3.28133C3.27137 3.05012 3.26182 3.05407 3.25478 3.06111C3.24774 3.06815 3.24379 3.0777 3.24379 3.08766V17.3404C3.24379 17.3503 3.24774 17.3599 3.25478 17.3669C3.26182 17.374 3.27137 17.3779 3.28133 17.3779H9.35055C9.3605 17.3779 9.37005 17.374 9.37709 17.3669C9.38413 17.3599 9.38809 17.3503 9.38809 17.3404V3.08766ZM20.7116 8.17238C23.3982 8.16835 26.0845 8.16512 28.7704 8.1627C28.9399 8.1627 29.105 8.12314 29.2656 8.04402C35.0248 5.18379 41.6559 9.6582 41.0723 16.0992C41.0716 16.1075 41.0726 16.1158 41.0753 16.1237C41.078 16.1316 41.0823 16.1388 41.0879 16.1448C41.0935 16.1509 41.1003 16.1556 41.1078 16.1588C41.1153 16.162 41.1234 16.1636 41.1316 16.1634C42.9468 16.1149 43.4953 14.0527 42.3086 12.8514C41.2309 11.7608 38.7412 9.2707 34.8396 5.38117C34.0048 4.54966 33.3994 4.01967 33.0232 3.79121C32.2183 3.30441 31.3222 3.05819 30.3349 3.05254C28.5395 3.04285 25.1335 3.04366 20.117 3.05496C19.9055 3.05577 19.7024 3.09775 19.5079 3.1809C17.4105 4.08668 15.3108 4.98883 13.2086 5.88734C12.6104 6.14406 12.1357 6.15012 11.5084 6.11016C11.4624 6.10773 11.4394 6.12953 11.4394 6.17555V14.2343C11.4394 14.286 11.4652 14.3118 11.5169 14.3118C12.0509 14.3082 12.8562 14.1762 13.2716 14.7308C13.4508 14.9694 13.475 15.2963 13.5392 15.5954C13.8904 17.229 16.1475 18.1178 17.6213 18.3128C19.5386 18.5671 21.2617 18.1231 22.7907 16.9807C23.0628 16.7773 23.3062 16.4693 23.5209 16.0568C23.7559 15.6051 23.6566 15.0663 23.9726 14.6666C24.1575 14.4325 24.3912 14.3151 24.6737 14.3143C26.8664 14.3102 29.0594 14.3098 31.2528 14.313C31.8897 14.3139 32.3503 14.2622 32.6345 14.158C34.3794 13.5163 34.3818 11.0023 32.632 10.3642C32.3471 10.2608 31.8849 10.2096 31.2455 10.2104C27.7354 10.2144 24.2253 10.2144 20.7152 10.2104C20.6972 10.2104 20.68 10.2032 20.6672 10.1905C20.6545 10.1778 20.6474 10.1606 20.6474 10.1426V8.23656C20.6474 8.19378 20.6688 8.17238 20.7116 8.17238ZM35.0139 9.64367C35.4983 10.1777 35.8107 10.8861 35.927 11.7023C35.9334 11.7467 35.9524 11.7846 35.9839 11.8161L38.9786 14.8156C39.0133 14.8503 39.029 14.8434 39.0258 14.795C38.8514 12.4107 37.2433 10.4271 35.0515 9.58918C34.9635 9.55527 34.951 9.57344 35.0139 9.64367ZM37.8027 19.0418C38.183 18.5731 38.4252 18.0452 38.671 17.4784C38.6887 17.4373 38.6815 17.4009 38.6492 17.3695L35.5153 14.2513C35.5112 14.2471 35.5063 14.244 35.5008 14.2421C35.4954 14.2401 35.4895 14.2395 35.4838 14.2402C35.4781 14.2409 35.4726 14.2429 35.4677 14.2461C35.4629 14.2493 35.4589 14.2536 35.4559 14.2586C34.8747 15.2636 34.071 15.9079 33.045 16.1912C32.6429 16.3026 31.8405 16.3567 30.6376 16.3535C29.4121 16.3511 28.1859 16.3519 26.9588 16.3559C26.912 16.3559 26.8926 16.3793 26.9007 16.4261C27.0742 17.3884 27.4577 18.2571 28.0511 19.0321C28.0793 19.0692 28.1136 19.0753 28.154 19.0502C29.4489 18.247 30.8435 17.719 32.3378 17.4663C32.7002 17.4058 33.0619 17.4026 33.4228 17.4566C34.9542 17.6867 36.3819 18.2203 37.7059 19.0575C37.743 19.0809 37.7753 19.0757 37.8027 19.0418ZM31.3872 21.1863C33.1031 19.353 35.9306 21.3861 34.7148 23.5343C34.2946 24.2779 33.4506 24.6557 32.6078 24.5164C31.9265 24.4026 31.4154 24.0078 31.0748 23.3321C31.0578 23.299 31.0312 23.278 30.9948 23.2691C30.2618 23.0843 29.5659 22.807 28.9072 22.4372C28.9 22.4329 28.8917 22.4306 28.8833 22.4305C28.8749 22.4305 28.8667 22.4327 28.8594 22.4369C28.8521 22.441 28.8461 22.4471 28.8419 22.4544C28.8378 22.4617 28.8356 22.47 28.8357 22.4784C28.8365 23.8217 28.837 25.1695 28.837 26.5217C28.8357 27.4796 29.5563 27.6128 30.3845 27.6128C32.1008 27.6128 33.8171 27.6128 35.5334 27.6128C36.3496 27.6128 37.0217 27.4481 37.0241 26.5205C37.0289 24.7098 37.0285 22.8982 37.0229 21.0858C37.0229 21.0455 37.0059 21.014 36.972 20.9914C35.8814 20.2592 34.6955 19.7679 33.4143 19.5177C33.0914 19.4547 32.7733 19.4502 32.4601 19.5043C31.5099 19.6682 30.6146 20.0004 29.7742 20.5009C29.7298 20.5276 29.7302 20.5538 29.7754 20.5797C30.2533 20.8533 30.7575 21.0648 31.2879 21.2142C31.3266 21.2255 31.3597 21.2162 31.3872 21.1863ZM31.9091 39.2341C31.909 39.2436 31.9115 39.253 31.9164 39.2611C31.9214 39.2693 31.9285 39.2759 31.937 39.2802L32.9081 39.7657C32.9153 39.7694 32.9231 39.7712 32.9311 39.7712C32.9391 39.7712 32.947 39.7694 32.9541 39.7657L33.9302 39.2789C33.9386 39.2746 33.9457 39.2681 33.9507 39.2599C33.9556 39.2518 33.9581 39.2424 33.958 39.2329V29.7162C33.958 29.7027 33.9526 29.6897 33.9431 29.6802C33.9336 29.6707 33.9206 29.6653 33.9071 29.6653L31.96 29.6629C31.9465 29.6629 31.9335 29.6683 31.924 29.6778C31.9145 29.6873 31.9091 29.7003 31.9091 29.7138V39.2341Z" fill="#597B00"/>
<path d="M63.0003 46.5152V46.629C62.9543 46.7586 62.9531 46.8991 62.9083 47.0214C61.0668 52.079 59.225 57.1367 57.3828 62.1944C57.2181 62.6481 56.9162 62.9165 56.477 62.9997H56.2881C54.0842 62.2416 52.0942 61.5252 50.3182 60.8503C49.1799 60.418 49.6776 59.4456 49.9658 58.627C49.9811 58.5842 49.9674 58.5551 49.9246 58.5398L49.416 58.357C49.3813 58.3448 49.3466 58.3444 49.3119 58.3557C47.376 59.008 45.4405 59.6599 43.5054 60.3114C43.26 60.3946 42.9964 60.3845 42.7147 60.2811C36.0699 57.856 29.4242 55.4338 22.7778 53.0143C21.7299 52.6333 21.024 52.3091 20.6599 52.0419C19.306 51.0502 18.7115 49.3512 19.1026 47.7213C19.5494 45.8601 21.4446 44.5111 23.3784 44.6843C23.778 44.7198 24.4675 44.9168 25.4467 45.2752C27.2284 45.9275 29.0113 46.577 30.7954 47.2236C30.8132 47.23 30.8325 47.2301 30.85 47.2239C30.8675 47.2177 30.8821 47.2056 30.8911 47.1897C31.5644 46.0046 32.519 45.3026 33.755 45.0839C38.3775 44.2628 42.9997 43.4451 47.6214 42.6305C47.8151 42.5966 48.0045 42.6127 48.1893 42.6789C50.4021 43.4765 52.6141 44.2758 54.8253 45.0766C54.8632 45.0895 54.8894 45.0778 54.904 45.0415C55.1546 44.4166 55.2891 43.5629 56.0943 43.4915C56.284 43.4753 56.6009 43.548 57.0449 43.7095C58.7887 44.344 60.532 44.9785 62.275 45.613C62.6762 45.7592 62.918 46.0599 63.0003 46.5152ZM46.3632 49.1659L46.6962 51.0562C46.6984 51.0701 46.695 51.0844 46.6869 51.0959C46.6788 51.1074 46.6665 51.1153 46.6526 51.118C43.1248 51.7428 39.6046 52.3632 36.0921 52.9792C35.1419 53.1455 34.4686 53.2097 34.0722 53.1717C32.0475 52.9768 30.5569 51.3456 30.3982 49.3197C30.3958 49.2802 30.3756 49.2535 30.3377 49.2398C28.1822 48.4487 26.0267 47.6575 23.8713 46.8664C23.1915 46.6169 22.5627 46.669 21.9846 47.0226C20.7107 47.8036 20.7459 49.5353 21.8926 50.4023C22.0952 50.5549 22.4844 50.7361 23.06 50.946C29.7419 53.376 36.4251 55.8075 43.1094 58.2407C43.1474 58.2544 43.1853 58.2552 43.2233 58.2431C45.1583 57.5981 47.0946 56.9563 49.0321 56.3177C49.6049 56.1288 50.1135 56.4534 50.6354 56.6205C50.6742 56.6326 50.7004 56.6197 50.7141 56.5817L54.1714 47.0807C54.1764 47.0662 54.1756 47.0504 54.169 47.0365C54.1624 47.0227 54.1506 47.012 54.1362 47.0068L47.8273 44.7121C47.7861 44.6968 47.7437 44.6931 47.7001 44.7012C43.3956 45.4552 39.0916 46.2133 34.7879 46.9754C33.7356 47.1618 32.8879 47.4137 32.5573 48.4115C32.1601 49.6164 32.871 50.9121 34.1098 51.118C34.3826 51.1632 34.871 51.1224 35.575 50.9957C39.1424 50.3555 42.7127 49.7274 46.2857 49.1114C46.3301 49.1034 46.356 49.1215 46.3632 49.1659ZM60.6419 47.2452C60.6462 47.2334 60.6456 47.2204 60.6403 47.2091C60.635 47.1977 60.6254 47.189 60.6137 47.1847L56.854 45.8163C56.8482 45.8141 56.842 45.8132 56.8358 45.8135C56.8296 45.8137 56.8235 45.8152 56.8179 45.8178C56.8123 45.8205 56.8072 45.8242 56.803 45.8287C56.7989 45.8333 56.7956 45.8387 56.7935 45.8445L51.9246 59.2218C51.9203 59.2335 51.9209 59.2465 51.9262 59.2579C51.9314 59.2692 51.941 59.278 51.9528 59.2823L55.7124 60.6507C55.7183 60.6528 55.7245 60.6538 55.7307 60.6535C55.7369 60.6532 55.7429 60.6517 55.7486 60.6491C55.7542 60.6465 55.7592 60.6428 55.7634 60.6382C55.7676 60.6336 55.7709 60.6283 55.773 60.6225L60.6419 47.2452Z" fill="#597B00"/>
</g>
<defs>
<clipPath id="clip0_974_10510">
<rect width="62" height="62" fill="white" transform="translate(1 1)"/>
</clipPath>
</defs>
</svg>
