<svg width="64" height="64" viewBox="0 0 64 64" fill="none" xmlns="http://www.w3.org/2000/svg">
<path d="M40.7309 53.8138C40.6897 54.5198 40.9537 55.7211 40.2089 56.0904C40.0362 56.1768 39.704 56.22 39.2123 56.22C31.7586 56.2183 24.3057 56.2179 16.8536 56.2188C16.1307 56.2188 15.5312 56.025 15.5312 55.2197C15.5312 44.9889 15.5312 34.7581 15.5312 24.5273C15.5312 23.7014 15.8243 23.2849 16.6611 23.2837C18.4968 23.2804 20.3439 23.28 22.2023 23.2825C22.2742 23.2825 22.3101 23.2465 22.3101 23.1747C22.3149 22.2608 22.3149 21.3276 22.3101 20.375C22.3052 19.6242 22.9107 19.4099 23.5888 19.4087C24.112 19.4087 24.6355 19.4071 25.1594 19.4038C25.1751 19.4038 25.1902 19.3976 25.2014 19.3864C25.2125 19.3753 25.2188 19.3602 25.2188 19.3445V17.5305C25.2188 17.5141 25.2122 17.4984 25.2007 17.4868C25.1891 17.4753 25.1734 17.4688 25.157 17.4688C24.8244 17.4679 24.2399 17.4696 23.4036 17.4736C22.7739 17.4768 22.4106 17.1733 22.3137 16.563C22.3073 16.5226 22.2834 16.5024 22.2423 16.5024C21.464 16.4976 20.6862 16.4972 19.9088 16.5012C19.1447 16.5048 18.4351 16.3934 18.4351 15.501C18.4367 14.3118 18.4379 13.1227 18.4387 11.9336C18.4399 11.1041 18.7281 10.6911 19.5673 10.6899C20.4586 10.6883 21.3498 10.6875 22.2411 10.6875C22.2822 10.6875 22.3056 10.6673 22.3113 10.627C22.4312 9.80957 22.964 9.71512 23.7232 9.71875C24.1019 9.72036 24.4797 9.71915 24.8567 9.71512C24.863 9.71485 24.8691 9.71274 24.8743 9.70905C24.8794 9.70537 24.8834 9.70027 24.8857 9.69437C24.888 9.68846 24.8886 9.68202 24.8873 9.67581C24.886 9.66961 24.8829 9.66391 24.8785 9.65941C23.276 8.17965 22.4235 6.35598 22.321 4.1884C22.2895 3.52359 22.562 2.9375 23.2812 2.9375C28.6869 2.9375 34.0925 2.9375 39.4981 2.9375C40.4003 2.9375 40.5153 3.30441 40.9234 3.95953C46.5325 12.9964 52.1415 22.0328 57.7506 31.0688C57.8668 31.2561 58.0134 31.4151 58.1902 31.5459C59.0079 32.1506 59.8201 32.7589 60.6266 33.3708C60.658 33.395 60.6621 33.4229 60.6387 33.4543L59.5513 34.9014C59.5254 34.9369 59.4947 34.9414 59.4592 34.9147L57.6634 33.5657C57.623 33.5359 57.5936 33.5439 57.575 33.59L48.6891 54.9134C48.6832 54.9278 48.6819 54.9437 48.6856 54.9588C48.6894 54.9738 48.6978 54.9872 48.7097 54.9969L53.8877 59.3079C53.9208 59.3353 53.9232 59.3656 53.895 59.3987L52.7373 60.7828C52.7074 60.8191 52.6743 60.8219 52.638 60.7913C50.8515 59.3002 49.0653 57.8132 47.2796 56.3302C47.0867 56.1703 46.8735 56.0468 46.6402 55.9596C44.6906 55.229 42.7434 54.4992 40.7987 53.7702C40.7559 53.7541 40.7333 53.7686 40.7309 53.8138ZM48.4688 44.6555V46.4731C48.4688 46.5208 48.4453 46.5434 48.3985 46.5409C45.2517 46.4319 42.7095 45.1609 40.772 42.7277C40.768 42.7228 40.7626 42.7192 40.7565 42.7175C40.7504 42.7157 40.7439 42.7158 40.7381 42.7178C40.7322 42.7198 40.7271 42.7236 40.7237 42.7287C40.7202 42.7337 40.7185 42.7397 40.7188 42.7459V51.6087C40.7188 51.6491 40.7373 51.6761 40.7745 51.6898L46.8982 53.987C46.9434 54.0039 46.9753 53.9902 46.9938 53.9458L56.0759 32.1502C56.0928 32.1082 56.0896 32.0678 56.0662 32.0291L39.2571 4.94887C39.2265 4.89882 39.1817 4.87379 39.1227 4.87379L24.4026 4.875C24.3622 4.875 24.3453 4.89518 24.3517 4.93555C24.7453 7.22059 26.5205 9.0491 28.7426 9.55769C29.2173 9.66668 30.0201 9.72036 31.1511 9.71875C32.3395 9.71714 33.5282 9.71794 34.7173 9.72117C35.1569 9.72117 35.6352 9.85195 35.783 10.2637C37.404 14.7998 39.0303 19.3534 40.6618 23.9243C40.6998 24.0292 40.7188 24.1378 40.7188 24.25V27.0049C40.7188 27.1058 40.7692 27.1562 40.8701 27.1562H43.6274C43.8017 27.1562 43.9729 27.2035 44.1227 27.2931L48.9107 30.1666C48.9495 30.1892 48.9572 30.2199 48.9338 30.2587L48.0086 31.7966C47.9828 31.8385 47.9489 31.847 47.9069 31.822L43.4179 29.1277C43.38 29.1051 43.3392 29.0938 43.2956 29.0938H29.2185C29.1741 29.0938 29.1559 29.1155 29.164 29.1591C29.7937 32.4589 32.4577 34.9062 35.8447 34.9062C37.0791 34.9054 38.3146 34.9058 39.5514 34.9075C40.4051 34.9075 40.726 35.2938 40.7091 36.1596C40.6929 36.9895 40.7248 37.622 40.8047 38.0571C41.4974 41.828 44.5489 44.5259 48.4046 44.5901C48.4474 44.5909 48.4688 44.6127 48.4688 44.6555ZM32 11.7519C32 11.7265 31.9899 11.7022 31.972 11.6843C31.954 11.6663 31.9297 11.6562 31.9043 11.6562H24.3457C24.3203 11.6562 24.296 11.6663 24.278 11.6843C24.2601 11.7022 24.25 11.7265 24.25 11.7519V15.4356C24.25 15.461 24.2601 15.4853 24.278 15.5032C24.296 15.5212 24.3203 15.5312 24.3457 15.5312H31.9043C31.9297 15.5312 31.954 15.5212 31.972 15.5032C31.9899 15.4853 32 15.461 32 15.4356V11.7519ZM32.9627 19.405C33.4543 19.399 33.9339 19.8458 33.9351 20.2842C33.9383 21.2352 33.9391 22.193 33.9375 23.1577C33.9373 23.1739 33.9404 23.1899 33.9465 23.2049C33.9525 23.2199 33.9615 23.2335 33.9729 23.245C33.9843 23.2565 33.9978 23.2656 34.0127 23.2718C34.0276 23.278 34.0436 23.2812 34.0598 23.2812H38.3054C38.3522 23.2812 38.3675 23.259 38.3514 23.2146L34.2463 11.7192C34.2335 11.6843 34.2089 11.655 34.1767 11.6364C34.1445 11.6179 34.1069 11.6111 34.0703 11.6175C34.0337 11.6238 34.0004 11.6428 33.9764 11.6711C33.9523 11.6995 33.939 11.7353 33.9387 11.7725C33.9363 13.3007 33.9363 14.8664 33.9387 16.4697C33.9411 17.2471 33.3599 17.4651 32.6539 17.4663C32.1348 17.4679 31.6145 17.4688 31.093 17.4688C31.0518 17.4688 31.0312 17.4897 31.0312 17.5317L31.0325 19.3396C31.0325 19.3792 31.0522 19.3994 31.0918 19.4002C31.7255 19.4115 32.3492 19.4131 32.9627 19.405ZM22.3125 12.7037C22.3125 12.6825 22.3041 12.6622 22.2891 12.6472C22.2741 12.6322 22.2538 12.6238 22.2326 12.6238H20.4549C20.4337 12.6238 20.4134 12.6322 20.3984 12.6472C20.3834 12.6622 20.375 12.6825 20.375 12.7037V14.4814C20.375 14.5026 20.3834 14.5229 20.3984 14.5379C20.4134 14.5529 20.4337 14.5613 20.4549 14.5613H22.2326C22.2538 14.5613 22.2741 14.5529 22.2891 14.5379C22.3041 14.5229 22.3125 14.5026 22.3125 14.4814V12.7037ZM29.0938 17.562C29.0938 17.5373 29.0839 17.5135 29.0664 17.4961C29.049 17.4786 29.0252 17.4688 29.0005 17.4688H27.2495C27.2248 17.4688 27.201 17.4786 27.1836 17.4961C27.1661 17.5135 27.1562 17.5373 27.1562 17.562V19.313C27.1562 19.3377 27.1661 19.3615 27.1836 19.3789C27.201 19.3964 27.2248 19.4062 27.2495 19.4062H29.0005C29.0252 19.4062 29.049 19.3964 29.0664 19.3789C29.0839 19.3615 29.0938 19.3377 29.0938 19.313V17.562ZM32 21.4358C32 21.4114 31.9903 21.388 31.973 21.3707C31.9558 21.3534 31.9324 21.3438 31.908 21.3438H24.342C24.3176 21.3438 24.2942 21.3534 24.277 21.3707C24.2597 21.388 24.25 21.4114 24.25 21.4358V23.1892C24.25 23.2136 24.2597 23.237 24.277 23.2543C24.2942 23.2716 24.3176 23.2812 24.342 23.2812H31.908C31.9324 23.2812 31.9558 23.2716 31.973 23.2543C31.9903 23.237 32 23.2136 32 23.1892V21.4358ZM36.9794 43.6432C34.6108 49.004 28.0729 51.0335 23.0705 47.9783C21.6497 47.1097 20.534 45.9557 19.7235 44.5162C16.2675 38.3744 20.266 30.7467 27.3137 30.1049C27.3227 30.1041 27.3314 30.1013 27.3393 30.0969C27.3472 30.0924 27.354 30.0864 27.3593 30.0792C27.3645 30.0719 27.3682 30.0637 27.3699 30.0549C27.3717 30.0462 27.3715 30.0372 27.3694 30.0286C27.2459 29.4813 26.9855 28.1068 27.2919 27.6273C27.5474 27.2289 27.8646 27.1575 28.3636 27.1575C31.8123 27.1567 35.2538 27.1562 38.688 27.1562C38.7127 27.1562 38.7365 27.1466 38.7539 27.1293C38.7714 27.112 38.7812 27.0886 38.7812 27.0642V25.2793C38.7812 25.2389 38.7611 25.2188 38.7207 25.2188H17.5293C17.5132 25.2188 17.4978 25.2251 17.4865 25.2365C17.4751 25.2478 17.4688 25.2632 17.4688 25.2793V54.1602C17.4688 54.1923 17.4815 54.2231 17.5042 54.2458C17.5269 54.2685 17.5577 54.2812 17.5898 54.2812H38.7207C38.7368 54.2812 38.7522 54.2749 38.7635 54.2635C38.7749 54.2522 38.7812 54.2368 38.7812 54.2207V36.9043C38.7812 36.8639 38.7611 36.8438 38.7207 36.8438H37.4529C37.4004 36.8438 37.3814 36.8688 37.3959 36.9188C38.0603 39.2697 37.9215 41.5111 36.9794 43.6432ZM28.0209 32.0097C22.2205 32.0593 18.6095 38.292 21.2578 43.3513C23.5174 47.6671 29.2342 48.8441 33.0172 45.7635C35.5965 43.6637 36.6016 40.0394 35.3107 36.8716C35.2962 36.8369 35.2703 36.8179 35.2332 36.8147C33.7365 36.7001 32.3613 36.2338 31.1075 35.4161C31.0567 35.383 31.0312 35.3963 31.0312 35.456V36.7784C31.0312 36.8187 31.0514 36.8393 31.0918 36.8401C31.6125 36.8466 32.1328 36.8478 32.6527 36.8438C33.6142 36.8353 33.9363 37.1671 33.9363 38.1576C33.9371 39.2216 33.9379 40.2864 33.9387 41.3521C33.9399 42.4141 33.567 42.6623 32.5098 42.6562C32.04 42.6538 31.5685 42.6542 31.0954 42.6575C31.0535 42.6583 31.0321 42.6797 31.0312 42.7216C31.0304 43.2795 31.03 43.8377 31.03 44.3964C31.0288 45.2549 30.6401 45.5589 29.7791 45.5601C28.6021 45.5625 27.4251 45.5637 26.248 45.5637C25.3907 45.5637 25.2163 44.9582 25.22 44.1954C25.2216 43.7069 25.2208 43.2161 25.2175 42.7229C25.2167 42.6801 25.1949 42.6583 25.1521 42.6575C24.5951 42.655 24.0381 42.6542 23.4811 42.655C22.6177 42.6562 22.3173 42.2675 22.3149 41.4029C22.3109 40.2606 22.3109 39.1175 22.3149 37.9736C22.3186 37.1332 22.7279 36.8474 23.5586 36.8462C24.0857 36.8462 24.6157 36.845 25.1485 36.8425C25.1921 36.8425 25.2143 36.8207 25.2151 36.7771C25.2224 36.3073 25.2236 35.8367 25.2188 35.3652C25.2091 34.4304 25.4246 33.8866 26.4624 33.9363C26.9556 33.9597 27.8994 33.9553 29.2936 33.923C29.3501 33.9214 29.3598 33.8996 29.3226 33.8576C28.8374 33.3127 28.4322 32.7141 28.1068 32.0618C28.0891 32.0262 28.0604 32.0089 28.0209 32.0097ZM26.1851 40.7284C26.9189 40.7284 27.1575 41.2867 27.1526 41.937C27.1502 42.4673 27.153 43.0018 27.1611 43.5402C27.1614 43.5628 27.1706 43.5844 27.1867 43.6002C27.2028 43.6161 27.2245 43.625 27.2471 43.625H29.032C29.0724 43.625 29.0925 43.6048 29.0925 43.5645C29.095 42.9929 29.0962 42.4209 29.0962 41.8486C29.0974 41.0094 29.5091 40.7236 30.3386 40.7212C30.8698 40.7204 31.403 40.7192 31.9382 40.7175C31.9794 40.7175 32 40.697 32 40.6558V38.8442C32 38.803 31.9798 38.7825 31.9395 38.7825C31.3824 38.78 30.8254 38.7792 30.2684 38.78C29.3747 38.78 29.095 38.3744 29.095 37.4904C29.0958 36.9745 29.095 36.4562 29.0925 35.9355C29.0925 35.8952 29.072 35.875 29.0308 35.875H27.218C27.1768 35.875 27.1562 35.8956 27.1562 35.9368C27.1571 36.5067 27.1558 37.0762 27.1526 37.6454C27.1466 38.5936 26.6501 38.7861 25.7625 38.7812C25.2797 38.7788 24.7957 38.7792 24.3105 38.7825C24.2702 38.7833 24.25 38.8039 24.25 38.8442V40.6534C24.25 40.6913 24.2694 40.7107 24.3081 40.7115C24.9418 40.7236 25.5675 40.7292 26.1851 40.7284Z" fill="#597B00"/>
<path d="M7.11767 7.01091L4.29555 5.92194C4.27309 5.91328 4.24786 5.92446 4.23919 5.94692L3.57308 7.67318C3.56442 7.69564 3.5756 7.72087 3.59806 7.72954L6.42017 8.8185C6.44263 8.82717 6.46787 8.81599 6.47654 8.79353L7.14264 7.06727C7.15131 7.04481 7.14013 7.01957 7.11767 7.01091Z" fill="#597B00"/>
<path d="M11.9621 8.87603L10.1071 8.16022C10.0846 8.15156 10.0594 8.16274 10.0507 8.1852L9.38461 9.91146C9.37594 9.93392 9.38712 9.95915 9.40958 9.96782L11.2646 10.6836C11.2871 10.6923 11.3123 10.6811 11.321 10.6586L11.9871 8.93239C11.9958 8.90993 11.9846 8.8847 11.9621 8.87603Z" fill="#597B00"/>
<path d="M16.8034 10.7403L14.3699 9.80129C14.3468 9.79238 14.3209 9.80387 14.312 9.82696L13.6468 11.551C13.6379 11.574 13.6493 11.6 13.6724 11.6089L16.1059 12.5479C16.129 12.5568 16.1549 12.5453 16.1638 12.5222L16.8291 10.7982C16.838 10.7751 16.8265 10.7492 16.8034 10.7403Z" fill="#597B00"/>
<path d="M7.72895 12.625H3.96051C3.93108 12.625 3.90723 12.6489 3.90723 12.6783V14.5092C3.90723 14.5386 3.93108 14.5625 3.96051 14.5625H7.72895C7.75837 14.5625 7.78223 14.5386 7.78223 14.5092V12.6783C7.78223 12.6489 7.75837 12.625 7.72895 12.625Z" fill="#597B00"/>
<path d="M13.5562 12.625H10.725C10.7043 12.625 10.6875 12.6418 10.6875 12.6625V14.525C10.6875 14.5457 10.7043 14.5625 10.725 14.5625H13.5562C13.5769 14.5625 13.5938 14.5457 13.5938 14.525V12.6625C13.5938 12.6418 13.5769 12.625 13.5562 12.625Z" fill="#597B00"/>
<path d="M15.0219 14.7094L13.1869 15.7099C13.1581 15.7256 13.1475 15.7616 13.1632 15.7904L14.0338 17.3873C14.0495 17.416 14.0856 17.4267 14.1143 17.411L15.9494 16.4105C15.9782 16.3948 15.9888 16.3587 15.9731 16.33L15.1024 14.7331C15.0867 14.7043 15.0507 14.6937 15.0219 14.7094Z" fill="#597B00"/>
<path d="M11.1608 16.8165L9.296 17.8332C9.27545 17.8444 9.26787 17.8702 9.27908 17.8907L10.166 19.5174C10.1772 19.5379 10.2029 19.5455 10.2235 19.5343L12.0883 18.5176C12.1088 18.5064 12.1164 18.4806 12.1052 18.4601L11.2183 16.8334C11.2071 16.8129 11.1814 16.8053 11.1608 16.8165Z" fill="#597B00"/>
<path d="M7.28023 18.9364L4.45854 20.4749C4.43506 20.4877 4.4264 20.5171 4.4392 20.5406L5.32029 22.1566C5.3331 22.1801 5.36252 22.1888 5.38601 22.176L8.20769 20.6375C8.23118 20.6247 8.23984 20.5953 8.22704 20.5718L7.34594 18.9558C7.33314 18.9323 7.30372 18.9236 7.28023 18.9364Z" fill="#597B00"/>
</svg>
