<svg width="64" height="64" viewBox="0 0 64 64" fill="none" xmlns="http://www.w3.org/2000/svg">
<path d="M54.6442 52.7507C54.6421 53.4801 54.6411 54.2095 54.6411 54.9389C54.6401 55.6432 54.3874 55.9938 53.664 55.9969C52.9155 55.9997 52.1674 56.0003 51.4195 55.999C50.8209 55.999 50.6469 55.6185 50.4949 55.0802C50.2747 54.3006 50.0514 53.5214 49.825 52.7425C49.8166 52.7136 49.7971 52.6992 49.7663 52.6992H14.2306C14.1991 52.6992 14.1792 52.7143 14.1708 52.7445C13.9374 53.5606 13.7046 54.3724 13.4726 55.1802C13.3363 55.6535 13.1214 56 12.6046 56C11.9022 55.9993 11.2001 55.9986 10.4984 55.9979C9.87888 55.9979 9.34736 55.8309 9.35156 55.1482C9.35715 54.3501 9.3575 53.5523 9.35261 52.7549C9.35261 52.717 9.33339 52.6981 9.29495 52.6981C8.82459 52.7016 8.52092 52.6878 8.38394 52.6569C7.21888 52.395 6.47071 51.7323 6.13943 50.6688C6.04648 50.369 6 49.9476 6 49.4045C6.0007 44.0486 6.00419 38.6933 6.01048 33.3387C6.01258 31.729 7.24124 30.474 8.88295 30.4431C9.30159 30.4355 9.72023 30.428 10.1389 30.4204C10.1738 30.4197 10.1913 30.4022 10.1913 30.3678C10.1948 29.5683 10.1976 28.7712 10.1997 27.9765C10.2049 25.6522 11.7973 23.6445 14.1089 23.1341C14.5136 23.0447 15.209 23 16.1952 23C27.0455 23.0014 37.8959 23.0038 48.7463 23.0072C51.2403 23.0082 53.3107 24.7283 53.728 27.1526C53.8811 28.0415 53.7951 29.3098 53.8087 30.3596C53.8087 30.3994 53.8293 30.4201 53.8706 30.4214C54.5048 30.4338 55.2177 30.3689 55.7817 30.5225C56.8566 30.8154 57.5489 31.4691 57.8585 32.4838C57.9535 32.7959 58.0007 33.25 58 33.846C57.9965 38.9738 57.9962 44.1011 57.9989 49.2282C57.9989 49.8895 57.949 50.3766 57.849 50.6894C57.4119 52.0578 56.1612 52.761 54.7071 52.692C54.6652 52.6899 54.6442 52.7095 54.6442 52.7507ZM44.6053 36.2095C45.8004 36.2105 46.9819 36.6333 47.8698 37.4201C47.8753 37.4249 47.882 37.428 47.8892 37.4291C47.8964 37.4302 47.9038 37.4292 47.9105 37.4263C47.9171 37.4233 47.9228 37.4186 47.9267 37.4125C47.9307 37.4065 47.9328 37.3994 47.9327 37.3923C47.9348 36.1239 47.9348 34.8683 47.9327 33.6253C47.9313 33.1606 47.9747 32.7873 48.0627 32.5055C48.4136 31.3829 49.1932 30.7043 50.4016 30.4699C50.8859 30.3761 51.5254 30.439 52.0727 30.4214C52.1076 30.4201 52.1254 30.4018 52.1261 30.3668C52.1289 29.7495 52.1293 29.1321 52.1272 28.5148C52.1251 27.8452 52.0856 27.3691 52.0087 27.0866C51.7215 26.0234 50.8534 25.1346 49.7946 24.8077C49.4563 24.7032 48.8745 24.6509 48.0491 24.6509C37.4294 24.6516 26.8096 24.6513 16.1899 24.6499C15.245 24.6499 14.5898 24.7035 14.2243 24.8108C12.8352 25.2201 11.8927 26.4926 11.8749 27.927C11.8651 28.7327 11.8655 29.5436 11.876 30.3596C11.8767 30.3994 11.8969 30.4197 11.9368 30.4204C12.5689 30.4359 13.2849 30.3689 13.8469 30.5225C14.9553 30.8257 15.6563 31.509 15.9498 32.5725C16.0351 32.8819 16.0742 33.3449 16.0673 33.9615C16.054 35.102 16.0557 36.2442 16.0725 37.3881C16.0732 37.4349 16.0917 37.4431 16.1281 37.4129C16.7627 36.8815 17.4703 36.524 18.251 36.3404C18.65 36.247 19.3447 36.2002 20.3351 36.2002C28.4255 36.2002 36.5156 36.2033 44.6053 36.2095ZM49.6101 43.6237C49.6101 44.2146 49.13 44.4497 48.5922 44.4497C37.4874 44.4497 26.3826 44.4497 15.2779 44.4497C14.5545 44.4497 14.3878 43.9588 14.3878 43.3174C14.3864 40.1338 14.3864 36.9506 14.3878 33.7676C14.3889 33.086 14.3427 32.5354 13.7232 32.2291C13.5114 32.1246 13.1239 32.0731 12.5605 32.0744C11.4745 32.0758 10.388 32.0765 9.30124 32.0765C8.86792 32.0765 8.54888 32.125 8.3441 32.2219C7.8982 32.4336 7.6756 32.8145 7.6763 33.3644C7.6784 38.7211 7.6784 44.0778 7.6763 49.4344C7.6763 50.1088 7.77275 50.6595 8.41014 50.9276C8.60444 51.0094 8.99477 51.0503 9.58115 51.0503C24.5487 51.0489 39.5159 51.0486 54.4828 51.0493C55.0559 51.05 55.4518 50.9984 55.6706 50.8946C56.1053 50.6884 56.3223 50.3017 56.3216 49.7345C56.3202 44.3806 56.3202 39.027 56.3216 33.6738C56.3216 33.0242 56.2325 32.5044 55.6402 32.2209C55.4361 32.1226 55.0608 32.0737 54.5142 32.0744C53.4205 32.0751 52.3267 32.0758 51.2329 32.0765C50.8003 32.0765 50.4816 32.125 50.2768 32.2219C49.8316 32.4336 49.609 32.8145 49.609 33.3644C49.6118 36.7845 49.6122 40.2043 49.6101 43.6237ZM16.1731 42.7998H47.8227C47.8396 42.7998 47.8564 42.7965 47.872 42.7901C47.8877 42.7838 47.9019 42.7744 47.9138 42.7626C47.9258 42.7509 47.9353 42.7369 47.9418 42.7215C47.9483 42.7061 47.9516 42.6896 47.9516 42.673V41.2427C47.9516 40.3396 47.5799 39.4736 46.9184 38.835C46.2568 38.1965 45.3595 37.8377 44.4239 37.8377H19.5719C18.6363 37.8377 17.739 38.1965 17.0774 38.835C16.4159 39.4736 16.0442 40.3396 16.0442 41.2427V42.673C16.0442 42.7066 16.0578 42.7389 16.082 42.7626C16.1061 42.7864 16.1389 42.7998 16.1731 42.7998ZM11.942 54.3491C11.95 54.3489 11.9576 54.3462 11.9639 54.3413C11.9701 54.3365 11.9746 54.3298 11.9766 54.3223L12.4285 52.7445C12.4299 52.7393 12.4301 52.7337 12.429 52.7284C12.428 52.723 12.4257 52.718 12.4223 52.7136C12.419 52.7092 12.4147 52.7057 12.4098 52.7032C12.4049 52.7007 12.3994 52.6993 12.3939 52.6992H11.0687C11.059 52.6992 11.0497 52.703 11.0428 52.7097C11.0359 52.7165 11.0321 52.7257 11.0321 52.7353V54.313C11.0321 54.3225 11.0359 54.3317 11.0428 54.3385C11.0497 54.3453 11.059 54.3491 11.0687 54.3491H11.942ZM51.603 52.6992C51.5975 52.6991 51.5921 52.7004 51.5871 52.7027C51.5822 52.7051 51.5779 52.7086 51.5745 52.7129C51.5711 52.7172 51.5689 52.7222 51.5678 52.7275C51.5667 52.7328 51.5669 52.7383 51.5684 52.7435L52.0213 54.3233C52.0234 54.3307 52.0279 54.3373 52.0341 54.342C52.0404 54.3466 52.048 54.3491 52.0559 54.3491H52.9302C52.9397 54.3491 52.9487 54.3454 52.9554 54.3388C52.9621 54.3322 52.9658 54.3233 52.9658 54.314V52.7342C52.9658 52.7249 52.9621 52.716 52.9554 52.7094C52.9487 52.7029 52.9397 52.6992 52.9302 52.6992H51.603Z" fill="#597B00"/>
<path d="M34 19C34 19 33 19 33 18C33 17 34 14 39 14C44 14 45 17 45 18C45 19 44 19 44 19H34Z" fill="#597B00"/>
<path d="M39 13C40.6569 13 42 11.6569 42 10C42 8.34315 40.6569 7 39 7C37.3431 7 36 8.34315 36 10C36 11.6569 37.3431 13 39 13Z" fill="#597B00"/>
<path d="M26.4583 17V15.452H22.8343V14.156L26.7463 8.54H28.2583V14.048H29.4103V15.452H28.2583V17H26.4583ZM26.4583 14.048V10.748H26.7583L24.1783 14.48V14.048H26.4583Z" fill="#597B00"/>
</svg>
