<svg width="64" height="64" viewBox="0 0 64 64" fill="none" xmlns="http://www.w3.org/2000/svg">
<path d="M18.9306 1H45.0541C47.258 1.15621 49.1217 2.62266 49.6654 4.75875C49.7752 5.19227 49.8301 5.96565 49.8301 7.07891C49.8301 22.4998 49.8309 37.9211 49.8325 53.3428C49.8325 54.5037 49.7853 55.3073 49.6908 55.7537C49.3074 57.5669 48.1719 58.8206 46.2845 59.5149C46.2465 59.5286 46.2279 59.5557 46.2288 59.5961C46.2336 60.8687 46.4092 62.2141 45.019 62.8111C44.7712 62.9177 44.4196 62.9709 43.9643 62.9709C42.5951 62.9701 41.2268 62.9693 39.8592 62.9685C37.78 62.9661 37.5887 61.5299 37.6456 59.8031C37.6472 59.7547 37.6238 59.7305 37.5754 59.7305H26.3996C26.3916 59.7305 26.3836 59.7321 26.3762 59.7352C26.3688 59.7383 26.362 59.7429 26.3564 59.7486C26.3508 59.7544 26.3463 59.7612 26.3434 59.7687C26.3404 59.7762 26.3389 59.7842 26.3391 59.7922C26.3427 61.0383 26.4687 62.2238 25.1427 62.8099C24.9062 62.9148 24.5796 62.9673 24.163 62.9673C22.7543 62.9697 21.3452 62.9705 19.9357 62.9697C18.9572 62.9685 18.2028 62.5713 17.8795 61.6292C17.6882 61.0734 17.7875 60.2633 17.7669 59.6021C17.7653 59.5577 17.7439 59.5278 17.7027 59.5125C15.8984 58.861 14.7742 57.6638 14.3302 55.9209C14.2221 55.4986 14.168 54.9045 14.168 54.1384C14.1696 38.439 14.17 22.7396 14.1692 7.04016C14.1692 5.91156 14.2313 5.11961 14.3557 4.6643C14.9236 2.59117 16.7751 1.16227 18.9306 1ZM44.3155 2.95809C36.0948 2.93145 27.8742 2.9262 19.6535 2.94234C19.0367 2.94315 18.5608 2.99845 18.2258 3.10824C16.6504 3.62168 16.1043 4.88953 16.1055 6.44801C16.1071 12.0337 16.1071 17.6613 16.1055 23.3309C16.1055 23.3418 16.1098 23.3523 16.1175 23.36C16.1252 23.3677 16.1357 23.3721 16.1466 23.3721H47.7751C47.8066 23.3721 47.8368 23.3596 47.859 23.3373C47.8813 23.3151 47.8938 23.2849 47.8938 23.2534C47.893 17.7606 47.8934 12.2633 47.895 6.76164C47.895 6.00844 47.8377 5.44939 47.723 5.08449C47.4139 4.0996 46.7652 3.4469 45.7771 3.12641C45.4372 3.01581 44.95 2.9597 44.3155 2.95809ZM16.2726 55.7235C16.7134 56.9732 17.8964 57.7881 19.2248 57.7881C27.5739 57.7905 35.9229 57.7926 44.2719 57.7942C44.9121 57.7942 45.4029 57.7397 45.7444 57.6307C47.3695 57.1148 47.8962 55.8228 47.8962 54.2316C47.893 44.6499 47.8926 35.0265 47.895 25.3616C47.8949 25.3413 47.8875 25.3217 47.8742 25.3064C47.8609 25.291 47.8425 25.281 47.8223 25.2781C47.7965 25.2749 47.7711 25.2789 47.7461 25.2902C47.7162 25.3031 47.6851 25.3096 47.6528 25.3096H16.1684C16.1521 25.3096 16.1364 25.3159 16.1248 25.3273C16.1132 25.3387 16.1067 25.3541 16.1067 25.3701C16.1059 34.9987 16.1063 44.6277 16.1079 54.257C16.1087 54.923 16.1636 55.4119 16.2726 55.7235ZM24.4319 59.8213C24.4319 59.7972 24.4223 59.7741 24.4053 59.7571C24.3882 59.74 24.3651 59.7305 24.3411 59.7305H19.8C19.776 59.7305 19.7529 59.74 19.7358 59.7571C19.7188 59.7741 19.7092 59.7972 19.7092 59.8213V60.9717C19.7092 60.9958 19.7188 61.0189 19.7358 61.0359C19.7529 61.0529 19.776 61.0625 19.8 61.0625H24.3411C24.3651 61.0625 24.3882 61.0529 24.4053 61.0359C24.4223 61.0189 24.4319 60.9958 24.4319 60.9717V59.8213ZM44.2925 59.814C44.2925 59.7919 44.2837 59.7706 44.268 59.7549C44.2523 59.7393 44.2311 59.7305 44.2089 59.7305H39.6534C39.6312 59.7305 39.6099 59.7393 39.5943 59.7549C39.5786 59.7706 39.5698 59.7919 39.5698 59.814V60.9789C39.5698 61.0011 39.5786 61.0224 39.5943 61.038C39.6099 61.0537 39.6312 61.0625 39.6534 61.0625H44.2089C44.2311 61.0625 44.2523 61.0537 44.268 61.038C44.2837 61.0224 44.2925 61.0011 44.2925 60.9789V59.814Z" fill="#597B00"/>
<path d="M23.2205 18.282C23.2205 18.4692 23.1836 18.6545 23.112 18.8274C23.0404 19.0003 22.9354 19.1575 22.803 19.2898C22.6707 19.4222 22.5135 19.5271 22.3406 19.5988C22.1677 19.6704 21.9824 19.7073 21.7952 19.7073H19.8335C19.4555 19.7073 19.0929 19.5571 18.8257 19.2898C18.5584 19.0225 18.4082 18.66 18.4082 18.282V8.02293C18.4082 7.64492 18.5584 7.2824 18.8257 7.01511C19.0929 6.74782 19.4555 6.59766 19.8335 6.59766H21.7952C21.9824 6.59766 22.1677 6.63452 22.3406 6.70615C22.5135 6.77778 22.6707 6.88276 22.803 7.01511C22.9354 7.14746 23.0404 7.30458 23.112 7.4775C23.1836 7.65042 23.2205 7.83576 23.2205 8.02293V18.282ZM21.283 8.58238C21.283 8.56857 21.2775 8.55533 21.2677 8.54556C21.258 8.5358 21.2447 8.53031 21.2309 8.53031H20.4268C20.413 8.53031 20.3998 8.5358 20.39 8.54556C20.3803 8.55533 20.3748 8.56857 20.3748 8.58238V17.725C20.3748 17.7318 20.3761 17.7386 20.3787 17.7449C20.3813 17.7512 20.3852 17.7569 20.39 17.7618C20.3949 17.7666 20.4006 17.7705 20.4069 17.7731C20.4132 17.7757 20.42 17.777 20.4268 17.777H21.2309C21.2377 17.777 21.2445 17.7757 21.2508 17.7731C21.2571 17.7705 21.2629 17.7666 21.2677 17.7618C21.2726 17.7569 21.2764 17.7512 21.279 17.7449C21.2816 17.7386 21.283 17.7318 21.283 17.725V8.58238Z" fill="#597B00"/>
<path d="M23.2205 43.5371C23.2205 43.9219 23.0676 44.2909 22.7956 44.5629C22.5235 44.835 22.1545 44.9878 21.7698 44.9878H19.8589C19.4742 44.9878 19.1052 44.835 18.8331 44.5629C18.561 44.2909 18.4082 43.9219 18.4082 43.5371V30.396C18.4082 30.0113 18.561 29.6423 18.8331 29.3702C19.1052 29.0982 19.4742 28.9453 19.8589 28.9453H21.7698C22.1545 28.9453 22.5235 29.0982 22.7956 29.3702C23.0676 29.6423 23.2205 30.0113 23.2205 30.396V43.5371ZM21.283 30.9603C21.283 30.9495 21.2808 30.9388 21.2767 30.9288C21.2726 30.9188 21.2665 30.9097 21.2589 30.9021C21.2512 30.8944 21.2421 30.8884 21.2321 30.8842C21.2221 30.8801 21.2114 30.878 21.2006 30.878H20.4571C20.4353 30.878 20.4143 30.8866 20.3989 30.9021C20.3834 30.9175 20.3748 30.9385 20.3748 30.9603V42.9655C20.3748 42.9874 20.3834 43.0083 20.3989 43.0238C20.4143 43.0392 20.4353 43.0479 20.4571 43.0479H21.2006C21.2114 43.0479 21.2221 43.0458 21.2321 43.0416C21.2421 43.0375 21.2512 43.0314 21.2589 43.0238C21.2665 43.0161 21.2726 43.007 21.2767 42.9971C21.2808 42.9871 21.283 42.9764 21.283 42.9655V30.9603Z" fill="#597B00"/>
</svg>
