<svg width="64" height="64" viewBox="0 0 64 64" fill="none" xmlns="http://www.w3.org/2000/svg">
<path d="M63 45.6901V56.7084C62.8547 57.7147 62.2044 57.9121 61.249 57.9121C41.7852 57.9137 22.3214 57.9141 2.85758 57.9133C1.84281 57.9133 1.15379 57.7862 1 56.6927V45.6756C1.06378 45.2647 1.28417 44.8917 1.66117 44.5567C9.04305 37.9942 16.4261 31.4297 23.8104 24.8632C23.8411 24.8358 23.8564 24.8014 23.8564 24.7603C23.8556 19.1956 23.856 13.6346 23.8577 8.07719C23.8577 6.62891 24.1337 6.08278 25.6196 6.08399C29.832 6.0856 34.0441 6.0856 38.2557 6.08399C39.6991 6.08399 40.1411 6.4618 40.1423 7.87738C40.144 13.505 40.1444 19.133 40.1436 24.7615C40.1436 24.8027 40.1589 24.8366 40.1896 24.8632C47.5682 31.4241 54.9461 37.9837 62.3231 44.5421C62.7138 44.8901 62.9395 45.2728 63 45.6901ZM37.6006 8.71293C37.6006 8.69045 37.5917 8.66889 37.5758 8.65299C37.5599 8.6371 37.5383 8.62817 37.5158 8.62817H26.4842C26.4617 8.62817 26.4401 8.6371 26.4242 8.65299C26.4083 8.66889 26.3994 8.69045 26.3994 8.71293V24.0434C26.3994 24.0659 26.4083 24.0874 26.4242 24.1033C26.4401 24.1192 26.4617 24.1282 26.4842 24.1282H37.5158C37.5383 24.1282 37.5599 24.1192 37.5758 24.1033C37.5917 24.0874 37.6006 24.0659 37.6006 24.0434V8.71293ZM58.2398 44.4489C58.2568 44.4683 58.2826 44.4747 58.3173 44.4683C58.3267 44.4668 58.3356 44.4627 58.3427 44.4563C58.3498 44.45 58.355 44.4417 58.3576 44.4325C58.3601 44.4233 58.36 44.4136 58.3571 44.4044C58.3543 44.3953 58.3489 44.3872 58.3415 44.3811L38.4652 26.7123C38.4347 26.6858 38.396 26.6712 38.3562 26.6711H25.6438C25.6018 26.6711 25.5651 26.6853 25.5336 26.7135L5.62941 44.4077C5.62609 44.4105 5.62373 44.4143 5.62267 44.4185C5.62161 44.4227 5.6219 44.4271 5.62352 44.4312C5.62513 44.4352 5.62797 44.4386 5.63164 44.4409C5.63531 44.4432 5.63962 44.4443 5.64395 44.4441C23.2308 44.4376 40.7627 44.4392 58.2398 44.4489ZM60.457 47.0548C60.457 47.0362 60.4496 47.0184 60.4365 47.0052C60.4233 46.992 60.4054 46.9846 60.3868 46.9846H3.6132C3.59458 46.9846 3.57671 46.992 3.56354 47.0052C3.55037 47.0184 3.54297 47.0362 3.54297 47.0548V55.3013C3.54297 55.32 3.55037 55.3378 3.56354 55.351C3.57671 55.3642 3.59458 55.3716 3.6132 55.3716H60.3868C60.4054 55.3716 60.4233 55.3642 60.4365 55.351C60.4496 55.3378 60.457 55.32 60.457 55.3013V47.0548Z" fill="#597B00"/>
<path d="M11.7241 48.2773H11.62C10.9599 48.2773 10.4248 48.8125 10.4248 49.4725V52.8656C10.4248 53.5257 10.9599 54.0608 11.62 54.0608H11.7241C12.3842 54.0608 12.9193 53.5257 12.9193 52.8656V49.4725C12.9193 48.8125 12.3842 48.2773 11.7241 48.2773Z" fill="#597B00"/>
<path d="M16.8059 48.279L16.6969 48.2792C16.0375 48.2803 15.5039 48.8158 15.505 49.4752L15.5109 52.8683C15.5121 53.5277 16.0476 54.0613 16.707 54.0602L16.816 54.06C17.4754 54.0588 18.009 53.5233 18.0079 52.8639L18.002 49.4709C18.0008 48.8115 17.4653 48.2778 16.8059 48.279Z" fill="#597B00"/>
<path d="M23.0979 52.7958C23.0931 54.4402 20.6397 54.5201 20.5949 52.8345C20.5505 51.1901 20.5396 50.1083 20.5622 49.5892C20.6058 48.6108 21.5007 47.9847 22.3895 48.4037C22.9986 48.6907 23.0967 49.2199 23.0979 49.8919C23.1003 50.8599 23.1003 51.8278 23.0979 52.7958Z" fill="#597B00"/>
<path d="M28.1762 52.7354C28.1629 54.2297 26.1939 54.6051 25.7217 53.1992C25.6781 53.0684 25.6538 52.844 25.649 52.5259C25.6304 51.1285 25.63 50.1597 25.6478 49.6197C25.695 48.2089 27.4993 47.7173 28.0636 49.0372C28.1419 49.2204 28.1819 49.4986 28.1835 49.8715C28.1875 50.8257 28.1851 51.7804 28.1762 52.7354Z" fill="#597B00"/>
<path d="M32.0492 48.2829L31.9402 48.2831C31.2748 48.2842 30.7363 48.8246 30.7375 49.49L30.7433 52.854C30.7445 53.5195 31.2849 54.058 31.9503 54.0568L32.0593 54.0566C32.7247 54.0554 33.2632 53.5151 33.2621 52.8496L33.2562 49.4856C33.255 48.8202 32.7147 48.2817 32.0492 48.2829Z" fill="#597B00"/>
<path d="M37.1439 48.2816L37.035 48.2814C36.3695 48.2802 35.8291 48.8187 35.828 49.4842L35.8221 52.8482C35.8209 53.5136 36.3594 54.054 37.0249 54.0551L37.1339 54.0553C37.7993 54.0565 38.3397 53.518 38.3409 52.8526L38.3467 49.4886C38.3479 48.8231 37.8094 48.2828 37.1439 48.2816Z" fill="#597B00"/>
<path d="M43.2543 53.4236C42.6815 54.5607 40.9027 54.1284 40.9003 52.7661C40.8978 51.8869 40.8978 51.0062 40.9003 50.1238C40.9019 49.5522 40.9535 49.1619 41.0553 48.9528C41.3313 48.3849 42.0046 48.1403 42.5968 48.3583C43.3536 48.6368 43.436 49.2725 43.4396 50.056C43.4444 50.9642 43.6164 52.7019 43.2543 53.4236Z" fill="#597B00"/>
<path d="M47.3041 48.2829L47.1951 48.2831C46.5297 48.2842 45.9912 48.8246 45.9923 49.49L45.9982 52.854C45.9994 53.5195 46.5398 54.058 47.2052 54.0568L47.3142 54.0566C47.9796 54.0554 48.5181 53.5151 48.517 52.8496L48.5111 49.4856C48.5099 48.8202 47.9695 48.2817 47.3041 48.2829Z" fill="#597B00"/>
<path d="M52.3861 48.2852H52.2723C51.6068 48.2852 51.0674 48.8246 51.0674 49.49V52.8468C51.0674 53.5122 51.6068 54.0516 52.2723 54.0516H52.3861C53.0515 54.0516 53.591 53.5122 53.591 52.8468V49.49C53.591 48.8246 53.0515 48.2852 52.3861 48.2852Z" fill="#597B00"/>
</svg>
