<svg width="40" height="40" viewBox="0 0 40 40" fill="none" xmlns="http://www.w3.org/2000/svg">
<g clip-path="url(#clip0_974_11311)">
<path d="M29.9267 0H30.0626C30.4782 0.0773438 30.6407 0.344531 30.6602 0.764063C30.7923 3.61563 32.272 6.43906 35.4642 6.63672C35.7806 6.65625 36.1727 6.62578 36.4204 6.81797C36.7556 7.07656 36.7329 7.66797 36.3626 7.89219C36.261 7.95313 36.1019 7.9888 35.8852 7.99922C33.7767 8.09688 32.2009 8.99219 31.3446 10.9352C30.9311 11.8721 30.7024 12.8695 30.6587 13.9273C30.6504 14.1237 30.6149 14.2721 30.5524 14.3727C30.3102 14.7594 29.6649 14.7688 29.4306 14.3656C29.3727 14.2661 29.3371 14.0971 29.3235 13.8586C29.1431 10.6648 27.5313 8.125 24.1157 7.99844C23.9006 7.99063 23.7425 7.95573 23.6415 7.89375C23.0892 7.55703 23.3118 6.68672 23.9595 6.675C27.479 6.61016 29.1548 4.07109 29.3243 0.807813C29.3477 0.360938 29.4829 0.0882813 29.9267 0ZM29.9259 4.11172C29.353 5.49766 28.4001 6.56563 27.0673 7.31563C27.0636 7.31769 27.0605 7.32073 27.0583 7.32442C27.0562 7.32811 27.0551 7.33231 27.0552 7.33656C27.0553 7.34082 27.0565 7.34497 27.0588 7.34858C27.0611 7.35219 27.0643 7.35511 27.0681 7.35703C28.4165 8.10078 29.3811 9.1875 29.9618 10.6172C29.9643 10.6236 29.9687 10.6292 29.9744 10.6331C29.9802 10.637 29.9869 10.6391 29.9938 10.6391C30.0008 10.6391 30.0075 10.637 30.0132 10.6331C30.019 10.6292 30.0234 10.6236 30.0259 10.6172C30.604 9.19115 31.5657 8.10625 32.911 7.3625C32.9164 7.35953 32.9209 7.35517 32.924 7.34988C32.9271 7.34459 32.9288 7.33856 32.9288 7.33242C32.9288 7.32628 32.9271 7.32025 32.924 7.31496C32.9209 7.30967 32.9164 7.30532 32.911 7.30234C31.5642 6.55651 30.6009 5.46953 30.0212 4.04141C30.018 4.03265 30.0119 4.02526 30.0039 4.02053C29.9959 4.0158 29.9865 4.01402 29.9773 4.01551C29.9681 4.01699 29.9598 4.02164 29.9536 4.02866C29.9475 4.03567 29.9441 4.0446 29.9438 4.05391C29.9428 4.06589 29.9368 4.08516 29.9259 4.11172Z" fill="#597B00"/>
<path d="M40 28.6773V29.0078C39.8789 30.075 39.3617 30.6039 38.4406 31.1664C34.5568 33.5388 30.6693 35.9052 26.7781 38.2656C25.6203 38.968 24.7422 39.3312 23.457 39.332C17.9221 39.3352 12.387 39.3365 6.85156 39.3359C6.825 39.3359 6.80234 39.3453 6.78359 39.3641C6.41693 39.737 5.97057 39.949 5.44453 40H1.86953C0.785156 39.8427 0.161979 39.2227 0 38.1398V23.8617C0.144271 22.9461 0.596615 22.3654 1.35703 22.1195C1.6237 22.0336 2.11719 21.9904 2.8375 21.9898C4.11771 21.9883 4.96927 21.9948 5.39219 22.0094C5.83542 22.025 6.24193 22.1781 6.61172 22.4688C6.64401 22.4948 6.66016 22.487 6.66016 22.4453L6.66094 18.7328C6.66094 18.7247 6.65934 18.7167 6.65624 18.7092C6.65314 18.7017 6.64859 18.6949 6.64286 18.6892C6.63713 18.6834 6.63033 18.6789 6.62284 18.6758C6.61535 18.6727 6.60732 18.6711 6.59922 18.6711C5.62422 18.6727 4.63906 18.6732 3.64375 18.6727C3.13906 18.6719 2.64844 18.5602 2.68516 17.9719C2.69401 17.8297 2.76016 17.6602 2.88359 17.4633C5.04661 14.0039 7.20885 10.5445 9.37031 7.08516C9.60703 6.70625 9.82422 6.66094 10.2844 6.66094C13.8604 6.6599 17.4365 6.6599 21.0125 6.66094C21.274 6.66094 21.456 6.67891 21.5586 6.71484C22.2844 6.97187 22.043 8.00547 21.2844 8.00625C17.9974 8.00833 14.6445 8.00807 11.2258 8.00547C11.2237 8.00542 11.2216 8.00595 11.2197 8.007C11.2179 8.00805 11.2164 8.00958 11.2153 8.01142C11.2143 8.01326 11.2138 8.01535 11.2138 8.01747C11.2139 8.01958 11.2145 8.02165 11.2156 8.02344L17.0227 17.3102C17.0253 17.3147 17.029 17.3184 17.0336 17.321C17.0381 17.3236 17.0432 17.325 17.0484 17.325L35.4344 17.3242C35.437 17.3241 35.4396 17.3234 35.4418 17.322C35.4441 17.3207 35.446 17.3188 35.4472 17.3166C35.4485 17.3144 35.4491 17.3119 35.4491 17.3094C35.449 17.3069 35.4483 17.3044 35.4469 17.3023C34.4781 15.756 33.5091 14.2083 32.5398 12.6594C32.406 12.4453 32.3346 12.2719 32.3258 12.1391C32.2961 11.675 32.8656 11.3063 33.2711 11.5187C33.3961 11.5844 33.5305 11.7318 33.6742 11.9609C34.7893 13.7411 35.9042 15.5214 37.0187 17.3016C37.2036 17.5964 37.3023 17.826 37.3148 17.9906C37.357 18.5469 36.8453 18.6789 36.3711 18.6727C35.8211 18.6659 35.2703 18.6669 34.7188 18.6758C34.6849 18.6768 34.668 18.694 34.668 18.7273V27.0891C34.668 27.1177 34.6815 27.1276 34.7086 27.1187C35.2799 26.9333 35.8495 26.7464 36.4172 26.5578C36.8589 26.4109 37.2005 26.3339 37.4422 26.3266C38.7969 26.2867 39.8766 27.332 40 28.6773ZM4.56016 17.2914C4.55796 17.295 4.55676 17.2992 4.55668 17.3035C4.5566 17.3077 4.55765 17.3119 4.55971 17.3156C4.56176 17.3194 4.56477 17.3225 4.56841 17.3247C4.57206 17.3269 4.57622 17.328 4.58047 17.3281L6.95547 17.3266C6.95957 17.3265 6.96359 17.3254 6.96714 17.3233C6.97069 17.3213 6.97366 17.3184 6.97578 17.3148L11.2063 10.5461C11.2085 10.5423 11.2097 10.538 11.2097 10.5336C11.2097 10.5292 11.2085 10.5249 11.2063 10.5211L10.0211 8.62422C10.0189 8.62083 10.0159 8.61805 10.0123 8.61612C10.0088 8.6142 10.0048 8.61319 10.0008 8.61319C9.99674 8.61319 9.99277 8.6142 9.98922 8.61612C9.98568 8.61805 9.98267 8.62083 9.98047 8.62422L4.56016 17.2914ZM19.3109 18.6672C18.5115 18.6734 17.7141 18.6745 16.9188 18.6703C16.4625 18.6672 16.2688 18.618 16.0344 18.243C14.6943 16.1003 13.3583 13.9641 12.0266 11.8344C12.0089 11.8057 11.9909 11.8057 11.9727 11.8344L8.03047 18.1461C8.01589 18.169 8.00859 18.1943 8.00859 18.2219L8.00703 23.3055C8.00703 23.3105 8.00805 23.3155 8.01003 23.3202C8.01201 23.3248 8.01491 23.3291 8.01856 23.3326C8.02221 23.3361 8.02653 23.3388 8.03126 23.3406C8.03599 23.3424 8.04104 23.3432 8.04609 23.343C9.70078 23.2664 11.1818 23.6904 12.4891 24.6148C13.0682 25.0247 13.3589 25.2302 13.3609 25.2312C14.2193 25.7422 15.1365 25.9974 16.1125 25.9969C17.1792 25.9964 18.2404 25.9961 19.2961 25.9961C19.3067 25.9961 19.3168 25.9919 19.3243 25.9844C19.3317 25.977 19.3359 25.9668 19.3359 25.9562V18.6922C19.3359 18.675 19.3276 18.6667 19.3109 18.6672ZM20.6875 26.1445C22.6031 26.7547 24.0125 28.5836 23.3891 30.6227C23.3873 30.6279 23.3869 30.6335 23.3878 30.639C23.3887 30.6445 23.391 30.6497 23.3943 30.6542C23.3977 30.6587 23.4021 30.6624 23.4071 30.6649C23.4122 30.6674 23.4178 30.6687 23.4234 30.6688C23.768 30.6758 24.075 30.6586 24.4172 30.5453C27.3792 29.5656 30.3427 28.5771 33.3078 27.5797C33.3292 27.5724 33.3398 27.5576 33.3398 27.5352V18.7281C33.3398 18.6906 33.3211 18.6719 33.2836 18.6719H20.7031C20.6928 18.6719 20.6828 18.676 20.6755 18.6833C20.6682 18.6906 20.6641 18.7006 20.6641 18.7109V26.1125C20.6641 26.1195 20.6663 26.1264 20.6705 26.1322C20.6747 26.1379 20.6807 26.1422 20.6875 26.1445ZM5.99609 24.0195C5.99609 23.8391 5.9244 23.666 5.79679 23.5384C5.66918 23.4108 5.4961 23.3391 5.31563 23.3391H2.00937C1.8289 23.3391 1.65582 23.4108 1.52821 23.5384C1.4006 23.666 1.32891 23.8391 1.32891 24.0195V37.9898C1.32891 38.1703 1.4006 38.3434 1.52821 38.471C1.65582 38.5986 1.8289 38.6703 2.00937 38.6703H5.31563C5.4961 38.6703 5.66918 38.5986 5.79679 38.471C5.9244 38.3434 5.99609 38.1703 5.99609 37.9898V24.0195ZM38.4609 29.468C38.9562 28.7359 38.4758 27.7312 37.5836 27.6578C37.4341 27.6453 37.2164 27.6867 36.9305 27.782C32.8513 29.143 28.7716 30.5026 24.6914 31.8609C24.4414 31.9445 24.0938 31.9922 23.8313 31.9922C22.0807 31.9911 20.3297 31.9917 18.5781 31.9937C17.8339 31.9953 17.3146 32.019 17.0203 32.0648C16.1089 32.207 15.274 32.5622 14.5156 33.1305C13.7031 33.7398 12.8789 32.7023 13.6094 32.1461C14.912 31.1539 16.3716 30.6591 17.9883 30.6617C19.2638 30.6633 20.543 30.6643 21.8258 30.6648C21.839 30.6648 21.8521 30.6616 21.8638 30.6555C21.8755 30.6494 21.8855 30.6405 21.893 30.6297C22.7859 29.3578 21.6531 27.832 20.3828 27.4531C20.1406 27.3807 19.8031 27.3424 19.3703 27.3383C18.4536 27.3299 17.5372 27.325 16.6211 27.3234C15.0828 27.3219 13.8914 27.1102 12.5977 26.3281C12.1539 26.0609 11.5883 25.5813 11.1109 25.325C9.87969 24.6633 8.75 24.6594 7.37969 24.6695C7.36498 24.6695 7.35087 24.6755 7.34047 24.686C7.33006 24.6966 7.32422 24.7109 7.32422 24.7258V37.9297C7.32422 37.9502 7.33245 37.9699 7.3471 37.9844C7.36175 37.9989 7.38162 38.007 7.40234 38.007C12.5966 38.0086 17.8021 38.0086 23.0188 38.007C23.9133 38.0062 24.7836 37.9219 25.5086 37.4813C29.6174 34.9818 33.7247 32.4799 37.8305 29.9758C38.1555 29.7779 38.3656 29.6086 38.4609 29.468Z" fill="#597B00"/>
<path d="M27.4867 27.9783C26.7242 28.2127 26.3 26.9791 27.1468 26.6947C28.3073 26.3046 29.4648 25.92 30.6195 25.5408C30.6325 25.5365 30.6438 25.5283 30.6518 25.5172C30.6598 25.5061 30.6641 25.4928 30.664 25.4791C30.664 24.3447 30.664 23.2023 30.664 22.0518C30.664 21.1229 31.9906 21.0564 31.9914 22.1213C31.9924 23.3921 31.9927 24.6624 31.9922 25.9322C31.9914 26.2369 31.8773 26.508 31.5828 26.6104C29.8083 27.2275 28.4429 27.6835 27.4867 27.9783Z" fill="#597B00"/>
</g>
<defs>
<clipPath id="clip0_974_11311">
<rect width="40" height="40" fill="white"/>
</clipPath>
</defs>
</svg>
