<svg width="41" height="40" viewBox="0 0 41 40" fill="none" xmlns="http://www.w3.org/2000/svg">
<path d="M13.0691 2.628C13.5488 0.849092 16.0707 0.799093 16.6434 2.53347C16.7142 2.74805 16.7496 3.05873 16.7496 3.4655C16.7496 12.2978 16.7496 21.1293 16.7496 29.96C16.7496 29.9706 16.7538 29.9807 16.7613 29.9882C16.7687 29.9957 16.7789 29.9999 16.7894 29.9999H19.2051C19.254 29.9999 19.2759 29.9754 19.2707 29.9264L18.6941 24.4311C18.691 24.4014 18.6743 24.3853 18.6441 24.3827C18.123 24.3319 17.9996 24.0124 17.9996 23.5178C17.9996 22.8382 17.9996 22.159 17.9996 21.4803C17.9988 20.921 18.1644 20.6272 18.7434 20.6257C19.5236 20.6241 20.3035 20.6241 21.0832 20.6257C21.094 20.6257 21.1043 20.6213 21.1119 20.6135C21.1195 20.6058 21.1238 20.5952 21.1238 20.5842C21.1269 18.9311 20.9684 17.2413 21.5848 15.6522C23.173 11.5569 28.1129 9.99284 31.7699 12.385C33.4551 13.4874 34.5285 15.2272 34.8121 17.2264C34.8785 17.696 34.8769 18.2405 34.8746 18.7467C34.8746 18.7754 34.8881 18.7936 34.9152 18.8014C35.8236 19.0624 36.3991 19.6061 36.6418 20.4327C36.7147 20.6816 36.7509 21.0613 36.7504 21.5717C36.7488 22.7061 36.7486 23.8408 36.7496 24.9757C36.7512 26.0358 36.6738 26.7038 35.7949 27.2514C35.7715 27.2655 35.7569 27.2858 35.7512 27.3124C35.7269 27.4217 35.7262 27.5717 35.7176 27.653C35.4639 30.053 35.2113 32.453 34.9598 34.853C34.8519 35.8788 34.8707 36.8725 34.8746 37.8944C34.8769 38.4491 34.7051 38.7499 34.1309 38.7499C24.4647 38.7499 14.7986 38.7499 5.13242 38.7499C4.53242 38.7499 4.1332 38.528 4.29492 37.8741C4.66575 36.3777 5.03945 34.8819 5.41601 33.3866C5.47018 33.1715 5.49778 32.9543 5.49882 32.735C5.50195 32.1608 5.40273 31.271 5.60195 30.7811C5.86757 30.1272 6.39726 29.9983 7.09414 29.9991C9.04935 30.0007 11.004 30.0007 12.9582 29.9991C12.9692 29.9991 12.9797 29.9948 12.9875 29.9872C12.9952 29.9796 12.9996 29.9692 12.9996 29.9585C12.9996 21.1871 12.9996 12.4103 12.9996 3.628C12.9996 3.13425 13.0228 2.80092 13.0691 2.628ZM15.2137 2.61003C14.8988 2.39753 14.4676 2.52409 14.3144 2.85534C14.2712 2.94857 14.2496 3.1056 14.2496 3.32644C14.2496 12.1983 14.2496 21.0707 14.2496 29.9436C14.2496 29.9585 14.2556 29.9728 14.2663 29.9834C14.277 29.9939 14.2915 29.9999 14.3066 29.9999H15.4426C15.4806 29.9999 15.4996 29.9811 15.4996 29.9436C15.5001 21.0452 15.4999 12.1478 15.4988 3.25144C15.4988 2.96394 15.4426 2.76472 15.2137 2.61003ZM28.5574 12.535C25.2668 12.2155 22.4605 14.721 22.3762 18.0483C22.3652 18.4853 22.3668 19.3322 22.3809 20.5889C22.3814 20.6129 22.3936 20.6249 22.4176 20.6249H25.4973C25.5254 20.6249 25.5434 20.6113 25.5512 20.5842C25.9379 19.2171 26.9019 18.7444 28.2262 18.7483C30.0069 18.7535 31.7863 18.753 33.5644 18.7467C33.5879 18.7467 33.6006 18.735 33.6027 18.7116C33.8504 15.5991 31.7066 12.8413 28.5574 12.535ZM29.248 23.1632C29.2512 23.9439 29.2519 24.7246 29.2504 25.5053C29.2499 25.6694 29.2699 25.7944 29.3105 25.8803C29.5441 26.3772 30.2496 26.3632 30.448 25.8507C30.4845 25.7564 30.5019 25.6025 30.5004 25.3889C30.4962 24.6499 30.4967 23.9085 30.5019 23.1647C30.5025 23.1382 30.516 23.1249 30.5426 23.1249H31.7098C31.7363 23.1249 31.7496 23.1382 31.7496 23.1647C31.7496 23.9454 31.7499 24.7262 31.7504 25.5069C31.7504 25.6704 31.7704 25.7949 31.8105 25.8803C32.0434 26.378 32.7496 26.3632 32.948 25.8507C32.9845 25.7564 33.0019 25.6025 33.0004 25.3889C32.9962 24.6499 32.9967 23.9085 33.0019 23.1647C33.0025 23.1382 33.016 23.1249 33.0426 23.1249H34.2098C34.2363 23.1249 34.2496 23.1382 34.2496 23.1647C34.2496 23.9408 34.2499 24.7168 34.2504 25.4928C34.2504 25.6684 34.2725 25.8014 34.3168 25.8921C34.5629 26.4007 35.273 26.3405 35.4551 25.8178C35.4853 25.7314 35.5001 25.5882 35.4996 25.3882C35.4991 24.0689 35.4993 22.7499 35.5004 21.4311C35.5012 20.8335 35.4191 20.3647 34.873 20.1155C34.7022 20.0374 34.4111 19.9986 33.9996 19.9991C32.0756 20.0007 30.1519 20.0004 28.2285 19.9983C27.6191 19.9983 27.1254 20.06 26.8691 20.6178C26.7879 20.7949 26.7475 21.1186 26.748 21.5889C26.7496 22.8869 26.7504 24.1845 26.7504 25.4819C26.7512 26.4819 28.0012 26.5358 27.9988 25.4507C27.9973 24.6918 27.998 23.9296 28.0012 23.1639C28.0012 23.1536 28.0053 23.1436 28.0126 23.1363C28.0199 23.129 28.0299 23.1249 28.0402 23.1249H29.2098C29.2353 23.1249 29.248 23.1376 29.248 23.1632ZM25.4996 21.9202C25.4996 21.9082 25.4948 21.8966 25.4863 21.8881C25.4778 21.8796 25.4663 21.8749 25.4543 21.8749H19.2949C19.2829 21.8749 19.2714 21.8796 19.2629 21.8881C19.2544 21.8966 19.2496 21.9082 19.2496 21.9202V23.0796C19.2496 23.0916 19.2544 23.1031 19.2629 23.1116C19.2714 23.1201 19.2829 23.1249 19.2949 23.1249H25.4543C25.4663 23.1249 25.4778 23.1201 25.4863 23.1116C25.4948 23.1031 25.4996 23.0916 25.4996 23.0796V21.9202ZM20.548 29.9944C21.2611 30.0043 21.973 30.0064 22.684 30.0007C24.9559 29.9811 23.9996 32.0874 24.3363 33.3975C24.4681 33.9116 24.5978 34.4319 24.7254 34.9585C24.7322 34.9861 24.7493 34.9999 24.7769 34.9999L33.6449 35.0014C33.6736 35.0014 33.6892 34.9871 33.6918 34.9585L34.4769 27.4975C34.4782 27.4849 34.4749 27.4723 34.4676 27.4619C34.4603 27.4516 34.4494 27.4442 34.4371 27.4413C34.1496 27.373 33.8931 27.2436 33.6676 27.053C33.6457 27.0342 33.623 27.0335 33.5996 27.0507C32.7861 27.6501 31.9725 27.6527 31.159 27.0585C31.1355 27.0413 31.1121 27.0413 31.0887 27.0585C30.2783 27.6507 29.4673 27.6499 28.6559 27.0561C28.6335 27.04 28.6113 27.04 28.5894 27.0561C27.6465 27.7522 26.4715 27.6053 25.8199 26.6507C25.384 26.0124 25.5019 25.1405 25.4988 24.4132C25.4988 24.403 25.4947 24.3933 25.4874 24.3861C25.4801 24.3789 25.4701 24.3749 25.4598 24.3749H20.0074C19.9652 24.3749 19.9462 24.396 19.9504 24.4382L20.5332 29.9803C20.5336 29.9842 20.5353 29.9878 20.5381 29.9904C20.5408 29.993 20.5444 29.9944 20.548 29.9944ZM22.9996 31.2967C22.9996 31.2843 22.9947 31.2724 22.9859 31.2636C22.9771 31.2548 22.9652 31.2499 22.9527 31.2499H6.79648C6.78405 31.2499 6.77213 31.2548 6.76334 31.2636C6.75454 31.2724 6.74961 31.2843 6.74961 31.2967V32.453C6.74961 32.4654 6.75454 32.4773 6.76334 32.4861C6.77213 32.4949 6.78405 32.4999 6.79648 32.4999H22.9527C22.9652 32.4999 22.9771 32.4949 22.9859 32.4861C22.9947 32.4773 22.9996 32.4654 22.9996 32.453V31.2967ZM6.63476 33.7499C6.62851 33.7498 6.62242 33.7519 6.61747 33.7557C6.61252 33.7595 6.60898 33.7649 6.60742 33.771L5.6832 37.4647C5.68212 37.4689 5.68202 37.4732 5.68289 37.4774C5.68376 37.4817 5.68559 37.4856 5.68823 37.489C5.69087 37.4924 5.69426 37.4952 5.69812 37.497C5.70199 37.4989 5.70624 37.4999 5.71054 37.4999H6.86445C6.8707 37.4999 6.87679 37.4978 6.88174 37.494C6.88669 37.4902 6.89023 37.4848 6.89179 37.4788L7.81601 33.785C7.81709 33.7809 7.81719 33.7765 7.81632 33.7723C7.81545 33.7681 7.81362 33.7641 7.81098 33.7607C7.80834 33.7573 7.80495 33.7546 7.80109 33.7527C7.79722 33.7508 7.79297 33.7499 7.78867 33.7499H6.63476ZM9.13476 33.7499C9.12851 33.7498 9.12242 33.7519 9.11747 33.7557C9.11252 33.7595 9.10898 33.7649 9.10742 33.771L8.1832 37.4647C8.18212 37.4689 8.18202 37.4732 8.18289 37.4774C8.18376 37.4817 8.18559 37.4856 8.18823 37.489C8.19087 37.4924 8.19426 37.4952 8.19812 37.497C8.20199 37.4989 8.20624 37.4999 8.21054 37.4999H9.36445C9.3707 37.4999 9.37679 37.4978 9.38174 37.494C9.38669 37.4902 9.39023 37.4848 9.39179 37.4788L10.316 33.785C10.3171 33.7809 10.3172 33.7765 10.3163 33.7723C10.3154 33.7681 10.3136 33.7641 10.311 33.7607C10.3083 33.7573 10.305 33.7546 10.3011 33.7527C10.2972 33.7508 10.293 33.7499 10.2887 33.7499H9.13476ZM11.6394 33.7499C11.6319 33.75 11.6246 33.7526 11.6187 33.7572C11.6128 33.7619 11.6085 33.7683 11.6066 33.7757L10.6855 37.4569C10.6842 37.4619 10.6841 37.4672 10.6851 37.4723C10.6862 37.4774 10.6883 37.4822 10.6915 37.4864C10.6947 37.4905 10.6987 37.4939 10.7034 37.4962C10.708 37.4985 10.7131 37.4998 10.7184 37.4999H12.4184C12.4268 37.4999 12.435 37.4968 12.4414 37.4912C12.4477 37.4856 12.4518 37.4778 12.4527 37.4694L12.9129 33.7882C12.9134 33.7833 12.913 33.7784 12.9115 33.7738C12.91 33.7692 12.9076 33.7649 12.9043 33.7613C12.9011 33.7577 12.8971 33.7548 12.8926 33.7528C12.8882 33.7508 12.8834 33.7498 12.8785 33.7499H11.6394ZM14.2066 33.7499C14.1982 33.7498 14.19 33.7529 14.1836 33.7585C14.1773 33.7641 14.1732 33.7719 14.1723 33.7803L13.7121 37.4616C13.7116 37.4664 13.712 37.4713 13.7135 37.4759C13.715 37.4806 13.7174 37.4848 13.7207 37.4885C13.7239 37.4921 13.7279 37.495 13.7324 37.4969C13.7368 37.4989 13.7416 37.4999 13.7465 37.4999H16.0027C16.0076 37.4999 16.0124 37.4989 16.0169 37.4969C16.0213 37.495 16.0253 37.4921 16.0285 37.4885C16.0318 37.4848 16.0342 37.4806 16.0357 37.4759C16.0372 37.4713 16.0377 37.4664 16.0371 37.4616L15.5769 33.7803C15.576 33.7719 15.5719 33.7641 15.5656 33.7585C15.5593 33.7529 15.5511 33.7498 15.5426 33.7499H14.2066ZM16.8738 33.7499C16.8686 33.7499 16.8635 33.7511 16.8588 33.7533C16.8541 33.7555 16.85 33.7586 16.8466 33.7625C16.8432 33.7664 16.8407 33.771 16.8392 33.776C16.8377 33.7809 16.8372 33.7861 16.8379 33.7913L17.2965 37.4678C17.2976 37.4766 17.3019 37.4847 17.3085 37.4906C17.3151 37.4964 17.3236 37.4998 17.3324 37.4999H19.0277C19.0332 37.4998 19.0387 37.4985 19.0436 37.496C19.0485 37.4935 19.0528 37.49 19.0562 37.4857C19.0596 37.4813 19.0619 37.4763 19.0631 37.4709C19.0642 37.4655 19.0642 37.4599 19.0629 37.4546L18.1434 33.778C18.1414 33.7699 18.1368 33.7628 18.1303 33.7577C18.1238 33.7526 18.1157 33.7498 18.1074 33.7499H16.8738ZM19.4637 33.7499C19.4592 33.7499 19.4547 33.7509 19.4507 33.7528C19.4466 33.7548 19.4431 33.7577 19.4403 33.7612C19.4375 33.7647 19.4355 33.7689 19.4346 33.7733C19.4336 33.7777 19.4337 33.7822 19.4348 33.7866L20.3574 37.4772C20.359 37.4837 20.3627 37.4894 20.3679 37.4935C20.3732 37.4977 20.3797 37.4999 20.3863 37.4999H21.5363C21.5408 37.4999 21.5453 37.4989 21.5493 37.4969C21.5534 37.4949 21.5569 37.4921 21.5597 37.4885C21.5625 37.485 21.5644 37.4809 21.5654 37.4765C21.5664 37.4721 21.5663 37.4675 21.5652 37.4632L20.6418 33.7725C20.6402 33.7661 20.6365 33.7603 20.6313 33.7562C20.626 33.7521 20.6195 33.7499 20.6129 33.7499H19.4637ZM21.9637 33.7499C21.9592 33.7499 21.9547 33.7509 21.9507 33.7528C21.9466 33.7548 21.9431 33.7577 21.9403 33.7612C21.9375 33.7647 21.9356 33.7689 21.9346 33.7733C21.9336 33.7777 21.9337 33.7822 21.9348 33.7866L22.8574 37.4772C22.859 37.4837 22.8627 37.4894 22.8679 37.4935C22.8732 37.4977 22.8797 37.4999 22.8863 37.4999H24.0363C24.0408 37.4999 24.0453 37.4989 24.0493 37.4969C24.0534 37.4949 24.0569 37.4921 24.0597 37.4885C24.0625 37.485 24.0644 37.4809 24.0654 37.4765C24.0664 37.4721 24.0663 37.4675 24.0652 37.4632L23.1418 33.7725C23.1402 33.7661 23.1365 33.7603 23.1313 33.7562C23.126 33.7521 23.1195 33.7499 23.1129 33.7499H21.9637ZM25.098 36.2499C25.0923 36.2498 25.0866 36.2511 25.0814 36.2536C25.0762 36.2561 25.0717 36.2597 25.0681 36.2642C25.0646 36.2688 25.0621 36.2741 25.0609 36.2797C25.0597 36.2853 25.0599 36.2912 25.0613 36.2967L25.3559 37.4717C25.3579 37.4797 25.3626 37.4868 25.3691 37.4919C25.3756 37.497 25.3835 37.4998 25.3918 37.4999H33.5871C33.597 37.4999 33.6066 37.4959 33.6136 37.4889C33.6207 37.4819 33.6246 37.4723 33.6246 37.4624V36.2874C33.6246 36.2774 33.6207 36.2679 33.6136 36.2609C33.6066 36.2538 33.597 36.2499 33.5871 36.2499H25.098Z" fill="#597B00"/>
<path d="M35.5467 8.5221C35.7029 8.09475 36.2295 8.02913 36.5178 8.27678C36.6011 8.34814 36.6792 8.47392 36.7522 8.65413C37.1433 9.61871 37.8306 10.2872 38.8139 10.6596C39.4647 10.9065 39.3389 11.6408 38.7483 11.8682C37.7311 12.2596 37.1287 12.9533 36.7092 13.9455C36.4272 14.6127 35.7397 14.4557 35.5014 13.8588C35.1123 12.8864 34.4248 12.214 33.4389 11.8416C32.8506 11.619 32.8608 10.8776 33.4428 10.6573C34.4641 10.2718 35.1654 9.56012 35.5467 8.5221ZM36.0678 10.1908C35.9576 10.4783 35.2998 11.0213 35.0475 11.208C35.0409 11.213 35.0356 11.2193 35.032 11.2267C35.0283 11.234 35.0264 11.242 35.0264 11.2501C35.0264 11.2583 35.0283 11.2663 35.032 11.2735C35.0356 11.2807 35.0409 11.2869 35.0475 11.2916C35.4454 11.5843 35.791 11.9302 36.0842 12.3291C36.1128 12.3677 36.1415 12.3674 36.1701 12.3283C36.4597 11.9294 36.8037 11.5841 37.2022 11.2924C37.2088 11.2875 37.2142 11.2812 37.2179 11.2739C37.2216 11.2665 37.2235 11.2584 37.2235 11.2502C37.2235 11.242 37.2216 11.2339 37.2179 11.2266C37.2142 11.2193 37.2088 11.2129 37.2022 11.208C36.8032 10.9153 36.4571 10.5698 36.1639 10.1713C36.1451 10.1463 36.1217 10.1406 36.0936 10.1541C36.0842 10.1588 36.0756 10.1711 36.0678 10.1908Z" fill="#597B00"/>
<path d="M11.5946 18.3671C11.9275 18.76 11.6907 19.2006 11.254 19.3671C10.2353 19.7546 9.63371 20.4475 9.21184 21.4397C8.9634 22.0225 8.25871 22.0233 8.03137 21.428C7.64699 20.4217 6.95116 19.7264 5.94387 19.3421C5.36106 19.1194 5.35012 18.378 5.9384 18.16C6.98371 17.7717 7.61184 17.0725 8.03996 16.0546C8.32746 15.371 9.00715 15.5577 9.2509 16.1514C9.6358 17.09 10.2999 17.7533 11.2431 18.1413C11.4071 18.2085 11.5243 18.2837 11.5946 18.3671ZM9.71574 18.7186C9.30689 18.4186 8.9522 18.0647 8.65168 17.6569C8.64834 17.6524 8.64398 17.6487 8.63896 17.6462C8.63394 17.6436 8.6284 17.6423 8.62278 17.6423C8.61715 17.6423 8.61161 17.6436 8.60659 17.6462C8.60157 17.6487 8.59721 17.6524 8.59387 17.6569C8.2996 18.0616 7.95064 18.4116 7.54699 18.7069C7.54037 18.7118 7.53499 18.7181 7.53128 18.7254C7.52757 18.7328 7.52564 18.7409 7.52564 18.7491C7.52564 18.7573 7.52757 18.7654 7.53128 18.7727C7.53499 18.7801 7.54037 18.7864 7.54699 18.7913C7.94543 19.084 8.29127 19.4296 8.58449 19.828C8.61314 19.8671 8.64153 19.8671 8.66965 19.828C8.9634 19.4243 9.3121 19.0756 9.71574 18.7819C9.72075 18.7783 9.72482 18.7735 9.72763 18.768C9.73043 18.7625 9.7319 18.7564 9.7319 18.7503C9.7319 18.7441 9.73043 18.738 9.72763 18.7325C9.72482 18.727 9.72075 18.7222 9.71574 18.7186Z" fill="#597B00"/>
<path d="M1.89697 26.6286C1.59619 26.2723 1.77978 25.827 2.19072 25.6598C3.2665 25.2208 3.854 24.5958 4.2915 23.552C4.57275 22.8825 5.26025 23.0528 5.49853 23.6434C5.88968 24.6148 6.57822 25.2869 7.56415 25.6598C8.21572 25.9059 8.08916 26.6419 7.49853 26.8684C6.48212 27.2598 5.879 27.9536 5.45947 28.9458C5.17509 29.6184 4.49228 29.452 4.25087 28.8559C3.86962 27.9143 3.2079 27.2497 2.26572 26.8622C2.09072 26.7903 1.9678 26.7124 1.89697 26.6286ZM3.78603 26.2833C4.19228 26.5807 4.54436 26.9327 4.84228 27.3395C4.84627 27.345 4.85149 27.3495 4.85754 27.3525C4.86358 27.3556 4.87026 27.3572 4.87705 27.3572C4.88383 27.3572 4.89051 27.3556 4.89656 27.3525C4.9026 27.3495 4.90783 27.345 4.91181 27.3395C5.204 26.9364 5.55087 26.5872 5.95244 26.2919C5.95898 26.2871 5.9643 26.2809 5.96796 26.2737C5.97162 26.2665 5.97353 26.2585 5.97353 26.2504C5.97353 26.2422 5.97162 26.2342 5.96796 26.2269C5.9643 26.2196 5.95898 26.2132 5.95244 26.2083C5.55035 25.9129 5.20192 25.5643 4.90712 25.1622C4.90322 25.1569 4.89815 25.1527 4.89232 25.1497C4.88649 25.1468 4.88008 25.1452 4.8736 25.1452C4.86712 25.1452 4.86076 25.1468 4.85505 25.1497C4.84933 25.1527 4.84442 25.1569 4.84072 25.1622C4.54384 25.5689 4.19228 25.9202 3.78603 26.2161C3.78071 26.2199 3.77637 26.225 3.77338 26.2308C3.77039 26.2366 3.76883 26.2431 3.76883 26.2497C3.76883 26.2562 3.77039 26.2627 3.77338 26.2685C3.77637 26.2744 3.78071 26.2794 3.78603 26.2833Z" fill="#597B00"/>
<path d="M32.3334 28.1239L31.1646 28.1259C31.1422 28.1259 31.1241 28.1442 31.1241 28.1666L31.1261 29.3353C31.1262 29.3578 31.1444 29.3759 31.1668 29.3759L32.3356 29.3739C32.358 29.3738 32.3762 29.3556 32.3761 29.3332L32.3741 28.1644C32.3741 28.142 32.3558 28.1238 32.3334 28.1239Z" fill="#597B00"/>
<path d="M32.3344 30.625H31.1656C31.1432 30.625 31.125 30.6432 31.125 30.6656V33.7094C31.125 33.7318 31.1432 33.75 31.1656 33.75H32.3344C32.3568 33.75 32.375 33.7318 32.375 33.7094V30.6656C32.375 30.6432 32.3568 30.625 32.3344 30.625Z" fill="#597B00"/>
</svg>
