<svg width="64" height="64" viewBox="0 0 64 64" fill="none" xmlns="http://www.w3.org/2000/svg">
<g clip-path="url(#clip0_974_10540)">
<g clip-path="url(#clip1_974_10540)">
<path d="M8.09004 1H16.6586C17.2407 1.15823 17.5317 1.56228 17.5317 2.21215C17.5317 5.22738 17.5317 8.24423 17.5317 11.2627C17.5317 11.3071 17.5539 11.3293 17.5983 11.3293C18.2195 11.3317 18.8759 11.2094 19.3493 11.6817C20.7072 13.0387 22.061 14.3998 23.4108 15.765C23.6231 15.9797 23.7297 16.1843 23.7305 16.3789C23.7354 17.4486 23.7366 18.5186 23.7341 19.5891C23.7329 20.4234 23.0778 20.6341 22.3307 20.6341C15.5938 20.6349 8.85697 20.6349 2.12012 20.6341C1.51223 20.6341 1.13885 20.3334 1 19.732V16.3377C1.06297 16.098 1.19819 15.8735 1.40566 15.6645C2.78048 14.2856 4.15853 12.9092 5.5398 11.5352C5.83285 11.2433 6.72773 11.339 7.14066 11.3208C7.18103 11.3192 7.20121 11.2982 7.20121 11.2579C7.20363 8.21113 7.20484 5.16522 7.20484 2.12012C7.20484 1.51707 7.49991 1.1437 8.09004 1ZM15.4659 3.11793C15.4659 3.1038 15.4602 3.09025 15.4503 3.08025C15.4403 3.07026 15.4267 3.06465 15.4126 3.06465H9.31914C9.30501 3.06465 9.29146 3.07026 9.28146 3.08025C9.27147 3.09025 9.26586 3.1038 9.26586 3.11793V11.2772C9.26586 11.2914 9.27147 11.3049 9.28146 11.3149C9.29146 11.3249 9.30501 11.3305 9.31914 11.3305H15.4126C15.4267 11.3305 15.4403 11.3249 15.4503 11.3149C15.4602 11.3049 15.4659 11.2914 15.4659 11.2772V3.11793ZM18.1566 13.4157C18.1478 13.4072 18.1361 13.4025 18.1239 13.4024L6.6127 13.4012C6.60048 13.4013 6.58877 13.406 6.58 13.4145L3.07797 16.9178C3.06947 16.9265 3.06469 16.9383 3.06465 16.9505L3.06344 18.5174C3.06344 18.5299 3.06841 18.542 3.07727 18.5508C3.08613 18.5597 3.09814 18.5646 3.11066 18.5646H21.6223C21.6348 18.5646 21.6468 18.5597 21.6557 18.5508C21.6645 18.542 21.6695 18.5299 21.6695 18.5174L21.6683 16.948C21.6682 16.9358 21.6635 16.9241 21.655 16.9154L18.1566 13.4157Z" fill="#597B00"/>
<path d="M27.8684 1H29.9355L29.9367 20.7189C29.9367 20.7568 29.9549 20.7815 29.9912 20.7928C31.3491 21.2134 32.2694 22.0485 32.7521 23.2982C33.0513 24.0732 33.0597 24.8785 33.0282 25.7346C32.9992 26.5423 32.5354 26.8257 31.764 26.8269C28.7173 26.8333 26.7576 26.8345 25.8849 26.8305C24.9634 26.8269 24.7636 26.2238 24.7636 25.3955C24.7624 24.8882 24.7503 24.3517 24.8689 23.8746C25.2581 22.3198 26.2349 21.2921 27.7994 20.7916C27.8194 20.7852 27.8369 20.7726 27.8493 20.7556C27.8617 20.7386 27.8684 20.7181 27.8684 20.6971V1ZM26.8597 24.7683L30.9382 24.761C30.943 24.761 30.9476 24.7591 30.951 24.7557C30.9544 24.7523 30.9563 24.7477 30.9563 24.7429V24.7344C30.9554 24.195 30.739 23.6781 30.3548 23.2973C29.9706 22.9165 29.45 22.703 28.9074 22.7036H28.8856C28.6168 22.704 28.3506 22.7569 28.1024 22.8595C27.8541 22.9621 27.6287 23.1124 27.4388 23.3016C27.249 23.4909 27.0986 23.7155 26.9961 23.9626C26.8936 24.2097 26.8411 24.4744 26.8416 24.7416V24.7501C26.8416 24.7549 26.8435 24.7596 26.8469 24.763C26.8503 24.7664 26.8549 24.7683 26.8597 24.7683Z" fill="#597B00"/>
<path d="M35.1009 1H37.1691V12.4434C37.1691 12.4829 37.1881 12.5088 37.2261 12.5209C39.0824 13.1106 40.1432 14.5153 40.2631 16.4249C40.3333 17.5523 40.3999 18.5598 38.9734 18.5622C37.0222 18.5638 35.0714 18.5646 33.121 18.5646C32.4235 18.5646 32.0521 18.209 32.0069 17.4978C31.95 16.6066 31.9875 15.6826 32.3436 14.8737C32.857 13.7056 33.7567 12.9221 35.0427 12.5233C35.0596 12.5181 35.0744 12.5075 35.0849 12.4931C35.0953 12.4787 35.1009 12.4613 35.1009 12.4434V1ZM34.0922 16.5H38.1706C38.173 16.5 38.1753 16.4995 38.1775 16.4986C38.1797 16.4977 38.1818 16.4964 38.1834 16.4947C38.1851 16.493 38.1865 16.491 38.1874 16.4888C38.1883 16.4866 38.1888 16.4842 38.1888 16.4818V16.4697C38.1888 15.9305 37.9729 15.4134 37.5886 15.0321C37.2044 14.6508 36.6833 14.4366 36.1399 14.4366H36.1229C35.8538 14.4366 35.5874 14.4892 35.3388 14.5913C35.0902 14.6935 34.8644 14.8433 34.6741 15.0321C34.4838 15.2209 34.3329 15.445 34.23 15.6917C34.127 15.9383 34.074 16.2027 34.074 16.4697V16.4818C34.074 16.4867 34.0759 16.4913 34.0793 16.4947C34.0827 16.4981 34.0873 16.5 34.0922 16.5Z" fill="#597B00"/>
<path d="M63 14.2941V62.1225C62.8813 62.5988 62.5842 62.8914 62.1088 63.0004H1.8743C1.39799 62.8793 1.10656 62.5818 1 62.1079V39.0747C1.15984 38.4749 1.5534 38.1802 2.18066 38.1907C3.14134 38.2061 4.10363 38.2089 5.06754 38.1992C5.11113 38.1992 5.13293 38.1774 5.13293 38.1338C5.13697 37.3104 5.13697 36.491 5.13293 35.6756C5.13051 35.1622 5.16764 34.817 5.24434 34.6402C5.41225 34.2552 5.75333 34.0626 6.26758 34.0626C7.24763 34.0626 8.22809 34.0634 9.20895 34.065C9.24689 34.0659 9.26586 34.0848 9.26586 34.122V36.0801C9.26586 36.0948 9.26012 36.109 9.2499 36.1194C9.23968 36.1299 9.22582 36.1358 9.21137 36.1358L7.27145 36.1345C7.22543 36.1345 7.20242 36.1575 7.20242 36.2036V38.1423C7.20242 38.1826 7.2226 38.2028 7.26297 38.2028H11.2688C11.3107 38.2028 11.3317 38.1818 11.3317 38.1399L11.3305 34.1341C11.3305 34.0881 11.3535 34.065 11.3995 34.065L13.3189 34.0638C13.3746 34.0638 13.4024 34.0917 13.4024 34.1474L13.4012 38.1544C13.4012 38.1672 13.4063 38.1796 13.4154 38.1886C13.4245 38.1977 13.4368 38.2028 13.4496 38.2028H17.4712C17.5115 38.2028 17.5317 38.183 17.5317 38.1435V36.1806C17.5317 36.1684 17.527 36.1567 17.5186 36.148C17.5102 36.1394 17.4988 36.1345 17.4869 36.1345H15.5397C15.4921 36.1354 15.4683 36.1119 15.4683 36.0643V34.1244C15.4683 34.0873 15.4873 34.0687 15.5252 34.0687C17.055 34.0598 18.0456 34.0582 18.4968 34.0638C19.3215 34.0747 19.5952 34.6051 19.5952 35.3765C19.5952 36.2936 19.5968 37.2107 19.6 38.1277C19.6 38.1778 19.625 38.2028 19.6751 38.2028H42.2627C42.3063 38.2028 42.3281 38.181 42.3281 38.1374C42.3345 30.2671 42.3345 22.3989 42.3281 14.5326C42.3281 14.0458 42.5069 13.7136 42.8645 13.536C43.047 13.4448 43.3792 13.3996 43.8611 13.4004C49.8093 13.4069 55.7574 13.4073 61.7055 13.4016C62.4006 13.4016 62.8486 13.6038 63 14.2941ZM60.9354 15.5111C60.9354 15.4998 60.9309 15.489 60.9229 15.4811C60.915 15.4731 60.9042 15.4687 60.893 15.4687H44.4436C44.4324 15.4687 44.4216 15.4731 44.4136 15.4811C44.4057 15.489 44.4012 15.4998 44.4012 15.5111V27.8239C44.4012 27.8294 44.4023 27.835 44.4044 27.8401C44.4066 27.8452 44.4097 27.8499 44.4136 27.8538C44.4176 27.8578 44.4222 27.8609 44.4274 27.863C44.4325 27.8652 44.438 27.8663 44.4436 27.8663H60.893C60.8985 27.8663 60.904 27.8652 60.9092 27.863C60.9143 27.8609 60.919 27.8578 60.9229 27.8538C60.9269 27.8499 60.93 27.8452 60.9321 27.8401C60.9343 27.835 60.9354 27.8294 60.9354 27.8239V15.5111ZM60.9354 29.9781C60.9354 29.9672 60.931 29.9567 60.9233 29.949C60.9156 29.9413 60.9051 29.937 60.8942 29.937H44.4424C44.4315 29.937 44.421 29.9413 44.4133 29.949C44.4055 29.9567 44.4012 29.9672 44.4012 29.9781V60.8958C44.4012 60.9067 44.4055 60.9172 44.4133 60.9249C44.421 60.9326 44.4315 60.937 44.4424 60.937H60.8942C60.9051 60.937 60.9156 60.9326 60.9233 60.9249C60.931 60.9172 60.9354 60.9067 60.9354 60.8958V29.9781ZM21.6695 40.322C21.6695 40.3146 21.6681 40.3074 21.6653 40.3006C21.6625 40.2939 21.6583 40.2878 21.6532 40.2826C21.648 40.2774 21.6419 40.2733 21.6351 40.2705C21.6283 40.2677 21.6211 40.2663 21.6138 40.2663H3.12035C3.11304 40.2663 3.10579 40.2677 3.09903 40.2705C3.09228 40.2733 3.08614 40.2774 3.08096 40.2826C3.07579 40.2878 3.07169 40.2939 3.06889 40.3006C3.06609 40.3074 3.06465 40.3146 3.06465 40.322V44.3471C3.06465 44.3544 3.06609 44.3617 3.06889 44.3684C3.07169 44.3752 3.07579 44.3813 3.08096 44.3865C3.08614 44.3917 3.09228 44.3958 3.09903 44.3986C3.10579 44.4014 3.11304 44.4028 3.12035 44.4028H21.6138C21.6211 44.4028 21.6283 44.4014 21.6351 44.3986C21.6419 44.3958 21.648 44.3917 21.6532 44.3865C21.6583 44.3813 21.6625 44.3752 21.6653 44.3684C21.6681 44.3617 21.6695 44.3544 21.6695 44.3471V40.322ZM42.3293 40.2977C42.3293 40.2891 42.3259 40.2808 42.3197 40.2746C42.3136 40.2685 42.3053 40.2651 42.2966 40.2651H23.7668C23.7582 40.2651 23.7498 40.2685 23.7437 40.2746C23.7376 40.2808 23.7341 40.2891 23.7341 40.2977V44.3689C23.7341 44.3776 23.7376 44.3859 23.7437 44.392C23.7498 44.3982 23.7582 44.4016 23.7668 44.4016H42.2966C42.3053 44.4016 42.3136 44.3982 42.3197 44.392C42.3259 44.3859 42.3293 44.3776 42.3293 44.3689V40.2977ZM21.6695 46.5195C21.6695 46.5061 21.6641 46.4931 21.6546 46.4836C21.6451 46.474 21.6321 46.4687 21.6186 46.4687H3.11551C3.10202 46.4687 3.08908 46.474 3.07954 46.4836C3.07001 46.4931 3.06465 46.5061 3.06465 46.5195V60.8861C3.06465 60.8996 3.07001 60.9125 3.07954 60.9221C3.08908 60.9316 3.10202 60.937 3.11551 60.937H21.6186C21.6321 60.937 21.6451 60.9316 21.6546 60.9221C21.6641 60.9125 21.6695 60.8996 21.6695 60.8861V46.5195ZM32 46.5002C32 46.4918 31.9967 46.4838 31.9908 46.4779C31.9849 46.472 31.9769 46.4687 31.9685 46.4687H23.7656C23.7573 46.4687 23.7493 46.472 23.7434 46.4779C23.7375 46.4838 23.7341 46.4918 23.7341 46.5002V60.9055C23.7341 60.9138 23.7375 60.9218 23.7434 60.9277C23.7493 60.9337 23.7573 60.937 23.7656 60.937H31.9685C31.9769 60.937 31.9849 60.9337 31.9908 60.9277C31.9967 60.9218 32 60.9138 32 60.9055V46.5002ZM42.3305 46.5256C42.3305 46.5105 42.3245 46.496 42.3138 46.4854C42.3032 46.4747 42.2887 46.4687 42.2736 46.4687H34.1216C34.1065 46.4687 34.092 46.4747 34.0813 46.4854C34.0706 46.496 34.0646 46.5105 34.0646 46.5256V60.8801C34.0646 60.8951 34.0706 60.9096 34.0813 60.9203C34.092 60.931 34.1065 60.937 34.1216 60.937H42.2736C42.2887 60.937 42.3032 60.931 42.3138 60.9203C42.3245 60.9096 42.3305 60.8951 42.3305 60.8801V46.5256Z" fill="#597B00"/>
<path d="M48.4782 19.6016H46.5213C46.4912 19.6016 46.4668 19.626 46.4668 19.6561V23.6788C46.4668 23.7089 46.4912 23.7333 46.5213 23.7333H48.4782C48.5083 23.7333 48.5327 23.7089 48.5327 23.6788V19.6561C48.5327 19.626 48.5083 19.6016 48.4782 19.6016Z" fill="#597B00"/>
<path d="M48.485 34.0625H46.516C46.4899 34.0625 46.4688 34.0836 46.4688 34.1097V38.1543C46.4688 38.1803 46.4899 38.2015 46.516 38.2015H48.485C48.511 38.2015 48.5322 38.1803 48.5322 38.1543V34.1097C48.5322 34.0836 48.511 34.0625 48.485 34.0625Z" fill="#597B00"/>
<path d="M6.16602 43.3613C6.73448 43.3613 7.19531 42.9005 7.19531 42.332C7.19531 41.7636 6.73448 41.3027 6.16602 41.3027C5.59755 41.3027 5.13672 41.7636 5.13672 42.332C5.13672 42.9005 5.59755 43.3613 6.16602 43.3613Z" fill="#597B00"/>
<path d="M10.2988 43.3613C10.8673 43.3613 11.3281 42.9005 11.3281 42.332C11.3281 41.7636 10.8673 41.3027 10.2988 41.3027C9.73036 41.3027 9.26953 41.7636 9.26953 42.332C9.26953 42.9005 9.73036 43.3613 10.2988 43.3613Z" fill="#597B00"/>
<path d="M14.4326 43.3613C15.0011 43.3613 15.4619 42.9005 15.4619 42.332C15.4619 41.7636 15.0011 41.3027 14.4326 41.3027C13.8642 41.3027 13.4033 41.7636 13.4033 42.332C13.4033 42.9005 13.8642 43.3613 14.4326 43.3613Z" fill="#597B00"/>
<path d="M18.5654 43.3613C19.1339 43.3613 19.5947 42.9005 19.5947 42.332C19.5947 41.7636 19.1339 41.3027 18.5654 41.3027C17.997 41.3027 17.5361 41.7636 17.5361 42.332C17.5361 42.9005 17.997 43.3613 18.5654 43.3613Z" fill="#597B00"/>
<path d="M35.0545 41.2969H31.0148C30.9894 41.2969 30.9688 41.3175 30.9688 41.3429V43.3191C30.9688 43.3446 30.9894 43.3652 31.0148 43.3652H35.0545C35.0799 43.3652 35.1005 43.3446 35.1005 43.3191V41.3429C35.1005 41.3175 35.0799 41.2969 35.0545 41.2969Z" fill="#597B00"/>
<path d="M19.5992 57.824C19.5992 58.1002 19.4895 58.3651 19.2942 58.5604C19.0989 58.7557 18.834 58.8654 18.5578 58.8654H6.17715C5.90095 58.8654 5.63606 58.7557 5.44076 58.5604C5.24546 58.3651 5.13574 58.1002 5.13574 57.824V49.5727C5.13574 49.2965 5.24546 49.0316 5.44076 48.8363C5.63606 48.641 5.90095 48.5313 6.17715 48.5312H18.5578C18.834 48.5313 19.0989 48.641 19.2942 48.8363C19.4895 49.0316 19.5992 49.2965 19.5992 49.5727V57.824ZM17.5321 50.6504C17.5321 50.6369 17.5268 50.624 17.5172 50.6144C17.5077 50.6049 17.4947 50.5995 17.4813 50.5995H7.25367C7.24018 50.5995 7.22725 50.6049 7.21771 50.6144C7.20817 50.624 7.20281 50.6369 7.20281 50.6504V56.7487C7.20281 56.7622 7.20817 56.7751 7.21771 56.7846C7.22725 56.7942 7.24018 56.7995 7.25367 56.7995H17.4813C17.4947 56.7995 17.5077 56.7942 17.5172 56.7846C17.5268 56.7751 17.5321 56.7622 17.5321 56.7487V50.6504Z" fill="#597B00"/>
<path d="M29.8921 51.6309H27.911C27.8863 51.6309 27.8662 51.6509 27.8662 51.6757V55.7202C27.8662 55.7449 27.8863 55.765 27.911 55.765H29.8921C29.9169 55.765 29.9369 55.7449 29.9369 55.7202V51.6757C29.9369 51.6509 29.9169 51.6309 29.8921 51.6309Z" fill="#597B00"/>
<path d="M38.1633 51.6348H36.1725C36.1511 51.6348 36.1338 51.6521 36.1338 51.6735V55.7277C36.1338 55.7491 36.1511 55.7665 36.1725 55.7665H38.1633C38.1847 55.7665 38.2021 55.7491 38.2021 55.7277V51.6735C38.2021 51.6521 38.1847 51.6348 38.1633 51.6348Z" fill="#597B00"/>
</g>
</g>
<defs>
<clipPath id="clip0_974_10540">
<rect width="64" height="64" fill="white"/>
</clipPath>
<clipPath id="clip1_974_10540">
<rect width="62" height="62" fill="white" transform="translate(1 1)"/>
</clipPath>
</defs>
</svg>
