<svg width="62" height="62" viewBox="0 0 62 62" fill="none" xmlns="http://www.w3.org/2000/svg">
<path d="M4.72992 0H57.2846C58.0233 0.179219 58.1238 0.681758 58.1238 1.40469C58.1254 8.31268 58.1258 15.2211 58.125 22.1299C58.125 23.1107 57.4759 23.2488 56.6174 23.2488C51.0148 23.2504 45.4122 23.2504 39.8096 23.2488C38.9692 23.2488 38.7488 22.6809 38.7488 21.9131C38.7504 19.7948 38.7508 17.6777 38.75 15.5618C38.75 15.5454 38.7435 15.5297 38.7319 15.5181C38.7203 15.5065 38.7046 15.5 38.6882 15.5H23.3118C23.3035 15.5 23.2954 15.5016 23.2878 15.5047C23.2803 15.5078 23.2734 15.5124 23.2677 15.5182C23.2619 15.5239 23.2574 15.5307 23.2543 15.5382C23.2513 15.5457 23.2498 15.5537 23.25 15.5618C23.2516 17.6728 23.2508 19.7916 23.2476 21.918C23.2476 22.6288 23.0284 23.2476 22.2437 23.2476C16.474 23.2508 10.7043 23.2512 4.93457 23.2488C4.09418 23.2488 3.875 22.67 3.875 21.9046C3.875 14.9563 3.875 8.00793 3.875 1.05957C3.875 0.487201 4.15997 0.13401 4.72992 0ZM21.3125 2.00652C21.3125 1.98822 21.3052 1.97066 21.2923 1.95772C21.2793 1.94477 21.2618 1.9375 21.2435 1.9375H5.88152C5.86322 1.9375 5.84566 1.94477 5.83272 1.95772C5.81977 1.97066 5.8125 1.98822 5.8125 2.00652V21.2435C5.8125 21.2618 5.81977 21.2793 5.83272 21.2923C5.84566 21.3052 5.86322 21.3125 5.88152 21.3125H21.2435C21.2618 21.3125 21.2793 21.3052 21.2923 21.2923C21.3052 21.2793 21.3125 21.2618 21.3125 21.2435V2.00652ZM38.75 2.01016C38.75 1.99089 38.7423 1.97241 38.7287 1.95878C38.7151 1.94515 38.6966 1.9375 38.6773 1.9375H23.3227C23.3034 1.9375 23.2849 1.94515 23.2713 1.95878C23.2577 1.97241 23.25 1.99089 23.25 2.01016V13.4898C23.25 13.5091 23.2577 13.5276 23.2713 13.5412C23.2849 13.5548 23.3034 13.5625 23.3227 13.5625H38.6773C38.6966 13.5625 38.7151 13.5548 38.7287 13.5412C38.7423 13.5276 38.75 13.5091 38.75 13.4898V2.01016ZM56.1875 2.00652C56.1875 1.98822 56.1802 1.97066 56.1673 1.95772C56.1543 1.94477 56.1368 1.9375 56.1185 1.9375H40.7565C40.7382 1.9375 40.7207 1.94477 40.7077 1.95772C40.6948 1.97066 40.6875 1.98822 40.6875 2.00652V21.2435C40.6875 21.2618 40.6948 21.2793 40.7077 21.2923C40.7207 21.3052 40.7382 21.3125 40.7565 21.3125H56.1185C56.1368 21.3125 56.1543 21.3052 56.1673 21.2923C56.1802 21.2793 56.1875 21.2618 56.1875 21.2435V2.00652Z" fill="#597B00"/>
<path d="M7.79391 9.70117H7.70187C7.19828 9.70117 6.79004 10.1094 6.79004 10.613V12.6353C6.79004 13.1389 7.19828 13.5471 7.70187 13.5471H7.79391C8.2975 13.5471 8.70574 13.1389 8.70574 12.6353V10.613C8.70574 10.1094 8.2975 9.70117 7.79391 9.70117Z" fill="#597B00"/>
<path d="M42.6684 9.70117H42.5739C42.0704 9.70117 41.6621 10.1094 41.6621 10.613V12.6353C41.6621 13.1389 42.0704 13.5471 42.5739 13.5471H42.6684C43.172 13.5471 43.5802 13.1389 43.5802 12.6353V10.613C43.5802 10.1094 43.172 9.70117 42.6684 9.70117Z" fill="#597B00"/>
<path d="M31.9877 10.6602H29.9873C29.483 10.6602 29.0742 11.0689 29.0742 11.5732V11.6701C29.0742 12.1743 29.483 12.5831 29.9873 12.5831H31.9877C32.492 12.5831 32.9008 12.1743 32.9008 11.6701V11.5732C32.9008 11.0689 32.492 10.6602 31.9877 10.6602Z" fill="#597B00"/>
<path d="M57.2701 61.9992H4.71539C4.05059 61.8442 3.875 61.4155 3.875 60.7459C3.875 53.8572 3.875 46.9686 3.875 40.08C3.875 39.1827 4.14625 38.7492 5.06293 38.7492C16.918 38.7492 28.7715 38.7492 40.6233 38.7492C40.6319 38.7492 40.6403 38.7475 40.6482 38.7443C40.656 38.741 40.6632 38.7363 40.6691 38.7303C40.6751 38.7243 40.6798 38.7172 40.683 38.7095C40.6861 38.7017 40.6877 38.6934 40.6875 38.685C40.6867 38.0892 40.6871 37.4878 40.6887 36.8807C40.6911 36.2086 41.0677 35.8344 41.7253 35.8417C42.3243 35.8482 42.9225 35.8474 43.5199 35.8393C43.5643 35.8385 43.5893 35.8159 43.595 35.7715C43.7548 34.5848 45.3048 34.5763 45.5216 35.7836C45.5288 35.8231 45.5522 35.8429 45.5918 35.8429H47.4058C47.4216 35.8429 47.4369 35.8367 47.4482 35.8256C47.4595 35.8145 47.466 35.7994 47.4663 35.7836C47.472 34.2683 47.4724 32.7566 47.4675 31.2486C47.4627 29.5969 49.399 29.7664 49.4026 31.0064C49.4075 32.5589 49.4075 34.1492 49.4026 35.7775C49.4026 35.7949 49.4095 35.8115 49.4218 35.8238C49.434 35.836 49.4507 35.8429 49.468 35.8429H51.2796C51.3175 35.8429 51.3385 35.824 51.3425 35.786C51.4915 34.5884 53.0536 34.5678 53.2716 35.7824C53.2788 35.8227 53.303 35.8429 53.3442 35.8429C53.9198 35.8421 54.4934 35.8429 55.065 35.8453C55.76 35.8478 56.1802 36.1517 56.1851 36.8589C56.1883 37.4377 56.1867 38.0497 56.1802 38.6947C56.1802 38.7073 56.1852 38.7195 56.194 38.7285C56.2028 38.7376 56.2148 38.7428 56.2275 38.7431C57.4989 38.7758 58.1238 38.6644 58.1238 40.2023C58.1254 47.0845 58.1258 53.9666 58.125 60.8488C58.1242 61.4752 57.8392 61.8587 57.2701 61.9992ZM54.25 37.8507C54.25 37.832 54.2426 37.8142 54.2294 37.801C54.2163 37.7878 54.1984 37.7804 54.1798 37.7804H42.6952C42.6766 37.7804 42.6587 37.7878 42.6456 37.801C42.6324 37.8142 42.625 37.832 42.625 37.8507V38.6789C42.625 38.6976 42.6324 38.7154 42.6456 38.7286C42.6587 38.7418 42.6766 38.7492 42.6952 38.7492H54.1798C54.1984 38.7492 54.2163 38.7418 54.2294 38.7286C54.2426 38.7154 54.25 38.6976 54.25 38.6789V37.8507ZM21.3125 40.7545C21.3125 40.7365 21.3054 40.7193 21.2926 40.7065C21.2799 40.6938 21.2627 40.6867 21.2447 40.6867H5.88031C5.86233 40.6867 5.84508 40.6938 5.83236 40.7065C5.81964 40.7193 5.8125 40.7365 5.8125 40.7545V49.3376C5.8125 49.3556 5.81964 49.3728 5.83236 49.3856C5.84508 49.3983 5.86233 49.4054 5.88031 49.4054H21.2447C21.2627 49.4054 21.2799 49.3983 21.2926 49.3856C21.3054 49.3728 21.3125 49.3556 21.3125 49.3376V40.7545ZM30.0312 40.7605C30.0312 40.741 30.0235 40.7222 30.0096 40.7083C29.9958 40.6945 29.977 40.6867 29.9574 40.6867H23.3239C23.3043 40.6867 23.2855 40.6945 23.2716 40.7083C23.2578 40.7222 23.25 40.741 23.25 40.7605V59.9878C23.25 60.0074 23.2578 60.0262 23.2716 60.04C23.2855 60.0539 23.3043 60.0617 23.3239 60.0617H29.9574C29.977 60.0617 29.9958 60.0539 30.0096 60.04C30.0235 60.0262 30.0312 60.0074 30.0312 59.9878V40.7605ZM38.75 40.7545C38.75 40.7365 38.7429 40.7193 38.7301 40.7065C38.7174 40.6938 38.7002 40.6867 38.6822 40.6867H32.0366C32.0186 40.6867 32.0013 40.6938 31.9886 40.7065C31.9759 40.7193 31.9688 40.7365 31.9688 40.7545V59.9939C31.9688 60.0119 31.9759 60.0291 31.9886 60.0418C32.0013 60.0545 32.0186 60.0617 32.0366 60.0617H38.6822C38.7002 60.0617 38.7174 60.0545 38.7301 60.0418C38.7429 60.0291 38.75 60.0119 38.75 59.9939V40.7545ZM56.1875 40.7593C56.1875 40.7498 56.1856 40.7403 56.182 40.7315C56.1783 40.7227 56.173 40.7147 56.1662 40.708C56.1595 40.7012 56.1515 40.6959 56.1426 40.6922C56.1338 40.6886 56.1244 40.6867 56.1148 40.6867H40.7602C40.7506 40.6867 40.7412 40.6886 40.7324 40.6922C40.7235 40.6959 40.7155 40.7012 40.7088 40.708C40.702 40.7147 40.6967 40.7227 40.693 40.7315C40.6894 40.7403 40.6875 40.7498 40.6875 40.7593V59.989C40.6875 59.9986 40.6894 60.008 40.693 60.0168C40.6967 60.0256 40.702 60.0336 40.7088 60.0404C40.7155 60.0471 40.7235 60.0525 40.7324 60.0561C40.7412 60.0598 40.7506 60.0617 40.7602 60.0617H56.1148C56.1244 60.0617 56.1338 60.0598 56.1426 60.0561C56.1515 60.0525 56.1595 60.0471 56.1662 60.0404C56.173 60.0336 56.1783 60.0256 56.182 60.0168C56.1856 60.008 56.1875 59.9986 56.1875 59.989V40.7593ZM21.3125 51.4132C21.3125 51.3945 21.3051 51.3767 21.2919 51.3635C21.2788 51.3503 21.2609 51.3429 21.2423 51.3429H5.88273C5.86411 51.3429 5.84624 51.3503 5.83307 51.3635C5.8199 51.3767 5.8125 51.3945 5.8125 51.4132V59.9914C5.8125 60.0101 5.8199 60.0279 5.83307 60.0411C5.84624 60.0543 5.86411 60.0617 5.88273 60.0617H21.2423C21.2609 60.0617 21.2788 60.0543 21.2919 60.0411C21.3051 60.0279 21.3125 60.0101 21.3125 59.9914V51.4132Z" fill="#597B00"/>
<path d="M14.5502 41.6602H12.5498C12.0455 41.6602 11.6367 42.0689 11.6367 42.5732V42.6701C11.6367 43.1743 12.0455 43.5831 12.5498 43.5831H14.5502C15.0545 43.5831 15.4633 43.1743 15.4633 42.6701V42.5732C15.4633 42.0689 15.0545 41.6602 14.5502 41.6602Z" fill="#597B00"/>
<path d="M28.1364 48.4553L28.0395 48.4554C27.5366 48.4563 27.1296 48.8647 27.1305 49.3677L27.134 51.3899C27.1349 51.8928 27.5433 52.2998 28.0462 52.299L28.1431 52.2988C28.646 52.2979 29.053 51.8895 29.0521 51.3866L29.0486 49.3643C29.0477 48.8614 28.6393 48.4544 28.1364 48.4553Z" fill="#597B00"/>
<path d="M33.9479 48.4553L33.8511 48.4554C33.3481 48.4563 32.9411 48.8647 32.942 49.3677L32.9455 51.3899C32.9464 51.8928 33.3548 52.2998 33.8578 52.299L33.9546 52.2988C34.4576 52.2979 34.8645 51.8895 34.8637 51.3866L34.8601 49.3643C34.8593 48.8614 34.4509 48.4544 33.9479 48.4553Z" fill="#597B00"/>
<path d="M42.6655 48.4553L42.571 48.4554C42.0674 48.4563 41.6599 48.8653 41.6608 49.3689L41.6643 51.3911C41.6652 51.8947 42.0741 52.3023 42.5777 52.3014L42.6722 52.3012C43.1758 52.3003 43.5833 51.8914 43.5824 51.3878L43.5789 49.3655C43.578 48.8619 43.1691 48.4544 42.6655 48.4553Z" fill="#597B00"/>
<path d="M14.5502 52.3184H12.5498C12.0455 52.3184 11.6367 52.7271 11.6367 53.2314V53.3283C11.6367 53.8325 12.0455 54.2413 12.5498 54.2413H14.5502C15.0545 54.2413 15.4633 53.8325 15.4633 53.3283V53.2314C15.4633 52.7271 15.0545 52.3184 14.5502 52.3184Z" fill="#597B00"/>
</svg>
