<svg width="64" height="64" viewBox="0 0 64 64" fill="none" xmlns="http://www.w3.org/2000/svg">
<g clip-path="url(#clip0_974_10381)">
<path d="M30.9937 17.0753C31.1762 20.6866 30.3637 24.6366 27.8512 27.3366C27.8212 27.3683 27.8216 27.3995 27.8525 27.4303L30.4625 30.0491C30.4966 30.0833 30.5371 30.1058 30.5837 30.1166L32.935 30.7041C32.9758 30.7141 32.9962 30.6983 32.9962 30.6566C33.0046 28.6091 33.005 26.5658 32.9975 24.5266C32.995 23.7041 33.105 22.9978 34.0625 22.9991C43.2533 22.9991 52.4441 22.9991 61.635 22.9991C62.3812 22.9991 63 23.1991 63 24.0303C63 32.9245 62.9996 41.8187 62.9987 50.7128C62.9987 51.5616 62.6925 51.9966 61.8325 51.9978C59.5717 51.9987 57.3117 51.9991 55.0525 51.9991C55.0075 51.9991 54.9846 52.0216 54.9837 52.0666C54.9275 54.8666 52.4937 55.9916 50.0312 55.9978C47.4479 56.0045 44.8646 56.002 42.2812 55.9903C40.8554 55.9845 39.45 56.1499 38.065 56.4866C38.0233 56.4966 38.0025 56.5233 38.0025 56.5666C37.9975 57.9333 37.9975 59.2978 38.0025 60.6603C38.0033 61.0245 37.97 61.2862 37.9025 61.4453C37.565 62.2478 36.3975 62.2203 36.0762 61.4091C36.0262 61.2816 36.0012 61.0883 36.0012 60.8291C35.9996 59.5833 35.9992 58.3416 36 57.1041C35.9999 57.0915 35.9969 57.0792 35.9911 57.0681C35.9853 57.057 35.9769 57.0474 35.9667 57.0403C35.9565 57.0332 35.9448 57.0286 35.9325 57.0271C35.9202 57.0256 35.9078 57.0271 35.8962 57.0316C33.0612 58.0783 30.2012 59.1016 27.3162 60.1016C25.4446 60.7499 23.5412 61.2737 21.6062 61.6728C20.5504 61.8912 19.7258 62.0024 19.1325 62.0066C16.3112 62.0291 13.8062 60.3941 12.0725 58.2978C12.0672 58.2913 12.0601 58.2865 12.052 58.2843C12.0439 58.282 12.0353 58.2823 12.0274 58.2853C12.0195 58.2882 12.0127 58.2935 12.008 58.3004C12.0033 58.3074 12.001 58.3157 12.0012 58.3241C12.0004 59.1233 11.9996 59.9249 11.9987 60.7291C11.9979 61.0708 11.9512 61.3258 11.8587 61.4941C11.36 62.4041 9.99998 61.9953 9.99998 60.9678C9.99915 59.317 9.99957 57.6666 10.0012 56.0166C10.0025 55.8041 10.1212 55.5753 10.0925 55.3266C10.0901 55.3074 10.0809 55.2897 10.0664 55.2767C10.052 55.2636 10.0333 55.2561 10.0137 55.2553C9.1504 55.2353 8.3829 55.1349 7.71123 54.9541C7.42873 54.8778 7.21248 54.6503 7.07248 54.3703C5.41415 51.0578 3.75748 47.7449 2.10248 44.4316C1.76873 43.7616 2.31748 42.0566 2.59373 41.4628C3.36123 39.8212 4.42082 38.2783 5.77248 36.8341C6.46165 36.0974 8.05748 34.5008 10.56 32.0441C10.5741 32.0298 10.582 32.0106 10.5823 31.9906C10.5825 31.9706 10.575 31.9512 10.5612 31.9366C10.48 31.8503 10.3575 31.7791 10.2937 31.7066C9.72498 31.0741 10.025 30.5491 10.5637 30.0128C11.7412 28.8428 12.9146 27.6687 14.0837 26.4903C14.1204 26.4537 14.1229 26.4149 14.0912 26.3741C13.2862 25.3524 12.6767 24.2245 12.2625 22.9903C12.2571 22.9739 12.2476 22.9591 12.2349 22.9475C12.2222 22.9359 12.2067 22.9278 12.19 22.9241C10.2641 22.4858 9.19998 21.3028 8.99748 19.3753C8.87832 18.242 9.14873 17.1778 9.80873 16.1828C9.83373 16.1462 9.83165 16.1112 9.80248 16.0778C9.14623 15.3091 9.00748 14.6216 9.00248 13.5428C8.99415 12.0287 8.98832 10.5145 8.98498 9.00035C8.96998 2.3491 16.2162 0.785347 21.345 1.03285C21.6316 1.04618 21.9437 1.03951 22.2812 1.01285C22.7625 0.975347 23.2337 0.947847 23.5875 1.19035C23.705 1.27118 23.8242 1.3266 23.945 1.3566C27.1425 2.13535 29.3587 4.70035 29.8787 7.9241C29.8862 7.9666 29.9112 7.98785 29.9537 7.98785C31.1354 8.00368 32.3175 8.0166 33.5 8.0266C35.0083 8.0391 36.2642 8.59618 37.2675 9.69785C37.9775 10.4766 38.5525 11.4116 38.6112 12.4691C38.82 16.2591 33.8037 16.9953 31.0637 17.0016C31.0146 17.0016 30.9912 17.0262 30.9937 17.0753ZM19.9225 3.6641C18.0362 4.6866 17.0887 6.76535 17.0025 8.84035C16.9917 9.11118 16.9562 9.30785 16.8962 9.43035C16.515 10.2141 15.3575 10.1716 15.0712 9.34535C15.0121 9.17368 14.9933 8.9191 15.015 8.5816C15.1417 6.61993 15.8404 4.88576 17.1112 3.3791C17.1337 3.35243 17.1275 3.34118 17.0925 3.34535C15.5508 3.54451 14.215 4.03868 13.085 4.82785C11.6933 5.80035 10.9971 7.19076 10.9962 8.9991C10.9962 10.6499 10.9979 12.3003 11.0012 13.9503C11.0025 14.7553 11.4075 14.9991 12.19 14.9991C12.68 14.9991 13.1712 14.9991 13.6637 14.9991C15.3462 14.9991 16.5387 13.3391 17.4462 12.0391C18.6575 10.3041 20.6512 8.69285 22.7662 8.1516C23.1654 8.04993 23.6808 7.99868 24.3125 7.99785C25.47 7.99701 26.6337 7.99493 27.8037 7.9916C27.8521 7.9916 27.8708 7.96826 27.86 7.9216C27.4258 5.97493 26.3846 4.59576 24.7362 3.7841C23.9112 3.37743 23.13 3.1491 22.3925 3.0991C21.5458 3.04243 20.7225 3.23076 19.9225 3.6641ZM23.275 10.0878C22.0087 10.3666 20.765 11.3078 19.8875 12.2341C19.2337 12.9266 18.4962 14.0653 17.75 14.9491C17.7225 14.9816 17.7296 14.9978 17.7712 14.9978C19.3821 15.0003 20.9937 15.0008 22.6062 14.9991C22.9537 14.9991 23.2508 14.9508 23.4975 14.8541C24.445 14.4816 25.4362 13.5653 25.9412 12.7853C26.6154 11.742 27.4371 10.8312 28.4062 10.0528C28.4107 10.0489 28.414 10.0437 28.4155 10.0378C28.417 10.032 28.4167 10.0259 28.4147 10.0202C28.4126 10.0146 28.409 10.0097 28.4041 10.0061C28.3993 10.0026 28.3935 10.0006 28.3875 10.0003C27.0475 9.99785 25.7037 9.99785 24.3562 10.0003C23.8946 10.0012 23.5341 10.0303 23.275 10.0878ZM30.9662 14.9728C32.3375 15.0491 37.9912 14.6091 36.3087 11.7578C34.8525 9.29035 32.1762 9.77285 30.2175 11.1828C30.2022 11.1942 30.1908 11.2101 30.185 11.2282C30.1791 11.2464 30.1791 11.2659 30.185 11.2841C30.5625 12.4633 30.8 13.6703 30.8975 14.9053C30.8989 14.923 30.9067 14.9395 30.9193 14.9519C30.9319 14.9643 30.9486 14.9717 30.9662 14.9728ZM12.1487 20.8528C12.9662 21.2228 13.67 20.6641 14.0337 21.8666C14.795 24.3753 16.225 26.3691 18.6337 27.4178C19.9525 27.9916 21.3937 28.1666 22.7812 27.8691C26.8362 27.0028 28.54 23.5278 28.9112 19.7166C29.1404 17.3624 29.015 15.0491 28.535 12.7766C28.52 12.7074 28.4904 12.7008 28.4462 12.7566C27.8262 13.5378 27.1775 14.5028 26.5937 15.1041C25.6862 16.0391 24.23 17.0028 22.9687 17.0016C20.3554 16.9991 17.7416 16.9983 15.1275 16.9991C15.0508 16.9991 14.9254 16.9862 14.7512 16.9603C14.4475 16.9166 14.0112 17.0016 13.8125 17.0003C13.285 16.9987 12.755 16.9983 12.2225 16.9991C11.6025 17.0003 11.2675 17.3678 11.13 17.9391C10.85 19.1016 10.9212 20.2978 12.1487 20.8528ZM51.0375 32.6416C50.0483 32.1441 49.0558 31.6466 48.06 31.1491C48.0421 31.1402 48.0224 31.1355 48.0025 31.1355C47.9825 31.1355 47.9628 31.1402 47.945 31.1491C46.8825 31.6766 45.8196 32.2066 44.7562 32.7391C44.1775 33.0291 43.545 33.1541 43.1775 32.5453C43.0575 32.347 42.9979 32.0133 42.9987 31.5441C43.0012 29.3874 43.0012 27.2362 42.9987 25.0903C42.9987 25.0784 42.9964 25.0665 42.9918 25.0554C42.9872 25.0444 42.9805 25.0343 42.972 25.0258C42.9635 25.0174 42.9535 25.0106 42.9424 25.006C42.9313 25.0015 42.9195 24.9991 42.9075 24.9991H35.0625C35.0208 24.9991 35 25.0199 35 25.0616V47.9341C35 47.9783 35.0208 47.9937 35.0625 47.9803C36.175 47.6112 37.3079 47.3337 38.4612 47.1478C39.0662 47.0503 39.7829 47.0012 40.6112 47.0003C42.4612 46.9995 44.3116 46.9983 46.1625 46.9966C46.7325 46.9966 47.1808 47.0503 47.5075 47.1578C48.7558 47.5687 49.455 48.4937 49.605 49.9328C49.61 49.9812 49.6367 50.0053 49.685 50.0053L60.9062 49.9978C60.9311 49.9978 60.9549 49.9881 60.9725 49.9708C60.9901 49.9534 61 49.9299 61 49.9053V25.1241C61 25.0909 60.9868 25.0592 60.9634 25.0357C60.9399 25.0123 60.9081 24.9991 60.875 24.9991H53.0637C53.0246 24.9991 53.005 25.0191 53.005 25.0591C52.995 27.2566 52.9946 29.4458 53.0037 31.6266C53.0062 32.2891 52.8362 32.9628 52.0912 32.9841C51.8571 32.9908 51.5058 32.8766 51.0375 32.6416ZM50.9412 30.3491C50.9474 30.3524 50.9543 30.354 50.9613 30.3538C50.9683 30.3535 50.9751 30.3515 50.981 30.3478C50.9869 30.3441 50.9918 30.339 50.9951 30.3329C50.9985 30.3267 51.0001 30.3198 51 30.3128V25.1241C51 25.0909 50.9868 25.0592 50.9634 25.0357C50.9399 25.0123 50.9081 24.9991 50.875 24.9991H45.0625C45.0459 24.9991 45.03 25.0057 45.0183 25.0174C45.0066 25.0291 45 25.045 45 25.0616V30.3091C45 30.3533 45.0196 30.3658 45.0587 30.3466C45.8454 29.9591 46.6308 29.5687 47.415 29.1753C47.71 29.0278 48.0775 28.9153 48.3487 29.0503C49.1546 29.4528 50.0187 29.8858 50.9412 30.3491ZM19.5087 31.2678C19.5128 31.263 19.5157 31.2573 19.5174 31.2512C19.5191 31.2451 19.5195 31.2387 19.5185 31.2325C19.5176 31.2262 19.5153 31.2203 19.5119 31.2149C19.5085 31.2096 19.504 31.2051 19.4987 31.2016L15.1637 28.3091C15.1549 28.3032 15.1444 28.3006 15.1338 28.3018C15.1233 28.3029 15.1136 28.3077 15.1062 28.3153L12.5162 30.8953C12.5118 30.8997 12.5083 30.905 12.506 30.9108C12.5038 30.9166 12.5027 30.9228 12.5029 30.929C12.5032 30.9353 12.5047 30.9414 12.5074 30.947C12.5101 30.9526 12.514 30.9576 12.5187 30.9616L16.8262 34.5491C16.8309 34.5528 16.8362 34.5556 16.842 34.5573C16.8477 34.5589 16.8537 34.5594 16.8597 34.5587C16.8656 34.558 16.8714 34.5561 16.8766 34.5532C16.8818 34.5503 16.8863 34.5463 16.89 34.5416L19.5087 31.2678ZM26.735 29.1466C26.7301 29.1415 26.724 29.1377 26.7172 29.1357C26.7105 29.1336 26.7033 29.1333 26.6964 29.1348C26.6895 29.1363 26.6831 29.1396 26.6778 29.1443C26.6725 29.149 26.6686 29.1549 26.6662 29.1616L26.0775 30.7978C26.0752 30.8043 26.0746 30.8112 26.0757 30.818C26.0768 30.8248 26.0796 30.8312 26.0837 30.8366L27.7512 33.0553C27.7554 33.0608 27.7608 33.0651 27.7671 33.0679C27.7733 33.0707 27.7801 33.0719 27.787 33.0714C27.7938 33.0709 27.8004 33.0687 27.8061 33.065C27.8119 33.0614 27.8167 33.0563 27.82 33.0503L28.7762 31.2278C28.7804 31.22 28.7819 31.211 28.7806 31.2022C28.7792 31.1934 28.7751 31.1853 28.7687 31.1791L26.735 29.1466ZM21.6575 30.2041C21.8 30.3749 21.8841 30.4933 21.91 30.5591C22.255 31.4508 22.6079 32.3387 22.9687 33.2228C22.9962 33.2912 23.0233 33.2908 23.05 33.2216L24.4687 29.5466C24.4921 29.4858 24.4729 29.4649 24.4112 29.4841C23.4429 29.7891 22.4516 29.9583 21.4375 29.9916C21.4274 29.9922 21.4177 29.9962 21.41 30.0029C21.4023 30.0096 21.3971 30.0187 21.3952 30.0286C21.3933 30.0384 21.3949 30.0486 21.3996 30.0573C21.4043 30.066 21.412 30.0728 21.4212 30.0766L21.5687 30.1391C21.6037 30.1533 21.6333 30.1749 21.6575 30.2041ZM23.975 36.2953C23.7162 36.9678 22.94 37.3116 22.38 36.8303C22.235 36.7053 22.0821 36.4408 21.9212 36.0366C21.5254 35.0424 21.13 34.0508 20.735 33.0616C20.7323 33.0553 20.7281 33.0498 20.7226 33.0456C20.7172 33.0414 20.7108 33.0387 20.704 33.0377C20.6973 33.0367 20.6903 33.0374 20.6839 33.0399C20.6775 33.0423 20.6719 33.0463 20.6675 33.0516C19.7408 34.2008 18.8125 35.3512 17.8825 36.5028C17.2012 37.3466 16.6137 37.0028 15.91 36.4066C14.6775 35.3624 13.4375 34.3291 12.19 33.3066C12.1566 33.2791 12.1242 33.2808 12.0925 33.3116C10.7425 34.6433 9.4029 35.9849 8.07373 37.3366C6.53123 38.9028 5.34373 40.3791 4.42373 42.2416C4.2229 42.6466 4.09707 43.0941 4.04623 43.5841C4.02957 43.7483 4.06207 43.9112 4.14373 44.0728C5.65373 47.0753 7.16207 50.0799 8.66873 53.0866C8.68707 53.1233 8.71665 53.1453 8.75748 53.1528C11.9562 53.7528 14.8962 52.4141 15.8975 49.1903C15.9092 49.152 15.905 49.1153 15.885 49.0803C15.0675 47.6995 14.2425 46.3224 13.41 44.9491C13.2167 44.6308 13.1083 44.3895 13.085 44.2253C12.98 43.4966 13.8712 42.9128 14.4962 43.2341C14.6837 43.3316 14.8696 43.5328 15.0537 43.8378C15.9862 45.3853 16.9158 46.9341 17.8425 48.4841C17.975 48.7066 17.9712 48.9341 18.1062 49.1641C19.1037 50.8516 20.1687 52.0928 22.2687 52.0291C22.6621 52.0166 23.1954 51.8987 23.8687 51.6753C26.8946 50.6703 29.9162 49.6699 32.9337 48.6741C32.9509 48.6685 32.9658 48.6577 32.9764 48.6431C32.9869 48.6285 32.9926 48.6109 32.9925 48.5928V32.8441C32.9924 32.828 32.987 32.8123 32.977 32.7997C32.967 32.787 32.9531 32.778 32.9375 32.7741L30.595 32.1853C30.5516 32.1745 30.5204 32.1891 30.5012 32.2291C30.0046 33.2191 29.5079 34.2103 29.0112 35.2028C28.7262 35.7716 28.2875 36.2028 27.6487 35.9253C27.4387 35.8345 27.1983 35.6033 26.9275 35.2316C26.4033 34.5124 25.8683 33.7933 25.3225 33.0741C25.2892 33.0316 25.2625 33.0353 25.2425 33.0853C24.8083 34.157 24.3858 35.227 23.975 36.2953ZM17.1425 51.4016C16.075 53.3203 14.3812 54.5616 12.26 55.0441C12.2108 55.0549 12.1992 55.0816 12.225 55.1241C13.4487 57.1453 15.5087 59.4066 17.955 59.8841C19.61 60.2066 21.6462 59.6903 23.3125 59.2103C27.0962 58.1216 30.7637 56.7191 34.475 55.4141C36.5675 54.6778 38.4437 54.2228 40.565 54.0453C41.1367 53.997 41.9692 53.9745 43.0625 53.9778C45.365 53.9853 47.6671 53.9899 49.9687 53.9916C51.0987 53.9928 52.84 53.5991 52.9775 52.2366C52.9817 52.1958 52.965 52.1678 52.9275 52.1528C52.675 52.0537 52.4571 52.0041 52.2737 52.0041C49.8596 51.9974 47.4454 51.9962 45.0312 52.0003C43.9987 52.0028 43.5962 50.6253 44.5075 50.1378C44.685 50.0428 44.9608 49.9966 45.335 49.9991C46.0642 50.0033 46.7987 50.0024 47.5387 49.9966C47.5896 49.9958 47.6117 49.9708 47.605 49.9216C47.5137 49.2016 47.03 49.0028 46.3325 49.0016C44.2917 48.9991 42.2504 48.9978 40.2087 48.9978C39.3512 48.9966 38.675 49.0916 37.8962 49.2966C33.5462 50.4441 29.2675 51.9841 24.9987 53.4078C24.0171 53.7353 23.3208 53.9245 22.91 53.9753C20.6675 54.2553 18.5325 53.2453 17.2262 51.3978C17.1962 51.3553 17.1683 51.3566 17.1425 51.4016Z" fill="#597B00"/>
<path d="M41.0412 40.0078H38.9587C38.4368 40.0078 38.0137 40.4309 38.0137 40.9528V41.0478C38.0137 41.5697 38.4368 41.9928 38.9587 41.9928H41.0412C41.5631 41.9928 41.9862 41.5697 41.9862 41.0478V40.9528C41.9862 40.4309 41.5631 40.0078 41.0412 40.0078Z" fill="#597B00"/>
<path d="M43.0267 43.0039H38.9742C38.4426 43.0039 38.0117 43.4348 38.0117 43.9664V44.0339C38.0117 44.5655 38.4426 44.9964 38.9742 44.9964H43.0267C43.5583 44.9964 43.9892 44.5655 43.9892 44.0339V43.9664C43.9892 43.4348 43.5583 43.0039 43.0267 43.0039Z" fill="#597B00"/>
</g>
<defs>
<clipPath id="clip0_974_10381">
<rect width="64" height="64" fill="white"/>
</clipPath>
</defs>
</svg>
