<svg width="64" height="64" viewBox="0 0 64 64" fill="none" xmlns="http://www.w3.org/2000/svg">
<path d="M63 7.18328V52.7133C62.8854 53.3753 62.491 53.7055 61.8169 53.7039C60.5148 53.7014 59.2053 53.7027 57.8886 53.7075C57.8402 53.7075 57.8168 53.7317 57.8184 53.7802C57.8475 54.5007 57.8559 55.2539 57.5871 55.8969C57.0289 57.2301 55.9427 57.7775 54.5259 57.8211C53.5716 57.8501 52.282 57.9409 51.4234 57.5559C49.8516 56.8523 49.4726 55.398 49.5659 53.7777C49.5665 53.7684 49.5653 53.7591 49.5622 53.7503C49.559 53.7415 49.5542 53.7334 49.5478 53.7266C49.5414 53.7198 49.5337 53.7144 49.5252 53.7107C49.5166 53.707 49.5074 53.7051 49.498 53.7051H14.5007C14.4571 53.7051 14.4358 53.7269 14.4366 53.7705C14.4519 54.5721 14.4317 55.0827 14.376 55.3023C14.0523 56.5851 13.2987 57.3875 12.1152 57.7097C11.4371 57.8949 10.5325 57.8186 9.76477 57.8235C7.9084 57.8356 6.53641 57.0606 6.20582 55.1013C6.13922 54.7065 6.19008 54.2016 6.17191 53.7632C6.17129 53.7476 6.16463 53.7328 6.15335 53.722C6.14206 53.7111 6.12701 53.7051 6.11137 53.7051C4.79225 53.7059 3.47233 53.7055 2.1516 53.7039C1.49204 53.7031 1.10818 53.368 1 52.6988V7.13848C1.14895 6.28477 1.69266 6.17578 2.49914 6.17578C22.2923 6.17578 42.0859 6.17578 61.8799 6.17578C62.5273 6.17578 62.9007 6.51161 63 7.18328ZM48.6371 30.908C50.1834 25.4902 57.2202 25.483 58.7508 30.9104C58.7621 30.9499 58.7884 30.9697 58.8295 30.9697H60.8809C60.9212 30.9697 60.9414 30.9495 60.9414 30.9092V8.29492C60.9414 8.27886 60.935 8.26346 60.9237 8.25211C60.9123 8.24075 60.8969 8.23438 60.8809 8.23438H3.11914C3.10308 8.23438 3.08768 8.24075 3.07633 8.25211C3.06497 8.26346 3.05859 8.27886 3.05859 8.29492V51.5593C3.05859 51.5744 3.06459 51.5889 3.07526 51.5995C3.08594 51.6102 3.10041 51.6162 3.11551 51.6162L60.8845 51.6174C60.8996 51.6174 60.9141 51.6114 60.9247 51.6008C60.9354 51.5901 60.9414 51.5756 60.9414 51.5605V33.1046C60.9414 33.0538 60.916 33.0283 60.8651 33.0283H58.8489C58.798 33.0283 58.7649 33.0525 58.7496 33.101C58.6406 33.4328 58.5462 33.79 58.419 34.0758C57.2493 36.7059 54.2316 37.8575 51.5954 36.6902C50.0882 36.0226 49.1073 34.8201 48.6528 33.0828C48.6439 33.0465 48.6209 33.0283 48.5838 33.0283H46.5325C46.4913 33.0283 46.4707 33.0493 46.4707 33.0913C46.4707 37.5306 46.4703 41.9699 46.4695 46.4092C46.4695 47.3077 45.7635 47.4978 44.9691 47.4978C32.0969 47.4994 19.2246 47.4994 6.35234 47.4978C5.18621 47.4978 5.11598 46.678 5.11598 45.7432C5.11598 34.5008 5.11678 23.2585 5.1184 12.0161C5.1184 11.0474 5.23465 10.293 6.3584 10.293C19.2468 10.2922 32.1356 10.2926 45.0248 10.2942C46.2334 10.2942 46.4707 10.7531 46.4707 11.9289C46.4707 18.2549 46.4707 24.5812 46.4707 30.908C46.4707 30.9491 46.4913 30.9697 46.5325 30.9697H48.5559C48.5987 30.9697 48.6258 30.9491 48.6371 30.908ZM44.4121 12.4557C44.4121 12.4361 44.4043 12.4173 44.3905 12.4035C44.3766 12.3896 44.3578 12.3818 44.3382 12.3818H7.27871C7.25912 12.3818 7.24033 12.3896 7.22648 12.4035C7.21263 12.4173 7.20484 12.4361 7.20484 12.4557V45.3666C7.20484 45.3862 7.21263 45.4049 7.22648 45.4188C7.24033 45.4327 7.25912 45.4404 7.27871 45.4404H44.3382C44.3578 45.4404 44.3766 45.4327 44.3905 45.4188C44.4043 45.4049 44.4121 45.3862 44.4121 45.3666V12.4557ZM56.7843 31.999C56.7843 31.181 56.4593 30.3965 55.8809 29.8181C55.3025 29.2397 54.518 28.9148 53.7 28.9148C52.882 28.9148 52.0975 29.2397 51.5191 29.8181C50.9407 30.3965 50.6157 31.181 50.6157 31.999C50.6157 32.4041 50.6955 32.8051 50.8505 33.1793C51.0055 33.5535 51.2327 33.8935 51.5191 34.1799C51.8055 34.4663 52.1455 34.6935 52.5197 34.8485C52.8939 35.0035 53.295 35.0833 53.7 35.0833C54.105 35.0833 54.5061 35.0035 54.8803 34.8485C55.2545 34.6935 55.5945 34.4663 55.8809 34.1799C56.1673 33.8935 56.3945 33.5535 56.5495 33.1793C56.7045 32.8051 56.7843 32.4041 56.7843 31.999ZM12.3223 53.7039H8.27289C8.26165 53.7039 8.25087 53.7083 8.24292 53.7163C8.23497 53.7242 8.23051 53.735 8.23051 53.7463V54.6484C8.23051 54.7953 8.25895 54.9408 8.3142 55.0766C8.36946 55.2123 8.45045 55.3357 8.55255 55.4396C8.65465 55.5435 8.77587 55.6259 8.90927 55.6821C9.04267 55.7384 9.18565 55.7673 9.33004 55.7673H11.2651C11.5567 55.7673 11.8364 55.6494 12.0426 55.4396C12.2488 55.2298 12.3646 54.9452 12.3646 54.6484V53.7463C12.3646 53.735 12.3602 53.7242 12.3522 53.7163C12.3443 53.7083 12.3335 53.7039 12.3223 53.7039ZM55.7223 53.7051H51.685C51.6722 53.7051 51.6598 53.7102 51.6507 53.7193C51.6417 53.7284 51.6366 53.7407 51.6366 53.7535V54.6557C51.6366 54.9515 51.7561 55.2351 51.9689 55.4443C52.1817 55.6534 52.4703 55.7709 52.7712 55.7709H54.6361C54.937 55.7709 55.2256 55.6534 55.4384 55.4443C55.6512 55.2351 55.7707 54.9515 55.7707 54.6557V53.7535C55.7707 53.7407 55.7656 53.7284 55.7565 53.7193C55.7474 53.7102 55.7351 53.7051 55.7223 53.7051Z" fill="#597B00"/>
<path d="M56.7939 12.4403V14.3657C56.7939 14.3756 56.792 14.3853 56.7882 14.3944C56.7845 14.4035 56.7789 14.4118 56.772 14.4188C56.765 14.4258 56.7567 14.4313 56.7476 14.4351C56.7385 14.4388 56.7287 14.4408 56.7189 14.4408H50.663C50.6531 14.4408 50.6433 14.4388 50.6342 14.4351C50.6251 14.4313 50.6169 14.4258 50.6099 14.4188C50.6029 14.4118 50.5974 14.4035 50.5936 14.3944C50.5898 14.3853 50.5879 14.3756 50.5879 14.3657V12.4621C50.5879 12.4422 50.5958 12.4231 50.6099 12.409C50.624 12.3949 50.6431 12.387 50.663 12.387L56.7189 12.3652C56.7388 12.3652 56.7579 12.3731 56.772 12.3872C56.786 12.4013 56.7939 12.4204 56.7939 12.4403Z" fill="#597B00"/>
<path d="M56.7249 16.5H50.6605C50.6204 16.5 50.5879 16.5325 50.5879 16.5727V18.4859C50.5879 18.5261 50.6204 18.5586 50.6605 18.5586H56.7249C56.765 18.5586 56.7976 18.5261 56.7976 18.4859V16.5727C56.7976 16.5325 56.765 16.5 56.7249 16.5Z" fill="#597B00"/>
<path d="M56.7029 20.6191H50.6797C50.6295 20.6191 50.5889 20.6598 50.5889 20.71V22.616C50.5889 22.6661 50.6295 22.7068 50.6797 22.7068H56.7029C56.753 22.7068 56.7937 22.6661 56.7937 22.616V20.71C56.7937 20.6598 56.753 20.6191 56.7029 20.6191Z" fill="#597B00"/>
<path d="M30.7077 22.2102C31.9925 22.7878 33.5219 22.8193 34.8346 22.3979C35.7513 22.1037 36.6401 21.4364 37.6137 21.0877C38.4274 20.7971 39.271 20.6473 40.1445 20.6384C41.2973 20.6263 41.7502 22.1133 40.6919 22.5808C40.5643 22.6365 40.2676 22.6829 39.8018 22.72C39.3215 22.7572 38.8537 22.8524 38.3984 23.0058C37.6016 23.2734 36.8278 23.845 35.9946 24.1744C34.2154 24.8775 32.4216 24.9429 30.6132 24.3705C29.5876 24.046 28.6503 23.3303 27.5883 22.9949C26.2765 22.5816 24.9828 22.6179 23.7073 23.1039C23.0885 23.3388 22.3062 23.8292 21.7371 24.1005C19.4787 25.1758 16.6511 24.8949 14.5502 23.6754C13.4191 23.0179 12.6805 22.7648 11.3884 22.7006C9.96676 22.6304 9.97645 20.6699 11.3836 20.6457C12.7568 20.6215 14.1481 21.0259 15.4463 21.7803C16.9841 22.6764 18.4942 22.9549 20.2331 22.4524C21.1619 22.1848 21.9369 21.5406 22.8536 21.193C24.7749 20.4649 26.6918 20.4515 28.6043 21.1531C29.2897 21.4037 30.0623 21.9196 30.7077 22.2102Z" fill="#597B00"/>
<path d="M29.9508 28.0228C31.364 28.8729 33.1562 29.1453 34.774 28.6222C35.6943 28.3243 36.5614 27.6801 37.5168 27.3229C38.2712 27.0407 40.0924 26.5745 40.8117 27.0141C41.531 27.4524 41.3894 28.5326 40.618 28.8172C40.5106 28.8567 40.2458 28.8886 39.8236 28.9128C38.2458 29.0049 37.2698 29.8707 36.1169 30.332C34.2642 31.0723 32.4151 31.1462 30.5696 30.5536C29.5343 30.2206 28.5486 29.4662 27.4478 29.1514C26.3515 28.8365 25.2605 28.8341 24.1747 29.1441C23.1672 29.4323 22.2905 30.1383 21.2696 30.4919C19.1372 31.2318 16.8521 31.107 14.8541 30.0257C13.7061 29.4033 12.9178 28.9782 11.6124 28.9019C11.2273 28.8801 10.9621 28.8297 10.8168 28.7506C10.1896 28.4115 10.1617 27.3665 10.766 27.0153C11.4671 26.6072 13.1031 26.9911 13.8393 27.2381C14.8069 27.5626 15.7114 28.2856 16.7226 28.6052C17.9836 29.004 19.2353 28.9931 20.4777 28.5725C21.0941 28.3643 21.8 27.9259 22.4455 27.6014C24.8346 26.4013 27.6743 26.6532 29.9508 28.0228Z" fill="#597B00"/>
<path d="M32.173 37.099C31.2034 36.9949 30.4272 36.7894 29.8444 36.4827C29.0403 36.06 28.1624 35.5478 27.351 35.3238C25.9681 34.9403 24.6236 35.055 23.3174 35.6677C22.7265 35.945 21.9163 36.4681 21.2104 36.7091C19.4053 37.3267 17.5994 37.313 15.7926 36.6679C14.8517 36.3325 14.0271 35.6774 13.114 35.3613C12.6442 35.1974 12.2466 35.1191 11.9213 35.1264C11.3243 35.1385 10.657 35.0646 10.4149 34.5137C10.0249 33.6236 10.7321 33.0387 11.5628 33.0509C12.551 33.0662 13.5032 33.2688 14.4194 33.6587C15.1097 33.9518 15.9961 34.5815 16.7929 34.8273C18.0595 35.218 19.3185 35.1886 20.5698 34.7389C21.1922 34.5149 21.9248 34.0184 22.471 33.7629C24.7681 32.6864 27.4685 32.8317 29.6554 34.0378C31.3314 34.9629 32.7215 35.394 34.6421 34.8564C35.6532 34.573 36.5517 33.8719 37.5774 33.4953C38.5131 33.153 39.416 33.0028 40.2863 33.0448C41.6353 33.109 41.6122 35.0562 40.1652 35.1058C39.5565 35.1268 38.9881 35.2205 38.4602 35.3868C37.736 35.6156 36.8775 36.1932 36.2151 36.4827C34.9242 37.0453 33.5769 37.2508 32.173 37.099Z" fill="#597B00"/>
<path d="M56.7847 42.3323C56.7847 43.1503 56.4598 43.9348 55.8814 44.5132C55.303 45.0916 54.5185 45.4166 53.7005 45.4166C52.8825 45.4166 52.098 45.0916 51.5196 44.5132C50.9412 43.9348 50.6162 43.1503 50.6162 42.3323C50.6162 41.5143 50.9412 40.7298 51.5196 40.1514C52.098 39.573 52.8825 39.248 53.7005 39.248C54.5185 39.248 55.303 39.573 55.8814 40.1514C56.4598 40.7298 56.7847 41.5143 56.7847 42.3323ZM54.7128 42.3323C54.7128 42.0635 54.606 41.8057 54.4159 41.6156C54.2259 41.4255 53.9681 41.3188 53.6993 41.3188C53.4304 41.3188 53.1726 41.4255 52.9826 41.6156C52.7925 41.8057 52.6857 42.0635 52.6857 42.3323C52.6857 42.6011 52.7925 42.8589 52.9826 43.049C53.1726 43.2391 53.4304 43.3459 53.6993 43.3459C53.9681 43.3459 54.2259 43.2391 54.4159 43.049C54.606 42.8589 54.7128 42.6011 54.7128 42.3323Z" fill="#597B00"/>
</svg>
