<svg width="41" height="40" viewBox="0 0 41 40" fill="none" xmlns="http://www.w3.org/2000/svg">
<path d="M10.6089 1.41162C11.1729 2.65147 11.9932 3.1585 13.1503 3.75459C13.5284 3.94912 13.787 4.29209 13.5284 4.69522C13.3526 4.96866 12.8331 5.16631 12.5229 5.32959C11.5557 5.83845 10.882 6.59756 10.5018 7.60694C10.3518 8.00381 10.0487 8.26006 9.61902 8.06475C9.31824 7.92881 9.27527 7.66084 9.15105 7.36319C8.65886 6.1835 7.75965 5.57022 6.62996 5.01319C5.9659 4.68584 5.93933 4.07256 6.62371 3.74365C7.7784 3.18975 8.69324 2.52725 9.18074 1.31475C9.28074 1.06553 9.32761 0.85928 9.55105 0.714749C9.77241 0.572561 9.99636 0.576988 10.2229 0.72803C10.4401 0.872561 10.519 1.21397 10.6089 1.41162ZM11.587 4.34444C10.9136 3.92022 10.3596 3.38819 9.9073 2.73272C9.90316 2.72668 9.89761 2.72172 9.89115 2.7183C9.88468 2.71487 9.8775 2.71308 9.87023 2.71308C9.86297 2.71308 9.85585 2.71487 9.84951 2.7183C9.84316 2.72172 9.83779 2.72668 9.83386 2.73272C9.39636 3.39313 8.83907 3.92907 8.16199 4.34053C8.15617 4.34409 8.15136 4.34909 8.14803 4.35504C8.14469 4.36099 8.14294 4.36769 8.14294 4.37451C8.14294 4.38134 8.14469 4.38804 8.14803 4.39399C8.15136 4.39994 8.15617 4.40494 8.16199 4.4085C8.83751 4.82152 9.39532 5.35772 9.83543 6.01709C9.83978 6.02346 9.84562 6.02868 9.85242 6.03229C9.85923 6.0359 9.86679 6.03779 9.87445 6.03779C9.8821 6.03779 9.8896 6.0359 9.89628 6.03229C9.90297 6.02868 9.90863 6.02346 9.91277 6.01709C10.3529 5.35824 10.9109 4.82256 11.587 4.41006C11.5927 4.40666 11.5973 4.40185 11.6006 4.3961C11.6038 4.39035 11.6056 4.38386 11.6056 4.37725C11.6056 4.37064 11.6038 4.36415 11.6006 4.3584C11.5973 4.35265 11.5927 4.34784 11.587 4.34444Z" fill="#597B00"/>
<path d="M37.4227 12.1163C38.5831 12.5882 39.3383 13.3866 39.6883 14.5116C40.7648 17.9717 36.8305 20.7639 33.875 18.6225C33.8626 18.6137 33.8471 18.6101 33.832 18.6126C33.8169 18.615 33.8035 18.6234 33.7945 18.6358C32.9867 19.778 31.7953 20.9882 30.5844 21.6749C30.5609 21.6879 30.5513 21.7077 30.5555 21.7342C30.7703 23.0358 31.7398 24.0483 33.025 24.31C33.1182 24.3293 33.4187 24.352 33.9266 24.378C36.1656 24.4913 38.0836 26.0835 38.525 28.2928C38.5896 28.6178 38.6224 29.1363 38.6234 29.8483C38.6255 31.4743 38.626 33.1007 38.625 34.7272C38.625 35.2069 38.5539 35.5382 38.0492 35.6225C38.0164 35.6277 38 35.6473 38 35.6811V38.7108C38 38.7212 37.9959 38.7311 37.9886 38.7384C37.9812 38.7458 37.9713 38.7499 37.9609 38.7499H36.7992C36.7664 38.7499 36.75 38.7337 36.75 38.7014V35.6639C36.75 35.6536 36.7459 35.6436 36.7386 35.6363C36.7312 35.629 36.7213 35.6249 36.7109 35.6249H34.9344C34.9288 35.6249 34.9232 35.6261 34.9181 35.6285C34.9131 35.6309 34.9086 35.6344 34.905 35.6387C34.9014 35.6431 34.8989 35.6481 34.8974 35.6536C34.896 35.659 34.8958 35.6647 34.8969 35.6702C35.0599 36.4707 35.2203 37.2741 35.3781 38.0803C35.525 38.828 35.6187 39.3749 34.6625 39.3749C29.8068 39.3749 24.9516 39.3749 20.0969 39.3749C19.5781 39.3749 19.1531 39.1663 19.2711 38.5749C19.4659 37.6035 19.6607 36.6363 19.8555 35.6733C19.8566 35.6674 19.8565 35.6614 19.855 35.6555C19.8535 35.6497 19.8508 35.6443 19.847 35.6397C19.8432 35.6351 19.8384 35.6313 19.833 35.6288C19.8275 35.6262 19.8216 35.6249 19.8156 35.6249H18.0586C18.0195 35.6249 18 35.6444 18 35.6835V38.7108C18 38.7212 17.9959 38.7311 17.9886 38.7384C17.9812 38.7458 17.9713 38.7499 17.9609 38.7499H16.7891C16.7787 38.7499 16.7688 38.7458 16.7614 38.7384C16.7541 38.7311 16.75 38.7212 16.75 38.7108V35.6655C16.75 35.641 16.738 35.627 16.7141 35.6233C16.2203 35.5514 16.125 35.2319 16.125 34.7632C16.125 33.1626 16.125 31.5616 16.125 29.96C16.125 29.2251 16.151 28.7061 16.2031 28.403C16.593 26.1413 18.4953 24.5483 20.7602 24.3983C20.9362 24.3863 21.1128 24.3775 21.2898 24.3717C22.8242 24.3202 23.9016 23.2452 24.2109 21.7772C24.2154 21.7555 24.2129 21.7331 24.2038 21.7131C24.1946 21.6931 24.1793 21.6767 24.1602 21.6663C23.2289 21.153 22.4805 20.396 21.75 19.6296C20.6927 18.5191 20.0786 17.1991 19.9078 15.6694C19.9047 15.6428 19.8898 15.6288 19.8633 15.6272C19.6438 15.6147 19.3852 15.6413 19.2023 15.6241C17.8906 15.4983 17.3703 14.6327 17.3727 13.4186C17.3763 11.6275 17.3768 9.83685 17.3742 8.04674C17.3732 7.36758 17.4003 6.84857 17.4555 6.48971C17.9086 3.53971 20.1984 1.18581 23.1656 0.71237C23.5156 0.656641 24.0349 0.628255 24.7234 0.627214C26.662 0.623568 28.6005 0.623047 30.5391 0.625651C33.9641 0.630339 36.7875 3.18268 37.2953 6.52799C37.35 6.88529 37.3768 7.40404 37.3758 8.08425C37.3742 9.40247 37.3742 10.723 37.3758 12.046C37.3758 12.061 37.3803 12.0757 37.3886 12.0882C37.397 12.1007 37.4088 12.1104 37.4227 12.1163ZM29.4164 5.24518L30.3219 5.99518C30.3443 6.01341 30.3461 6.03372 30.3273 6.05612C29.8826 6.57591 29.3982 7.05534 28.8742 7.4944C28.8695 7.49841 28.8656 7.50333 28.8628 7.50888C28.86 7.51442 28.8583 7.52046 28.858 7.52661C28.8576 7.53277 28.8585 7.53891 28.8606 7.54466C28.8628 7.55041 28.8661 7.55564 28.8703 7.56003C29.7443 8.48659 30.7971 9.06081 32.0289 9.28268C32.675 9.39987 33.4344 9.38893 34.1328 9.37175C34.7594 9.3569 34.8789 9.74518 34.875 10.303C34.8714 10.8108 34.8721 11.3236 34.8773 11.8413C34.8779 11.8725 34.8938 11.8866 34.925 11.8835C35.3167 11.846 35.7021 11.8738 36.0812 11.9671C36.1094 11.9738 36.1234 11.9629 36.1234 11.9342C36.1271 10.64 36.1271 9.3457 36.1234 8.05143C36.1214 7.34466 36.0909 6.82565 36.032 6.4944C35.6227 4.18659 33.7914 2.40612 31.5289 1.97721C31.1674 1.90846 30.649 1.87409 29.9734 1.87409C28.2297 1.87409 26.4862 1.87487 24.743 1.87643C24.0503 1.87747 23.5315 1.91029 23.1867 1.97487C20.843 2.41393 19.0891 4.31237 18.7047 6.60612C18.6464 6.95612 18.6188 7.47513 18.6219 8.16315C18.6276 9.42409 18.6279 10.6814 18.6227 11.935C18.6226 11.9405 18.6238 11.9459 18.6261 11.9508C18.6285 11.9557 18.632 11.96 18.6363 11.9633C18.6406 11.9667 18.6457 11.969 18.651 11.97C18.6564 11.9711 18.6619 11.9709 18.6672 11.9694C19.038 11.8741 19.4151 11.8457 19.7984 11.8842C19.8082 11.8852 19.818 11.8842 19.8273 11.8811C19.8366 11.8781 19.8452 11.8731 19.8525 11.8666C19.8598 11.86 19.8656 11.852 19.8696 11.8431C19.8736 11.8342 19.8757 11.8245 19.8758 11.8147C19.8742 11.046 19.8745 10.2723 19.8766 9.49362C19.8773 8.91549 20.1703 8.74909 20.7289 8.74987C21.3602 8.75065 22.0469 8.7694 22.6297 8.71628C25.3349 8.47253 27.5841 7.31654 29.3773 5.24831C29.3797 5.24549 29.3825 5.24318 29.3858 5.24149C29.389 5.23981 29.3926 5.23879 29.3962 5.2385C29.3999 5.23821 29.4035 5.23865 29.407 5.2398C29.4105 5.24095 29.4137 5.24278 29.4164 5.24518ZM18.9664 13.1999C18.3961 13.4905 18.6094 14.3757 19.2305 14.3749C19.618 14.3738 20.0063 14.3743 20.3953 14.3764C20.8297 14.378 21.1063 14.5835 21.118 15.0405C21.1497 16.2645 21.5286 17.3514 22.2547 18.3014C22.5961 18.7475 23.1859 19.3069 23.5625 19.6717C25.7383 21.7811 29.0102 21.76 31.1812 19.6655C31.6383 19.2249 32.1562 18.7467 32.5078 18.285C33.2115 17.3621 33.5836 16.3069 33.6242 15.1194C33.668 13.8538 35.0758 14.6296 35.7555 14.3124C36.2422 14.0858 36.2406 13.4053 35.7531 13.1866C35.0117 12.8546 33.6234 13.7007 33.625 12.2702C33.6255 11.7316 33.6255 11.2014 33.625 10.6796C33.6245 10.6374 33.6034 10.6173 33.5617 10.6194C31.2758 10.7189 29.3664 9.9431 27.8336 8.29206C27.8265 8.28435 27.8169 8.27936 27.8065 8.27793C27.7961 8.27651 27.7855 8.27874 27.7766 8.28425C25.7281 9.57565 23.5844 10.0413 21.1672 9.99909C21.1616 9.99898 21.156 10 21.1508 10.0021C21.1456 10.0041 21.1409 10.0072 21.1368 10.0112C21.1328 10.0151 21.1297 10.0198 21.1275 10.0249C21.1253 10.0301 21.1242 10.0357 21.1242 10.0413C21.1258 10.8204 21.1258 11.6004 21.1242 12.3811C21.1211 13.6382 19.6195 12.8671 18.9664 13.1999ZM37.3492 13.9889C37.168 14.9629 36.5846 15.5066 35.5992 15.6202C35.4 15.6428 35.125 15.6147 34.8891 15.628C34.8589 15.6296 34.8419 15.6454 34.8383 15.6757C34.7742 16.2626 34.6372 16.8322 34.4273 17.3842C34.4169 17.4118 34.4227 17.4353 34.4445 17.4546C35.3633 18.2663 36.5969 18.3467 37.5898 17.6428C39.068 16.5944 38.9055 14.4592 37.4281 13.4944C37.3953 13.473 37.3781 13.4819 37.3766 13.521C37.3703 13.6827 37.3742 13.8538 37.3492 13.9889ZM24.7578 23.8092C25.9812 24.7944 27.1594 25.3803 28.7047 24.6827C29.143 24.485 29.5758 24.1382 29.982 23.8225C30.032 23.784 30.0393 23.7387 30.0039 23.6866C29.7096 23.2522 29.5013 22.7793 29.3789 22.2678C29.3766 22.2582 29.3723 22.2491 29.3663 22.2411C29.3603 22.2331 29.3528 22.2265 29.3442 22.2215C29.3356 22.2165 29.326 22.2134 29.3162 22.2122C29.3063 22.211 29.2963 22.2119 29.2867 22.2147C28.0091 22.5882 26.732 22.5871 25.4555 22.2116C25.4487 22.2096 25.4416 22.209 25.4346 22.2099C25.4276 22.2108 25.4208 22.2131 25.4147 22.2167C25.4087 22.2203 25.4034 22.2251 25.3992 22.2308C25.3951 22.2365 25.3922 22.243 25.3906 22.2499C25.2729 22.7905 25.0586 23.2882 24.7477 23.7428C24.7407 23.753 24.7379 23.7655 24.7398 23.7778C24.7416 23.7901 24.7481 23.8013 24.7578 23.8092ZM28.2883 27.5046C29.0393 28.1285 29.868 28.2764 30.7742 27.9483C31.7844 27.5827 32.218 26.4491 32.6469 25.5663C32.6499 25.5601 32.6514 25.5533 32.6515 25.5465C32.6515 25.5396 32.65 25.5328 32.6471 25.5266C32.6442 25.5204 32.6399 25.5149 32.6346 25.5105C32.6293 25.5062 32.6231 25.5031 32.6164 25.5014C32.0159 25.353 31.4687 25.0931 30.975 24.7217C30.9599 24.7105 30.9416 24.7044 30.9229 24.7044C30.9041 24.7044 30.886 24.7105 30.8711 24.7217C29.9617 25.4038 29.2273 25.9967 28.0555 26.1842C28.0289 26.1889 28.0146 26.2046 28.0125 26.2311C27.9719 26.7233 27.9094 27.1897 28.2883 27.5046ZM23.2891 27.5038C24.1896 28.2517 25.1542 28.328 26.1828 27.7327C26.8594 27.3413 26.7492 26.9171 26.75 26.2413C26.75 26.2132 26.7359 26.1967 26.7078 26.1921C25.5687 25.9967 24.7875 25.4397 23.9117 24.7413C23.8957 24.7286 23.8758 24.7216 23.8554 24.7214C23.835 24.7213 23.8152 24.728 23.7992 24.7405C23.2997 25.1233 22.7422 25.3822 22.1266 25.5171C22.1209 25.5183 22.1156 25.5208 22.1111 25.5243C22.1065 25.5278 22.1029 25.5324 22.1004 25.5375C22.0979 25.5427 22.0966 25.5483 22.0967 25.5539C22.0968 25.5596 22.0982 25.5652 22.1008 25.5702C22.4195 26.1952 22.743 27.0506 23.2891 27.5038ZM20.9883 31.8788C21.5805 31.8811 21.8187 32.1928 21.7031 32.7803C21.3672 34.4892 21.0143 36.2577 20.6445 38.0858C20.6393 38.1124 20.6503 38.1257 20.6773 38.1257L34.0539 38.1264C34.0924 38.1264 34.1078 38.1077 34.1 38.0702C33.7302 36.2098 33.3706 34.4113 33.0211 32.6749C32.893 32.0397 33.375 31.8717 33.9148 31.8733C35.0487 31.8785 36.1867 31.8783 37.3289 31.8725C37.3581 31.872 37.3729 31.8572 37.3734 31.828C37.3789 30.7382 37.4891 29.3233 37.2523 28.3741C36.8781 26.8678 35.6078 25.7983 34.0641 25.6452C34.0214 25.641 33.9904 25.6582 33.9711 25.6967C33.5969 26.4491 33.1867 27.4085 32.7359 27.978C31.4039 29.6624 29.0352 29.8139 27.4242 28.4163C27.4119 28.4056 27.396 28.3997 27.3797 28.3997C27.3633 28.3997 27.3475 28.4056 27.3352 28.4163C26.0742 29.503 24.3664 29.7022 22.932 28.7952C21.7789 28.0663 21.332 26.8264 20.7648 25.6819C20.7518 25.6553 20.7305 25.6434 20.7008 25.646C19.1234 25.7889 17.8164 26.9163 17.4719 28.4639C17.2695 29.3733 17.3758 30.7655 17.375 31.8342C17.375 31.8454 17.3794 31.8562 17.3874 31.8641C17.3953 31.872 17.406 31.8764 17.4172 31.8764C18.6068 31.8723 19.7971 31.873 20.9883 31.8788ZM20.075 34.3749C20.0855 34.3747 20.0956 34.371 20.1037 34.3643C20.1118 34.3577 20.1174 34.3484 20.1195 34.3382L20.3516 33.1803C20.353 33.1736 20.3528 33.1667 20.3512 33.16C20.3496 33.1533 20.3465 33.1471 20.3421 33.1418C20.3378 33.1365 20.3323 33.1322 20.3261 33.1293C20.3199 33.1264 20.3131 33.1248 20.3063 33.1249H17.4211C17.4089 33.1249 17.3971 33.1297 17.3885 33.1384C17.3799 33.147 17.375 33.1587 17.375 33.171V34.3288C17.375 34.341 17.3799 34.3527 17.3885 34.3614C17.3971 34.37 17.4089 34.3749 17.4211 34.3749H20.075ZM34.4383 33.1249C34.4324 33.1249 34.4266 33.1262 34.4212 33.1287C34.4159 33.1312 34.4112 33.1349 34.4075 33.1395C34.4037 33.144 34.4011 33.1493 34.3996 33.1551C34.3982 33.1608 34.3981 33.1667 34.3992 33.1725L34.6313 34.3428C34.6331 34.3519 34.6379 34.36 34.6451 34.3658C34.6522 34.3717 34.6611 34.3749 34.6703 34.3749H37.3352C37.3457 34.3749 37.3559 34.3707 37.3633 34.3632C37.3708 34.3557 37.375 34.3456 37.375 34.335V33.1647C37.375 33.1541 37.3708 33.144 37.3633 33.1365C37.3559 33.1291 37.3457 33.1249 37.3352 33.1249H34.4383Z" fill="#597B00"/>
<path d="M1.58238 10.0137C2.93707 9.41526 3.7316 8.66291 4.29254 7.30354C4.55895 6.65979 5.26988 6.78166 5.49332 7.3801C5.8678 8.38166 6.53212 9.13739 7.48629 9.64729C7.78707 9.80745 8.34801 10.0332 8.52066 10.3082C9.01207 11.0871 7.73395 11.4293 7.31832 11.6809C6.44801 12.2069 5.83837 12.9416 5.48941 13.8848C5.39098 14.1496 5.22457 14.352 4.95348 14.377C4.48473 14.4199 4.35816 14.1184 4.18629 13.7028C3.84566 12.8804 3.29384 12.2254 2.53082 11.7379C2.30348 11.5926 1.4566 11.2887 1.23707 10.9621C0.976133 10.5746 1.19332 10.1864 1.58238 10.0137ZM6.59254 10.5973C5.91598 10.1796 5.3553 9.64156 4.91051 8.98323C4.90616 8.97686 4.90032 8.97164 4.89351 8.96803C4.8867 8.96442 4.87914 8.96253 4.87149 8.96253C4.86384 8.96253 4.85634 8.96442 4.84965 8.96803C4.84297 8.97164 4.8373 8.97686 4.83316 8.98323C4.39566 9.64364 3.83837 10.1796 3.16129 10.591C3.15547 10.5946 3.15067 10.5996 3.14733 10.6055C3.144 10.6115 3.14224 10.6182 3.14224 10.625C3.14224 10.6318 3.144 10.6386 3.14733 10.6445C3.15067 10.6505 3.15547 10.6554 3.16129 10.659C3.83681 11.072 4.39462 11.6082 4.83473 12.2676C4.83908 12.274 4.84492 12.2792 4.85172 12.2828C4.85853 12.2864 4.8661 12.2883 4.87375 12.2883C4.8814 12.2883 4.8889 12.2864 4.89558 12.2828C4.90227 12.2792 4.90793 12.274 4.91207 12.2676C5.35374 11.6067 5.91389 11.0697 6.59254 10.6567C6.59754 10.6535 6.60166 10.6491 6.60451 10.6439C6.60737 10.6387 6.60886 10.6329 6.60886 10.627C6.60886 10.6211 6.60737 10.6152 6.60451 10.61C6.60166 10.6048 6.59754 10.6005 6.59254 10.5973Z" fill="#597B00"/>
<path d="M9.06203 18.7763C9.11203 18.7805 9.14276 18.7581 9.15422 18.7091C9.55213 16.9414 9.95318 15.1664 10.3573 13.3841C10.4652 12.9091 10.581 12.5659 10.705 12.3545C11.5886 10.8513 13.7308 10.8959 14.6034 12.3818C14.9636 12.9943 14.8933 13.599 14.7191 14.3474C13.9508 17.6417 13.1722 20.9724 12.3831 24.3396C12.382 24.3437 12.3819 24.3479 12.3828 24.352C12.3837 24.3561 12.3855 24.36 12.3882 24.3633C12.3908 24.3666 12.3942 24.3693 12.398 24.3712C12.4019 24.373 12.4062 24.374 12.4105 24.374C13.1454 24.3756 13.8826 24.3756 14.6222 24.374C15.2237 24.3732 15.5839 24.5849 15.4644 25.2279C14.8909 28.3112 14.3139 31.3938 13.7331 34.4756C13.7279 34.5026 13.7375 34.5224 13.762 34.5349C14.6706 34.9912 14.873 35.674 14.8745 36.6427C14.8745 37.0466 14.9105 37.5209 14.8245 37.8834C14.5487 39.0498 13.6894 39.3771 12.6058 39.3763C9.52245 39.3743 6.43911 39.374 3.35578 39.3756C1.90344 39.3771 1.11828 38.6896 1.12687 37.1998C1.12922 36.7818 1.08547 36.281 1.16672 35.9099C1.35578 35.0532 1.90995 34.5438 2.82922 34.3818C2.8589 34.3766 2.87114 34.3594 2.86594 34.3302C2.30187 31.3297 1.73989 28.3331 1.18 25.3404C1.06594 24.7302 1.24406 24.3771 1.88859 24.3756C2.87088 24.374 3.85239 24.374 4.83312 24.3756C4.8439 24.3756 4.85423 24.3712 4.86185 24.3634C4.86947 24.3557 4.87375 24.3451 4.87375 24.3341C4.87531 23.7284 4.87792 23.117 4.88156 22.4998C4.89484 20.1881 6.77765 18.5826 9.06203 18.7763ZM13.587 13.6912C13.8956 12.3709 11.9316 12.0732 11.6722 13.2224C10.4618 18.5943 9.25213 23.9636 8.04328 29.3302C8.04211 29.3356 8.04216 29.3412 8.04343 29.3465C8.04469 29.3519 8.04714 29.3568 8.05058 29.3611C8.05403 29.3654 8.05839 29.3688 8.06335 29.3712C8.0683 29.3736 8.07373 29.3748 8.07922 29.3748H9.87531C9.90708 29.3748 9.92661 29.3591 9.9339 29.3279C11.1615 24.0815 12.3792 18.8693 13.587 13.6912ZM8.755 19.9873C7.28 20.0138 6.13234 21.0349 6.12297 22.5209C6.11932 23.1214 6.12141 23.7269 6.12922 24.3373C6.12974 24.3623 6.1425 24.3748 6.1675 24.3748H7.84328C7.85319 24.3748 7.86284 24.3715 7.87064 24.3652C7.87845 24.359 7.88395 24.3502 7.88625 24.3404L8.84328 20.0959C8.85995 20.0224 8.83052 19.9862 8.755 19.9873ZM5.59015 34.3748C5.60017 34.3748 5.6099 34.3714 5.61772 34.3652C5.62554 34.3589 5.63098 34.3502 5.63312 34.3404L7.58625 25.6779C7.58765 25.6715 7.5876 25.6648 7.58609 25.6585C7.58458 25.6521 7.58166 25.6461 7.57753 25.641C7.5734 25.6359 7.56818 25.6318 7.56225 25.629C7.55633 25.6262 7.54984 25.6247 7.54328 25.6248H2.55656C2.55016 25.6248 2.54384 25.6262 2.53805 25.6289C2.53225 25.6316 2.52713 25.6356 2.52303 25.6405C2.51893 25.6454 2.51596 25.6512 2.51433 25.6574C2.5127 25.6636 2.51245 25.67 2.51359 25.6763L4.13625 34.3388C4.13808 34.3489 4.14338 34.358 4.15123 34.3646C4.15908 34.3711 4.16898 34.3748 4.17922 34.3748H5.59015ZM12.1089 25.6248C12.1015 25.6247 12.0944 25.6272 12.0886 25.6317C12.0827 25.6363 12.0786 25.6426 12.0769 25.6498L10.048 34.3341C10.0468 34.339 10.0467 34.344 10.0478 34.3489C10.0488 34.3538 10.051 34.3584 10.0541 34.3623C10.0572 34.3662 10.0611 34.3694 10.0656 34.3715C10.0701 34.3737 10.075 34.3748 10.08 34.3748H12.4542C12.4618 34.3747 12.4691 34.3721 12.475 34.3672C12.4808 34.3624 12.4848 34.3557 12.4862 34.3482L14.1183 25.6638C14.1192 25.659 14.1191 25.6541 14.1178 25.6494C14.1166 25.6446 14.1143 25.6402 14.1112 25.6365C14.108 25.6327 14.1041 25.6297 14.0997 25.6277C14.0952 25.6257 14.0904 25.6247 14.0855 25.6248H12.1089ZM7.78234 30.6248C7.77345 30.6247 7.7648 30.6277 7.75784 30.6333C7.75088 30.6388 7.74602 30.6466 7.74406 30.6552L7.47765 31.8271C7.47636 31.8328 7.47638 31.8388 7.4777 31.8445C7.47903 31.8502 7.48163 31.8556 7.48531 31.8602C7.48899 31.8648 7.49365 31.8684 7.49895 31.871C7.50426 31.8735 7.51006 31.8748 7.51594 31.8748H9.30734C9.31624 31.8748 9.32488 31.8718 9.33184 31.8663C9.33881 31.8607 9.34367 31.853 9.34562 31.8443L9.62062 30.6724C9.62192 30.6667 9.6219 30.6607 9.62057 30.655C9.61925 30.6493 9.61665 30.6439 9.61297 30.6394C9.60929 30.6348 9.60463 30.6311 9.59933 30.6286C9.59402 30.626 9.58822 30.6247 9.58234 30.6248H7.78234ZM7.22062 33.1248C7.21156 33.1249 7.20279 33.128 7.19571 33.1337C7.18863 33.1393 7.18365 33.1472 7.18156 33.156L6.91515 34.3248C6.91373 34.3308 6.91369 34.337 6.91504 34.343C6.91638 34.349 6.91907 34.3546 6.92291 34.3595C6.92675 34.3643 6.93163 34.3682 6.93719 34.3708C6.94275 34.3735 6.94884 34.3748 6.955 34.3748H8.72219C8.73125 34.3747 8.74002 34.3715 8.7471 34.3659C8.75418 34.3602 8.75916 34.3523 8.76125 34.3435L9.03469 33.1748C9.03611 33.1688 9.03615 33.1625 9.0348 33.1565C9.03346 33.1505 9.03077 33.1449 9.02693 33.1401C9.02309 33.1353 9.01821 33.1314 9.01265 33.1287C9.00709 33.1261 9.001 33.1247 8.99484 33.1248H7.22062ZM13.6253 36.2654C13.6253 36.0955 13.5578 35.9325 13.4377 35.8124C13.3175 35.6923 13.1546 35.6248 12.9847 35.6248H3.01594C2.84603 35.6248 2.68309 35.6923 2.56295 35.8124C2.4428 35.9325 2.37531 36.0955 2.37531 36.2654V37.4841C2.37531 37.6541 2.4428 37.817 2.56295 37.9371C2.68309 38.0573 2.84603 38.1248 3.01594 38.1248H12.9847C13.1546 38.1248 13.3175 38.0573 13.4377 37.9371C13.5578 37.817 13.6253 37.6541 13.6253 37.4841V36.2654Z" fill="#597B00"/>
<path d="M27.9584 30.6239L26.7896 30.6259C26.7672 30.6259 26.7491 30.6442 26.7491 30.6666L26.7511 31.8353C26.7512 31.8578 26.7694 31.8759 26.7918 31.8759L27.9606 31.8739C27.983 31.8738 28.0012 31.8556 28.0011 31.8332L27.9991 30.6644C27.9991 30.642 27.9808 30.6238 27.9584 30.6239Z" fill="#597B00"/>
<path d="M27.9451 33.1239L26.8029 33.1259C26.7732 33.1259 26.7491 33.1501 26.7491 33.1799L26.7511 34.3221C26.7512 34.3518 26.7753 34.3759 26.8051 34.3759L27.9473 34.3739C27.9771 34.3738 28.0012 34.3497 28.0011 34.3199L27.9991 33.1777C27.9991 33.1479 27.9749 33.1238 27.9451 33.1239Z" fill="#597B00"/>
<path d="M27.9451 35.6239L26.8029 35.6259C26.7732 35.6259 26.7491 35.6501 26.7491 35.6799L26.7511 36.8221C26.7512 36.8518 26.7753 36.8759 26.8051 36.8759L27.9473 36.8739C27.9771 36.8738 28.0012 36.8497 28.0011 36.8199L27.9991 35.6777C27.9991 35.6479 27.9749 35.6238 27.9451 35.6239Z" fill="#597B00"/>
</svg>
