<svg width="64" height="64" viewBox="0 0 64 64" fill="none" xmlns="http://www.w3.org/2000/svg">
<g clip-path="url(#clip0_974_10646)">
<path d="M25.5544 1H38.457C42.0123 1.27125 44.7066 3.89898 44.9149 7.44824C45.3969 15.6406 45.8808 23.8334 46.3668 32.0266C46.412 32.7895 46.3874 33.3542 46.293 33.7207C46.0354 34.7234 45.3997 35.391 44.3857 35.7236C44.0725 35.8262 43.6511 35.877 43.1215 35.8762C41.0532 35.8714 38.9813 35.8718 36.9058 35.8774C36.8646 35.8774 36.844 35.898 36.844 35.9392V39.6277C36.844 39.6601 36.857 39.6912 36.8802 39.7142C36.9034 39.7371 36.9348 39.75 36.9675 39.75C40.7618 39.7492 44.5391 39.7496 48.2995 39.7512C49.1702 39.7512 49.4366 40.1859 49.4366 41.0336C49.4366 41.5107 49.4374 41.9749 49.439 42.4262C49.439 42.5093 49.4781 42.5368 49.5564 42.5085C50.9918 41.9814 51.8814 41.0376 52.2253 39.6773C52.4276 38.883 52.3416 37.8089 52.344 36.9055C52.3442 36.8968 52.3426 36.8881 52.3393 36.88C52.336 36.8719 52.331 36.8646 52.3248 36.8585C52.3186 36.8523 52.3112 36.8475 52.303 36.8444C52.2949 36.8412 52.2861 36.8398 52.2774 36.8401C51.6465 36.8595 50.9793 36.8801 50.4089 36.6706C49.5379 36.3501 48.9502 35.7624 48.6458 34.9075C48.5304 34.5829 48.471 34.1321 48.4678 33.5548C48.463 32.7254 48.3758 31.7324 48.6579 30.9913C48.9881 30.1218 49.5916 29.5414 50.4683 29.25C50.7847 29.1442 51.234 29.0921 51.8161 29.0938C52.7525 29.0962 53.6902 29.0954 54.6291 29.0913C55.3136 29.0889 55.8238 29.1426 56.1597 29.2524C57.0138 29.5301 57.6096 30.0936 57.947 30.9429C58.2667 31.7445 58.1723 32.8804 58.1517 33.7752C58.1166 35.341 57.304 36.4865 55.7128 36.8014C55.3084 36.8813 54.7962 36.8353 54.3469 36.8462C54.3065 36.847 54.2864 36.8676 54.2864 36.9079C54.2831 37.5828 54.2722 38.2577 54.2537 38.9326C54.175 41.8679 52.0425 44.1808 49.1144 44.5489C49.0741 44.5538 49.045 44.5744 49.0273 44.6107C48.3281 46.055 47.2553 46.9619 45.8086 47.3317C45.3509 47.4495 44.596 47.5069 43.5441 47.5036C40.6879 47.4948 37.8289 47.4948 34.9671 47.5036C34.9267 47.5036 34.9065 47.5242 34.9065 47.5654V51.5252C34.9065 51.5687 34.9279 51.5934 34.9707 51.599C37.9532 52.0325 40.7868 53.1236 42.9532 55.2488C42.9815 55.2762 43.0154 55.2883 43.0549 55.2851C44.3054 55.164 45.3452 55.4728 46.1743 56.2115C48.7814 58.5329 47.3126 62.6573 43.8953 63H43.3407C39.9271 62.6416 38.486 58.5704 41.0799 56.2357C41.1154 56.2042 41.115 56.1735 41.0787 56.1437C39.3894 54.7051 37.1322 53.895 34.9731 53.5595C34.9287 53.5531 34.9065 53.572 34.9065 53.6164V56.49C34.9065 56.5344 34.9198 56.5744 34.9465 56.6099C35.9806 57.992 36.1606 59.3809 35.4866 60.7767C34.8557 62.0833 33.7053 62.8535 32.2715 63H31.7133C30.2698 62.845 29.1098 62.0543 28.4898 60.7295C27.8431 59.3458 28.0316 57.9718 29.0553 56.6075C29.0811 56.5727 29.094 56.5336 29.094 56.49V53.6189C29.094 53.5793 29.0746 53.5624 29.0359 53.568C26.9155 53.872 24.5457 54.6869 22.9243 56.1388C22.892 56.1679 22.8916 56.197 22.9231 56.226C25.4842 58.6503 24.1074 62.5992 20.6477 63H20.0871C18.7962 62.8321 17.8266 62.2654 17.1784 61.2998C15.2966 58.4989 17.5937 54.8116 20.9468 55.3081C20.9872 55.3138 21.0215 55.3021 21.0498 55.273C23.135 53.1284 26.1321 51.9998 29.0468 51.6075C29.06 51.6055 29.0721 51.5988 29.0807 51.5888C29.0894 51.5788 29.0941 51.5661 29.094 51.553V47.5932C29.094 47.5685 29.0843 47.5448 29.0671 47.5273C29.0498 47.5098 29.0264 47.5 29.002 47.5C25.9997 47.5 22.9901 47.5 19.9732 47.5C19.1974 47.5 18.602 47.4447 18.1871 47.3341C16.7348 46.949 15.6635 46.0416 14.9733 44.6119C14.9555 44.5748 14.926 44.5538 14.8849 44.5489C13.2445 44.3399 11.9431 43.6206 10.9808 42.3911C9.64757 40.6861 9.68874 39.1239 9.72628 36.9055C9.72645 36.896 9.72468 36.8865 9.72107 36.8777C9.71747 36.8689 9.7121 36.8609 9.7053 36.8542C9.69851 36.8475 9.69042 36.8423 9.68153 36.8388C9.67265 36.8353 9.66315 36.8337 9.65363 36.8341C8.85441 36.8631 8.35146 36.8486 8.1448 36.7905C7.03719 36.4813 6.32234 35.8334 6.00023 34.8469C5.89205 34.5159 5.83998 34.0065 5.84402 33.3187C5.84644 32.6188 5.77499 31.8172 5.96753 31.1911C6.26865 30.2118 6.89672 29.5636 7.85175 29.2463C8.16014 29.1438 8.58639 29.0933 9.1305 29.095C10.0581 29.0974 10.9853 29.0958 11.912 29.0901C12.6281 29.0853 13.1593 29.1369 13.5056 29.2451C14.4477 29.5414 15.0746 30.1699 15.3862 31.1305C15.609 31.8184 15.5255 32.7096 15.5339 33.4919C15.5509 35.0976 14.9224 36.3243 13.2889 36.759C12.8154 36.8849 12.2402 36.8401 11.7195 36.845C11.6767 36.845 11.6557 36.8664 11.6565 36.9091C11.6577 37.8367 11.5693 38.9338 11.7921 39.7548C12.1611 41.1167 13.058 42.0322 14.4828 42.5013C14.5305 42.5174 14.5551 42.5 14.5567 42.4492C14.568 41.9737 14.5716 41.503 14.5676 41.0372C14.5603 40.1835 14.8292 39.7512 15.7023 39.7512C19.4715 39.7496 23.2593 39.7496 27.0657 39.7512C27.1271 39.7512 27.1577 39.7205 27.1577 39.6592V35.967C27.1577 35.9426 27.148 35.9192 27.1308 35.902C27.1135 35.8847 27.0901 35.875 27.0657 35.875C24.995 35.8742 22.938 35.8742 20.8948 35.875C20.3418 35.8758 19.907 35.8233 19.5906 35.7176C18.0902 35.215 17.5235 33.9726 17.6131 32.4614C18.1031 24.1132 18.596 15.7654 19.0917 7.41797C19.3024 3.87598 22.0137 1.27004 25.5544 1ZM25.7942 2.95203C23.7247 2.95809 21.8744 4.34098 21.2617 6.26879C21.122 6.70957 21.0183 7.50717 20.9505 8.6616C20.4855 16.5965 20.0188 24.5317 19.5506 32.4674C19.5248 32.909 19.5486 33.2194 19.6221 33.3986C19.769 33.7587 20.0705 33.9383 20.5266 33.9375C28.1144 33.9375 35.7025 33.9375 43.291 33.9375C44.1992 33.9375 44.5105 33.5149 44.4572 32.6067C43.9873 24.6339 43.5187 16.6607 43.0513 8.68703C42.9843 7.5318 42.8809 6.73379 42.7413 6.29301C42.137 4.3773 40.2807 2.93871 38.2366 2.93871C34.0887 2.9371 29.9413 2.94154 25.7942 2.95203ZM13.594 32.0109C13.594 31.7511 13.4908 31.5019 13.3071 31.3182C13.1234 31.1345 12.8742 31.0312 12.6144 31.0312H8.76116C8.50135 31.0312 8.25217 31.1345 8.06845 31.3182C7.88473 31.5019 7.78152 31.7511 7.78152 32.0109V33.9266C7.78152 34.1864 7.88473 34.4356 8.06845 34.6193C8.25217 34.803 8.50135 34.9062 8.76116 34.9062H12.6144C12.8742 34.9062 13.1234 34.803 13.3071 34.6193C13.4908 34.4356 13.594 34.1864 13.594 33.9266V32.0109ZM56.219 32.0109C56.219 31.7511 56.1158 31.5019 55.9321 31.3182C55.7484 31.1345 55.4992 31.0312 55.2394 31.0312H51.3862C51.1263 31.0312 50.8772 31.1345 50.6935 31.3182C50.5097 31.5019 50.4065 31.7511 50.4065 32.0109V33.9266C50.4065 34.1864 50.5097 34.4356 50.6935 34.6193C50.8772 34.803 51.1263 34.9062 51.3862 34.9062H55.2394C55.4992 34.9062 55.7484 34.803 55.9321 34.6193C56.1158 34.4356 56.219 34.1864 56.219 33.9266V32.0109ZM34.9065 35.9804C34.9065 35.9524 34.8954 35.9256 34.8757 35.9059C34.8559 35.8861 34.8291 35.875 34.8012 35.875H29.1994C29.1714 35.875 29.1446 35.8861 29.1249 35.9059C29.1051 35.9256 29.094 35.9524 29.094 35.9804V39.6446C29.094 39.6726 29.1051 39.6994 29.1249 39.7191C29.1446 39.7389 29.1714 39.75 29.1994 39.75H34.8012C34.8291 39.75 34.8559 39.7389 34.8757 39.7191C34.8954 39.6994 34.9065 39.6726 34.9065 39.6446V35.9804ZM47.4373 41.6875H16.5657C16.5542 41.6875 16.5429 41.6898 16.5323 41.6941C16.5217 41.6985 16.5121 41.7049 16.504 41.713C16.4959 41.7211 16.4895 41.7307 16.4851 41.7413C16.4807 41.7519 16.4785 41.7632 16.4785 41.7747V42.5352C16.4785 43.3413 16.8029 44.1144 17.3804 44.6844C17.9579 45.2544 18.7412 45.5746 19.5579 45.5746H44.4451C45.2618 45.5746 46.045 45.2544 46.6225 44.6844C47.2001 44.1144 47.5245 43.3413 47.5245 42.5352V41.7747C47.5245 41.7632 47.5222 41.7519 47.5178 41.7413C47.5135 41.7307 47.507 41.7211 47.4989 41.713C47.4909 41.7049 47.4812 41.6985 47.4707 41.6941C47.4601 41.6898 47.4487 41.6875 47.4373 41.6875ZM32.9121 55.382C32.9188 55.3839 32.9258 55.3842 32.9327 55.3829C32.9395 55.3815 32.9459 55.3787 32.9515 55.3744C32.957 55.3702 32.9614 55.3647 32.9645 55.3585C32.9675 55.3522 32.9691 55.3454 32.969 55.3384V47.6211C32.969 47.589 32.9563 47.5582 32.9335 47.5355C32.9108 47.5128 32.88 47.5 32.8479 47.5H31.0921C31.0517 47.5 31.0315 47.5202 31.0315 47.5605V55.3348C31.0315 55.3767 31.0517 55.3921 31.0921 55.3808C31.6991 55.208 32.3058 55.2084 32.9121 55.382ZM22.3103 59.125C22.3103 58.6118 22.1065 58.1196 21.7436 57.7567C21.3807 57.3938 20.8885 57.1899 20.3753 57.1899C19.8621 57.1899 19.3699 57.3938 19.007 57.7567C18.6441 58.1196 18.4402 58.6118 18.4402 59.125C18.4402 59.3791 18.4902 59.6307 18.5875 59.8655C18.6847 60.1003 18.8273 60.3136 19.007 60.4933C19.1866 60.673 19.4 60.8155 19.6347 60.9128C19.8695 61.01 20.1211 61.0601 20.3753 61.0601C20.6294 61.0601 20.881 61.01 21.1158 60.9128C21.3506 60.8155 21.5639 60.673 21.7436 60.4933C21.9233 60.3136 22.0658 60.1003 22.163 59.8655C22.2603 59.6307 22.3103 59.3791 22.3103 59.125ZM33.9353 59.1238C33.9353 58.6106 33.7315 58.1184 33.3686 57.7555C33.0057 57.3926 32.5135 57.1887 32.0003 57.1887C31.4871 57.1887 30.9949 57.3926 30.632 57.7555C30.2691 58.1184 30.0652 58.6106 30.0652 59.1238C30.0652 59.637 30.2691 60.1292 30.632 60.4921C30.9949 60.855 31.4871 61.0589 32.0003 61.0589C32.5135 61.0589 33.0057 60.855 33.3686 60.4921C33.7315 60.1292 33.9353 59.637 33.9353 59.1238ZM45.5603 59.1238C45.5603 58.6106 45.3565 58.1184 44.9936 57.7555C44.6307 57.3926 44.1385 57.1887 43.6253 57.1887C43.1121 57.1887 42.6199 57.3926 42.257 57.7555C41.8941 58.1184 41.6902 58.6106 41.6902 59.1238C41.6902 59.637 41.8941 60.1292 42.257 60.4921C42.6199 60.855 43.1121 61.0589 43.6253 61.0589C44.1385 61.0589 44.6307 60.855 44.9936 60.4921C45.3565 60.1292 45.5603 59.637 45.5603 59.1238Z" fill="#597B00"/>
</g>
<defs>
<clipPath id="clip0_974_10646">
<rect width="64" height="64" fill="white"/>
</clipPath>
</defs>
</svg>
