<svg width="64" height="64" viewBox="0 0 64 64" fill="none" xmlns="http://www.w3.org/2000/svg">
<g clip-path="url(#clip0_974_10521)">
<path d="M21.1273 21.9078V16.4198H15.7513V13.5078H21.1273V8.18777H24.1233V13.5078H29.4713V16.4198H24.1233V21.9078H21.1273ZM33.8283 22.9998V19.4158H38.3083V6.89977H40.3523L34.3043 10.4278V6.33977L39.5683 3.25977H42.6763V19.4158H46.8763V22.9998H33.8283ZM1.44141 58.9998V38.3918H5.66941V47.4638H5.24941C5.69741 46.5118 6.36007 45.7838 7.23741 45.2798C8.11475 44.7758 9.12275 44.5238 10.2614 44.5238C11.9227 44.5238 13.1641 45.0092 13.9854 45.9798C14.8067 46.9318 15.2174 48.3972 15.2174 50.3758V58.9998H10.9894V50.5718C10.9894 49.5824 10.8027 48.8732 10.4294 48.4438C10.0747 48.0144 9.51475 47.7998 8.74941 47.7998C7.81607 47.7998 7.06941 48.0892 6.50941 48.6678C5.94941 49.2464 5.66941 50.0212 5.66941 50.9918V58.9998H1.44141ZM25.3333 59.3078C23.8213 59.3078 22.5053 59.0092 21.3853 58.4118C20.2839 57.7958 19.4253 56.9372 18.8093 55.8358C18.2119 54.7344 17.9133 53.4184 17.9133 51.8878C17.9133 50.3758 18.2119 49.0692 18.8093 47.9678C19.4253 46.8664 20.2839 46.0172 21.3853 45.4198C22.5053 44.8224 23.8213 44.5238 25.3333 44.5238C26.8453 44.5238 28.1613 44.8224 29.2813 45.4198C30.4013 46.0172 31.2599 46.8664 31.8573 47.9678C32.4733 49.0692 32.7813 50.3758 32.7813 51.8878C32.7813 53.4184 32.4733 54.7344 31.8573 55.8358C31.2599 56.9372 30.4013 57.7958 29.2813 58.4118C28.1613 59.0092 26.8453 59.3078 25.3333 59.3078ZM25.3333 56.1158C26.3039 56.1158 27.0693 55.7704 27.6293 55.0798C28.2079 54.3892 28.4973 53.3252 28.4973 51.8878C28.4973 50.4504 28.2079 49.3958 27.6293 48.7238C27.0693 48.0518 26.3039 47.7158 25.3333 47.7158C24.3625 47.7158 23.5879 48.0518 23.0093 48.7238C22.4493 49.3958 22.1693 50.4504 22.1693 51.8878C22.1693 53.3252 22.4493 54.3892 23.0093 55.0798C23.5879 55.7704 24.3625 56.1158 25.3333 56.1158ZM40.6637 59.3078C38.8903 59.3078 37.5743 58.8224 36.7157 57.8518C35.8571 56.8624 35.4277 55.3692 35.4277 53.3718V44.8038H39.6557V53.3718C39.6557 54.2678 39.8331 54.9304 40.1877 55.3598C40.5611 55.7892 41.1303 56.0038 41.8957 56.0038C42.7357 56.0038 43.4263 55.7144 43.9677 55.1358C44.5277 54.5384 44.8077 53.7452 44.8077 52.7558V44.8038H49.0357V58.9998H44.9197V56.2838H45.3117C44.8823 57.2358 44.2663 57.9824 43.4637 58.5238C42.6797 59.0464 41.7463 59.3078 40.6637 59.3078ZM52.4915 58.9998V48.5558C52.4915 47.9398 52.4729 47.3144 52.4355 46.6798C52.4169 46.0452 52.3701 45.4198 52.2955 44.8038H56.3555L56.8315 48.9478H56.1875C56.3741 47.9398 56.6729 47.1092 57.0835 46.4558C57.5129 45.8024 58.0355 45.3172 58.6515 44.9998C59.2861 44.6824 60.0049 44.5238 60.8075 44.5238C61.1621 44.5238 61.4421 44.5424 61.6475 44.5798C61.8529 44.5984 62.0581 44.6452 62.2635 44.7198L62.2355 48.4438C61.8435 48.2758 61.5075 48.1732 61.2275 48.1358C60.9661 48.0798 60.6301 48.0518 60.2195 48.0518C59.4355 48.0518 58.7821 48.2012 58.2595 48.4998C57.7555 48.7984 57.3729 49.2372 57.1115 49.8158C56.8689 50.3944 56.7475 51.0944 56.7475 51.9158V58.9998H52.4915Z" fill="#597B00"/>
</g>
<defs>
<clipPath id="clip0_974_10521">
<rect width="64" height="64" fill="white"/>
</clipPath>
</defs>
</svg>
