<svg width="64" height="64" viewBox="0 0 64 64" fill="none" xmlns="http://www.w3.org/2000/svg">
<g clip-path="url(#clip0_974_10468)">
<path d="M62 58.4675C62 59.4044 61.6278 60.3029 60.9654 60.9654C60.3029 61.6278 59.4044 62 58.4675 62H5.5325C4.59562 62 3.69712 61.6278 3.03465 60.9654C2.37217 60.3029 2 59.4044 2 58.4675V5.5325C2 4.59562 2.37217 3.69712 3.03465 3.03465C3.69712 2.37217 4.59562 2 5.5325 2H58.4675C59.4044 2 60.3029 2.37217 60.9654 3.03465C61.6278 3.69712 62 4.59562 62 5.5325V58.4675ZM59.9975 5.785C59.9963 4.805 59.5187 3.99625 58.4375 3.99625C40.915 3.99875 23.3925 4 5.87 4C4.3575 4 3.99875 4.67875 4 6.14C4 8.74667 4 11.3454 4 13.9362C4 13.9532 4.00672 13.9694 4.01867 13.9813C4.03063 13.9933 4.04684 14 4.06375 14H59.9362C59.9528 14 59.9687 13.9934 59.9804 13.9817C59.9922 13.97 59.9987 13.9541 59.9987 13.9375C60.0012 11.22 60.0008 8.5025 59.9975 5.785ZM4.00125 58.2175C4.00125 59.2 4.4825 60.0013 5.5625 60.0013C23.0825 60.0004 40.6029 60 58.1237 60C59.6675 60 60 59.3 60 57.8213C60 43.8929 60 29.9737 60 16.0637C60 16.0468 59.9933 16.0306 59.9813 16.0187C59.9694 16.0067 59.9532 16 59.9362 16H4.06375C4.04684 16 4.03063 16.0067 4.01867 16.0187C4.00672 16.0306 4 16.0468 4 16.0637C3.99917 30.1138 3.99958 44.165 4.00125 58.2175Z" fill="#597B00"/>
<path d="M24.9892 8.99656C24.9892 9.78923 24.6743 10.5494 24.1138 11.1099C23.5533 11.6704 22.7931 11.9853 22.0005 11.9853C21.2078 11.9853 20.4476 11.6704 19.8871 11.1099C19.3266 10.5494 19.0117 9.78923 19.0117 8.99656C19.0117 8.60407 19.089 8.21543 19.2392 7.85282C19.3894 7.49021 19.6096 7.16073 19.8871 6.8832C20.4476 6.3227 21.2078 6.00781 22.0005 6.00781C22.393 6.00781 22.7816 6.08512 23.1442 6.23532C23.5068 6.38552 23.8363 6.60567 24.1138 6.8832C24.3914 7.16073 24.6115 7.49021 24.7617 7.85282C24.9119 8.21543 24.9892 8.60407 24.9892 8.99656ZM22.9905 8.99906C22.9905 8.73617 22.886 8.48404 22.7001 8.29814C22.5142 8.11225 22.2621 8.00781 21.9992 8.00781C21.7363 8.00781 21.4842 8.11225 21.2983 8.29814C21.1124 8.48404 21.008 8.73617 21.008 8.99906C21.008 9.26196 21.1124 9.51409 21.2983 9.69998C21.4842 9.88588 21.7363 9.99031 21.9992 9.99031C22.2621 9.99031 22.5142 9.88588 22.7001 9.69998C22.886 9.51409 22.9905 9.26196 22.9905 8.99906Z" fill="#597B00"/>
<path d="M34.9892 8.99656C34.9892 9.78923 34.6743 10.5494 34.1138 11.1099C33.5533 11.6704 32.7931 11.9853 32.0005 11.9853C31.2078 11.9853 30.4476 11.6704 29.8871 11.1099C29.3266 10.5494 29.0117 9.78923 29.0117 8.99656C29.0117 8.60407 29.089 8.21543 29.2392 7.85282C29.3894 7.49021 29.6096 7.16073 29.8871 6.8832C30.4476 6.3227 31.2078 6.00781 32.0005 6.00781C32.393 6.00781 32.7816 6.08512 33.1442 6.23532C33.5068 6.38552 33.8363 6.60567 34.1138 6.8832C34.3914 7.16073 34.6115 7.49021 34.7617 7.85282C34.9119 8.21543 34.9892 8.60407 34.9892 8.99656ZM32.9905 8.99906C32.9905 8.86889 32.9648 8.73999 32.915 8.61973C32.8652 8.49946 32.7922 8.39019 32.7001 8.29814C32.6081 8.2061 32.4988 8.13308 32.3786 8.08327C32.2583 8.03345 32.1294 8.00781 31.9992 8.00781C31.7363 8.00781 31.4842 8.11225 31.2983 8.29814C31.1124 8.48404 31.008 8.73617 31.008 8.99906C31.008 9.26196 31.1124 9.51409 31.2983 9.69998C31.4842 9.88588 31.7363 9.99031 31.9992 9.99031C32.1294 9.99031 32.2583 9.96467 32.3786 9.91486C32.4988 9.86504 32.6081 9.79203 32.7001 9.69998C32.7922 9.60794 32.8652 9.49866 32.915 9.3784C32.9648 9.25813 32.9905 9.12924 32.9905 8.99906Z" fill="#597B00"/>
<path d="M44.9892 8.99656C44.9892 9.78923 44.6743 10.5494 44.1138 11.1099C43.5533 11.6704 42.7931 11.9853 42.0005 11.9853C41.2078 11.9853 40.4476 11.6704 39.8871 11.1099C39.3266 10.5494 39.0117 9.78923 39.0117 8.99656C39.0117 8.60407 39.089 8.21543 39.2392 7.85282C39.3894 7.49021 39.6096 7.16073 39.8871 6.8832C40.4476 6.3227 41.2078 6.00781 42.0005 6.00781C42.393 6.00781 42.7816 6.08512 43.1442 6.23532C43.5068 6.38552 43.8363 6.60567 44.1138 6.8832C44.3914 7.16073 44.6115 7.49021 44.7617 7.85282C44.9119 8.21543 44.9892 8.60407 44.9892 8.99656ZM42.9905 8.99906C42.9905 8.86889 42.9648 8.73999 42.915 8.61973C42.8652 8.49946 42.7922 8.39019 42.7001 8.29814C42.6081 8.2061 42.4988 8.13308 42.3786 8.08327C42.2583 8.03345 42.1294 8.00781 41.9992 8.00781C41.7363 8.00781 41.4842 8.11225 41.2983 8.29814C41.1124 8.48404 41.008 8.73617 41.008 8.99906C41.008 9.26196 41.1124 9.51409 41.2983 9.69998C41.4842 9.88588 41.7363 9.99031 41.9992 9.99031C42.1294 9.99031 42.2583 9.96467 42.3786 9.91486C42.4988 9.86504 42.6081 9.79203 42.7001 9.69998C42.7922 9.60794 42.8652 9.49866 42.915 9.3784C42.9648 9.25813 42.9905 9.12924 42.9905 8.99906Z" fill="#597B00"/>
<path d="M55 54.9762C55 55.2478 54.8921 55.5082 54.7001 55.7001C54.5082 55.8921 54.2478 56 53.9762 56H10.0238C9.75223 56 9.49184 55.8921 9.29985 55.7001C9.10786 55.5082 9 55.2478 9 54.9762V19.0238C9 18.7522 9.10786 18.4918 9.29985 18.2998C9.49184 18.1079 9.75223 18 10.0238 18H53.9762C54.2478 18 54.5082 18.1079 54.7001 18.2998C54.8921 18.4918 55 18.7522 55 19.0238V54.9762ZM15.0975 23.8587C13.4787 23.3737 12.6963 21.655 13.1488 20.0737C13.1513 20.0652 13.1518 20.0562 13.1502 20.0474C13.1486 20.0386 13.145 20.0303 13.1397 20.0231C13.1344 20.016 13.1274 20.0102 13.1194 20.0061C13.1115 20.0021 13.1027 20 13.0938 20H11.0625C11.0459 20 11.03 20.0066 11.0183 20.0183C11.0066 20.03 11 20.0459 11 20.0625V49.9375C11 49.9541 11.0066 49.97 11.0183 49.9817C11.03 49.9934 11.0459 50 11.0625 50H17.9225C17.9742 50 18 49.9737 18 49.9212V45.905C18 45.8542 17.9767 45.8188 17.93 45.7988C14.7075 44.4563 15.795 39.905 19.2512 39.9912C19.6437 40.0012 20.0433 40.0037 20.45 39.9987C20.4925 39.9979 20.5258 39.9804 20.55 39.9463C22.0575 37.8404 24.0446 36.5717 26.5112 36.14C27.0604 36.0442 27.89 35.9967 29 35.9975C31.0392 36 33.0792 36.0013 35.12 36.0013C36.2192 36.0013 37.0487 36.0529 37.6087 36.1562C40.0279 36.6054 41.9733 37.8688 43.445 39.9463C43.4683 39.9804 43.5004 39.9975 43.5412 39.9975C44.2675 40.0063 45.1062 39.9313 45.7487 40.1113C48.6087 40.9125 48.7437 44.62 46.065 45.8063C46.0457 45.8147 46.0293 45.8287 46.0178 45.8464C46.0062 45.8642 46.0001 45.885 46 45.9062V49.9375C46 49.9541 46.0066 49.97 46.0183 49.9817C46.03 49.9934 46.0459 50 46.0625 50H52.9375C52.9541 50 52.97 49.9934 52.9817 49.9817C52.9934 49.97 53 49.9541 53 49.9375V20.0625C53 20.0208 52.9792 20 52.9375 20H50.9075C50.8976 20 50.8879 20.0022 50.8791 20.0067C50.8703 20.0111 50.8626 20.0176 50.8566 20.0256C50.8507 20.0336 50.8467 20.0429 50.8449 20.0528C50.8431 20.0626 50.8435 20.0728 50.8462 20.0825C51.3075 21.6288 50.5337 23.2975 49.0312 23.8062C48.6529 23.9337 48.0008 23.9979 47.075 23.9988C36.9025 24.0038 26.7296 24.0017 16.5562 23.9925C15.8812 23.9925 15.395 23.9479 15.0975 23.8587ZM48.9925 20.9925C48.9925 20.7296 48.8881 20.4775 48.7022 20.2916C48.5163 20.1057 48.2641 20.0012 48.0013 20.0012H15.9987C15.7359 20.0012 15.4837 20.1057 15.2978 20.2916C15.1119 20.4775 15.0075 20.7296 15.0075 20.9925V21.0075C15.0075 21.2704 15.1119 21.5225 15.2978 21.7084C15.4837 21.8943 15.7359 21.9988 15.9987 21.9988H48.0013C48.2641 21.9988 48.5163 21.8943 48.7022 21.7084C48.8881 21.5225 48.9925 21.2704 48.9925 21.0075V20.9925ZM40.8162 39.905C39.4321 38.6717 37.8267 38.0471 36 38.0312C33.6692 38.0112 31.3383 38.0017 29.0075 38.0025C27.8558 38.0033 27.0267 38.0592 26.52 38.17C25.2742 38.4425 24.1642 39.0275 23.19 39.925C23.1838 39.931 23.1796 39.9388 23.1778 39.9472C23.176 39.9557 23.1768 39.9645 23.18 39.9725C23.1832 39.9805 23.1887 39.9874 23.1958 39.9923C23.203 39.9972 23.2114 39.9999 23.22 40H40.78C40.7909 39.9997 40.8014 39.9962 40.8103 39.9899C40.8192 39.9836 40.826 39.9748 40.8299 39.9646C40.8338 39.9545 40.8346 39.9434 40.8321 39.9327C40.8297 39.9221 40.8242 39.9125 40.8162 39.905ZM45.9875 42.9912C45.9875 42.7284 45.8831 42.4762 45.6972 42.2903C45.5113 42.1044 45.2591 42 44.9963 42H19.0037C18.7409 42 18.4887 42.1044 18.3028 42.2903C18.1169 42.4762 18.0125 42.7284 18.0125 42.9912V43.0112C18.0125 43.2741 18.1169 43.5263 18.3028 43.7122C18.4887 43.8981 18.7409 44.0025 19.0037 44.0025H44.9963C45.2591 44.0025 45.5113 43.8981 45.6972 43.7122C45.8831 43.5263 45.9875 43.2741 45.9875 43.0112V42.9912ZM44 46.075C44 46.0652 43.9981 46.0554 43.9943 46.0463C43.9905 46.0372 43.985 46.0289 43.978 46.022C43.9711 46.015 43.9628 46.0095 43.9537 46.0057C43.9446 46.0019 43.9348 46 43.925 46H20.075C20.0551 46 20.036 46.0079 20.022 46.022C20.0079 46.036 20 46.0551 20 46.075V49.925C20 49.9348 20.0019 49.9446 20.0057 49.9537C20.0095 49.9628 20.015 49.9711 20.022 49.978C20.0289 49.985 20.0372 49.9905 20.0463 49.9943C20.0554 49.9981 20.0652 50 20.075 50H43.925C43.9348 50 43.9446 49.9981 43.9537 49.9943C43.9628 49.9905 43.9711 49.985 43.978 49.978C43.985 49.9711 43.9905 49.9628 43.9943 49.9537C43.9981 49.9446 44 49.9348 44 49.925V46.075ZM52.9987 52.0687C52.9987 52.0505 52.9915 52.033 52.9786 52.0201C52.9657 52.0072 52.9482 52 52.93 52H11.07C11.0518 52 11.0343 52.0072 11.0214 52.0201C11.0085 52.033 11.0013 52.0505 11.0013 52.0687V53.9338C11.0013 53.952 11.0085 53.9695 11.0214 53.9824C11.0343 53.9953 11.0518 54.0025 11.07 54.0025H52.93C52.9482 54.0025 52.9657 53.9953 52.9786 53.9824C52.9915 53.9695 52.9987 53.952 52.9987 53.9338V52.0687Z" fill="#597B00"/>
<path d="M26.2377 26.0338C26.8802 25.2713 28.0389 25.7838 27.9914 26.8063C27.9581 27.5255 27.7131 28.2284 27.2564 28.9151C26.4952 30.0588 27.4927 30.8338 27.8127 31.8163C27.9518 32.243 28.0148 32.6376 28.0014 33.0001C27.9664 33.9626 26.7027 34.3926 26.1714 33.5363C26.1064 33.4305 26.0477 33.208 25.9952 32.8688C25.8877 32.1751 25.4564 31.7251 25.2539 31.1838C24.9239 30.3013 24.9206 29.4126 25.2439 28.5176C25.4477 27.9526 25.8689 27.5463 25.9602 26.9363C26.0102 26.6038 26.0139 26.2988 26.2377 26.0338Z" fill="#597B00"/>
<path d="M32.0652 33.8608C31.284 33.4908 31.654 32.8396 31.3127 32.2458C30.629 31.0533 30.2227 30.0046 30.7102 28.6096C30.8627 28.1708 31.1565 27.7108 31.4015 27.2758C31.5215 27.0633 31.474 26.5683 31.5802 26.3046C32.0177 25.2208 33.5515 25.6196 33.4902 26.8171C33.4544 27.5246 33.2094 28.2242 32.7552 28.9158C32.364 29.5121 32.4427 30.2321 32.8315 30.8308C33.259 31.4883 33.8202 32.8883 33.2715 33.5858C32.9481 33.9975 32.5461 34.0892 32.0652 33.8608Z" fill="#597B00"/>
<path d="M39.0013 32.9684C38.9576 34.0059 37.6476 34.4121 37.1238 33.4684C36.9301 33.1184 37.0588 32.6809 36.8526 32.3134C36.1388 31.0409 35.7151 30.0559 36.2113 28.6096C36.3613 28.1721 36.6563 27.7096 36.9013 27.2759C37.0213 27.0646 36.9738 26.5684 37.0801 26.3046C37.5176 25.2209 39.0488 25.6196 38.9913 26.8159C38.9555 27.5326 38.7105 28.2326 38.2563 28.9159C37.4963 30.0571 38.4913 30.8359 38.8138 31.8171C38.953 32.2421 39.0155 32.6259 39.0013 32.9684Z" fill="#597B00"/>
</g>
<defs>
<clipPath id="clip0_974_10468">
<rect width="64" height="64" fill="white"/>
</clipPath>
</defs>
</svg>
