<svg width="64" height="64" viewBox="0 0 64 64" fill="none" xmlns="http://www.w3.org/2000/svg">
<g clip-path="url(#clip0_974_10578)">
<path d="M64 15.5591V48.2391C63.2233 51.4957 61.465 53.6941 58.725 54.8341C57.6383 55.2874 56.0383 55.5124 53.925 55.5091C39.305 55.4924 24.6867 55.4924 10.07 55.5091C7.96333 55.5124 6.36667 55.2874 5.28 54.8341C2.50667 53.6874 0.746667 51.4691 0 48.1791V15.5091C0.933333 12.4924 3.05667 10.8207 6.37 10.4941C13.4533 9.79406 20.5367 9.1074 27.62 8.43406C29.16 8.2874 30.5433 8.9474 31.77 10.4141C31.8833 10.5541 32 10.5574 32.12 10.4241C33.4633 8.94406 35.215 8.3074 37.375 8.51406C43.755 9.13406 50.1367 9.75573 56.52 10.3791C60.505 10.7691 62.895 11.6691 64 15.5591ZM13.03 22.0391C14.65 21.3641 16.57 21.6241 18.13 21.1941C21.72 20.2074 25.185 18.8957 28.525 17.2591C32.6 15.2641 31.415 10.0841 26.875 10.5241C20.045 11.1807 13.2167 11.8491 6.39 12.5291C3.065 12.8591 1.995 14.5291 1.99 17.8641C1.98333 27.1107 1.985 36.3607 1.995 45.6141C2 50.0241 3.66 52.8341 8.255 53.5741C8.29919 53.582 8.34476 53.5763 8.38559 53.5576C8.42642 53.5389 8.46056 53.5082 8.48342 53.4696C8.50628 53.4309 8.51676 53.3862 8.51347 53.3414C8.51018 53.2966 8.49327 53.2539 8.465 53.2191C7.45 51.9291 7.285 50.6041 7.395 48.8541C7.82167 41.9307 8.29333 35.0107 8.81 28.0941C9.03 25.1374 10.4367 23.1191 13.03 22.0391ZM56.64 49.4441C56.72 50.8141 56.4 51.8691 55.715 53.0191C55.415 53.5157 55.5483 53.6974 56.115 53.5641C60.665 52.4841 62.01 49.8391 62.01 45.3291C62.0133 36.1157 62.015 26.8991 62.015 17.6791C62.015 14.1941 60.72 12.8391 57.155 12.4841C50.395 11.8107 43.6333 11.1674 36.87 10.5541C32.685 10.1741 31.525 15.3141 35.135 17.0991C38.83 18.9241 43.275 20.8141 47.365 21.4241C49.4383 21.7307 50.5167 21.8991 50.6 21.9291C54.275 23.1741 55.165 25.9091 55.415 29.7591C55.835 36.3224 56.2433 42.8841 56.64 49.4441ZM39.425 21.1741C36.84 20.1991 33.885 19.1591 32.215 17.3491C32.1183 17.2457 32.0183 17.2441 31.915 17.3441C30.2 18.9941 27.11 20.3091 24.81 21.0541C23.8933 21.3507 23.9167 21.4991 24.88 21.4991H39.365C39.985 21.4991 40.005 21.3907 39.425 21.1741ZM15.215 23.4941C13.54 23.4941 11.87 24.7841 11.155 26.1941C10.8517 26.7907 10.6533 27.7874 10.56 29.1841C10.1267 35.8374 9.71333 42.4924 9.32 49.1491C9.12 52.4741 10.85 53.5091 14.035 53.5091C26.275 53.5191 38.515 53.5174 50.755 53.5041C54.12 53.4991 54.835 51.3941 54.645 48.3341C54.2417 41.9074 53.8383 35.4857 53.435 29.0691C53.15 24.5491 50.98 23.4791 46.73 23.4841C36.22 23.4907 25.715 23.4941 15.215 23.4941Z" fill="#597B00"/>
</g>
<defs>
<clipPath id="clip0_974_10578">
<rect width="64" height="64" fill="white"/>
</clipPath>
</defs>
</svg>
