<svg width="64" height="64" viewBox="0 0 64 64" fill="none" xmlns="http://www.w3.org/2000/svg">
<g clip-path="url(#clip0_974_10635)">
<path d="M19.8729 39.0588C18.9204 46.3196 17.9729 53.5812 17.0304 60.8438C16.9467 61.4837 16.6867 62.0013 16.0017 62.0013C15.1217 62.0004 14.2425 61.9996 13.3642 61.9987C12.6192 61.9987 12.0004 61.8013 12.0004 60.9688C11.9996 52.5546 12 44.1404 12.0017 35.7262C12.0017 34.8329 12.0633 34.1883 12.1867 33.7925C12.7004 32.1437 14.2192 31.0325 15.9692 31.025C18.6783 31.0133 21.3871 31.0025 24.0954 30.9925C24.1379 30.9925 24.1625 30.9717 24.1692 30.93C25.6617 22.2875 27.1517 13.6462 28.6392 5.00625C28.8779 3.625 29.3567 2.635 30.6942 2.17375C31.03 2.05792 31.5321 2 32.2004 2C37.4071 2 42.6129 2 47.8179 2C48.6679 2 49.2437 2.04458 49.5454 2.13375C50.6504 2.4625 51.5054 3.505 51.6154 4.66C51.6429 4.9475 51.5925 5.46333 51.4642 6.2075C50.01 14.6133 48.5617 23.0196 47.1192 31.4263C47.0358 31.9121 46.9946 32.4012 46.9954 32.8937C47.0029 42.1454 47.0037 51.3958 46.9979 60.645C46.9979 61.0517 46.9521 61.3433 46.8604 61.52C46.6921 61.8417 46.4058 62.0021 46.0017 62.0013C45.1058 62.0004 44.2113 61.9996 43.3179 61.9987C42.6729 61.9987 42.1004 61.8363 42.0117 61.1512C41.0517 53.7879 40.0912 46.425 39.1304 39.0625C39.1246 39.0208 39.1008 39 39.0592 39H36.9404C36.8996 39 36.8762 39.0204 36.8704 39.0612C35.9104 46.4162 34.9513 53.7708 33.9929 61.125C33.8892 61.9188 33.2429 62.0025 32.5217 62.0013C31.7758 62.0004 31.0304 61.9992 30.2854 61.9975C29.4354 61.9963 29.0017 61.6963 29.0017 60.8325C29 53.6042 28.9996 46.3688 29.0004 39.1263C29.0004 39.0928 28.9871 39.0607 28.9634 39.037C28.9398 39.0133 28.9076 39 28.8742 39H19.9404C19.9004 39 19.8779 39.0196 19.8729 39.0588ZM41.1692 30.9363L45.8054 4.05125C45.8112 4.01708 45.7967 4 45.7617 4C41.1267 3.99917 36.4912 3.99917 31.8554 4C31.0954 4.00125 30.7929 4.305 30.6617 5.065C29.1692 13.685 27.6825 22.3092 26.2017 30.9375C26.1942 30.9792 26.2117 31 26.2542 31H41.0942C41.1367 31 41.1617 30.9788 41.1692 30.9363ZM42.7229 32.6912C42.5354 32.8988 42.2837 33.0025 41.9679 33.0025C39.1596 32.9967 36.3483 32.9967 33.5342 33.0025C33.4808 33.0025 33.4667 33.0262 33.4917 33.0737C34.1767 34.3587 33.9842 35.5775 34.0067 36.9188C34.0075 36.9729 34.035 37 34.0892 37H44.9042C44.929 37 44.9529 36.9901 44.9705 36.9725C44.988 36.955 44.9979 36.9311 44.9979 36.9062C45.0037 35.5079 45.0033 34.0992 44.9967 32.68C44.995 32.2025 45.0342 31.7313 45.1142 31.2663C46.6142 22.5521 48.1162 13.8383 49.6204 5.125C49.7854 4.16375 48.5042 3.5825 47.9042 4.36875C47.7892 4.51792 47.7025 4.765 47.6442 5.11C46.1183 14.0742 44.5683 23.0342 42.9942 31.99C42.9358 32.3208 42.8454 32.5546 42.7229 32.6912ZM14.0992 37.0013H31.8992C31.9143 37.0013 31.9292 36.9983 31.9432 36.9925C31.9571 36.9867 31.9698 36.9782 31.9805 36.9676C31.9912 36.9569 31.9996 36.9442 32.0054 36.9303C32.0112 36.9163 32.0142 36.9014 32.0142 36.8862V35.1338C32.0142 34.5649 31.7851 34.0193 31.3775 33.617C30.9698 33.2147 30.4169 32.9888 29.8404 32.9888H16.1579C15.5814 32.9888 15.0285 33.2147 14.6208 33.617C14.2132 34.0193 13.9842 34.5649 13.9842 35.1338V36.8862C13.9842 36.9014 13.9871 36.9163 13.9929 36.9303C13.9987 36.9442 14.0072 36.9569 14.0178 36.9676C14.0285 36.9782 14.0412 36.9867 14.0552 36.9925C14.0691 36.9983 14.0841 37.0013 14.0992 37.0013ZM15.0804 60C15.0921 59.9998 15.1034 59.9954 15.1121 59.9876C15.1208 59.9798 15.1264 59.9691 15.1279 59.9575L17.8542 39.055C17.855 39.0482 17.8545 39.0413 17.8525 39.0347C17.8505 39.0281 17.8472 39.0221 17.8427 39.0169C17.8382 39.0117 17.8327 39.0075 17.8265 39.0046C17.8203 39.0017 17.8135 39.0001 17.8067 39H14.0492C14.0362 39 14.0238 39.0051 14.0147 39.0143C14.0056 39.0234 14.0004 39.0358 14.0004 39.0488V59.9512C14.0004 59.9642 14.0056 59.9766 14.0147 59.9857C14.0238 59.9949 14.0362 60 14.0492 60H15.0804ZM32.0804 60C32.0921 59.9998 32.1034 59.9954 32.1121 59.9876C32.1208 59.9798 32.1264 59.9691 32.1279 59.9575L34.8542 39.055C34.855 39.0482 34.8545 39.0413 34.8525 39.0347C34.8505 39.0281 34.8472 39.0221 34.8427 39.0169C34.8382 39.0117 34.8327 39.0075 34.8265 39.0046C34.8203 39.0017 34.8135 39.0001 34.8067 39H31.0492C31.0362 39 31.0238 39.0051 31.0147 39.0143C31.0056 39.0234 31.0004 39.0358 31.0004 39.0488V59.9512C31.0004 59.9642 31.0056 59.9766 31.0147 59.9857C31.0238 59.9949 31.0362 60 31.0492 60H32.0804ZM41.1979 39C41.1906 38.9999 41.1834 39.0014 41.1767 39.0044C41.1701 39.0074 41.1641 39.0117 41.1593 39.0171C41.1544 39.0226 41.1508 39.029 41.1486 39.036C41.1464 39.0429 41.1458 39.0503 41.1467 39.0575L43.8717 59.955C43.8732 59.9675 43.8793 59.979 43.8887 59.9873C43.8982 59.9956 43.9103 60.0001 43.9229 60H44.9492C44.9628 60 44.9758 59.9946 44.9854 59.985C44.995 59.9754 45.0004 59.9623 45.0004 59.9487V39.0513C45.0004 39.0377 44.995 39.0246 44.9854 39.015C44.9758 39.0054 44.9628 39 44.9492 39H41.1979Z" fill="#597B00"/>
</g>
<defs>
<clipPath id="clip0_974_10635">
<rect width="64" height="64" fill="white"/>
</clipPath>
</defs>
</svg>
