<svg width="64" height="64" viewBox="0 0 64 64" fill="none" xmlns="http://www.w3.org/2000/svg">
<g clip-path="url(#clip0_974_10562)">
<path d="M32.9692 3.96605V19.3147C32.9692 19.3388 32.9788 19.3619 32.9958 19.3789C33.0129 19.3959 33.036 19.4055 33.06 19.4055H36.7837C36.824 19.4055 36.8442 19.4257 36.8442 19.4661V21.2812C36.8442 21.3232 36.8232 21.3438 36.7813 21.343C35.7334 21.3414 34.6867 21.3426 33.6413 21.3466C32.968 21.3491 32.4881 21.2909 32.2015 21.1723C31.7155 20.9729 31.3772 20.6273 31.1867 20.1357C31.081 19.862 31.0285 19.4091 31.0293 18.777C31.0333 13.9858 31.0337 9.19448 31.0305 4.4032C31.0305 3.82357 31.0878 3.39934 31.2025 3.13051C31.5815 2.23684 32.3311 1.96922 33.2974 1.96922C42.0428 1.96841 50.7878 1.9676 59.5324 1.9668C60.1491 1.9668 60.5964 2.02533 60.8741 2.14238C61.3471 2.34178 61.6793 2.68044 61.8707 3.15836C61.9797 3.43122 62.0337 3.87604 62.0329 4.49281C62.0313 9.34221 62.0309 14.1916 62.0317 19.041C62.0317 20.0364 61.7556 20.8356 60.8099 21.1941C60.5419 21.2958 60.0793 21.3462 59.4222 21.3454C55.7934 21.3422 52.165 21.3418 48.537 21.3442C48.4918 21.3442 48.4692 21.3212 48.4692 21.2752L48.4704 19.4806C48.4704 19.4305 48.4955 19.4055 48.5455 19.4055H60.0337C60.0497 19.4055 60.0651 19.3991 60.0765 19.3878C60.0878 19.3764 60.0942 19.361 60.0942 19.345V3.96605C60.0942 3.95 60.0878 3.9346 60.0765 3.92324C60.0651 3.91189 60.0497 3.90551 60.0337 3.90551H33.0298C32.9894 3.90551 32.9692 3.92569 32.9692 3.96605Z" fill="#597B00"/>
<path d="M51.0501 13.8441L43.3729 6.16682C43.353 6.14696 43.3208 6.14696 43.301 6.16682L42.0029 7.46492C41.983 7.48478 41.983 7.51698 42.0029 7.53684L49.6801 15.2141C49.7 15.234 49.7322 15.2339 49.752 15.2141L51.0501 13.916C51.07 13.8961 51.07 13.8639 51.0501 13.8441Z" fill="#597B00"/>
<path d="M50.0811 6.16594L48.783 7.46404C48.7632 7.4839 48.7632 7.5161 48.783 7.53596L53.5558 12.3088C53.5757 12.3286 53.6079 12.3286 53.6278 12.3088L54.9259 11.0107C54.9457 10.9908 54.9457 10.9586 54.9259 10.9387L50.1531 6.16594C50.1332 6.14608 50.101 6.14608 50.0811 6.16594Z" fill="#597B00"/>
<path d="M39.4267 10.0401L38.1269 11.3399C38.1075 11.3593 38.1075 11.3907 38.1269 11.4101L40.9628 14.246C40.9822 14.2654 41.0137 14.2654 41.0331 14.246L42.3329 12.9462C42.3523 12.9269 42.3523 12.8954 42.3329 12.876L39.4969 10.0401C39.4775 10.0207 39.4461 10.0207 39.4267 10.0401Z" fill="#597B00"/>
<path d="M19.8046 54.0299L21.1367 60.0277C21.1464 60.0712 21.1738 60.093 21.219 60.093H34.2971C34.3327 60.093 34.3597 60.0781 34.3783 60.0482C34.9708 59.0771 35.5606 58.1111 36.1475 57.1505C36.7457 56.1728 37.6026 55.5658 38.7183 55.3292C38.7361 55.3251 38.752 55.3151 38.7635 55.3008C38.7749 55.2865 38.7812 55.2688 38.7812 55.2505V40.2639C38.7812 40.2244 38.7627 40.1973 38.7255 40.1828C35.5408 38.9997 33.3914 36.2376 33.0208 32.8881C32.9143 31.9315 32.9724 30.6648 32.9688 29.5714C32.9671 29.0103 33.0212 28.5978 33.131 28.3338C33.5112 27.4195 34.2645 27.1604 35.2489 27.158C36.3727 27.1547 37.513 27.1543 38.6698 27.1568C38.7425 27.1568 38.7788 27.1204 38.7788 27.0478C38.7837 24.9044 38.7837 22.7465 38.7788 20.5741C38.7756 19.4536 38.8361 18.6806 38.9605 18.2552C39.5914 16.0888 42.0895 14.9263 44.2123 15.8696C45.3336 16.3669 46.059 17.2129 46.3884 18.4077C46.6172 19.2396 46.5325 20.3452 46.5312 21.2813C46.5312 21.3225 46.5107 21.343 46.4695 21.343H44.6555C44.6151 21.343 44.595 21.3229 44.595 21.2825C44.5901 20.4578 44.7076 19.3111 44.4363 18.6414C43.8103 17.0975 41.4792 17.0733 40.8568 18.6778C40.7664 18.9111 40.7208 19.2812 40.72 19.7882C40.7175 22.1851 40.7175 24.5904 40.72 27.0042C40.72 27.1059 40.7704 27.1568 40.8713 27.1568L42.5049 27.1555C42.605 27.1555 42.655 27.1051 42.655 27.0042L42.6587 25.2871C42.6587 25.2782 42.6604 25.2693 42.6638 25.2611C42.6672 25.2529 42.6722 25.2454 42.6785 25.2391C42.6848 25.2328 42.6923 25.2278 42.7005 25.2244C42.7088 25.221 42.7176 25.2193 42.7265 25.2193L44.5332 25.218C44.5493 25.218 44.5647 25.2244 44.576 25.2358C44.5874 25.2471 44.5938 25.2625 44.5938 25.2786V27.0345C44.5938 27.0666 44.6064 27.0974 44.6289 27.1201C44.6513 27.1428 44.6818 27.1555 44.7136 27.1555C49.0399 27.1564 53.3561 27.1559 57.6622 27.1543C58.2346 27.1543 58.656 27.2112 58.9264 27.3251C59.8988 27.7356 60.0962 28.536 60.095 29.5835C60.0925 30.3892 60.0897 31.1944 60.0865 31.9993C60.0707 35.7193 57.8123 38.8605 54.3321 40.1949C54.2982 40.2078 54.2812 40.2321 54.2812 40.2676V55.2505C54.2812 55.2941 54.3022 55.3203 54.3442 55.3292C55.7513 55.632 56.4403 56.3379 57.2129 57.6106C57.703 58.4195 58.1894 59.2296 58.6721 60.041C58.6923 60.0757 58.7226 60.093 58.7629 60.093H61.002C61.0423 60.093 61.0625 60.1132 61.0625 60.1536V61.97C61.0625 62.0104 61.0423 62.0305 61.002 62.0305H2.0293C1.98893 62.0305 1.96875 62.0104 1.96875 61.97L1.96996 60.1839C1.96996 60.1598 1.9794 60.1367 1.99621 60.1196C2.01301 60.1026 2.0358 60.093 2.05957 60.093H5.6609C5.7053 60.093 5.7275 60.0712 5.7275 60.0277C5.73638 54.7819 5.73517 49.5373 5.72387 44.2939C5.72225 43.8483 5.68068 43.4067 5.59914 42.9692C4.43018 36.7014 3.26324 30.434 2.09832 24.167C1.99337 23.6035 1.97077 23.1724 2.03051 22.8737C2.1629 22.2125 2.54435 21.7548 3.17484 21.5005C3.43721 21.3947 3.8122 21.3422 4.2998 21.343C4.8746 21.3439 5.44939 21.3439 6.02418 21.343C6.82663 21.3406 7.3659 21.3955 7.64199 21.5077C8.48602 21.8504 8.71973 22.5164 8.88926 23.4331C10.0719 29.8204 11.2595 36.2069 12.4518 42.5926C12.4599 42.6337 12.4849 42.6543 12.5269 42.6543C17.5999 42.6576 22.6665 42.6576 27.7266 42.6543C28.278 42.6543 28.7115 42.7068 29.0271 42.8118C30.697 43.37 31.1705 44.805 30.9792 46.4857C30.5868 49.9381 27.9966 52.7984 24.6266 53.5467C23.3176 53.8373 21.4249 53.8555 19.8628 53.9524C19.8135 53.9556 19.7942 53.9814 19.8046 54.0299ZM3.98133 23.2805C3.97476 23.2806 3.96828 23.2821 3.96236 23.2849C3.95644 23.2878 3.95121 23.2919 3.94705 23.297C3.94289 23.3021 3.9399 23.308 3.93829 23.3144C3.93668 23.3207 3.93649 23.3274 3.93773 23.3338L7.48699 42.6192C7.48899 42.6296 7.49457 42.6389 7.50277 42.6455C7.51097 42.6522 7.52125 42.6557 7.5318 42.6555H10.4368C10.4435 42.6557 10.4501 42.6543 10.4562 42.6515C10.4623 42.6488 10.4676 42.6447 10.4719 42.6396C10.4762 42.6345 10.4793 42.6285 10.481 42.622C10.4827 42.6156 10.4829 42.6088 10.4816 42.6023L6.89605 23.3169C6.89406 23.3065 6.88847 23.2972 6.88028 23.2905C6.87208 23.2839 6.8618 23.2804 6.85125 23.2805H3.98133ZM58.0739 29.093H34.9934C34.9671 29.093 34.9418 29.1035 34.9232 29.1221C34.9046 29.1407 34.8941 29.166 34.8941 29.1923V31.8867C34.8941 33.7202 35.6228 35.4786 36.9197 36.7751C38.2166 38.0716 39.9757 38.7999 41.8098 38.7999H51.2575C53.0917 38.7999 54.8507 38.0716 56.1477 36.7751C57.4446 35.4786 58.1732 33.7202 58.1732 31.8867V29.1923C58.1732 29.166 58.1627 29.1407 58.1441 29.1221C58.1255 29.1035 58.1002 29.093 58.0739 29.093ZM40.766 40.6684C40.7599 40.6681 40.7538 40.669 40.7481 40.6711C40.7424 40.6732 40.7371 40.6764 40.7327 40.6806C40.7283 40.6848 40.7248 40.6899 40.7224 40.6955C40.72 40.7011 40.7187 40.7071 40.7188 40.7132V55.1585C40.7188 55.1826 40.7283 55.2057 40.7453 55.2227C40.7624 55.2397 40.7855 55.2493 40.8096 55.2493H52.2227C52.2548 55.2493 52.2856 55.2365 52.3083 55.2138C52.331 55.1911 52.3438 55.1603 52.3438 55.1282V40.6902C52.3438 40.6859 52.3429 40.6816 52.3412 40.6777C52.3394 40.6738 52.3368 40.6703 52.3336 40.6674C52.3304 40.6645 52.3267 40.6624 52.3225 40.6611C52.3184 40.6598 52.3141 40.6594 52.3098 40.6599C52.0128 40.6946 51.7112 40.7124 51.4053 40.7132C48.0348 40.718 44.6644 40.7088 41.2939 40.6854C41.1656 40.6845 40.9896 40.6789 40.766 40.6684ZM28.9327 45.0326C28.7934 44.8243 28.4774 44.593 28.2158 44.593C21.3797 44.593 14.5427 44.593 7.70496 44.593C7.68155 44.593 7.66984 44.6048 7.66984 44.6282L7.67227 46.4603C7.67227 46.5071 7.69527 46.5305 7.74129 46.5305H28.9412C28.9783 46.5305 29.0009 46.5124 29.009 46.4761C29.0974 46.0583 29.1785 45.3983 28.9327 45.0326ZM14.5589 52.3467C17.2157 52.1739 19.8733 52.006 22.5317 51.8429C23.456 51.7864 24.1503 51.6883 24.6145 51.5487C26.2218 51.0651 27.465 50.0592 28.3442 48.531C28.3477 48.5246 28.3496 48.5174 28.3495 48.5101C28.3495 48.5028 28.3475 48.4956 28.3438 48.4892C28.3402 48.4829 28.3349 48.4776 28.3286 48.4739C28.3223 48.4702 28.3152 48.4682 28.3079 48.468H7.72555C7.68922 48.468 7.67105 48.4866 7.67105 48.5237V60.0228C7.67105 60.0696 7.69447 60.093 7.74129 60.093H19.1047C19.1467 60.093 19.1629 60.0729 19.1532 60.0325L17.8429 54.1316C17.8349 54.0953 17.8118 54.0783 17.7739 54.0807L14.6969 54.2733C14.6477 54.2765 14.6214 54.2531 14.6182 54.203L14.5044 52.4084C14.502 52.3697 14.5201 52.3491 14.5589 52.3467ZM55.2621 58.1192C54.9061 57.5501 54.2897 57.1941 53.6152 57.1928C49.0419 57.188 44.4686 57.1864 39.8953 57.188C38.9132 57.188 38.2811 57.343 37.7786 58.1555C37.3984 58.7691 37.0262 59.3959 36.6621 60.0361C36.6403 60.0741 36.6512 60.093 36.6948 60.093H56.3677C56.4113 60.093 56.4222 60.0741 56.4004 60.0361C56.0298 59.3798 55.6504 58.7408 55.2621 58.1192Z" fill="#597B00"/>
<path d="M27.1587 31.0923C27.1502 31.8891 27.2773 33.0031 27.0085 33.6837C26.7243 34.4038 26.1483 34.8151 25.2805 34.9176C25.2418 34.9217 25.222 34.9435 25.2212 34.983C25.203 36.309 25.5554 37.9886 24.0272 38.6219C23.7672 38.7301 23.3834 38.7833 22.8756 38.7817C21.944 38.7793 21.0124 38.7801 20.0807 38.7841C19.426 38.7874 18.9622 38.7369 18.6894 38.6328C17.137 38.037 17.4724 36.2654 17.4675 34.9879C17.4675 34.9467 17.447 34.9237 17.4058 34.9188C16.5266 34.8107 15.9478 34.3913 15.6693 33.6607C15.4126 32.985 15.5409 31.8854 15.5276 31.0899C15.5273 31.0743 15.5209 31.0595 15.5098 31.0487C15.4987 31.0378 15.4838 31.0317 15.4683 31.0317H13.6543C13.6139 31.0317 13.5938 31.0115 13.5938 30.9712L13.595 29.1693C13.595 29.1193 13.62 29.0942 13.67 29.0942H15.4162C15.4464 29.0942 15.4754 29.0822 15.4967 29.0609C15.518 29.0395 15.53 29.0106 15.53 28.9804C15.5337 28.1788 15.415 27.0671 15.6935 26.3975C16.0713 25.4929 16.8233 25.2204 17.7969 25.2204C20.0686 25.2204 22.3399 25.2192 24.6109 25.2168C25.2502 25.216 25.7088 25.2733 25.9865 25.3888C27.4917 26.0136 27.1429 27.7465 27.1611 29.0095C27.1619 29.066 27.1902 29.0942 27.2459 29.0942H29.0332C29.0736 29.0942 29.0938 29.1144 29.0938 29.1548V30.9712C29.0938 31.0115 29.0736 31.0317 29.0332 31.0317H27.2192C27.1797 31.0317 27.1595 31.0519 27.1587 31.0923ZM25.2188 27.2342C25.2188 27.2137 25.2106 27.194 25.1961 27.1794C25.1815 27.1649 25.1618 27.1567 25.1412 27.1567H17.5462C17.5257 27.1567 17.506 27.1649 17.4914 27.1794C17.4769 27.194 17.4688 27.2137 17.4688 27.2342V32.8917C17.4688 32.9123 17.4769 32.932 17.4914 32.9465C17.506 32.9611 17.5257 32.9692 17.5462 32.9692H25.1412C25.1618 32.9692 25.1815 32.9611 25.1961 32.9465C25.2106 32.932 25.2188 32.9123 25.2188 32.8917V27.2342ZM23.2812 34.977C23.2812 34.9583 23.2739 34.9405 23.2607 34.9273C23.2475 34.9141 23.2296 34.9067 23.211 34.9067H19.4765C19.4579 34.9067 19.44 34.9141 19.4268 34.9273C19.4136 34.9405 19.4062 34.9583 19.4062 34.977V36.774C19.4062 36.7926 19.4136 36.8105 19.4268 36.8237C19.44 36.8368 19.4579 36.8442 19.4765 36.8442H23.211C23.2296 36.8442 23.2475 36.8368 23.2607 36.8237C23.2739 36.8105 23.2812 36.7926 23.2812 36.774V34.977Z" fill="#597B00"/>
</g>
<defs>
<clipPath id="clip0_974_10562">
<rect width="62" height="62" fill="white" transform="translate(1 1)"/>
</clipPath>
</defs>
</svg>
