<svg width="64" height="64" viewBox="0 0 64 64" fill="none" xmlns="http://www.w3.org/2000/svg">
<g clip-path="url(#clip0_974_10386)">
<path d="M60.8742 47.0675L58.8917 62.9338C58.8858 62.9779 58.8608 63 58.8167 63H45.1842C45.1659 63.0001 45.1482 62.9935 45.1344 62.9813C45.1206 62.9691 45.1116 62.9522 45.1092 62.9338L43.1254 47.065C43.1221 47.035 43.105 47.0187 43.0742 47.0163C42.1192 46.9538 41.4825 46.5371 41.1642 45.7663C41.0525 45.4938 40.9983 45.1 41.0017 44.585C41.0104 43.4837 40.7604 42.1875 41.7717 41.4362C41.8125 41.4057 41.8427 41.3631 41.8581 41.3145C41.8734 41.2659 41.8731 41.2137 41.8572 41.1654C41.8413 41.117 41.8105 41.0751 41.7694 41.0454C41.7282 41.0157 41.6787 40.9998 41.6279 41H22.3742C22.3554 41 22.3369 41.0053 22.3208 41.0152C22.3047 41.0252 22.2916 41.0394 22.2829 41.0563C19.6067 46.3475 12.4054 46.2625 9.70918 41.06C9.69001 41.0225 9.65918 41.0037 9.61668 41.0037C7.97251 40.9963 6.33001 40.9963 4.68918 41.0037C3.97085 41.0071 3.4346 40.9521 3.08043 40.8387C2.12626 40.5346 1.48793 39.9013 1.16543 38.9388C1.05626 38.6138 1.00126 38.1658 1.00043 37.595C0.99793 32.2783 0.998763 26.9621 1.00293 21.6462C1.00293 21.6046 1.01751 21.5692 1.04668 21.54L7.54293 15.045C7.55754 15.03 7.57492 15.018 7.59402 15.0099C7.61313 15.0017 7.63358 14.9975 7.65418 14.9975L18.8754 15.0013C18.9086 15.0013 18.9404 14.9879 18.9638 14.9643C18.9873 14.9406 19.0004 14.9085 19.0004 14.875V7.07875C19.0004 7.02708 18.9746 7.00125 18.9229 7.00125L17.0629 7C17.0213 7 17.0004 6.97917 17.0004 6.9375V1.15625C17.0004 1.11481 17.0169 1.07507 17.0462 1.04576C17.0755 1.01646 17.1152 1 17.1567 1H50.7217C50.7675 1 50.7958 1.02208 50.8067 1.06625L51.2504 2.945C51.2596 2.98167 51.2829 3 51.3204 3H56.5604C56.5988 3 56.6267 3.0175 56.6442 3.0525C58.725 7.20917 60.8029 11.3654 62.8779 15.5212C62.9629 15.6912 63.005 15.8717 63.0042 16.0625C62.995 17.1858 62.9904 18.3067 62.9904 19.425C62.9896 19.895 62.9479 20.3592 62.8654 20.8175C61.8646 26.3383 60.8608 31.8617 59.8542 37.3875C59.8475 37.4225 59.8596 37.4492 59.8904 37.4675C61.2854 38.3075 61.4642 39.65 61.8054 41.115C61.8154 41.1558 61.8388 41.1862 61.8754 41.2062C63.2767 41.9613 63.0004 43.3225 63.0004 44.6488C63.0004 45.1279 62.9467 45.4979 62.8392 45.7588C62.5167 46.5387 61.8813 46.9571 60.9329 47.0137C60.8988 47.0154 60.8792 47.0333 60.8742 47.0675ZM45.0004 3.1C45.0004 3.07348 44.9899 3.04804 44.9711 3.02929C44.9524 3.01054 44.927 3 44.9004 3H19.1004C19.0739 3 19.0485 3.01054 19.0297 3.02929C19.011 3.04804 19.0004 3.07348 19.0004 3.1V4.9C19.0004 4.92652 19.011 4.95196 19.0297 4.97071C19.0485 4.98946 19.0739 5 19.1004 5H44.9004C44.927 5 44.9524 4.98946 44.9711 4.97071C44.9899 4.95196 45.0004 4.92652 45.0004 4.9V3.1ZM55.7004 35.7925C56.0504 36.2788 56.4467 37.0288 57.1804 36.9938C57.2338 36.9913 57.2542 36.9642 57.2417 36.9125L49.2229 3.0575C49.2138 3.01917 49.1896 3 49.1504 3H47.0654C47.0221 3 47.0004 3.02167 47.0004 3.065C47.0013 3.82083 46.9996 4.57708 46.9954 5.33375C46.9946 5.67458 47.0354 6.01042 47.1179 6.34125C49.4688 15.7537 51.8213 25.1658 54.1754 34.5775C54.18 34.5964 54.189 34.6139 54.2016 34.6285C54.2142 34.643 54.2301 34.6543 54.2479 34.6613C54.8421 34.8946 55.3263 35.2717 55.7004 35.7925ZM51.7867 5C51.7809 5.00004 51.7751 5.00138 51.7699 5.00393C51.7647 5.00648 51.7601 5.01018 51.7565 5.01474C51.7529 5.0193 51.7504 5.02461 51.7491 5.03028C51.7478 5.03595 51.7479 5.04184 51.7492 5.0475L54.1004 14.97C54.1024 14.9787 54.1074 14.9864 54.1145 14.9919C54.1215 14.9974 54.1303 15.0002 54.1392 15H60.3204C60.3271 15.0001 60.3337 14.9984 60.3395 14.9952C60.3453 14.992 60.3502 14.9874 60.3538 14.9817C60.3573 14.9761 60.3593 14.9696 60.3596 14.963C60.3599 14.9563 60.3584 14.9497 60.3554 14.9438L55.3942 5.02125C55.3909 5.01479 55.3859 5.00938 55.3797 5.00562C55.3735 5.00187 55.3664 4.99992 55.3592 5H51.7867ZM45.0004 9.0625V32.9375C45.0004 32.9783 45.0208 32.9987 45.0617 32.9987C45.7833 33.0037 46.5063 33.0042 47.2304 33C48.7042 32.9912 49.6204 33.1175 50.5679 34.135C51.0129 34.6125 51.4367 34.7775 52.0617 34.5988C52.0763 34.5947 52.0888 34.585 52.0965 34.5717C52.1042 34.5585 52.1065 34.5426 52.1029 34.5275L45.2654 7.065C45.2546 7.02167 45.2271 7 45.1829 7H21.0629C21.0213 7 21.0004 7.02083 21.0004 7.0625V33.055C21.0004 33.0958 21.0146 33.1308 21.0429 33.16C21.5496 33.69 21.9625 34.285 22.2817 34.945C22.3 34.9817 22.3296 35 22.3704 35H42.0629C42.1038 35 42.1358 34.9833 42.1592 34.95C42.8142 34.0037 43.3492 33.335 44.5392 33.0762C44.5617 33.0714 44.5849 33.075 44.6042 33.0863C44.665 33.1196 44.6763 33.1008 44.6379 33.03C44.6334 33.0217 44.6267 33.0147 44.6186 33.0099C44.6105 33.005 44.6012 33.0025 44.5917 33.0025L37.0629 32.9987C37.0213 32.9987 37.0004 32.9783 37.0004 32.9375V9.07625C37.0004 9.05536 37.0089 9.03533 37.0239 9.02057C37.0389 9.0058 37.0592 8.9975 37.0804 8.9975L44.9379 9.00125C44.9796 9.00125 45.0004 9.02167 45.0004 9.0625ZM43.0004 11.0913C43.0004 11.067 42.9908 11.0438 42.9737 11.0267C42.9566 11.0096 42.9334 11 42.9092 11H39.0917C39.0675 11 39.0443 11.0096 39.0272 11.0267C39.01 11.0438 39.0004 11.067 39.0004 11.0913V30.9088C39.0004 30.933 39.01 30.9562 39.0272 30.9733C39.0443 30.9904 39.0675 31 39.0917 31H42.9092C42.9334 31 42.9566 30.9904 42.9737 30.9733C42.9908 30.9562 43.0004 30.933 43.0004 30.9088V11.0913ZM9.70043 34.9212C11.5429 31.54 15.3767 29.9975 18.9417 31.6612C18.9808 31.6796 19.0004 31.6671 19.0004 31.6238V17.0938C19.0004 17.0689 18.9906 17.045 18.973 17.0275C18.9554 17.0099 18.9315 17 18.9067 17H8.47043C8.43688 17 8.40451 17.0135 8.38043 17.0375L3.05543 22.3612C3.01876 22.3979 3.00043 22.4425 3.00043 22.495V28.9025C3.00043 28.9433 3.02085 28.9646 3.06168 28.9662C4.40043 29.0238 5.53543 29.6213 6.30043 30.7313C7.17126 31.9946 7.22918 33.4008 6.47418 34.95C6.45751 34.9833 6.46793 35 6.50543 35H9.56668C9.62668 35 9.67126 34.9738 9.70043 34.9212ZM54.6454 17C54.6377 17 54.6302 17.0017 54.6232 17.0051C54.6163 17.0084 54.6102 17.0132 54.6054 17.0192C54.6006 17.0252 54.5972 17.0322 54.5955 17.0397C54.5938 17.0472 54.5937 17.055 54.5954 17.0625L55.0454 18.96C55.0479 18.9711 55.0541 18.9811 55.0629 18.9884C55.0718 18.9956 55.0828 18.9997 55.0942 19H60.9492C60.9628 19 60.9758 18.9946 60.9854 18.985C60.995 18.9754 61.0004 18.9623 61.0004 18.9487V17.0513C61.0004 17.0377 60.995 17.0246 60.9854 17.015C60.9758 17.0054 60.9628 17 60.9492 17H54.6454ZM58.5292 33.505L60.7892 21.0713C60.7975 21.0238 60.7775 21 60.7292 21H55.5979C55.5529 21 55.5354 21.0221 55.5454 21.0662C56.5088 25.1537 57.4771 29.2408 58.4504 33.3275C58.4538 33.3417 58.4575 33.3738 58.4617 33.4238C58.4642 33.4638 58.4767 33.4942 58.4992 33.515C58.515 33.5308 58.525 33.5275 58.5292 33.505ZM3.00418 30.99L2.99668 34.9425C2.99668 34.9465 2.99826 34.9503 3.00107 34.9531C3.00389 34.9559 3.0077 34.9575 3.01168 34.9575H3.01418C3.27364 34.958 3.53066 34.9073 3.77055 34.8082C4.01044 34.7091 4.22849 34.5637 4.41225 34.3801C4.59601 34.1966 4.74188 33.9786 4.84151 33.7386C4.94115 33.4986 4.9926 33.2412 4.99293 32.9813V32.9562C4.9936 32.4317 4.78632 31.9283 4.41668 31.5568C4.04703 31.1852 3.54527 30.976 3.02168 30.975H3.01918C3.0152 30.975 3.01139 30.9766 3.00857 30.9794C3.00576 30.9822 3.00418 30.986 3.00418 30.99ZM20.9954 37.9987C20.9954 37.3428 20.8662 36.6933 20.6152 36.0872C20.3642 35.4812 19.9963 34.9306 19.5324 34.4668C19.0686 34.0029 18.518 33.635 17.9119 33.384C17.3059 33.1329 16.6564 33.0037 16.0004 33.0037C15.3445 33.0037 14.6949 33.1329 14.0889 33.384C13.4829 33.635 12.9323 34.0029 12.4684 34.4668C12.0046 34.9306 11.6367 35.4812 11.3857 36.0872C11.1346 36.6933 11.0054 37.3428 11.0054 37.9987C11.0054 39.3235 11.5317 40.594 12.4684 41.5308C13.4052 42.4675 14.6757 42.9938 16.0004 42.9938C17.3252 42.9938 18.5957 42.4675 19.5324 41.5308C20.4692 40.594 20.9954 39.3235 20.9954 37.9987ZM57.8542 39.015C56.3579 39.11 55.0592 38.565 54.2854 37.2537C54.0204 36.805 53.7729 36.5487 53.2942 36.4637C53.1409 36.4354 52.87 36.4654 52.4817 36.5537C51.1917 36.8454 50.09 36.5267 49.1767 35.5975C48.7967 35.2113 48.5329 35 48.0329 35C47.1563 34.9992 46.28 34.9996 45.4042 35.0013C44.9804 35.0025 44.4917 35.1012 44.2654 35.4225C43.8267 36.0488 43.0254 36.9375 43.1792 37.745C43.3808 38.8042 43.5913 39.8704 43.8104 40.9437C43.8179 40.9812 43.8404 41 43.8779 41H59.6579C59.7004 41 59.7167 40.9792 59.7067 40.9375C59.4229 39.7588 59.3054 38.9225 57.8542 39.015ZM3.62043 38.9113C3.71918 38.955 3.82543 38.995 3.93793 38.9963C5.6246 39.0029 7.31626 39.0033 9.01293 38.9975C9.06293 38.9967 9.08376 38.9717 9.07543 38.9225C8.9796 38.3092 8.9796 37.6954 9.07543 37.0812C9.08376 37.0271 9.06043 37 9.00543 37H3.06293C3.02043 37 2.99876 37.0213 2.99793 37.0638C2.99168 37.7463 2.84168 38.575 3.62043 38.9113ZM22.9217 38.9463C22.9206 38.9528 22.9209 38.9595 22.9227 38.966C22.9245 38.9724 22.9276 38.9783 22.9319 38.9834C22.9361 38.9885 22.9414 38.9927 22.9475 38.9955C22.9535 38.9984 22.96 38.9999 22.9667 39H41.3104C41.3215 39.0001 41.3325 38.9976 41.3424 38.9927C41.3523 38.9878 41.3609 38.9805 41.3675 38.9716C41.3741 38.9627 41.3785 38.9524 41.3803 38.9414C41.3821 38.9305 41.3813 38.9193 41.3779 38.9087C41.1913 38.3029 41.1229 37.6846 41.1729 37.0537C41.1735 37.0469 41.1725 37.04 41.1703 37.0335C41.168 37.027 41.1644 37.021 41.1597 37.0159C41.155 37.0109 41.1493 37.0069 41.143 37.0041C41.1366 37.0014 41.1298 37 41.1229 37H22.9704C22.9632 37.0001 22.956 37.0017 22.9494 37.0048C22.9429 37.0079 22.9371 37.0123 22.9324 37.0178C22.9278 37.0233 22.9244 37.0296 22.9226 37.0365C22.9207 37.0434 22.9204 37.0505 22.9217 37.0575C23.0225 37.6875 23.0225 38.3171 22.9217 38.9463ZM61.0004 43.0425C61.0004 43.0312 60.996 43.0204 60.988 43.0124C60.98 43.0045 60.9692 43 60.9579 43H43.0429C43.0317 43 43.0208 43.0045 43.0129 43.0124C43.0049 43.0204 43.0004 43.0312 43.0004 43.0425V44.9575C43.0004 44.9688 43.0049 44.9796 43.0129 44.9876C43.0208 44.9955 43.0317 45 43.0429 45H60.9579C60.9692 45 60.98 44.9955 60.988 44.9876C60.996 44.9796 61.0004 44.9688 61.0004 44.9575V43.0425ZM57.0842 61C57.0934 60.9998 57.1023 60.9963 57.1092 60.9901C57.1161 60.9839 57.1205 60.9754 57.1217 60.9663L58.8629 47.0438C58.8636 47.0383 58.8632 47.0327 58.8615 47.0274C58.8599 47.0221 58.8572 47.0172 58.8535 47.0131C58.8498 47.0089 58.8453 47.0056 58.8403 47.0033C58.8352 47.0011 58.8297 47 58.8242 47H45.1767C45.1711 47 45.1657 47.0011 45.1606 47.0033C45.1555 47.0056 45.151 47.0089 45.1474 47.0131C45.1437 47.0172 45.1409 47.0221 45.1393 47.0274C45.1377 47.0327 45.1372 47.0383 45.1379 47.0438L46.8792 60.9663C46.8804 60.9754 46.8848 60.9839 46.8917 60.9901C46.8986 60.9963 46.9074 60.9998 46.9167 61H57.0842Z" fill="#597B00"/>
<path d="M33 32.93C33 32.9486 32.9926 32.9664 32.9795 32.9795C32.9664 32.9926 32.9486 33 32.93 33H25.07C25.0514 33 25.0336 32.9926 25.0205 32.9795C25.0074 32.9664 25 32.9486 25 32.93V9.07C25 9.05143 25.0074 9.03363 25.0205 9.0205C25.0336 9.00737 25.0514 9 25.07 9H32.93C32.9486 9 32.9664 9.00737 32.9795 9.0205C32.9926 9.03363 33 9.05143 33 9.07V32.93ZM31 11.1038C31 11.0759 30.9889 11.0492 30.9692 11.0295C30.9496 11.0098 30.9228 10.9987 30.895 10.9987H27.105C27.0772 10.9987 27.0504 11.0098 27.0308 11.0295C27.0111 11.0492 27 11.0759 27 11.1038V30.8937C27 30.9216 27.0111 30.9483 27.0308 30.968C27.0504 30.9877 27.0772 30.9988 27.105 30.9988H30.895C30.9228 30.9988 30.9496 30.9877 30.9692 30.968C30.9889 30.9483 31 30.9216 31 30.8937V11.1038Z" fill="#597B00"/>
<path d="M9.6125 18.998L16.9463 19.0018C16.9605 19.0018 16.9742 19.0075 16.9843 19.0175C16.9943 19.0276 17 19.0413 17 19.0555V28.9468C17 28.9611 16.9943 28.9747 16.9843 28.9848C16.9742 28.9949 16.9605 29.0005 16.9463 29.0005H5.05375C5.0395 29.0005 5.02582 28.9949 5.01574 28.9848C5.00566 28.9747 5 28.9611 5 28.9468V23.6093C4.99997 23.6021 5.00139 23.5949 5.00418 23.5883C5.00697 23.5816 5.01108 23.5756 5.01625 23.5705L9.57375 19.0143C9.57879 19.0091 9.58481 19.005 9.59147 19.0022C9.59813 18.9994 9.60528 18.998 9.6125 18.998ZM10.4688 20.998C10.4369 20.9981 10.4064 21.0107 10.3838 21.033L7.035 24.3818C7.01263 24.4044 7.00006 24.435 7 24.4668V26.8793C7 26.9115 7.01278 26.9423 7.03551 26.965C7.05825 26.9878 7.08909 27.0005 7.12125 27.0005L14.8788 27.0018C14.9109 27.0018 14.9417 26.989 14.9645 26.9663C14.9872 26.9435 15 26.9127 15 26.8805V21.1205C15 21.0884 14.9872 21.0576 14.9645 21.0348C14.9417 21.0121 14.9109 20.9993 14.8788 20.9993L10.4688 20.998Z" fill="#597B00"/>
<path d="M18.9979 37.9995C18.9979 38.7944 18.6821 39.5569 18.12 40.119C17.5578 40.6811 16.7954 40.997 16.0004 40.997C15.2054 40.997 14.443 40.6811 13.8809 40.119C13.3187 39.5569 13.0029 38.7944 13.0029 37.9995C13.0029 37.6058 13.0805 37.216 13.2311 36.8524C13.3817 36.4887 13.6025 36.1582 13.8809 35.8799C14.1592 35.6016 14.4897 35.3808 14.8533 35.2301C15.217 35.0795 15.6068 35.002 16.0004 35.002C16.3941 35.002 16.7838 35.0795 17.1475 35.2301C17.5112 35.3808 17.8416 35.6016 18.12 35.8799C18.3983 36.1582 18.6191 36.4887 18.7698 36.8524C18.9204 37.216 18.9979 37.6058 18.9979 37.9995ZM16.9967 38.0007C16.9967 37.8699 16.9709 37.7403 16.9208 37.6195C16.8708 37.4986 16.7974 37.3888 16.7049 37.2962C16.6124 37.2037 16.5025 37.1304 16.3817 37.0803C16.2608 37.0302 16.1313 37.0045 16.0004 37.0045C15.8696 37.0045 15.7401 37.0302 15.6192 37.0803C15.4983 37.1304 15.3885 37.2037 15.296 37.2962C15.2035 37.3888 15.1301 37.4986 15.08 37.6195C15.0299 37.7403 15.0042 37.8699 15.0042 38.0007C15.0042 38.2649 15.1091 38.5183 15.296 38.7052C15.4828 38.892 15.7362 38.997 16.0004 38.997C16.2647 38.997 16.5181 38.892 16.7049 38.7052C16.8917 38.5183 16.9967 38.2649 16.9967 38.0007Z" fill="#597B00"/>
<path d="M46.985 39.1281L45.4887 39.8781C45.4833 39.881 45.4774 39.8827 45.4713 39.8832C45.4653 39.8837 45.4591 39.883 45.4533 39.8811C45.4475 39.8793 45.4421 39.8763 45.4375 39.8723C45.4328 39.8684 45.429 39.8636 45.4262 39.8581L44.5762 38.1494C44.5735 38.1439 44.5718 38.1379 44.5714 38.1318C44.571 38.1257 44.5718 38.1195 44.5738 38.1137C44.5757 38.1079 44.5788 38.1025 44.5829 38.0979C44.587 38.0933 44.592 38.0896 44.5975 38.0869L46.985 36.8919C46.9916 36.8885 46.9988 36.8867 47.0062 36.8867C47.0136 36.8867 47.0209 36.8885 47.0275 36.8919L49.4062 38.0819C49.4118 38.0846 49.4167 38.0883 49.4208 38.0929C49.4249 38.0975 49.428 38.1029 49.43 38.1087C49.432 38.1145 49.4328 38.1207 49.4323 38.1268C49.4319 38.1329 49.4303 38.1389 49.4275 38.1444L48.5762 39.8519C48.5735 39.8573 48.5696 39.8622 48.565 39.8661C48.5603 39.87 48.555 39.873 48.5491 39.8749C48.5433 39.8768 48.5372 39.8774 48.5311 39.8769C48.5251 39.8764 48.5192 39.8747 48.5137 39.8719L47.0275 39.1281C47.0209 39.1247 47.0136 39.123 47.0062 39.123C46.9988 39.123 46.9916 39.1247 46.985 39.1281Z" fill="#597B00"/>
<path d="M48.9716 48.8825L47.081 49.0712C47.0535 49.0739 47.0335 49.0984 47.0362 49.1259L48.0244 59.0267C48.0272 59.0542 48.0517 59.0743 48.0792 59.0715L49.9698 58.8828C49.9972 58.8801 50.0173 58.8556 50.0146 58.8281L49.0263 48.9273C49.0236 48.8998 48.9991 48.8798 48.9716 48.8825Z" fill="#597B00"/>
<path d="M56.967 49.1157L55.0739 48.9267C55.0471 48.924 55.0232 48.9436 55.0205 48.9704L54.0318 58.8762C54.0291 58.903 54.0487 58.9268 54.0755 58.9295L55.9686 59.1185C55.9954 59.1211 56.0193 59.1016 56.0219 59.0748L57.0107 49.169C57.0133 49.1422 56.9938 49.1183 56.967 49.1157Z" fill="#597B00"/>
<path d="M52.965 49H51.035C51.0157 49 51 49.0157 51 49.035V58.965C51 58.9843 51.0157 59 51.035 59H52.965C52.9843 59 53 58.9843 53 58.965V49.035C53 49.0157 52.9843 49 52.965 49Z" fill="#597B00"/>
</g>
<defs>
<clipPath id="clip0_974_10386">
<rect width="64" height="64" fill="white"/>
</clipPath>
</defs>
</svg>
