<svg width="64" height="64" viewBox="0 0 64 64" fill="none" xmlns="http://www.w3.org/2000/svg">
<g clip-path="url(#clip0_974_10604)">
<path d="M31.6601 0C31.9168 0 32.1735 0 32.4301 0L32.4951 8.495C32.4985 8.71167 32.5768 8.745 32.7301 8.595L34.8901 6.465C34.9868 6.36833 35.1051 6.32833 35.2451 6.345C35.3118 6.35167 35.3785 6.365 35.4451 6.385C35.5108 6.4021 35.5707 6.43624 35.619 6.48396C35.6672 6.53168 35.7019 6.59129 35.7197 6.65676C35.7374 6.72222 35.7376 6.79122 35.7201 6.85676C35.7026 6.92231 35.6681 6.98207 35.6201 7.03L32.1951 10.465C32.0651 10.595 31.9335 10.595 31.8001 10.465L28.5001 7.165C28.4389 7.1038 28.4016 7.02216 28.3951 6.935C28.3551 6.43167 28.5335 6.23667 28.9301 6.35C29.0268 6.38 29.1168 6.44167 29.2001 6.535C29.8535 7.25167 30.5468 7.92667 31.2801 8.56C31.4535 8.70667 31.5318 8.66667 31.5151 8.44C31.3185 5.53333 31.3668 2.72 31.6601 0Z" fill="#597B00"/>
<path d="M9.01031 30.3906C9.56031 30.0939 9.99864 30.0656 10.3253 30.3056C10.482 30.4222 10.5603 30.5789 10.5603 30.7756L10.5453 35.9356C10.5453 36.1089 10.6336 36.1956 10.8103 36.1956H12.5753C12.7553 36.1956 12.8503 36.1056 12.8603 35.9256L12.8953 35.2206C12.8973 35.0369 12.9722 34.861 13.1034 34.7316C13.2347 34.6022 13.4116 34.5299 13.5953 34.5306C13.779 34.5312 13.9543 34.6048 14.0828 34.7352C14.2112 34.8655 14.2823 35.0419 14.2803 35.2256L14.3053 35.8806C14.3091 35.9659 14.3454 36.0466 14.4068 36.1061C14.4681 36.1656 14.5499 36.1994 14.6353 36.2006L15.6303 36.2156C15.7836 36.2189 15.867 36.1456 15.8803 35.9956L15.9503 35.2306C15.971 35.0498 16.0594 34.8835 16.1977 34.7653C16.336 34.647 16.5139 34.5854 16.6957 34.5931C16.8775 34.6007 17.0497 34.6768 17.1777 34.8062C17.3056 34.9356 17.3798 35.1087 17.3853 35.2906L17.3903 35.9106C17.3903 36.0906 17.4803 36.1822 17.6603 36.1856L18.8603 36.2156C19.037 36.2222 19.1553 36.1406 19.2153 35.9706C19.8186 34.2072 20.9536 33.4422 22.6203 33.6756C24.4603 33.9322 26.2953 34.2189 28.1253 34.5356C28.932 34.6722 29.402 35.0222 29.5353 35.5856C29.5594 35.6897 29.6069 35.787 29.6742 35.87C29.7414 35.9531 29.8267 36.0198 29.9235 36.0651C30.0203 36.1103 30.1261 36.133 30.233 36.1314C30.3398 36.1297 30.4449 36.1038 30.5403 36.0556C34.3353 34.1606 35.7053 30.1856 36.6153 26.3606C37.2703 23.6206 38.4853 22.0806 41.4403 22.3756C41.6536 22.3989 41.772 22.5156 41.7953 22.7256L41.8853 23.5406C41.8907 23.5857 41.886 23.6314 41.8714 23.6744C41.8569 23.7174 41.8329 23.7566 41.8013 23.7892C41.7697 23.8218 41.7312 23.8469 41.6886 23.8627C41.6461 23.8785 41.6005 23.8846 41.5553 23.8806C39.4153 23.7006 38.2386 24.6622 38.0253 26.7656C38.0086 26.9256 38.082 27.0056 38.2453 27.0056L44.2753 27.0006C44.432 27.0006 44.532 26.9256 44.5753 26.7756C45.5103 23.2806 43.7953 19.1406 39.7903 19.6706C37.6953 19.9456 35.3103 21.8756 33.3853 23.1406C31.592 24.3172 29.212 24.8839 26.2453 24.8406C21.142 24.7672 16.0236 24.7239 10.8903 24.7106C10.8113 24.7106 10.7333 24.7296 10.6628 24.7662C10.5924 24.8027 10.5315 24.8556 10.4853 24.9206C10.0886 25.4872 9.60698 25.5506 9.04031 25.1106C8.76031 23.4756 9.76031 23.1256 11.1703 23.1256C16.8636 23.1256 22.557 23.1256 28.2503 23.1256C30.2353 23.1256 32.2653 22.0106 34.2053 20.7156C35.8953 19.5906 37.7753 18.2206 39.7853 18.0856C44.8603 17.7406 46.8803 22.1106 46.2103 26.6506C46.1803 26.8472 46.267 26.9506 46.4703 26.9606C48.4003 27.0656 50.2953 26.5206 51.5153 28.4456C52.3853 29.8306 51.9653 34.1806 51.9603 35.9206C51.9601 35.9582 51.9685 35.9953 51.9846 36.0293C52.0008 36.0632 52.0244 36.0931 52.0537 36.1166C52.0831 36.1401 52.1173 36.1568 52.1539 36.1653C52.1906 36.1737 52.2286 36.1738 52.2653 36.1656C53.2786 35.9322 54.127 36.1722 54.8103 36.8856C54.9322 37.0137 55.0002 37.1837 55.0003 37.3606V44.8456C55.0003 45.2023 54.8586 45.5444 54.6064 45.7966C54.3541 46.0489 54.012 46.1906 53.6553 46.1906H10.3603C10.1826 46.1906 10.0066 46.1555 9.84253 46.0873C9.67841 46.0192 9.52937 45.9193 9.40394 45.7934C9.27852 45.6675 9.17918 45.5181 9.11163 45.3537C9.04408 45.1894 9.00965 45.0133 9.01031 44.8356V30.3906ZM33.6103 36.2006L50.2303 36.2356C50.3736 36.2356 50.4453 36.1639 50.4453 36.0206L50.4003 29.7506C50.399 29.4473 50.2774 29.1568 50.062 28.9424C49.8466 28.7279 49.5549 28.6069 49.2503 28.6056L37.9703 28.5806C37.8292 28.5787 37.6917 28.6246 37.58 28.7109C37.4684 28.7971 37.3892 28.9186 37.3553 29.0556C36.6786 31.6956 35.3936 33.9889 33.5003 35.9356C33.3303 36.1122 33.367 36.2006 33.6103 36.2006ZM27.9953 37.9006C28.0329 37.8948 28.0674 37.8763 28.093 37.848C28.1185 37.8198 28.1334 37.7836 28.1353 37.7456L28.1453 36.3756C28.145 36.293 28.115 36.2132 28.0609 36.1508C28.0068 36.0884 27.932 36.0475 27.8503 36.0356C26.3653 35.8156 22.9903 34.8606 21.6703 35.2306C20.2103 35.6406 20.0703 38.0456 21.5003 38.6456C22.6903 39.1406 26.4253 38.1556 27.9953 37.9006ZM14.2603 38.7156C14.2408 38.8899 14.1558 39.0499 14.0225 39.1631C13.8892 39.2763 13.7176 39.3343 13.5423 39.3254C13.367 39.3165 13.2011 39.2414 13.0782 39.1152C12.9554 38.989 12.8846 38.8211 12.8803 38.6456L12.8703 38.0506C12.867 37.8406 12.7603 37.7372 12.5503 37.7406L10.8253 37.7706C10.642 37.7739 10.5503 37.8672 10.5503 38.0506L10.5353 44.5006C10.5353 44.6439 10.607 44.7156 10.7503 44.7156H53.2103C53.3736 44.7156 53.4553 44.6356 53.4553 44.4756L53.4453 37.9706C53.4453 37.8239 53.3703 37.7506 53.2203 37.7506H29.9903C29.9144 37.7504 29.8409 37.7769 29.7824 37.8253C29.724 37.8737 29.6843 37.941 29.6703 38.0156C29.3403 39.7106 25.7403 39.8756 23.5203 40.1556C21.3753 40.4206 19.8803 40.0356 19.1453 37.9456C19.0953 37.8056 18.997 37.7372 18.8503 37.7406L17.6303 37.7606C17.4636 37.7606 17.377 37.8439 17.3703 38.0106C17.3603 38.2806 17.3503 38.4989 17.3403 38.6656C17.3281 38.8399 17.2508 39.0027 17.1238 39.122C16.9968 39.2412 16.8293 39.308 16.6545 39.3093C16.4797 39.3106 16.3103 39.2461 16.1799 39.1288C16.0495 39.0114 15.9675 38.8496 15.9503 38.6756L15.8903 37.9856C15.8736 37.8156 15.7803 37.7322 15.6103 37.7356L14.4903 37.7556C14.3336 37.7589 14.262 37.8389 14.2753 37.9956C14.292 38.2356 14.287 38.4756 14.2603 38.7156Z" fill="#597B00"/>
<path d="M9.02983 28.2056C8.9765 27.9356 8.97983 27.6623 9.03983 27.3856C9.59317 26.9656 10.0348 26.9339 10.3648 27.2906C10.4736 27.4098 10.5385 27.5625 10.5489 27.7235C10.5592 27.8846 10.5145 28.0443 10.4219 28.1765C10.3293 28.3087 10.1945 28.4053 10.0396 28.4506C9.88471 28.4959 9.71903 28.4871 9.56983 28.4256L9.02983 28.2056Z" fill="#597B00"/>
<path d="M39.4547 30.2897C39.5209 30.3019 39.5795 30.3397 39.6179 30.395C39.6563 30.4503 39.6714 30.5184 39.6597 30.5847L39.5897 30.9597C39.5534 31.1589 39.4536 31.3382 39.312 31.4582C39.1705 31.5781 38.9989 31.629 38.8347 31.5997L38.7147 31.5797C38.551 31.549 38.4085 31.4407 38.3186 31.2786C38.2286 31.1165 38.1985 30.9137 38.2347 30.7147L38.2997 30.3397C38.3119 30.2735 38.3497 30.2149 38.405 30.1765C38.4602 30.1381 38.5284 30.1231 38.5947 30.1347L39.4547 30.2897Z" fill="#597B00"/>
<path d="M42.2379 31.5127C42.6215 31.3491 42.8059 30.92 42.6499 30.5542C42.4939 30.1885 42.0565 30.0246 41.673 30.1882C41.2894 30.3518 41.105 30.7809 41.261 31.1466C41.417 31.5124 41.8544 31.6763 42.2379 31.5127Z" fill="#597B00"/>
<path d="M45.0349 31.5952C45.4436 31.5952 45.7749 31.2639 45.7749 30.8552C45.7749 30.4465 45.4436 30.1152 45.0349 30.1152C44.6262 30.1152 44.2949 30.4465 44.2949 30.8552C44.2949 31.2639 44.6262 31.5952 45.0349 31.5952Z" fill="#597B00"/>
<path d="M48.2143 30.137L47.8549 30.1571C47.5737 30.1728 47.3584 30.4135 47.3742 30.6948L47.3982 31.1241C47.4139 31.4053 47.6546 31.6205 47.9358 31.6048L48.2953 31.5847C48.5765 31.569 48.7917 31.3283 48.776 31.047L48.752 30.6177C48.7363 30.3365 48.4956 30.1213 48.2143 30.137Z" fill="#597B00"/>
<path d="M48.2078 33.1905L47.9378 33.1914C47.6313 33.1925 47.3837 33.4418 47.3847 33.7484L47.386 34.1184C47.3871 34.4249 47.6365 34.6725 47.943 34.6714L48.213 34.6705C48.5195 34.6694 48.7671 34.4201 48.766 34.1135L48.7647 33.7435C48.7637 33.437 48.5143 33.1894 48.2078 33.1905Z" fill="#597B00"/>
<path d="M39.4103 33.311C39.4439 33.3141 39.4765 33.3238 39.5062 33.3396C39.536 33.3554 39.5623 33.377 39.5837 33.403C39.6051 33.429 39.6211 33.459 39.6308 33.4913C39.6405 33.5236 39.6438 33.5574 39.6403 33.5909L39.6003 33.9959C39.5916 34.0901 39.5667 34.1819 39.527 34.2659C39.4872 34.3499 39.4335 34.4245 39.3689 34.4854C39.3042 34.5464 39.23 34.5924 39.1504 34.6208C39.0708 34.6492 38.9875 34.6594 38.9053 34.651L38.7803 34.6359C38.6986 34.6283 38.6194 34.6023 38.5473 34.5595C38.4752 34.5167 38.4115 34.4578 38.36 34.3863C38.3085 34.3148 38.27 34.2321 38.2469 34.1428C38.2238 34.0535 38.2165 33.9594 38.2253 33.866L38.2653 33.456C38.2684 33.4224 38.2782 33.3898 38.294 33.36C38.3098 33.3303 38.3313 33.304 38.3574 33.2826C38.3834 33.2612 38.4134 33.2452 38.4457 33.2354C38.4779 33.2257 38.5118 33.2225 38.5453 33.2259L39.4103 33.311Z" fill="#597B00"/>
<path d="M41.955 34.6541C42.3664 34.6541 42.7 34.3205 42.7 33.9091C42.7 33.4976 42.3664 33.1641 41.955 33.1641C41.5435 33.1641 41.21 33.4976 41.21 33.9091C41.21 34.3205 41.5435 34.6541 41.955 34.6541Z" fill="#597B00"/>
<path d="M45.04 34.6699C45.4543 34.6699 45.79 34.3341 45.79 33.9199C45.79 33.5057 45.4543 33.1699 45.04 33.1699C44.6258 33.1699 44.29 33.5057 44.29 33.9199C44.29 34.3341 44.6258 34.6699 45.04 34.6699Z" fill="#597B00"/>
<path d="M22.7949 37.7344C23.2091 37.7344 23.5449 37.3986 23.5449 36.9844C23.5449 36.5702 23.2091 36.2344 22.7949 36.2344C22.3807 36.2344 22.0449 36.5702 22.0449 36.9844C22.0449 37.3986 22.3807 37.7344 22.7949 37.7344Z" fill="#597B00"/>
<path d="M31.2699 53.4155L29.0599 55.5805C28.9938 55.6436 28.9092 55.6836 28.819 55.6944C28.7287 55.7053 28.6378 55.6863 28.5599 55.6405C28.2232 55.4405 28.2016 55.1838 28.4949 54.8705C29.5682 53.7305 30.6749 52.6255 31.8149 51.5555C31.9549 51.4288 32.0916 51.4321 32.2249 51.5655L35.5699 54.9055C35.5993 54.938 35.6184 54.9798 35.6249 55.0255C35.6816 55.5688 35.4966 55.7788 35.0699 55.6555C34.9732 55.6255 34.8816 55.5638 34.7949 55.4705C34.1282 54.7505 33.4266 54.0671 32.6899 53.4205C32.5899 53.3338 32.5399 53.3571 32.5399 53.4905L32.5249 62.0405C32.5248 62.0981 32.5117 62.1547 32.4865 62.2059C32.4613 62.257 32.4249 62.3014 32.3799 62.3355C32.0766 62.5755 31.8399 62.5805 31.6699 62.3505C31.6032 62.2605 31.5649 62.1288 31.5549 61.9555C31.3749 59.1455 31.3616 56.3355 31.5149 53.5255C31.5282 53.2755 31.4466 53.2388 31.2699 53.4155Z" fill="#597B00"/>
</g>
<defs>
<clipPath id="clip0_974_10604">
<rect width="64" height="64" fill="white"/>
</clipPath>
</defs>
</svg>
