<svg width="64" height="64" viewBox="0 0 64 64" fill="none" xmlns="http://www.w3.org/2000/svg">
<g clip-path="url(#clip0_974_10589)">
<path d="M30.4646 21.1456C30.8246 21.5189 31.0046 21.4456 31.0046 20.9256C30.9979 15.0156 30.9862 9.08224 30.9696 3.12557C30.9696 2.41891 31.3229 2.06391 32.0296 2.06057C32.6762 2.05724 32.9996 2.37891 32.9996 3.02557V20.8806C32.9996 21.4206 33.1862 21.4972 33.5596 21.1106C34.7862 19.8406 36.1129 18.4856 37.5396 17.0456C38.0362 16.5422 38.5279 16.4989 39.0146 16.9156C39.1145 17.0011 39.1957 17.1064 39.253 17.2248C39.3104 17.3432 39.3426 17.4721 39.3478 17.6036C39.3529 17.735 39.3309 17.8661 39.283 17.9886C39.2352 18.1111 39.1625 18.2225 39.0696 18.3156L32.6746 24.6956C32.4955 24.8745 32.2527 24.975 31.9996 24.975C31.7464 24.975 31.5036 24.8745 31.3246 24.6956L24.9396 18.3256C24.7798 18.1657 24.6824 17.9542 24.6649 17.7295C24.6475 17.5047 24.7112 17.2816 24.8446 17.1006C25.3312 16.4472 25.8896 16.4422 26.5196 17.0856C27.9296 18.5289 29.2446 19.8822 30.4646 21.1456Z" fill="#597B00"/>
<path d="M9.00986 44.3908C9.5932 44.0974 10.0182 44.0641 10.2849 44.2908C10.4582 44.4341 10.5465 44.7558 10.5499 45.2558C10.5665 46.8091 10.5599 48.3758 10.5299 49.9558C10.5265 50.1191 10.6065 50.2008 10.7699 50.2008L12.5699 50.1908C12.7432 50.1908 12.8365 50.1041 12.8499 49.9308L12.9049 49.2008C12.9224 49.0286 13.004 48.8693 13.1334 48.7544C13.2629 48.6396 13.4308 48.5776 13.6039 48.5807C13.7769 48.5838 13.9425 48.6519 14.0677 48.7714C14.1929 48.8909 14.2686 49.053 14.2799 49.2258L14.3049 49.8808C14.3087 49.9648 14.3444 50.0442 14.4049 50.1028C14.4653 50.1613 14.5457 50.1946 14.6299 50.1958L15.6349 50.2108C15.7849 50.2141 15.8665 50.1408 15.8799 49.9908L15.9449 49.1908C15.9594 49.0249 16.0334 48.8699 16.1532 48.7543C16.273 48.6387 16.4306 48.5703 16.5969 48.5618C16.7632 48.5532 16.9269 48.6051 17.058 48.7079C17.189 48.8106 17.2785 48.9572 17.3099 49.1208L17.4449 49.8508C17.4749 50.0008 17.5632 50.1008 17.7099 50.1508C18.4865 50.4174 19.0799 50.1191 19.4899 49.2558C20.7599 46.5758 25.9799 48.1308 28.2599 48.5908C29.0749 48.7508 29.4549 49.1558 29.6999 49.9058C29.7565 50.0758 29.8699 50.1391 30.0399 50.0958C34.3249 49.0958 35.6999 43.5908 36.6899 39.9558C37.3749 37.4458 38.7549 36.0808 41.4599 36.3908C41.6599 36.4141 41.7715 36.5258 41.7949 36.7258L41.8849 37.5408C41.8903 37.5858 41.8855 37.6316 41.871 37.6746C41.8565 37.7176 41.8325 37.7568 41.8009 37.7894C41.7693 37.822 41.7308 37.8471 41.6882 37.8629C41.6456 37.8787 41.6001 37.8848 41.5549 37.8808C39.4182 37.7008 38.2415 38.6624 38.0249 40.7658C38.0082 40.9258 38.0815 41.0058 38.2449 41.0058L44.2749 41.0008C44.4315 41.0008 44.5299 40.9258 44.5699 40.7758C45.5249 37.2108 43.7449 33.0508 39.6449 33.6908C37.6849 33.9958 35.5299 35.7158 33.7649 36.9158C32.1315 38.0291 30.0415 38.6024 27.4949 38.6358C21.9915 38.7091 16.4682 38.7424 10.9249 38.7358C10.7482 38.7358 10.6032 38.8041 10.4899 38.9408C10.0299 39.5041 9.54986 39.5608 9.04986 39.1108C8.74986 37.4758 9.76486 37.1258 11.1699 37.1258C16.8632 37.1224 22.5565 37.1224 28.2499 37.1258C31.9549 37.1258 34.9999 33.7208 38.1299 32.4008C39.9099 31.6558 42.1749 31.9208 43.7449 33.1508C46.0115 34.9241 46.8232 37.4141 46.1799 40.6208C46.1719 40.6615 46.1729 40.7035 46.1826 40.7439C46.1923 40.7843 46.2106 40.8221 46.2362 40.8549C46.2618 40.8876 46.2941 40.9144 46.331 40.9335C46.3678 40.9527 46.4084 40.9637 46.4499 40.9658C48.1349 41.0658 50.2149 40.5608 51.3599 42.2008C52.4349 43.7358 51.9549 47.9658 51.9649 49.9258C51.9645 49.9627 51.9727 49.9993 51.9888 50.0326C52.0049 50.066 52.0285 50.0953 52.0578 50.1184C52.0872 50.1415 52.1215 50.1577 52.1582 50.1659C52.1949 50.1741 52.2331 50.1741 52.2699 50.1658C53.2832 49.9324 54.1299 50.1724 54.8099 50.8858C54.9317 51.0139 54.9997 51.1839 54.9999 51.3608V58.8458C54.9999 59.2025 54.8582 59.5446 54.6059 59.7968C54.3537 60.0491 54.0116 60.1908 53.6549 60.1908H10.3599C10.0018 60.1908 9.65844 60.048 9.40527 59.7939C9.1521 59.5398 9.00986 59.1951 9.00986 58.8358V44.3908ZM37.4899 42.8258C36.4049 45.5408 35.9199 47.4058 33.4899 49.9158C33.3099 50.1024 33.3499 50.1958 33.6099 50.1958L50.2299 50.2258C50.3632 50.2258 50.4299 50.1574 50.4299 50.0208L50.3949 43.8708C50.3935 43.5343 50.2588 43.2121 50.02 42.9742C49.7811 42.7363 49.4576 42.6021 49.1199 42.6008L37.8599 42.5758C37.7803 42.5759 37.7026 42.5998 37.6367 42.6443C37.5708 42.6889 37.5197 42.752 37.4899 42.8258ZM21.4049 52.5808C22.6249 53.1408 26.2649 52.2108 27.4899 51.9658C27.7246 51.9183 27.935 51.7893 28.0839 51.6017C28.2327 51.4141 28.3104 51.1799 28.3032 50.9405C28.2961 50.7011 28.2045 50.4719 28.0446 50.2935C27.8848 50.1152 27.667 49.9991 27.4299 49.9658C26.0949 49.7858 22.9349 48.8658 21.6499 49.2408C20.2799 49.6408 20.0249 51.9408 21.4049 52.5808ZM12.9149 52.7708L12.8549 52.0958C12.8382 51.8558 12.7099 51.7374 12.4699 51.7408L10.8199 51.7658C10.6299 51.7691 10.5349 51.8658 10.5349 52.0558V58.5058C10.5349 58.6491 10.6082 58.7208 10.7549 58.7208H53.1649C53.3549 58.7208 53.4499 58.6258 53.4499 58.4358L53.4249 51.9658C53.4249 51.8224 53.3532 51.7508 53.2099 51.7508H29.9849C29.8082 51.7508 29.7032 51.8374 29.6699 52.0108C29.5232 52.7708 29.1765 53.2008 28.6299 53.3008C25.6765 53.8408 23.7982 54.1541 22.9949 54.2408C21.0615 54.4441 19.7782 53.6791 19.1449 51.9458C19.0949 51.8091 18.9949 51.7408 18.8449 51.7408L17.6349 51.7608C17.4815 51.7608 17.3999 51.8374 17.3899 51.9908L17.3149 52.8658C17.3038 53.0333 17.2303 53.1906 17.1088 53.3066C16.9873 53.4225 16.8267 53.4886 16.6589 53.4917C16.491 53.4948 16.328 53.4348 16.2023 53.3235C16.0765 53.2122 15.9971 53.0578 15.9799 52.8908L15.8749 51.9758C15.8549 51.8158 15.7632 51.7358 15.5999 51.7358L14.5049 51.7558C14.4651 51.7568 14.4261 51.7668 14.3907 51.7849C14.3554 51.8031 14.3245 51.829 14.3005 51.8606C14.2765 51.8923 14.2599 51.929 14.252 51.968C14.2441 52.007 14.2451 52.0472 14.2549 52.0858C14.4015 52.6391 14.2515 53.0308 13.8049 53.2608C13.7157 53.3073 13.6164 53.331 13.5159 53.3299C13.4153 53.3288 13.3166 53.3028 13.2285 53.2543C13.1405 53.2058 13.0657 53.1363 13.011 53.0519C12.9563 52.9675 12.9232 52.871 12.9149 52.7708Z" fill="#597B00"/>
<path d="M9.02983 42.2051C8.9765 41.9317 8.97983 41.6584 9.03983 41.3851C9.60983 40.9517 10.0615 40.9301 10.3948 41.3201C10.4997 41.4418 10.5602 41.5956 10.5664 41.7562C10.5726 41.9168 10.5242 42.0747 10.4289 42.2042C10.3337 42.3337 10.1974 42.427 10.0423 42.4689C9.8871 42.5109 9.72232 42.4989 9.57483 42.4351L9.02983 42.2051Z" fill="#597B00"/>
<path d="M38.23 44.5526C38.0538 44.9427 38.211 45.3943 38.5809 45.5614C38.9509 45.7284 39.3936 45.5476 39.5697 45.1575C39.7459 44.7674 39.5888 44.3158 39.2188 44.1487C38.8488 43.9817 38.4061 44.1625 38.23 44.5526Z" fill="#597B00"/>
<path d="M41.9548 45.5855C42.3635 45.5855 42.6948 45.2542 42.6948 44.8455C42.6948 44.4368 42.3635 44.1055 41.9548 44.1055C41.5462 44.1055 41.2148 44.4368 41.2148 44.8455C41.2148 45.2542 41.5462 45.5855 41.9548 45.5855Z" fill="#597B00"/>
<path d="M45.0352 45.6055C45.4494 45.6055 45.7852 45.2697 45.7852 44.8555C45.7852 44.4413 45.4494 44.1055 45.0352 44.1055C44.6209 44.1055 44.2852 44.4413 44.2852 44.8555C44.2852 45.2697 44.6209 45.6055 45.0352 45.6055Z" fill="#597B00"/>
<path d="M48.2143 44.1311L47.8549 44.1512C47.5737 44.1669 47.3584 44.4077 47.3742 44.6889L47.3987 45.1282C47.4145 45.4094 47.6552 45.6247 47.9364 45.6089L48.2958 45.5888C48.5771 45.5731 48.7923 45.3324 48.7766 45.0512L48.752 44.6119C48.7363 44.3306 48.4956 44.1154 48.2143 44.1311Z" fill="#597B00"/>
<path d="M48.21 47.1836L47.93 47.1856C47.6235 47.1877 47.3767 47.4379 47.3789 47.7444L47.3815 48.1244C47.3837 48.4309 47.6339 48.6777 47.9404 48.6755L48.2204 48.6736C48.5269 48.6714 48.7736 48.4212 48.7715 48.1147L48.7688 47.7347C48.7667 47.4282 48.5165 47.1815 48.21 47.1836Z" fill="#597B00"/>
<path d="M39.4204 47.3143C39.4886 47.3218 39.551 47.356 39.5941 47.4094C39.6372 47.4628 39.6574 47.531 39.6504 47.5993L39.6054 47.9843C39.5949 48.0839 39.568 48.1808 39.5263 48.2694C39.4847 48.3581 39.429 48.4368 39.3626 48.5009C39.2961 48.565 39.2202 48.6133 39.1392 48.6431C39.0581 48.6728 38.9736 48.6834 38.8904 48.6743L38.7654 48.6593C38.6823 48.6504 38.6022 48.6221 38.5295 48.5758C38.4569 48.5295 38.3932 48.4663 38.3421 48.3896C38.291 48.313 38.2535 48.2245 38.2318 48.1292C38.21 48.0339 38.2045 47.9337 38.2154 47.8343L38.2604 47.4443C38.268 47.3761 38.3022 47.3136 38.3555 47.2706C38.4089 47.2275 38.4772 47.2072 38.5454 47.2143L39.4204 47.3143Z" fill="#597B00"/>
<path d="M41.9552 48.6702C42.3722 48.6702 42.7102 48.3321 42.7102 47.9152C42.7102 47.4982 42.3722 47.1602 41.9552 47.1602C41.5382 47.1602 41.2002 47.4982 41.2002 47.9152C41.2002 48.3321 41.5382 48.6702 41.9552 48.6702Z" fill="#597B00"/>
<path d="M45.0404 48.6902C45.4629 48.6902 45.8054 48.3477 45.8054 47.9252C45.8054 47.5027 45.4629 47.1602 45.0404 47.1602C44.6179 47.1602 44.2754 47.5027 44.2754 47.9252C44.2754 48.3477 44.6179 48.6902 45.0404 48.6902Z" fill="#597B00"/>
<path d="M22.7998 51.7344C23.214 51.7344 23.5498 51.3986 23.5498 50.9844C23.5498 50.5702 23.214 50.2344 22.7998 50.2344C22.3856 50.2344 22.0498 50.5702 22.0498 50.9844C22.0498 51.3986 22.3856 51.7344 22.7998 51.7344Z" fill="#597B00"/>
</g>
<defs>
<clipPath id="clip0_974_10589">
<rect width="64" height="64" fill="white"/>
</clipPath>
</defs>
</svg>
