<svg width="64" height="64" viewBox="0 0 64 64" fill="none" xmlns="http://www.w3.org/2000/svg">
<path d="M61.2543 59.372C61.2543 60.2058 60.9231 61.0053 60.3335 61.5949C59.744 62.1844 58.9444 62.5156 58.1107 62.5156H5.89262C5.05888 62.5156 4.2593 62.1844 3.66976 61.5949C3.08022 61.0053 2.74902 60.2058 2.74902 59.372V4.62797C2.74902 3.79424 3.08022 2.99465 3.66976 2.40511C4.2593 1.81557 5.05888 1.48438 5.89262 1.48438H58.1107C58.9444 1.48438 59.744 1.81557 60.3335 2.40511C60.9231 2.99465 61.2543 3.79424 61.2543 4.62797V59.372ZM59.8011 4.63645C59.8011 4.18586 59.6221 3.75372 59.3035 3.43511C58.9849 3.1165 58.5528 2.9375 58.1022 2.9375H5.89867C5.44808 2.9375 5.01595 3.1165 4.69734 3.43511C4.37872 3.75372 4.19973 4.18586 4.19973 4.63645V59.3636C4.19973 59.8141 4.37872 60.2463 4.69734 60.5649C5.01595 60.8835 5.44808 61.0625 5.89867 61.0625H58.1022C58.5528 61.0625 58.9849 60.8835 59.3035 60.5649C59.6221 60.2463 59.8011 59.8141 59.8011 59.3636V4.63645Z" fill="#597B00"/>
<path d="M58.2341 58.103C58.2341 58.4383 58.1009 58.7598 57.8638 58.9969C57.6267 59.234 57.3052 59.3672 56.9699 59.3672H7.03082C6.69553 59.3672 6.37397 59.234 6.13688 58.9969C5.8998 58.7598 5.7666 58.4383 5.7666 58.103V5.89703C5.7666 5.56174 5.8998 5.24018 6.13688 5.00309C6.37397 4.76601 6.69553 4.63281 7.03082 4.63281H56.9699C57.3052 4.63281 57.6267 4.76601 57.8638 5.00309C58.1009 5.24018 58.2341 5.56174 58.2341 5.89703V58.103ZM8.98406 21.2287C8.68698 20.3375 8.83754 19.5431 9.43574 18.8456C9.44737 18.8317 9.45373 18.8141 9.45373 18.7959C9.45373 18.7778 9.44737 18.7602 9.43574 18.7463C8.40523 17.5293 8.76125 15.6487 10.2628 15.0578C10.5437 14.9472 10.9559 14.8915 11.4992 14.8907C15.0028 14.8874 18.5065 14.8866 22.0101 14.8882C22.8578 14.8895 23.5843 15.3205 24.0106 16.0592C24.524 16.9472 24.4348 17.8482 23.743 18.762C23.7163 18.7959 23.7171 18.8294 23.7454 18.8625C24.317 19.5463 24.4667 20.3205 24.1946 21.1851C24.1785 21.2352 24.1967 21.2602 24.2491 21.2602L25.8803 21.2614C25.8976 21.2614 25.9142 21.2545 25.9265 21.2423C25.9388 21.23 25.9457 21.2134 25.9457 21.196V6.17676C25.9457 6.11621 25.9154 6.08594 25.8548 6.08594H7.28875C7.24193 6.08594 7.21852 6.10895 7.21852 6.15496V21.1863C7.21852 21.2348 7.24273 21.259 7.29117 21.259L8.95984 21.2626C8.96393 21.2627 8.96797 21.2617 8.97162 21.2599C8.97526 21.258 8.9784 21.2553 8.98078 21.252C8.98316 21.2486 8.9847 21.2448 8.98527 21.2407C8.98584 21.2367 8.98543 21.2326 8.98406 21.2287ZM44.5069 13.8081C45.472 13.1905 46.4759 13.1433 47.4168 13.8081C47.4434 13.8267 47.4733 13.8359 47.5064 13.8359H56.7386C56.7502 13.8359 56.7612 13.8313 56.7694 13.8232C56.7776 13.815 56.7822 13.8039 56.7822 13.7923L56.781 6.12832C56.781 6.11708 56.7765 6.1063 56.7686 6.09835C56.7606 6.0904 56.7498 6.08594 56.7386 6.08594H27.4593C27.419 6.08594 27.3988 6.10612 27.3988 6.14648V13.7451C27.3988 13.7692 27.4084 13.7923 27.4254 13.8093C27.4424 13.8264 27.4655 13.8359 27.4896 13.8359H34.082C34.1191 13.8359 34.1526 13.8254 34.1825 13.8045C35.2239 13.0642 36.2641 13.0621 37.303 13.7984C37.3378 13.8234 37.3765 13.8359 37.4193 13.8359H44.4113C44.4453 13.8359 44.4785 13.8262 44.5069 13.8081ZM35.6743 42.0496C35.5375 44.4799 35.2917 46.9163 35.0882 49.343C35.0253 50.112 34.6075 50.4462 33.8458 50.5564C32.5784 50.7405 31.3993 50.7489 30.3087 50.5818C29.4174 50.4462 29.2467 49.7548 29.243 48.9156C29.2245 44.5481 29.1583 40.1811 29.0445 35.8145C28.9984 34.0344 28.8229 31.8523 28.8931 29.9717C28.9875 27.3892 29.4493 24.8147 30.2784 22.2483C30.4269 21.7874 30.5626 21.4693 30.6853 21.2941C31.1491 20.6305 31.9507 20.4658 32.7536 20.5494C32.7971 20.5542 32.8363 20.5433 32.871 20.5167C33.9209 19.7356 35.1452 18.71 35.8875 17.5777C36.2758 16.9852 36.5171 16.3042 36.6116 15.5349C36.6154 15.5041 36.6125 15.4728 36.6032 15.4431C36.5939 15.4135 36.5784 15.3861 36.5577 15.3629C36.537 15.3396 36.5115 15.321 36.483 15.3083C36.4545 15.2956 36.4236 15.289 36.3924 15.2891H34.8763C34.8584 15.2891 34.8409 15.2952 34.8266 15.3063C34.8124 15.3175 34.8022 15.3332 34.7976 15.3508C34.7516 15.5385 34.7383 15.725 34.6269 15.8776C34.1788 16.4952 33.2379 16.1573 33.3203 15.3702C33.3259 15.3161 33.3017 15.2891 33.2476 15.2891H27.4593C27.419 15.2891 27.3988 15.3092 27.3988 15.3496V57.793C27.3988 57.8018 27.4004 57.8108 27.4036 57.8196C27.4287 57.8866 27.488 57.9205 27.5816 57.9213C37.2934 57.9262 47.0083 57.9209 56.7265 57.9056C56.7628 57.9056 56.781 57.887 56.781 57.8499V15.3581C56.781 15.3121 56.758 15.2891 56.712 15.2891H48.3529C48.3165 15.2891 48.2996 15.3072 48.302 15.3436C48.394 16.7168 47.8879 17.9786 47.1298 19.0963C47.104 19.135 47.1088 19.1697 47.1443 19.2004L48.8845 20.6668C48.9167 20.6943 48.9527 20.7007 48.9922 20.6862C49.9101 20.3375 50.5047 20.6862 51.3463 21.2287C52.6735 22.0844 53.6459 23.2889 54.2634 24.8421C54.8423 26.3009 55.2948 27.6624 55.6209 28.9266C55.721 29.3125 55.746 29.6096 55.696 29.8179C55.4841 30.7031 53.813 31.1112 53.0029 31.2734C52.6735 31.3388 52.4797 31.4636 52.5112 31.8184C52.7752 34.7052 53.0384 37.5925 53.3007 40.4802C53.3564 41.0929 53.0816 41.3363 52.4773 41.3932C49.1529 41.7073 45.8192 41.7719 42.4762 41.587C42.435 41.5846 42.4136 41.6044 42.412 41.6463C42.3224 44.1078 42.2368 46.5692 42.1553 49.0306C42.1298 49.8093 41.9082 50.3808 41.1127 50.5177C39.9994 50.709 38.8369 50.7405 37.6252 50.6121C36.8272 50.5273 36.3391 50.2307 36.2786 49.4072C36.0994 46.9644 35.9181 44.5219 35.7349 42.0798C35.7333 42.0645 35.7264 42.05 35.7143 42.0363C35.6901 42.0088 35.6768 42.0132 35.6743 42.0496ZM45.0664 15.5204C44.674 16.1343 43.9463 16.0302 43.715 15.352C43.7004 15.3101 43.6714 15.2891 43.6278 15.2891H38.1107C38.0696 15.2891 38.0482 15.3096 38.0466 15.3508C38.0102 16.6901 37.5735 17.8772 36.7363 18.9122C36.7298 18.9204 36.725 18.9299 36.7222 18.9401C36.7194 18.9502 36.7188 18.9609 36.7202 18.9713C36.7217 18.9817 36.7253 18.9917 36.7308 19.0007C36.7362 19.0097 36.7435 19.0175 36.7521 19.0236L38.8131 20.4937C38.8454 20.5163 38.8809 20.528 38.9197 20.5288C39.8908 20.5445 40.6259 20.5058 41.2265 21.4116C41.2499 21.4479 41.281 21.4556 41.3197 21.4346C42.0378 21.0483 42.8128 20.4791 43.6871 20.7153C43.7059 20.7205 43.7258 20.7208 43.7449 20.7161C43.764 20.7114 43.7816 20.702 43.7961 20.6886C44.408 20.134 45.0195 19.4672 45.6307 18.6882C46.2628 17.8829 47.1153 16.3656 46.8016 15.3532C46.7887 15.3105 46.7597 15.2891 46.7145 15.2891H45.2311C45.1915 15.2891 45.1624 15.3064 45.1439 15.3411C45.1112 15.4017 45.0991 15.4683 45.0664 15.5204ZM22.8917 17.1939C22.8917 16.9678 22.8019 16.7509 22.642 16.5911C22.4821 16.4312 22.2653 16.3414 22.0392 16.3414H11.1625C10.9364 16.3414 10.7196 16.4312 10.5597 16.5911C10.3999 16.7509 10.31 16.9678 10.31 17.1939V17.2205C10.31 17.3325 10.3321 17.4433 10.3749 17.5467C10.4178 17.6502 10.4806 17.7442 10.5597 17.8233C10.6389 17.9025 10.7329 17.9653 10.8363 18.0081C10.9397 18.051 11.0506 18.073 11.1625 18.073H22.0392C22.1511 18.073 22.262 18.051 22.3654 18.0081C22.4688 17.9653 22.5628 17.9025 22.642 17.8233C22.7211 17.7442 22.7839 17.6502 22.8268 17.5467C22.8696 17.4433 22.8917 17.3325 22.8917 17.2205V17.1939ZM22.8929 20.3689C22.8929 20.1461 22.8043 19.9323 22.6467 19.7747C22.4891 19.6171 22.2754 19.5286 22.0525 19.5286H11.1492C10.9263 19.5286 10.7126 19.6171 10.555 19.7747C10.3974 19.9323 10.3088 20.1461 10.3088 20.3689V20.3956C10.3088 20.5059 10.3306 20.6152 10.3728 20.7172C10.415 20.8192 10.4769 20.9118 10.555 20.9898C10.633 21.0679 10.7257 21.1298 10.8276 21.172C10.9296 21.2142 11.0389 21.236 11.1492 21.236H22.0525C22.1629 21.236 22.2721 21.2142 22.3741 21.172C22.4761 21.1298 22.5687 21.0679 22.6467 20.9898C22.7248 20.9118 22.7867 20.8192 22.8289 20.7172C22.8712 20.6152 22.8929 20.5059 22.8929 20.3956V20.3689ZM35.2348 20.5373L36.2423 20.5324C36.3157 20.5316 36.3234 20.509 36.2653 20.4646L35.7736 20.082C35.73 20.0489 35.6881 20.0509 35.6477 20.088L35.2142 20.4852C35.2099 20.4894 35.2069 20.4947 35.2056 20.5006C35.2043 20.5064 35.2048 20.5125 35.207 20.5181C35.2092 20.5237 35.2131 20.5285 35.218 20.5319C35.2229 20.5353 35.2288 20.5372 35.2348 20.5373ZM45.1318 21.6162C45.952 21.9262 46.7645 21.9085 47.5694 21.5629C47.6194 21.5411 47.6235 21.5125 47.5815 21.477L46.2579 20.3496C46.2232 20.3205 46.1901 20.3225 46.1586 20.3556L45.0979 21.4673C45.0349 21.5335 45.0462 21.5831 45.1318 21.6162ZM33.9185 28.8721C33.4256 28.0027 34.7056 27.2858 35.2021 28.1553C35.5758 28.8116 35.9407 29.4574 36.2968 30.0928C36.3239 30.1414 36.34 30.1956 36.344 30.2514L37.7075 49.1033C37.7107 49.1541 37.7378 49.1816 37.7886 49.1856C38.7453 49.2631 39.6995 49.2385 40.6513 49.1118C40.69 49.1069 40.7098 49.0851 40.7106 49.0464C40.8519 43.8749 41.0622 38.7066 41.3415 33.5415C41.545 29.7779 41.2071 26.2117 40.127 22.591C40.018 22.2253 39.978 21.9795 39.5687 21.9807C37.1396 21.9839 34.7108 21.9864 32.2825 21.988C32.1045 21.988 31.8865 22.0364 31.8272 22.1999C30.9222 24.7485 30.4257 27.4299 30.3377 30.2441C30.3208 30.7947 30.3329 31.602 30.3741 32.666C30.5864 38.1338 30.6909 43.6064 30.6877 49.0839C30.6877 49.1356 30.7135 49.1642 30.7652 49.1699C31.7105 49.2651 32.6539 49.2506 33.5952 49.1263C33.6339 49.1214 33.6549 49.0992 33.6581 49.0597C34.1038 43.6557 34.5466 38.2513 34.9865 32.8464C35.0386 32.1986 34.9647 31.5653 34.926 30.915C34.9147 30.7277 34.8638 30.5525 34.7734 30.3895C34.49 29.8825 34.2051 29.3767 33.9185 28.8721ZM51.0557 32.0339C50.983 31.2831 51.2857 30.5457 51.9166 30.1412C52.0757 30.0403 52.3711 29.9386 52.803 29.8361C53.2672 29.7263 53.7197 29.5805 54.1605 29.3989C54.177 29.3921 54.1906 29.3798 54.1988 29.3643C54.207 29.3487 54.2093 29.331 54.2053 29.3141C53.8388 27.7335 53.3092 26.2129 52.6166 24.7525C52.0232 23.5041 50.9879 22.585 49.7636 22.0013C49.729 21.9847 49.6903 21.9785 49.6525 21.9835C49.6146 21.9884 49.5792 22.0043 49.5505 22.0291C47.8467 23.4956 45.1475 23.8831 43.4328 22.1781C43.344 22.0901 43.2314 22.0812 43.095 22.1514C42.4637 22.476 42.0241 22.704 41.7762 22.8356C41.7359 22.8574 41.7218 22.8909 41.7339 22.9361C42.705 26.4987 43.0054 30.0141 42.791 33.6929C42.6675 35.8104 42.5626 37.9308 42.4762 40.0539C42.4746 40.0959 42.4947 40.1181 42.5367 40.1205C45.606 40.3086 48.6729 40.2707 51.7374 40.0067C51.7459 40.006 51.7541 40.0035 51.7616 39.9996C51.7691 39.9956 51.7757 39.9902 51.7811 39.9837C51.7865 39.9772 51.7906 39.9697 51.7931 39.9615C51.7955 39.9534 51.7964 39.9449 51.7955 39.9365C51.5558 37.295 51.3092 34.6608 51.0557 32.0339ZM23.8677 36.6391C24.6911 37.597 24.656 38.7534 23.8762 39.7488C23.8503 39.7811 23.8507 39.813 23.8774 39.8445C24.4611 40.5307 24.6128 41.3129 24.3327 42.1912C24.319 42.2332 24.3343 42.2542 24.3787 42.2542L25.873 42.2566C25.9214 42.2566 25.9457 42.2324 25.9457 42.184V22.7787C25.9457 22.7659 25.9406 22.7535 25.9315 22.7445C25.9224 22.7354 25.9101 22.7303 25.8972 22.7303H7.28391C7.26656 22.7303 7.24993 22.7372 7.23767 22.7494C7.2254 22.7617 7.21852 22.7783 7.21852 22.7957V42.2046C7.21852 42.2112 7.21983 42.2179 7.22239 42.224C7.22494 42.2302 7.22869 42.2358 7.23341 42.2405C7.23813 42.2453 7.24374 42.249 7.24991 42.2516C7.25608 42.2541 7.2627 42.2554 7.26937 42.2554H9.07973C9.08656 42.2554 9.09329 42.2537 9.09937 42.2506C9.10545 42.2474 9.1107 42.2429 9.11471 42.2374C9.11872 42.2318 9.12137 42.2254 9.12244 42.2187C9.12352 42.2119 9.12299 42.205 9.1209 42.1985C8.83431 41.3283 8.97962 40.548 9.55684 39.8578C9.58751 39.8214 9.58832 39.7843 9.55926 39.7464C8.76973 38.7155 8.76973 37.6809 9.55926 36.6427C9.58751 36.6056 9.58671 36.5697 9.55684 36.535C8.18969 34.9123 9.34977 32.6842 11.4447 32.6854C14.9306 32.6878 18.4169 32.6898 21.9036 32.6914C22.333 32.6914 22.6616 32.7302 22.8893 32.8077C24.518 33.3611 24.9406 35.2635 23.8665 36.5701C23.8587 36.58 23.8545 36.5922 23.8548 36.6048C23.855 36.6174 23.8596 36.6295 23.8677 36.6391ZM22.9946 34.9837C22.9942 34.7576 22.904 34.5409 22.7438 34.3813C22.5837 34.2217 22.3667 34.1323 22.1406 34.1327L11.2664 34.1516C11.1544 34.1518 11.0436 34.1741 10.9403 34.2171C10.8369 34.2601 10.743 34.3231 10.664 34.4024C10.585 34.4817 10.5224 34.5758 10.4797 34.6793C10.437 34.7828 10.4152 34.8937 10.4154 35.0056L10.4154 35.0323C10.4158 35.2584 10.506 35.475 10.6662 35.6346C10.8263 35.7942 11.0433 35.8837 11.2694 35.8833L22.1436 35.8643C22.2556 35.8641 22.3664 35.8419 22.4697 35.7988C22.5731 35.7558 22.667 35.6929 22.746 35.6136C22.825 35.5343 22.8876 35.4402 22.9303 35.3367C22.973 35.2332 22.9948 35.1223 22.9946 35.0103L22.9946 34.9837ZM22.9958 38.1806C22.9958 37.9548 22.9061 37.7383 22.7465 37.5787C22.5868 37.419 22.3703 37.3293 22.1445 37.3293H11.2848C11.0591 37.3293 10.8425 37.419 10.6829 37.5787C10.5232 37.7383 10.4336 37.9548 10.4336 38.1806V38.2097C10.4336 38.4355 10.5232 38.652 10.6829 38.8116C10.8425 38.9713 11.0591 39.061 11.2848 39.061H22.1445C22.3703 39.061 22.5868 38.9713 22.7465 38.8116C22.9061 38.652 22.9958 38.4355 22.9958 38.2097V38.1806ZM23.0128 41.3691C23.013 41.2584 22.9914 41.1488 22.9492 41.0465C22.907 40.9441 22.8451 40.8511 22.767 40.7727C22.6889 40.6943 22.596 40.6321 22.4939 40.5895C22.3917 40.547 22.2821 40.525 22.1715 40.5248L11.2779 40.5058C11.0543 40.5054 10.8398 40.5938 10.6815 40.7516C10.5232 40.9094 10.434 41.1236 10.4336 41.3471L10.4335 41.3762C10.4333 41.4869 10.455 41.5965 10.4971 41.6988C10.5393 41.8012 10.6012 41.8942 10.6794 41.9726C10.7575 42.051 10.8503 42.1132 10.9525 42.1558C11.0546 42.1983 11.1642 42.2203 11.2749 42.2205L22.1685 42.2395C22.392 42.2399 22.6065 42.1515 22.7648 41.9937C22.9232 41.8359 23.0123 41.6217 23.0127 41.3982L23.0128 41.3691ZM17.2584 53.1514C17.4788 51.8037 18.2901 50.5576 19.8038 50.5528C20.9348 50.5491 21.8236 51.5215 22.13 52.5545C22.2035 52.8031 22.2555 53.2544 22.2862 53.9083C22.3484 55.2557 22.595 56.5723 23.0261 57.8584C23.0382 57.8955 23.064 57.9141 23.1036 57.9141H25.8706C25.8804 57.9141 25.8902 57.9121 25.8993 57.9083C25.9084 57.9044 25.9167 57.8988 25.9237 57.8917C25.9306 57.8846 25.9362 57.8762 25.9399 57.867C25.9437 57.8577 25.9457 57.8478 25.9457 57.8378V43.7885C25.9457 43.7465 25.9243 43.7255 25.8815 43.7255L7.26937 43.7231C7.26286 43.7231 7.2564 43.7244 7.25038 43.7269C7.24435 43.7294 7.23888 43.733 7.23427 43.7376C7.22966 43.7422 7.226 43.7477 7.22351 43.7537C7.22101 43.7598 7.21973 43.7662 7.21973 43.7727L7.21852 57.845C7.21852 57.8911 7.24193 57.9141 7.28875 57.9141H10.0763C10.1167 57.9141 10.1433 57.8947 10.1562 57.8559C10.6019 56.5376 10.8497 55.1874 10.8998 53.8054C10.9458 52.5157 11.372 51.1643 12.6992 50.6872C14.7009 49.9679 16.039 52.1052 15.9809 53.7993C15.9268 55.3315 15.9825 56.6785 16.148 57.8402C16.1552 57.8894 16.1835 57.9141 16.2327 57.9141H16.9472C16.9916 57.9141 17.017 57.8919 17.0235 57.8475C17.1995 56.6769 17.2673 55.5031 17.2269 54.3261C17.2075 53.7868 17.218 53.3952 17.2584 53.1514ZM13.1461 55.428C13.4948 55.1362 14.1451 55.3299 14.2722 55.7889C14.3045 55.9051 14.2993 56.0908 14.2565 56.3459C14.1741 56.8351 14.1285 57.33 14.1196 57.8305C14.1188 57.8822 14.1439 57.908 14.1947 57.908L14.621 57.9104C14.6735 57.9104 14.6961 57.8846 14.6888 57.8329C14.5144 56.6083 14.4555 55.3792 14.512 54.1456C14.5362 53.5971 14.489 53.103 14.2783 52.6598C13.9477 51.9623 13.1424 51.7213 12.6956 52.4745C12.1882 53.3331 12.3359 54.4593 12.2257 55.428C12.1361 56.2054 11.8794 57.0313 11.6905 57.8341C11.6784 57.8834 11.6978 57.908 11.7486 57.908L12.5951 57.9092C12.6057 57.9092 12.6162 57.9071 12.6259 57.9029C12.6357 57.8988 12.6446 57.8927 12.652 57.885C12.6595 57.8774 12.6653 57.8683 12.6693 57.8583C12.6732 57.8483 12.6752 57.8376 12.675 57.8269C12.6665 57.2723 12.692 55.8082 13.1461 55.428ZM18.9004 56.1267C18.7842 55.4752 19.478 55.095 20.006 55.4062C20.4662 55.6775 20.5086 57.15 20.5061 57.8269C20.5053 57.881 20.5324 57.9084 20.5873 57.9092H21.4373C21.4489 57.9092 21.4602 57.9064 21.4705 57.9012C21.4808 57.8959 21.4897 57.8884 21.4965 57.8791C21.5034 57.8698 21.5079 57.859 21.5098 57.8476C21.5118 57.8362 21.511 57.8246 21.5076 57.8136C21.271 57.0458 21.0874 56.2664 20.9566 55.4752C20.8234 54.6651 20.9723 53.6915 20.7047 52.9141C20.5388 52.4309 20.1453 51.8727 19.581 52.0289C18.8629 52.2263 18.6255 53.2859 18.6607 53.9192C18.7333 55.2286 18.6776 56.532 18.4936 57.8293C18.4863 57.8818 18.5089 57.908 18.5614 57.908L18.9876 57.9092C19.0377 57.9092 19.0627 57.8846 19.0627 57.8354C19.0546 57.2565 19.0005 56.687 18.9004 56.1267Z" fill="#597B00"/>
</svg>
