<svg width="64" height="64" viewBox="0 0 64 64" fill="none" xmlns="http://www.w3.org/2000/svg">
<path d="M63 26.6798V27.8278C62.5907 36.7935 57.0059 44.3365 48.5426 47.2827C48.5006 47.2972 48.4788 47.3263 48.4772 47.3699C48.447 48.1013 48.0704 48.3108 47.437 48.4319C46.6366 48.5857 45.8483 49.8329 45.3821 50.4662C44.3782 51.831 43.4543 52.2814 41.7238 52.2814C30.3911 52.2839 19.0587 52.2839 7.72676 52.2814C7.07689 52.2814 6.58 52.2261 6.23609 52.1155C4.62191 51.6009 4.11937 50.3403 3.07918 49.1439C2.71832 48.7298 2.41559 48.5082 1.86098 48.4089C0.911602 48.2405 1.11746 47.537 1 46.8249V45.3791C1.15863 44.77 1.5316 44.5678 2.1625 44.5435C2.75747 44.5201 3.34559 44.5217 3.92684 44.5484C3.93587 44.5487 3.94483 44.5465 3.95273 44.5421C3.96063 44.5377 3.96717 44.5313 3.97166 44.5234C3.97615 44.5155 3.9784 44.5066 3.97819 44.4976C3.97797 44.4885 3.97529 44.4797 3.97043 44.4721C3.58051 43.8921 2.98352 43.0614 2.36715 42.7356C1.85492 42.4644 1.38508 42.6799 1.09566 41.986C0.979414 41.7063 1.05207 41.3394 1 41.0112V39.5666C1.15742 38.9575 1.5316 38.7553 2.1625 38.731C2.75747 38.7076 3.34559 38.7092 3.92684 38.7359C3.93587 38.7362 3.94483 38.734 3.95273 38.7296C3.96063 38.7252 3.96717 38.7188 3.97166 38.7109C3.97615 38.703 3.9784 38.6941 3.97819 38.6851C3.97797 38.676 3.97529 38.6672 3.97043 38.6596C3.58051 38.0796 2.98352 37.2489 2.36715 36.9231C1.82586 36.6361 1.34875 36.871 1.07387 36.1166C0.993945 35.895 1.0557 35.6323 1 35.3804V33.7492C1.15258 33.189 1.48801 32.9089 2.00629 32.9089C8.32092 32.9072 14.6969 32.9072 21.1343 32.9089C21.1633 32.9089 21.1738 32.8951 21.1657 32.8677C19.1241 25.4676 21.1403 17.5312 26.6162 12.071C35.5129 3.19972 49.9485 3.83425 58.0557 13.4806C61.1905 17.2111 62.8385 21.6108 63 26.6798ZM48.4942 45.2459C56.9199 42.0526 62.1063 33.4998 60.8821 24.5219C59.8625 17.0371 54.5331 10.7402 47.253 8.55327C37.023 5.48233 26.1742 11.3626 23.1432 21.5248C22.0267 25.265 22.0384 29.0407 23.1783 32.8519C23.1896 32.8883 23.2138 32.9064 23.251 32.9064L27.218 32.9113C27.2293 32.9112 27.2404 32.9084 27.2503 32.9032C27.2603 32.898 27.2688 32.8904 27.2751 32.8812C27.2814 32.872 27.2854 32.8615 27.2866 32.8504C27.2879 32.8394 27.2863 32.8283 27.2822 32.818C23.2764 22.5311 30.8266 11.5164 41.8619 11.6109C49.4617 11.6775 55.8821 17.3096 57.0131 24.8041C58.0291 31.5332 54.5791 37.9464 48.5293 41.0076C48.5109 41.0166 48.4954 41.0307 48.4847 41.0483C48.4739 41.0659 48.4684 41.0862 48.4688 41.1069C48.4821 42.0672 48.4021 42.4014 47.4479 42.6194C46.6875 42.7937 45.8943 43.8642 45.5177 44.4806C45.4886 44.5282 45.502 44.5512 45.5577 44.5496C46.6354 44.5157 48.0389 44.265 48.407 45.2071C48.4231 45.2491 48.4522 45.262 48.4942 45.2459ZM47.9602 33.0517C48.6928 33.4211 48.4772 34.9009 48.4663 35.6214C48.453 36.492 48.1648 36.6216 47.4031 36.8202C46.6645 37.0115 45.8822 38.0723 45.5165 38.6669C45.489 38.7121 45.5015 38.7343 45.554 38.7335C46.2685 38.7129 47.523 38.5603 48.1261 38.9708C48.1616 38.9958 48.1983 38.9974 48.2362 38.9757C56.2648 34.4298 57.6816 23.6052 50.9596 17.2187C47.615 14.0412 42.6684 12.794 38.1746 14.0122C30.0116 16.2246 25.8557 25.2134 29.4207 32.8774C29.4253 32.8875 29.4327 32.8961 29.4419 32.9021C29.4512 32.9081 29.4619 32.9113 29.4728 32.9113C35.3394 32.904 41.1628 32.9048 46.943 32.9137C47.4427 32.9145 47.7817 32.9605 47.9602 33.0517ZM46.4174 34.8451H3.02832C3.00385 34.8456 2.98055 34.8543 2.96209 34.87C2.94362 34.8856 2.93104 34.9073 2.92632 34.9316C2.9216 34.9559 2.92502 34.9814 2.93603 35.0041C2.94705 35.0268 2.96503 35.0454 2.98715 35.0571C4.26953 35.7061 5.1293 36.8795 5.91156 38.0469C6.25426 38.5579 6.92512 38.7201 7.57539 38.7201C19.005 38.7201 30.4351 38.7201 41.8655 38.7201C42.5836 38.7201 43.2436 38.5615 43.6226 37.9899C44.4012 36.8202 45.1944 35.7316 46.4731 35.0752C46.497 35.0624 46.5159 35.0421 46.527 35.0174C46.538 34.9927 46.5406 34.965 46.5342 34.9387C46.5278 34.9123 46.5129 34.8889 46.4918 34.872C46.4706 34.855 46.4445 34.8456 46.4174 34.8451ZM46.2479 40.6661C46.2317 40.6605 46.2152 40.6576 46.1982 40.6576C31.8002 40.6576 17.4163 40.6576 3.04648 40.6576C3.0208 40.6575 2.99589 40.666 2.97578 40.6819C2.95567 40.6977 2.94153 40.72 2.93565 40.745C2.92977 40.7701 2.93249 40.7965 2.94337 40.82C2.95426 40.8434 2.97267 40.8626 2.99562 40.8744C4.27316 41.5186 5.13293 42.6969 5.91156 43.8594C6.25426 44.3704 6.92512 44.5326 7.57539 44.5326C19.005 44.5326 30.4351 44.5326 41.8655 44.5326C42.5836 44.5326 43.2436 44.374 43.6226 43.8024C44.4036 42.6291 45.2016 41.5332 46.4864 40.8817C46.5136 40.869 46.535 40.8467 46.5467 40.8192C46.5584 40.7916 46.5594 40.7607 46.5497 40.7324C46.5399 40.7041 46.52 40.6804 46.4937 40.6659C46.4675 40.6515 46.4369 40.6472 46.4077 40.654L46.3193 40.671C46.2951 40.6758 46.2713 40.6742 46.2479 40.6661ZM46.2479 46.4786C46.2317 46.473 46.2152 46.4701 46.1982 46.4701C31.8002 46.4701 17.4159 46.4701 3.04527 46.4701C3.01841 46.4699 2.99235 46.4788 2.97139 46.4955C2.95044 46.5121 2.93586 46.5356 2.93006 46.5619C2.92427 46.5881 2.92761 46.6157 2.93953 46.64C2.95146 46.6643 2.97125 46.6838 2.99562 46.6954C4.14602 47.2355 5.04574 48.3725 5.74203 49.4236C6.17797 50.0824 6.68535 50.3439 7.50879 50.3451C18.9602 50.346 30.4121 50.346 41.8643 50.3451C42.5836 50.3451 43.2423 50.1877 43.6226 49.6149C44.4036 48.4416 45.2016 47.3457 46.4864 46.6942C46.5136 46.6815 46.535 46.6592 46.5467 46.6317C46.5584 46.6041 46.5594 46.5732 46.5497 46.5449C46.5399 46.5166 46.52 46.4929 46.4937 46.4784C46.4675 46.464 46.4369 46.4597 46.4077 46.4665L46.3193 46.4835C46.2951 46.4883 46.2713 46.4867 46.2479 46.4786Z" fill="#597B00"/>
<path d="M21.3341 9.71539C21.3341 10.7412 20.9266 11.725 20.2013 12.4503C19.4759 13.1756 18.4922 13.5831 17.4664 13.5831C16.4406 13.5831 15.4568 13.1756 14.7315 12.4503C14.0061 11.725 13.5986 10.7412 13.5986 9.71539C13.5986 8.6896 14.0061 7.70583 14.7315 6.98049C15.4568 6.25515 16.4406 5.84766 17.4664 5.84766C18.4922 5.84766 19.4759 6.25515 20.2013 6.98049C20.9266 7.70583 21.3341 8.6896 21.3341 9.71539ZM19.3966 9.7166C19.3966 9.20499 19.1934 8.71434 18.8316 8.35258C18.4698 7.99081 17.9792 7.78758 17.4676 7.78758C16.956 7.78758 16.4653 7.99081 16.1036 8.35258C15.7418 8.71434 15.5386 9.20499 15.5386 9.7166C15.5386 9.96992 15.5885 10.2208 15.6854 10.4548C15.7823 10.6888 15.9244 10.9015 16.1036 11.0806C16.2827 11.2598 16.4953 11.4018 16.7294 11.4988C16.9634 11.5957 17.2143 11.6456 17.4676 11.6456C17.7209 11.6456 17.9717 11.5957 18.2058 11.4988C18.4398 11.4018 18.6525 11.2598 18.8316 11.0806C19.0107 10.9015 19.1528 10.6888 19.2498 10.4548C19.3467 10.2208 19.3966 9.96992 19.3966 9.7166Z" fill="#597B00"/>
<path d="M5.77883 13.5924L3.96727 13.5956C3.93249 13.5957 3.90435 13.6239 3.90441 13.6587L3.90757 15.4702C3.90763 15.505 3.93587 15.5332 3.97065 15.5331L5.78221 15.5299C5.81698 15.5299 5.84513 15.5016 5.84507 15.4668L5.8419 13.6553C5.84184 13.6205 5.8136 13.5924 5.77883 13.5924Z" fill="#597B00"/>
<path d="M39.1388 26.1202C38.1442 26.4084 37.1504 26.6978 36.1574 26.9885C35.3522 27.2246 34.7515 26.4738 34.9743 25.7049C35.2375 24.7934 35.5132 23.8509 35.8014 22.8773C35.8251 22.7975 35.8251 22.7125 35.8014 22.6327C35.5245 21.6938 35.246 20.7396 34.9659 19.7701C34.6874 18.8074 35.5205 18.3339 36.3609 18.5749C37.2618 18.8332 38.1551 19.0944 39.0407 19.3583C39.1333 19.3852 39.2315 19.3857 39.324 19.3595C40.1418 19.1262 40.9653 18.8849 41.7944 18.6354C42.2093 18.5103 42.527 18.4731 42.7474 18.524C43.5115 18.6972 43.5163 19.4189 43.3226 20.074C43.065 20.9475 42.8099 21.8218 42.5572 22.6969C42.5459 22.7356 42.5459 22.7744 42.5572 22.8131C42.8099 23.6777 43.0626 24.5416 43.3153 25.4045C43.6677 26.6106 43.1276 27.2561 41.8718 26.8879C41 26.6328 40.1277 26.3769 39.255 26.1202C39.2163 26.1089 39.1775 26.1089 39.1388 26.1202ZM37.8443 22.7381C37.8469 22.7467 37.8469 22.756 37.8443 22.7647L37.3236 24.5629C37.3212 24.571 37.321 24.5795 37.3231 24.5876C37.3252 24.5957 37.3295 24.6031 37.3355 24.6089C37.3415 24.6148 37.3489 24.6189 37.3571 24.6208C37.3652 24.6227 37.3737 24.6224 37.3817 24.6199L39.1702 24.0907C39.1789 24.0881 39.1882 24.0881 39.1969 24.0907L40.9939 24.6102C41.0018 24.6124 41.0102 24.6125 41.0181 24.6105C41.0261 24.6084 41.0333 24.6043 41.0391 24.5985C41.0449 24.5927 41.0491 24.5854 41.0512 24.5775C41.0532 24.5695 41.0531 24.5612 41.0508 24.5533L40.5277 22.7599C40.5251 22.7512 40.5251 22.7419 40.5277 22.7332L41.0508 20.9471C41.0534 20.9391 41.0537 20.9306 41.0518 20.9225C41.0498 20.9143 41.0457 20.9069 41.0399 20.9009C41.034 20.8949 41.0267 20.8906 41.0186 20.8885C41.0105 20.8864 41.0019 20.8866 40.9939 20.889L39.2054 21.4121C39.1967 21.4147 39.1874 21.4147 39.1787 21.4121L37.3817 20.8841C37.3738 20.8819 37.3654 20.8817 37.3575 20.8838C37.3495 20.8859 37.3423 20.89 37.3365 20.8958C37.3307 20.9016 37.3265 20.9089 37.3245 20.9168C37.3224 20.9248 37.3225 20.9331 37.3248 20.941L37.8443 22.7381Z" fill="#597B00"/>
<path d="M16.3936 24.0095C16.729 24.6234 16.2725 25.1005 15.7288 25.4021C14.9118 25.8541 14.0912 26.3046 13.267 26.7535C13.2314 26.7728 13.204 26.8003 13.1846 26.8358C12.7471 27.6358 12.3095 28.4347 11.872 29.2323C11.321 30.2361 10.4661 30.4153 9.86543 29.3085C9.41416 28.4778 8.95844 27.6496 8.49829 26.8237C8.47853 26.7889 8.44958 26.7603 8.41473 26.7414C7.57676 26.2844 6.74323 25.8283 5.91415 25.373C4.81461 24.7687 5.05317 23.9005 6.02676 23.3762C6.8284 22.9451 7.62681 22.5087 8.422 22.0671C8.45752 22.047 8.48497 22.0191 8.50434 21.9836C8.98306 21.1149 9.45937 20.2463 9.93325 19.3776C10.4527 18.4246 11.3537 18.6499 11.8211 19.4939C12.2667 20.2996 12.7144 21.1145 13.164 21.9388C13.2036 22.0092 13.2623 22.0671 13.3336 22.1059C14.0843 22.5047 14.8375 22.9172 15.5932 23.3435C16.0146 23.5824 16.2814 23.8044 16.3936 24.0095ZM13.4062 24.3461L11.964 23.5578C11.8478 23.4946 11.7523 23.3986 11.6891 23.2817L10.8959 21.825C10.8914 21.8163 10.8847 21.8091 10.8763 21.804C10.868 21.799 10.8584 21.7963 10.8487 21.7963C10.839 21.7963 10.8294 21.799 10.8211 21.804C10.8128 21.8091 10.806 21.8163 10.8015 21.825L10.0253 23.2381C9.94146 23.3907 9.8158 23.5159 9.66321 23.599L8.26215 24.3643C8.25409 24.3688 8.24737 24.3754 8.2427 24.3834C8.23803 24.3914 8.23556 24.4004 8.23556 24.4097C8.23556 24.4189 8.23803 24.428 8.2427 24.436C8.24737 24.444 8.25409 24.4506 8.26215 24.4551L9.71649 25.2507C9.83907 25.3179 9.9399 25.4187 10.0071 25.5413L10.8063 27.0102C10.8108 27.0182 10.8173 27.0249 10.8253 27.0295C10.8333 27.0341 10.8423 27.0365 10.8515 27.0364C10.8607 27.0363 10.8697 27.0336 10.8775 27.0288C10.8853 27.024 10.8917 27.0171 10.8959 27.009C11.1236 26.5621 11.5983 25.4638 12.0257 25.2228C12.4932 24.9589 12.9525 24.7118 13.4038 24.4817C13.4162 24.4752 13.4266 24.4655 13.434 24.4535C13.4414 24.4416 13.4454 24.4279 13.4457 24.414C13.4459 24.4001 13.4424 24.3864 13.4354 24.3745C13.4285 24.3625 13.4184 24.3527 13.4062 24.3461Z" fill="#597B00"/>
<path d="M50.3413 28.1237L48.5298 28.1268C48.495 28.1269 48.4668 28.1551 48.4669 28.1899L48.4701 30.0015C48.4701 30.0363 48.4984 30.0644 48.5331 30.0643L50.3447 30.0612C50.3795 30.0611 50.4076 30.0329 50.4076 29.9981L50.4044 28.1865C50.4043 28.1518 50.3761 28.1236 50.3413 28.1237Z" fill="#597B00"/>
<path d="M49.873 53.0574C49.5715 52.5379 49.8694 52.0075 50.3695 51.7266C51.2308 51.2446 52.0987 50.7679 52.973 50.2965C53.0093 50.2771 53.0372 50.2497 53.0565 50.2141C53.4804 49.4512 53.9006 48.6875 54.3171 47.923C54.552 47.4911 54.7648 47.2179 54.9553 47.1032C55.4905 46.7787 56.0209 47.0802 56.3115 47.5949C56.7733 48.4102 57.2363 49.2526 57.7005 50.1221C57.7455 50.2066 57.8146 50.2761 57.8991 50.3219C58.6725 50.7393 59.4563 51.1688 60.2507 51.6103C60.5906 51.7992 60.811 51.9684 60.9119 52.1177C61.2388 52.6069 60.9785 53.2524 60.4626 53.5357C59.5883 54.0169 58.7112 54.4936 57.8313 54.9658C57.7957 54.9852 57.7683 55.0123 57.7489 55.047C57.3146 55.8462 56.8787 56.6434 56.4411 57.4386C55.8877 58.4437 55.0328 58.6459 54.4261 57.5282C53.974 56.6951 53.5175 55.8652 53.0565 55.0385C53.0368 55.0037 53.0078 54.9752 52.973 54.9562C52.1988 54.5396 51.4307 54.119 50.6686 53.6944C50.2472 53.4594 49.982 53.2471 49.873 53.0574ZM52.8773 52.7135C53.174 52.7559 54.0047 53.3226 54.2881 53.5067C54.7095 53.7803 55.1139 54.76 55.3634 55.2201C55.368 55.2285 55.3747 55.2354 55.3829 55.2402C55.3911 55.2451 55.4005 55.2476 55.41 55.2476C55.4195 55.2476 55.4289 55.2451 55.4371 55.2402C55.4453 55.2354 55.452 55.2285 55.4566 55.2201L56.2292 53.7949C56.3098 53.647 56.4313 53.5255 56.5792 53.4449L57.9657 52.6917C57.9773 52.6855 57.9871 52.6763 57.9939 52.665C58.0007 52.6537 58.0043 52.6407 58.0043 52.6275C58.0043 52.6143 58.0007 52.6014 57.9939 52.5901C57.9871 52.5788 57.9773 52.5695 57.9657 52.5633L56.5646 51.7968C56.4193 51.7178 56.3002 51.5979 56.2219 51.4517L55.4481 50.0204C55.4446 50.0138 55.4394 50.0083 55.433 50.0045C55.4266 50.0006 55.4193 49.9986 55.4118 49.9986C55.4043 49.9986 55.397 50.0006 55.3906 50.0045C55.3842 50.0083 55.379 50.0138 55.3755 50.0204C55.147 50.4361 54.9173 50.8559 54.6865 51.2798C54.3462 51.907 53.4465 52.2437 52.8361 52.5742C52.7837 52.6033 52.7776 52.64 52.818 52.6844C52.8317 52.6998 52.8515 52.7095 52.8773 52.7135Z" fill="#597B00"/>
<path d="M11.5913 55.2487L9.77977 55.2518C9.74499 55.2519 9.71685 55.2801 9.71691 55.3149L9.72007 57.1265C9.72013 57.1613 9.74837 57.1894 9.78315 57.1893L11.5947 57.1862C11.6295 57.1861 11.6576 57.1579 11.6576 57.1231L11.6544 55.3115C11.6543 55.2768 11.6261 55.2486 11.5913 55.2487Z" fill="#597B00"/>
</svg>
