<svg width="64" height="64" viewBox="0 0 64 64" fill="none" xmlns="http://www.w3.org/2000/svg">
<path d="M48.834 1H49.2941C49.8609 1.18527 50.0788 1.56793 50.0982 2.17703C50.1555 3.89091 50.5499 5.50428 51.2813 7.01715C52.6654 9.87738 54.9904 11.2009 58.1691 11.3341C58.5251 11.3487 58.7871 11.4084 58.955 11.5134C59.5363 11.8742 59.5459 12.8684 58.9405 13.2329C58.4912 13.5041 57.5297 13.4145 57.0938 13.4739C52.4486 14.1084 50.2883 18.1069 50.1031 22.413C50.0861 22.8021 50.0389 23.0726 49.9614 23.2243C49.6441 23.8419 48.6863 23.9146 48.2636 23.3781C47.9912 23.0318 48.0142 22.585 47.9875 22.1321C47.8987 20.5772 47.5161 19.1059 46.8396 17.7182C45.4591 14.887 43.1462 13.5175 39.9869 13.4C39.6155 13.3863 39.3467 13.3302 39.1804 13.2317C38.5882 12.8829 38.564 11.8742 39.1683 11.5049C39.3273 11.4072 39.5836 11.3495 39.9372 11.3317C40.418 11.3075 40.9278 11.2857 41.3831 11.2034C45.8333 10.3993 47.8398 6.44316 48.0166 2.26906C48.0457 1.60062 48.1922 1.19859 48.834 1ZM49.098 7.26902C49.0713 7.20444 49.0451 7.20444 49.0193 7.26902C48.1199 9.48504 46.6252 11.1711 44.5352 12.3271C44.4883 12.3529 44.4883 12.3788 44.5352 12.4046C46.6301 13.5639 48.1268 15.2548 49.0253 17.4772C49.0471 17.5329 49.0693 17.5329 49.0919 17.4772C49.9888 15.2539 51.4855 13.5635 53.5821 12.4058C53.6289 12.38 53.6289 12.3542 53.5821 12.3283C51.4912 11.1723 49.9965 9.48585 49.098 7.26902Z" fill="#597B00"/>
<path d="M49.3129 63.0006H7.43621C5.55361 62.6551 4.6123 61.535 4.6123 59.6403C4.61715 42.8179 4.61755 25.9952 4.61352 9.17203C4.61271 8.27917 4.67285 7.64141 4.79395 7.25875C5.26016 5.78141 6.50984 5.13598 8.01262 5.13598C19.8701 5.13436 31.7272 5.13436 43.5839 5.13598C43.9294 5.13598 44.189 5.18643 44.3625 5.28734C45.2598 5.81168 44.853 7.20305 43.837 7.20305C31.818 7.20305 19.7995 7.20264 7.78133 7.20184C6.9809 7.20184 6.68664 7.72859 6.68664 8.47816C6.68583 25.4959 6.68583 42.5136 6.68664 59.5313C6.68664 59.9592 6.7375 60.2647 6.83922 60.448C7.01924 60.7741 7.32319 60.9372 7.75105 60.9372C21.5154 60.9372 35.2797 60.9372 49.044 60.9372C49.4485 60.9372 49.7411 60.779 49.922 60.4625C50.0277 60.2792 50.0806 59.9834 50.0806 59.5749C50.0814 48.783 50.0814 37.9915 50.0806 27.2005C50.0806 26.8243 50.1201 26.5502 50.1993 26.3782C50.6582 25.3829 52.1525 25.7679 52.1525 26.8541C52.1501 37.4741 52.1509 48.0936 52.1549 58.7127C52.1549 59.7807 52.0911 60.5138 51.9636 60.9118C51.5922 62.0654 50.7087 62.7617 49.3129 63.0006Z" fill="#597B00"/>
<path d="M45.9488 32.9734C45.9577 31.0722 45.9577 29.1706 45.9488 27.2686C45.9472 26.8634 45.9843 26.5723 46.0602 26.3955C46.5082 25.3578 48.0159 25.7562 48.0159 26.915C48.0159 37.0901 48.0159 47.2652 48.0159 57.4403C48.0159 58.2129 47.8233 58.8668 46.9551 58.8668C34.593 58.866 22.2314 58.866 9.87012 58.8668C8.9716 58.8668 8.75 58.282 8.75 57.4634C8.75 41.7607 8.75 26.0581 8.75 10.3555C8.75 9.90339 8.91872 9.58854 9.25617 9.41094C9.43862 9.31406 9.75508 9.26562 10.2055 9.26562C18.8654 9.26724 27.5252 9.26724 36.185 9.26562C36.6008 9.26562 36.8942 9.29993 37.0653 9.36855C38.0934 9.78027 37.7459 11.3351 36.633 11.3339C34.2459 11.3299 31.8595 11.3295 29.474 11.3327C29.4377 11.3335 29.4195 11.3521 29.4195 11.3884V32.9818C29.4195 33.0141 29.436 33.0303 29.4691 33.0303L45.8895 33.0315C45.9282 33.0315 45.948 33.0121 45.9488 32.9734ZM27.3488 11.4066C27.3488 11.3867 27.3409 11.3676 27.3268 11.3535C27.3127 11.3394 27.2936 11.3315 27.2737 11.3315H10.8897C10.8698 11.3315 10.8507 11.3394 10.8366 11.3535C10.8226 11.3676 10.8146 11.3867 10.8146 11.4066V32.9564C10.8146 32.9763 10.8226 32.9954 10.8366 33.0095C10.8507 33.0236 10.8698 33.0315 10.8897 33.0315H27.2737C27.2936 33.0315 27.3127 33.0236 27.3268 33.0095C27.3409 32.9954 27.3488 32.9763 27.3488 32.9564V11.4066ZM27.3488 35.1627C27.3488 35.1457 27.342 35.1294 27.33 35.1174C27.318 35.1053 27.3016 35.0986 27.2846 35.0986H10.8788C10.8618 35.0986 10.8455 35.1053 10.8334 35.1174C10.8214 35.1294 10.8146 35.1457 10.8146 35.1627V56.7344C10.8146 56.7514 10.8214 56.7677 10.8334 56.7798C10.8455 56.7918 10.8618 56.7986 10.8788 56.7986H27.2846C27.3016 56.7986 27.318 56.7918 27.33 56.7798C27.342 56.7677 27.3488 56.7514 27.3488 56.7344V35.1627ZM45.9524 35.1313C45.9524 35.127 45.9516 35.1227 45.9499 35.1187C45.9483 35.1148 45.9459 35.1112 45.9428 35.1081C45.9398 35.1051 45.9362 35.1027 45.9322 35.101C45.9283 35.0994 45.924 35.0986 45.9197 35.0986H29.451C29.4467 35.0986 29.4424 35.0994 29.4385 35.101C29.4345 35.1027 29.4309 35.1051 29.4279 35.1081C29.4248 35.1112 29.4224 35.1148 29.4208 35.1187C29.4191 35.1227 29.4183 35.127 29.4183 35.1313V56.7659C29.4183 56.7745 29.4217 56.7828 29.4279 56.789C29.434 56.7951 29.4423 56.7986 29.451 56.7986H45.9197C45.9284 56.7986 45.9367 56.7951 45.9428 56.789C45.949 56.7828 45.9524 56.7745 45.9524 56.7659V35.1313Z" fill="#597B00"/>
<path d="M16.2889 13.7069L13.1735 16.8114C12.7789 17.2047 12.7778 17.8433 13.171 18.2379L13.2035 18.2705C13.5967 18.6652 14.2354 18.6663 14.63 18.273L17.7454 15.1685C18.14 14.7753 18.1411 14.1366 17.7479 13.742L17.7154 13.7094C17.3222 13.3148 16.6835 13.3137 16.2889 13.7069Z" fill="#597B00"/>
<path d="M21.4473 13.7099L13.1809 21.9763C12.7828 22.3745 12.7828 23.0201 13.1809 23.4182L13.1981 23.4354C13.5962 23.8335 14.2418 23.8335 14.64 23.4354L22.9064 15.169C23.3045 14.7708 23.3045 14.1252 22.9064 13.7271L22.8892 13.7099C22.4911 13.3118 21.8455 13.3118 21.4473 13.7099Z" fill="#597B00"/>
<path d="M43.7022 24.7628C40.2801 24.9166 38.8524 27.8156 38.7119 30.8587C38.6974 31.1622 38.6437 31.3883 38.5509 31.5368C38.1864 32.1156 37.2564 32.1544 36.8653 31.6083C36.7498 31.4476 36.678 31.1901 36.6497 30.8357C36.4136 27.9161 35.2281 24.9505 31.8035 24.7774C31.4128 24.758 31.1472 24.7132 31.0067 24.6429C30.2305 24.2554 30.2862 23.122 31.0842 22.7842C31.1997 22.7349 31.389 22.7063 31.6522 22.6982C34.9738 22.6001 36.4778 19.7532 36.6376 16.79C36.6594 16.3807 36.7167 16.0961 36.8096 15.9363C37.1462 15.3514 38.1343 15.3115 38.517 15.8782C38.6243 16.0364 38.6918 16.3024 38.7192 16.6762C38.9347 19.6224 40.2559 22.6243 43.6913 22.6994C44.0078 22.7067 44.2387 22.7482 44.384 22.8241C45.0585 23.1801 45.0863 24.2397 44.43 24.6127C44.2814 24.6974 44.0389 24.7475 43.7022 24.7628ZM37.6984 26.5102C38.2385 25.3945 39.0187 24.4847 40.0391 23.7808C40.0851 23.7485 40.0851 23.7166 40.0391 23.6851C39.0357 22.9949 38.2647 22.104 37.7262 21.0126C37.698 20.9544 37.6697 20.954 37.6415 21.0113C37.099 22.1036 36.3264 22.9965 35.3237 23.6899C35.2818 23.719 35.2818 23.7481 35.3237 23.7771C36.3441 24.4843 37.126 25.3953 37.6693 26.5102C37.6705 26.5131 37.6725 26.5155 37.6751 26.5173C37.6777 26.519 37.6807 26.5199 37.6838 26.5199C37.687 26.5199 37.69 26.519 37.6926 26.5173C37.6952 26.5155 37.6972 26.5131 37.6984 26.5102Z" fill="#597B00"/>
<path d="M34.8845 37.472L31.7728 40.5836C31.3789 40.9775 31.3789 41.6162 31.7728 42.0101L31.8054 42.0427C32.1993 42.4366 32.838 42.4366 33.2319 42.0427L36.3436 38.931C36.7375 38.5371 36.7375 37.8984 36.3436 37.5045L36.311 37.472C35.9171 37.078 35.2784 37.078 34.8845 37.472Z" fill="#597B00"/>
<path d="M40.0435 37.477L31.7823 45.7383C31.3831 46.1374 31.3831 46.7845 31.7823 47.1836L31.7994 47.2007C32.1985 47.5999 32.8456 47.5999 33.2448 47.2007L41.506 38.9395C41.9051 38.5404 41.9051 37.8933 41.506 37.4942L41.4888 37.477C41.0897 37.0779 40.4426 37.0779 40.0435 37.477Z" fill="#597B00"/>
</svg>
